<svg width="945" height="172" viewBox="0 0 945 172" fill="none" xmlns="http://www.w3.org/2000/svg">
<path d="M59.2562 67.5213C60.6516 51.116 48.597 40.3459 42.3953 37.0115C36.2459 32.21 32.0809 40.3459 30.7672 45.0141C19.139 64.5203 7.51074 43.0134 2.27805 32.5101C-1.9081 24.1074 5.1851 8.00224 9.25496 1H940.092L940.673 1.50016C942.534 5.50144 943.387 10.1696 943.58 12.0035C947.301 48.015 925.363 45.3475 913.928 39.5123C908.308 39.0122 896.719 39.9124 895.323 47.5149C893.579 57.0179 890.672 59.0186 882.532 58.5184C876.021 58.1183 872.455 59.6854 871.486 60.519C868.772 61.5194 862.183 66.3209 857.532 77.5245C851.718 91.529 830.206 90.0285 823.81 85.527C818.694 81.9259 814.701 84.0266 813.345 85.527C805.205 91.529 800.554 89.5283 799.972 90.0285C780.204 90.0285 777.879 104.033 770.902 123.039C763.925 142.045 725.552 140.545 711.598 134.043C697.644 127.54 687.76 126.54 680.202 127.54C674.155 128.341 666.829 126.207 663.922 125.04C655.085 120.238 648.224 124.039 645.899 126.54C626.712 140.545 606.363 129.041 604.037 125.04C602.177 121.839 594.734 117.704 591.246 116.037C585.626 112.536 572.292 111.535 563.92 135.543C555.547 159.551 527.872 153.215 515.081 147.047C515.081 146.38 511.012 143.546 494.732 137.544C474.383 130.041 465.08 138.044 462.755 140.545C460.894 142.545 453.452 149.047 449.964 152.048C422.637 171.054 411.59 154.549 402.288 133.042C392.985 111.535 371.473 125.04 344.728 135.543C317.984 146.046 305.193 143.045 292.983 115.537C283.215 93.5296 276.51 115.036 274.378 128.541C275.734 128.874 271.936 135.543 245.889 159.551C213.33 189.56 190.655 151.548 192.399 147.547C193.794 144.346 190.655 141.212 188.911 140.044C188.717 141.712 184.608 139.944 169.724 119.538C151.119 94.0298 131.932 96.0304 119.723 91.0288C107.513 86.0272 105.769 94.0298 102.281 96.0304C98.7921 98.031 90.0709 106.534 83.6754 103.533C77.2799 100.532 57.512 88.0278 59.2562 67.5213Z" fill="url(#paint0_linear_171_9)" stroke="#D32B0E"/>
<defs>
<linearGradient id="paint0_linear_171_9" x1="472.5" y1="1" x2="472.5" y2="171" gradientUnits="userSpaceOnUse">
<stop stop-color="#D32B0E"/>
<stop offset="1" stop-color="#881602"/>
</linearGradient>
</defs>
</svg>
