<svg width="1440" height="136" viewBox="0 0 1440 136" fill="none" xmlns="http://www.w3.org/2000/svg">
<rect y="5" width="1440" height="130" fill="#301318"/>
<path d="M532 9.99997C530.8 9.59997 527.5 7 526 5.5H832.5C814.5 9.9 823 11.1666 829.5 11.5C856 12.1666 923.9 14.4 983.5 18C1058 22.5 907 26.5 831 26.5C770.2 26.5 796.667 29.5 817.5 31C873.667 32.8333 995.2 37.6 1032 42C1078 47.5 965 57 939 60.5L938.778 60.5298C912.538 64.062 831.282 75 931 75C1011 75 1119.33 77 1163.5 78C1169.17 78.8333 1173.5 82.9 1145.5 92.5C1117.5 102.1 1123.17 107.167 1129.5 108.5C1206 114 1245 119.5 1283 124C1313.4 127.6 1285.33 132.833 1267.5 135H209C218.5 133.333 239.6 129.4 248 127C258.5 124 253.5 123 249 122C245.4 121.2 244.167 120.333 244 120C219.5 102 239 108 256 103C273 98 412.5 98.5 460 96C498 94 479.167 90.8333 465 89.5C442.834 89.1666 389.9 86.4 355.5 78C312.5 67.5 325.5 64.5 346.5 60C367.5 55.5 510.5 49 539.5 48.5C568.5 48 547 45.5 537.5 45.5C528 45.5 401.5 40 380.5 35.5C359.5 31 392 26 396 25.5C399.2 25.1 406 24 409 23.5C417 20.7 412.334 20.6666 409 21C401.167 21.6666 374.5 21.6 330.5 16C275.5 8.99997 519 12 525.5 12C532 12 533.5 10.5 532 9.99997Z" fill="#6E0109" stroke="#6E0109"/>
<path d="M545.5 9.49997C538.7 7.49997 535.667 6.16667 535 5.5H821C802 10.5 798.5 12.5 813.5 15C825.5 17 895.833 18.8333 929.5 19.5C955.833 20.1666 995.9 21.5 945.5 21.5C895.1 21.5 821.167 22.8333 790.5 23.5C706 33 942.5 42.5 973 43.5C1003.5 44.5 1007.5 46.5 959 50.5C920.2 53.7 846.5 60.5 814.5 63.5C747.7 71.1 767 76.3333 785 78C913.5 83.5 1084.5 85.5 1103.5 85.5C1122.5 85.5 1128 84.5 1113 89.5C1101 93.5 1073 101.5 1060.5 105C1045.7 109.8 1048.33 112 1051.5 112.5C1090.83 117 1178.5 126.2 1214.5 127C1250.5 127.8 1229.5 132.667 1214.5 135H284C298.167 131.667 317.1 124 279.5 120C241.9 116 266.166 111.667 283 110C355.5 104 415 104.5 441.5 104.5C462.7 104.5 481.333 103.167 488 102.5C538 94.5 502.166 85.8333 478 82.5C464.166 81.8333 430.8 79.6 408 76C379.5 71.5 384 67.5 395.5 65C404.7 63 454.333 60.5 478 59.5C496.666 59.1666 542.2 57.7 575 54.5C607.8 51.3 598.333 47.5 589.5 46C538.5 39 485 38 436.5 34C388 30 433.5 22 439 21C444.5 20 456 18 439 18C425.4 18 401.333 17.3333 391 17C368.5 16 335.6 14 384 14C444.5 14 521 14.5 538.5 15.5C556 16.5 554 12 545.5 9.49997Z" fill="#D32B0E" stroke="#D32B0E"/>
<path d="M611 5C611 7.76142 608.761 10 606 10C603.239 10 601 7.76142 601 5C601 2.23858 603.239 0 606 0C608.761 0 611 2.23858 611 5Z" fill="#FE5C16"/>
<path d="M657 16C657 18.2091 655.209 20 653 20C650.791 20 649 18.2091 649 16C649 13.7909 650.791 12 653 12C655.209 12 657 13.7909 657 16Z" fill="#FE5C16"/>
<path d="M622 46.5C622 48.433 620.433 50 618.5 50C616.567 50 615 48.433 615 46.5C615 44.567 616.567 43 618.5 43C620.433 43 622 44.567 622 46.5Z" fill="#FE5C16"/>
<path d="M721 19.5C721 22.5376 718.538 25 715.5 25C712.462 25 710 22.5376 710 19.5C710 16.4624 712.462 14 715.5 14C718.538 14 721 16.4624 721 19.5Z" fill="#FE5C16"/>
<path d="M716 93C716 96.3137 713.314 99 710 99C706.686 99 704 96.3137 704 93C704 89.6863 706.686 87 710 87C713.314 87 716 89.6863 716 93Z" fill="#FE5C16"/>
<path d="M733 107C733 109.209 731.209 111 729 111C726.791 111 725 109.209 725 107C725 104.791 726.791 103 729 103C731.209 103 733 104.791 733 107Z" fill="#FE5C16"/>
<path d="M552 95.5C552 97.433 550.433 99 548.5 99C546.567 99 545 97.433 545 95.5C545 93.567 546.567 92 548.5 92C550.433 92 552 93.567 552 95.5Z" fill="#FE5C16"/>
<path d="M894 84.5C894 86.433 892.433 88 890.5 88C888.567 88 887 86.433 887 84.5C887 82.567 888.567 81 890.5 81C892.433 81 894 82.567 894 84.5Z" fill="#FE5C16"/>
<path d="M1023 120.5C1023 122.985 1020.99 125 1018.5 125C1016.01 125 1014 122.985 1014 120.5C1014 118.015 1016.01 116 1018.5 116C1020.99 116 1023 118.015 1023 120.5Z" fill="#FE5C16"/>
<path d="M1078 89.5C1078 91.9853 1075.99 94 1073.5 94C1071.01 94 1069 91.9853 1069 89.5C1069 87.0147 1071.01 85 1073.5 85C1075.99 85 1078 87.0147 1078 89.5Z" fill="#FE5C16"/>
<path d="M366 115.5C366 117.985 363.985 120 361.5 120C359.015 120 357 117.985 357 115.5C357 113.015 359.015 111 361.5 111C363.985 111 366 113.015 366 115.5Z" fill="#FE5C16"/>
<path d="M432 71C432 73.2091 430.209 75 428 75C425.791 75 424 73.2091 424 71C424 68.7909 425.791 67 428 67C430.209 67 432 68.7909 432 71Z" fill="#FE5C16"/>
<path d="M467 28C467 29.6569 465.657 31 464 31C462.343 31 461 29.6569 461 28C461 26.3431 462.343 25 464 25C465.657 25 467 26.3431 467 28Z" fill="#FE5C16"/>
<path d="M544 70C544 70.5523 533.255 71 520 71C506.745 71 496 70.5523 496 70C496 69.4477 506.745 69 520 69C533.255 69 544 69.4477 544 70Z" fill="#922005"/>
<path d="M663 91.5C663 92.8807 652.255 94 639 94C625.745 94 615 92.8807 615 91.5C615 90.1193 625.745 89 639 89C652.255 89 663 90.1193 663 91.5Z" fill="#922005"/>
<path d="M689 48.5C689 49.3284 680.941 50 671 50C661.059 50 653 49.3284 653 48.5C653 47.6716 661.059 47 671 47C680.941 47 689 47.6716 689 48.5Z" fill="#922005"/>
<path d="M673 35C673 35.5523 665.837 36 657 36C648.163 36 641 35.5523 641 35C641 34.4477 648.163 34 657 34C665.837 34 673 34.4477 673 35Z" fill="#922005"/>
<path d="M821 116C821 117.105 811.598 118 800 118C788.402 118 779 117.105 779 116C779 114.895 788.402 114 800 114C811.598 114 821 114.895 821 116Z" fill="#922005"/>
<path d="M899 100C899 101.657 888.255 103 875 103C861.745 103 851 101.657 851 100C851 98.3431 861.745 97 875 97C888.255 97 899 98.3431 899 100Z" fill="#922005"/>
<path d="M1046 98C1046 100.209 1029.43 102 1009 102C988.565 102 972 100.209 972 98C972 95.7909 988.565 94 1009 94C1029.43 94 1046 95.7909 1046 98Z" fill="#922005"/>
</svg>
