<svg width="1440" height="717" viewBox="0 0 1440 717" fill="none" xmlns="http://www.w3.org/2000/svg">
<path d="M179 100H0V715H531C490 689.5 450.5 694.5 422 692.5C393.5 690.5 385.5 689 362.5 678C339.5 667 332.5 671.5 313.5 674.5C298.3 676.9 284.5 677.833 279.5 678C239.5 679.5 221 655.5 219.5 649.5C218 643.5 212 621.5 184 616C161.6 611.6 141 596.5 133.5 589.5C106.5 564 81.5 496 67 452.5C52.5 409 99 346.5 127 318C149.4 295.2 142.333 266.167 136 254.5C116 221.3 156.333 204.333 179 200V100Z" fill="#2A7151"/>
<path d="M1154 74.5H1440V715.5H842.5C855.5 704 931 673.5 965.5 682C1000 690.5 1001.5 694 1047.5 662.5C1084.3 637.3 1121.83 631.333 1136 631.5C1151.5 636.833 1198.8 633.5 1264 577.5C1345.5 507.5 1350.5 455.5 1361 432.5C1371.5 409.5 1346 347.5 1337 331C1328 314.5 1336.5 289.5 1340 256C1343.5 222.5 1288 197 1252.5 200C1217 203 1208 184 1189 161C1173.8 142.6 1159.33 143.667 1154 146.5V74.5Z" fill="#2A7151"/>
<path d="M179 100H0V715H531C490 689.5 450.5 694.5 422 692.5C393.5 690.5 385.5 689 362.5 678C339.5 667 332.5 671.5 313.5 674.5C298.3 676.9 284.5 677.833 279.5 678C239.5 679.5 221 655.5 219.5 649.5C218 643.5 212 621.5 184 616C161.6 611.6 141 596.5 133.5 589.5C106.5 564 81.5 496 67 452.5C52.5 409 99 346.5 127 318C149.4 295.2 142.333 266.167 136 254.5C116 221.3 156.333 204.333 179 200V100Z" stroke="#2A7151"/>
<path d="M1154 74.5H1440V715.5H842.5C855.5 704 931 673.5 965.5 682C1000 690.5 1001.5 694 1047.5 662.5C1084.3 637.3 1121.83 631.333 1136 631.5C1151.5 636.833 1198.8 633.5 1264 577.5C1345.5 507.5 1350.5 455.5 1361 432.5C1371.5 409.5 1346 347.5 1337 331C1328 314.5 1336.5 289.5 1340 256C1343.5 222.5 1288 197 1252.5 200C1217 203 1208 184 1189 161C1173.8 142.6 1159.33 143.667 1154 146.5V74.5Z" stroke="#2A7151"/>
<path d="M1221.5 88.5L1190 0H1440V716C1440 715.6 1205 715.833 1087.5 716C1091.5 710.5 1158.5 664.5 1195.5 669.5C1225.1 673.5 1249.17 640.167 1257.5 623C1299.9 572.2 1324.17 599.167 1331 619C1342 634.833 1359.7 652.5 1342.5 596.5C1321 526.5 1381.5 454.5 1412.5 429C1443.5 403.5 1414 382 1388 372C1362 362 1357.5 338.5 1384 317.5C1405.2 300.7 1390.5 265.833 1380.5 250.5C1327 161.5 1294 176 1251 163.5C1216.6 153.5 1217 109.333 1221.5 88.5Z" fill="#0F4233" stroke="#0F4233"/>
<path d="M151 161.5V0H0V715H224.5C219.5 712 210.5 707 199.5 703C190.7 699.8 180.5 690 176.5 685.5C144.5 644.5 135 666.5 111.5 685.5C92.7 700.7 81.3333 661.833 78 640.5C75.1666 616.667 60.1997 577.6 22.9997 612C-23.5003 655 17.9997 530.5 31.4997 498C42.2997 472 35.9997 455.167 31.4997 450C29.8331 450.333 26.3999 447.2 25.9999 432C25.4999 413 66.4999 344.5 88.9999 327C111.5 309.5 120.5 302.5 104 281.5C90.7998 264.7 104.5 241.5 113 232C146.2 202.8 152.166 172.833 151 161.5Z" fill="#0F4233" stroke="#0F4233"/>
</svg>
