<svg width="548" height="414" viewBox="0 0 548 414" fill="none" xmlns="http://www.w3.org/2000/svg">
<path d="M35.5 349.316C20.7 269.177 4.33333 239.321 -2 234.411V10.166H183.997H309.997H444.497H546.5C544 21.6238 545.5 22.9332 546.5 49.1224C547.3 70.0737 526.5 86.6602 516 92.3345C508 96.6994 489.8 108.179 481 119.178C472.2 130.178 464.333 161.518 461.5 175.813C447.5 203.049 430 187.161 423 175.813C416.667 166.428 398.8 145.891 378 138.82C357.2 131.749 352 120.379 352 115.577C349.5 119.833 343 122.779 325 128.017C307 133.255 314.5 147.004 303 175.813C291.5 204.621 278 213.459 271.5 175.813C266.3 145.695 259.667 133.146 257 130.636C245.4 165.206 222.5 176.904 212.5 178.431C214.1 190.217 205.5 209.313 201 217.388C199 254.315 176.5 237.575 165.5 224.59C163.667 232.228 154.5 247.702 132.5 248.487C110.5 249.273 103.333 267.802 102.5 276.968C102.667 297.592 99.1 345.977 83.5 374.523C64 410.206 54 449.489 35.5 349.316Z" fill="url(#paint0_linear_169_133)" stroke="url(#paint1_linear_169_133)"/>
<g opacity="0.56">
<path d="M-3 234.422L72.2029 320.507C76.715 310.905 85.4386 285.418 84.2353 260.28C82.7313 228.858 89.2488 208.564 110.807 202.345C132.365 196.126 147.406 189.907 153.923 171.904C154.09 170.486 156.23 167.715 163.449 167.977C172.473 168.304 203.056 147.356 200.048 118.552C197.04 89.7478 197.541 85.4927 178.49 69.7814C159.438 54.0702 149.431 38.3589 175 9.88235H194C204.952 20.6072 204.566 24.2328 202.106 47.3527L202.053 47.8512C199.546 71.418 220.603 73.3819 228.625 74.3639C236.646 75.3458 255.196 74.3639 262.717 54.0702C265.892 46.4328 278.359 31.4853 302.825 32.7946C327.291 34.1038 311.348 52.9791 300.318 62.2531L277.256 72.4C272.577 79.4919 261.313 95.1813 253.692 101.204C246.072 107.227 275.919 142.773 291.795 159.794L297.31 156.521C299.316 149.647 303.226 132.43 302.825 118.552C302.424 104.673 314.69 103.168 320.874 104.15C327.558 104.477 341.529 102.055 343.936 89.7478C346.342 77.4406 388.389 85.4927 409.112 91.0571C416.465 92.5845 431.171 91.8426 431.171 76.6551C431.171 57.6707 423.15 43.9233 418.136 38.3589C413.123 32.7946 404.98 23.6297 412.5 9.88235H449.5C455.015 20.6838 459.748 31.4853 463.759 54.0702C467.77 76.6551 478.8 76.9824 503.366 72.4C507.878 70.9816 519.51 67.5557 529.938 65.199C540.366 62.8423 545.312 56.5796 546.482 53.7429C546.148 39.8864 545.78 11.7153 546.984 9.88235C548.187 8.04938 487.5 6.23767 454.5 9.88235H449.5H412.5H194H175H-3V234.422Z" fill="url(#paint2_linear_169_133)"/>
<path d="M175 9.88234C149.431 38.359 159.438 54.0702 178.49 69.7814C197.541 85.4927 197.04 89.7478 200.048 118.552C203.056 147.356 172.473 168.304 163.449 167.977C156.23 167.715 154.09 170.486 153.923 171.904C147.406 189.907 132.365 196.126 110.807 202.345C89.2488 208.564 82.7313 228.858 84.2353 260.28C85.4386 285.418 76.715 310.905 72.2029 320.507L-3 234.422V9.88234H454.5C487.5 6.23767 548.187 8.04937 546.984 9.88234C545.78 11.7153 546.148 39.8864 546.482 53.7429C545.312 56.5796 540.366 62.8423 529.938 65.199C519.509 67.5557 507.878 70.9816 503.366 72.4C478.8 76.9824 467.77 76.6551 463.759 54.0702C459.748 31.4853 455.015 20.6838 449.5 9.88234M194 9.88234C205.03 20.6838 204.56 24.2843 202.053 47.8512C199.546 71.418 220.603 73.3819 228.625 74.3639C236.646 75.3458 255.196 74.3639 262.717 54.0702C265.892 46.4328 278.359 31.4853 302.825 32.7946C327.291 34.1038 311.348 52.9791 300.318 62.2531L277.256 72.4C272.577 79.4919 261.313 95.1813 253.692 101.204C246.072 107.227 275.919 142.773 291.795 159.794L297.31 156.521C299.316 149.647 303.226 132.43 302.825 118.552C302.424 104.673 314.69 103.168 320.874 104.15C327.558 104.477 341.529 102.055 343.936 89.7478C346.342 77.4406 388.389 85.4927 409.112 91.0571C416.465 92.5846 431.171 91.8426 431.171 76.6551C431.171 57.6707 423.15 43.9233 418.136 38.3589C413.123 32.7946 404.98 23.6297 412.5 9.88234" stroke="url(#paint3_linear_169_133)"/>
</g>
<path d="M37.0034 360.446C37.0034 360.446 4.33675 243.904 -1.99658 234.738V190.217C50.5034 196.109 46.5034 155.516 45.0034 150.278C43.5034 145.04 41.5034 139.148 43.0034 122.125C44.2034 108.506 55.8368 105.102 61.5034 105.102C69.5034 105.538 85.6034 113.679 86.0034 142.749C86.4034 171.819 69.8368 187.598 61.5034 191.853C26.3034 252.612 56.5034 299.229 76.0034 314.943C73.6034 327.513 71.0034 337.858 70.0034 341.459C58.4034 394.885 51.1701 404.531 49.0034 402.676C44.6034 392.201 39.1701 370.158 37.0034 360.446Z" fill="url(#paint4_linear_169_133)" stroke="url(#paint5_linear_169_133)"/>
<path d="M17.5433 60.3765C4.71628 63.0009 -1.49683 61.47 -3 60.3765V9.85719L44.6004 2.31209L94.5 9.8387C73.4556 70.1995 109.237 75.1387 137.797 83.0119C160.645 89.3104 162.349 106.631 160.345 114.504C167.86 186.019 183.894 209.638 190.408 227.025C195.619 240.934 183.894 237.85 177.381 234.57C160.345 217.84 146.816 149.934 146.816 141.076C146.816 133.99 144.812 134.843 143.81 136.156C140.803 143.701 120.26 167.976 116.252 162.727C112.243 157.479 110.74 146.653 106.731 134.187C103.525 124.215 99.7167 121.94 98.2135 122.05C54.1205 93.8374 32.5751 73.1704 29.5687 64.9692C27.1636 58.4082 20.5497 59.1737 17.5433 60.3765Z" fill="url(#paint6_linear_169_133)"/>
<path d="M240.514 110.568C238.51 108.993 240.013 107.506 241.015 106.959C243.42 102.498 252.038 100.726 256.047 100.398C276.089 96.7899 280.097 88.9167 276.59 74.8107C273.784 63.5258 290.118 62.0168 298.636 62.6729C306.252 70.0211 303.814 82.5744 301.643 87.9326C292.624 92.8533 286.11 103.023 285.108 104.007C267.871 131.038 285.609 150.48 296.632 156.823C297.434 172.044 289.283 187.878 285.108 193.892C281.767 198.375 274.085 199.731 270.076 169.288C265.066 131.235 243.019 112.536 240.514 110.568Z" fill="url(#paint7_linear_169_133)"/>
<path d="M296.632 26.2596C289.818 17.3367 277.425 11.6068 272.08 9.85719L308.658 0.999893L343 9.18396C345.004 24.2742 353.753 43.6461 380.309 60.0485C401.553 73.1704 411.541 85.4175 413.879 89.9008C424.903 99.0862 420.393 124.018 413.879 130.579C407.366 137.14 422.397 156.823 438.431 164.04C451.258 169.813 455.467 176.068 455.968 178.474C456.97 191.924 433.922 193.892 427.909 181.098C423.099 170.863 402.188 152.995 392.334 145.341C336.717 127.298 352.751 106.959 351.247 97.774C349.744 88.5887 320.182 62.6729 308.658 62.6729C299.438 62.6729 298.135 59.3924 298.636 57.7522C300.808 50.9725 303.447 35.1825 296.632 26.2596Z" fill="url(#paint8_linear_169_133)"/>
<path d="M17.5433 60.3765C4.71628 63.0009 -1.49683 61.47 -3 60.3765V9.85719L44.6004 2.31209L94.5 9.8387C73.4556 70.1995 109.237 75.1387 137.797 83.0119C160.645 89.3104 162.349 106.631 160.345 114.504C167.86 186.019 183.894 209.638 190.408 227.025C195.619 240.934 183.894 237.85 177.381 234.57C160.345 217.84 146.816 149.934 146.816 141.076C146.816 133.99 144.812 134.843 143.81 136.156C140.803 143.701 120.26 167.976 116.252 162.727C112.243 157.479 110.74 146.653 106.731 134.187C103.525 124.215 99.7167 121.94 98.2135 122.05C54.1205 93.8374 32.5751 73.1704 29.5687 64.9692C27.1636 58.4082 20.5497 59.1737 17.5433 60.3765Z" stroke="url(#paint9_linear_169_133)"/>
<path d="M240.514 110.568C238.51 108.993 240.013 107.506 241.015 106.959C243.42 102.498 252.038 100.726 256.047 100.398C276.089 96.7899 280.097 88.9167 276.59 74.8107C273.784 63.5258 290.118 62.0168 298.636 62.6729C306.252 70.0211 303.814 82.5744 301.643 87.9326C292.624 92.8533 286.11 103.023 285.108 104.007C267.871 131.038 285.609 150.48 296.632 156.823C297.434 172.044 289.283 187.878 285.108 193.892C281.767 198.375 274.085 199.731 270.076 169.288C265.066 131.235 243.019 112.536 240.514 110.568Z" stroke="url(#paint10_linear_169_133)"/>
<path d="M296.632 26.2596C289.818 17.3367 277.425 11.6068 272.08 9.85719L308.658 0.999893L343 9.18396C345.004 24.2742 353.753 43.6461 380.309 60.0485C401.553 73.1704 411.541 85.4175 413.879 89.9008C424.903 99.0862 420.393 124.018 413.879 130.579C407.366 137.14 422.397 156.823 438.431 164.04C451.258 169.813 455.467 176.068 455.968 178.474C456.97 191.924 433.922 193.892 427.909 181.098C423.099 170.863 402.188 152.995 392.334 145.341C336.717 127.298 352.751 106.959 351.247 97.774C349.744 88.5887 320.182 62.6729 308.658 62.6729C299.438 62.6729 298.135 59.3924 298.636 57.7522C300.808 50.9725 303.447 35.1825 296.632 26.2596Z" stroke="url(#paint11_linear_169_133)"/>
<defs>
<linearGradient id="paint0_linear_169_133" x1="272.261" y1="413" x2="272.261" y2="10.166" gradientUnits="userSpaceOnUse">
<stop stop-color="#A2240B"/>
<stop offset="0.942708" stop-color="#2D2F34"/>
</linearGradient>
<linearGradient id="paint1_linear_169_133" x1="272.261" y1="413" x2="272.261" y2="10.166" gradientUnits="userSpaceOnUse">
<stop stop-color="#A2240B"/>
<stop offset="0.864583" stop-color="#2D2F34"/>
</linearGradient>
<linearGradient id="paint2_linear_169_133" x1="272.001" y1="320.507" x2="272.001" y2="7.77481" gradientUnits="userSpaceOnUse">
<stop offset="0.265625" stop-color="#501414"/>
<stop offset="1" stop-color="#171E26"/>
</linearGradient>
<linearGradient id="paint3_linear_169_133" x1="272.001" y1="320.507" x2="272.001" y2="7.77481" gradientUnits="userSpaceOnUse">
<stop offset="0.182292" stop-color="#501414"/>
<stop offset="1" stop-color="#171E26"/>
</linearGradient>
<linearGradient id="paint4_linear_169_133" x1="42.007" y1="402.886" x2="42.007" y2="105.102" gradientUnits="userSpaceOnUse">
<stop offset="0.423318" stop-color="#400E17"/>
<stop offset="1" stop-color="#10151B"/>
</linearGradient>
<linearGradient id="paint5_linear_169_133" x1="42.007" y1="402.886" x2="42.007" y2="105.102" gradientUnits="userSpaceOnUse">
<stop offset="0.526042" stop-color="#400E17"/>
<stop offset="1" stop-color="#10151B"/>
</linearGradient>
<linearGradient id="paint6_linear_169_133" x1="226.5" y1="237.357" x2="226.5" y2="0.999908" gradientUnits="userSpaceOnUse">
<stop stop-color="#400E17"/>
<stop offset="0.854167" stop-color="#10151B"/>
</linearGradient>
<linearGradient id="paint7_linear_169_133" x1="226.5" y1="237.357" x2="226.5" y2="0.999908" gradientUnits="userSpaceOnUse">
<stop stop-color="#400E17"/>
<stop offset="0.854167" stop-color="#10151B"/>
</linearGradient>
<linearGradient id="paint8_linear_169_133" x1="226.5" y1="237.357" x2="226.5" y2="0.999908" gradientUnits="userSpaceOnUse">
<stop stop-color="#400E17"/>
<stop offset="0.854167" stop-color="#10151B"/>
</linearGradient>
<linearGradient id="paint9_linear_169_133" x1="226.5" y1="237.357" x2="226.5" y2="0.999908" gradientUnits="userSpaceOnUse">
<stop stop-color="#400E17"/>
<stop offset="1" stop-color="#10151B"/>
</linearGradient>
<linearGradient id="paint10_linear_169_133" x1="226.5" y1="237.357" x2="226.5" y2="0.999908" gradientUnits="userSpaceOnUse">
<stop stop-color="#400E17"/>
<stop offset="1" stop-color="#10151B"/>
</linearGradient>
<linearGradient id="paint11_linear_169_133" x1="226.5" y1="237.357" x2="226.5" y2="0.999908" gradientUnits="userSpaceOnUse">
<stop stop-color="#400E17"/>
<stop offset="1" stop-color="#10151B"/>
</linearGradient>
</defs>
</svg>
