<svg width="577" height="295" viewBox="0 0 577 295" fill="none" xmlns="http://www.w3.org/2000/svg">
<path d="M10.0553 1.00003C3.22195 3.66675 -6.34471 10.9001 10.0553 18.5002C23.0425 24.5188 28.3162 22.991 29.9487 20.5219C28.4475 26.8717 29.4341 37.4159 43.0552 41.0005C58.2552 45.0005 70.7218 56.0007 75.0552 61.0007C79.5552 63.5007 92.2552 66.2008 107.055 57.0007C111.222 52.6673 121.155 44.1005 127.555 44.5005C133.955 44.9005 139.222 39.6671 141.055 37.0004C142.389 35.6671 145.555 34.5004 147.555 40.5005C150.055 48.0006 150.555 72.0009 183.055 82.001C209.055 90.0011 214.222 110.335 213.555 119.501C214.889 125.835 223.155 140.202 245.555 147.002C250.889 146.002 262.655 151.002 267.055 179.002C272.555 214.003 275.055 258.003 289.055 284.003C300.255 304.804 307.722 286.337 310.055 274.503C315.055 254.503 325.855 205.403 329.055 169.002C332.255 132.602 375.722 93.1678 397.055 78.0009C407.555 80.501 436.055 102.501 432.055 130.002C429.389 139.168 430.355 160.302 455.555 171.502C464.389 178.002 484.612 196.281 492.055 219.003C501.555 248.003 515.055 232.003 521.555 219.503C525.555 209.836 532.955 183.402 530.555 155.002C533.222 147.002 542.555 128.702 558.555 119.501C574.555 110.301 577.555 102.001 577.055 99.0012V0.999969L10.0553 1.00003Z" fill="url(#paint0_linear_169_138)" stroke="url(#paint1_linear_169_138)"/>
<path d="M244.555 102.501C202.155 84.101 217.555 25.0003 231.055 1H577.055V81.501C571.855 81.901 563.555 86.001 560.055 88.0011C528.555 105.001 525.055 85.501 525.055 71.0009C525.055 59.4007 518.389 37.8338 515.055 28.5003C509.555 10.5001 499.555 -5.00008 486.055 6.50006C475.255 15.7002 481.555 37.0004 486.055 46.5006C491.722 58.6674 501.755 87.2011 496.555 104.001C491.355 120.801 477.722 114.001 471.555 108.501C450.389 84.501 404.455 37.1004 390.055 39.5005C372.055 42.5005 362.555 62.0007 357.555 75.5009C352.555 89.0011 344.055 93.0011 330.055 93.0011C316.055 93.0011 309.055 78.0009 312.555 62.0007C315.355 49.2006 313.722 32.6671 312.555 26.0003C300.955 1.60001 288.389 15.8335 283.555 26.0003C279.555 39.6671 273.955 68.7008 283.555 75.5009C293.155 82.301 298.889 94.3345 300.555 99.5012C317.555 131.002 306.055 170.002 304.055 178.502C302.055 187.002 286.055 217.503 283.555 205.503C281.555 195.902 277.389 165.502 277.055 151.002C282.255 113.801 256.555 103.835 244.555 102.501Z" fill="url(#paint2_linear_169_138)" stroke="url(#paint3_linear_169_138)"/>
<path d="M29.0554 11.5002C17.0554 14.7003 16.3888 5.83349 17.5554 1.0001L104.055 1.00014C102.055 3.80017 99.8885 5.16686 99.0552 5.5002C89.8552 11.1003 81.5552 7.83356 78.5552 5.5002C78.7218 6.66688 76.1552 9.80025 64.5552 13.0003C52.9552 16.2003 47.3885 8.33356 46.0552 4.00018C45.3886 5.16685 41.0554 8.30019 29.0554 11.5002Z" fill="url(#paint4_linear_169_138)"/>
<path d="M101.055 42.0006C79.5552 46.5007 60.0552 31.0005 58.5552 30.0005C44.0552 14.0004 83.7484 22.1589 99.0552 17.5003C110.555 14.0003 111.055 6.00015 116.055 1.00014L140.555 1.0001C155.755 13.8003 190.889 14.3336 206.555 13.0003C211.755 19.0004 204.389 22.8337 200.055 24.0004C187.889 25.0004 161.555 25.7004 153.555 20.5003C145.555 15.3003 141.555 16.3336 140.555 17.5003C144.055 23.0004 148.055 32.6005 136.055 27.0004C124.055 21.4003 113.055 22.667 109.055 24.0004C109.389 26.0004 111.755 30.8005 118.555 34.0005C127.055 38.0005 122.555 37.5006 101.055 42.0006Z" fill="url(#paint5_linear_169_138)"/>
<path d="M29.0554 11.5002C17.0554 14.7003 16.3888 5.83349 17.5554 1.0001L104.055 1.00014C102.055 3.80017 99.8885 5.16686 99.0552 5.5002C89.8552 11.1003 81.5552 7.83356 78.5552 5.5002C78.7218 6.66688 76.1552 9.80025 64.5552 13.0003C52.9552 16.2003 47.3885 8.33356 46.0552 4.00018C45.3886 5.16685 41.0554 8.30019 29.0554 11.5002Z" stroke="url(#paint6_linear_169_138)"/>
<path d="M101.055 42.0006C79.5552 46.5007 60.0552 31.0005 58.5552 30.0005C44.0552 14.0004 83.7484 22.1589 99.0552 17.5003C110.555 14.0003 111.055 6.00015 116.055 1.00014L140.555 1.0001C155.755 13.8003 190.889 14.3336 206.555 13.0003C211.755 19.0004 204.389 22.8337 200.055 24.0004C187.889 25.0004 161.555 25.7004 153.555 20.5003C145.555 15.3003 141.555 16.3336 140.555 17.5003C144.055 23.0004 148.055 32.6005 136.055 27.0004C124.055 21.4003 113.055 22.667 109.055 24.0004C109.389 26.0004 111.755 30.8005 118.555 34.0005C127.055 38.0005 122.555 37.5006 101.055 42.0006Z" stroke="url(#paint7_linear_169_138)"/>
<path d="M53.055 21.0003C45.855 23.4003 44.7217 30.3337 45.055 33.5004C44.4813 38.5005 43.0549 37.0005 36.5549 33.5004C30.0549 30.0004 30.0549 28.5004 32.0549 21.0003C34.0549 13.5002 47.5549 13.5002 50.5549 13.5002C53.5549 13.5002 62.055 18.0002 53.055 21.0003Z" fill="url(#paint8_linear_169_138)"/>
<path d="M98.5552 16.5002C104.155 8.90018 105.889 3.00009 106.055 1.00006H232.555C218.055 27.0004 222.555 25.5003 221.555 59.0007C220.755 85.8011 238.222 97.1679 247.055 99.5013C251.222 100.001 260.855 102.201 266.055 107.001C272.555 113.001 281.555 135.002 279.055 157.002C276.555 179.002 294.055 263.003 300.555 277.503C307.055 292.004 300.555 303.504 288.055 281.004C275.555 258.503 269.555 188.002 266.055 169.002C263.255 153.802 253.222 148.002 248.555 147.002C230.055 143.002 214.055 134.502 214.055 118.002C214.055 101.501 198.055 83.5011 181.555 81.5011C168.355 79.901 158.055 66.8342 154.555 60.5008C146.722 49.1673 138.355 27.9004 167.555 33.5004C204.055 40.5005 201.055 29.0004 214.555 21.0003C225.355 14.6002 212.055 13.3335 204.055 13.5002C190.055 14.5002 161.355 15.6003 158.555 12.0002C155.755 8.40015 146.389 4.83344 142.055 3.50009C138.855 1.90009 126.389 2.83344 120.555 3.50009C118.555 2.66675 112.855 4.1001 106.055 16.5002C99.2552 28.9004 98.2218 21.667 98.5552 16.5002Z" fill="url(#paint9_linear_169_138)"/>
<path d="M370.055 18.0002C358.455 12.8002 358.555 4.50009 360.055 1.00003H424.555C430.055 60.0008 441.055 70.0009 466.555 88.0011C486.955 102.401 488.389 127.668 486.555 138.502C480.555 151.502 481.055 193.002 502.055 204.003C518.855 212.803 520.722 220.003 519.555 222.503C515.055 230.503 503.055 248.003 492.555 220.503C482.055 193.002 472.555 187.502 451.055 171.002C429.555 154.502 432.055 142.502 431.555 120.502C431.155 102.901 410.722 85.1677 400.555 78.501C386.155 79.301 387.222 73.1676 389.555 70.0009C390.722 62.1675 392.655 44.7006 391.055 37.5005C389.055 28.5004 384.555 24.5003 370.055 18.0002Z" fill="url(#paint10_linear_169_138)"/>
<path d="M53.055 21.0003C45.855 23.4003 44.7217 30.3337 45.055 33.5004C44.4813 38.5005 43.0549 37.0005 36.5549 33.5004C30.0549 30.0004 30.0549 28.5004 32.0549 21.0003C34.0549 13.5002 47.5549 13.5002 50.5549 13.5002C53.5549 13.5002 62.055 18.0002 53.055 21.0003Z" stroke="url(#paint11_linear_169_138)"/>
<path d="M98.5552 16.5002C104.155 8.90018 105.889 3.00009 106.055 1.00006H232.555C218.055 27.0004 222.555 25.5003 221.555 59.0007C220.755 85.8011 238.222 97.1679 247.055 99.5013C251.222 100.001 260.855 102.201 266.055 107.001C272.555 113.001 281.555 135.002 279.055 157.002C276.555 179.002 294.055 263.003 300.555 277.503C307.055 292.004 300.555 303.504 288.055 281.004C275.555 258.503 269.555 188.002 266.055 169.002C263.255 153.802 253.222 148.002 248.555 147.002C230.055 143.002 214.055 134.502 214.055 118.002C214.055 101.501 198.055 83.5011 181.555 81.5011C168.355 79.901 158.055 66.8342 154.555 60.5008C146.722 49.1673 138.355 27.9004 167.555 33.5004C204.055 40.5005 201.055 29.0004 214.555 21.0003C225.355 14.6002 212.055 13.3335 204.055 13.5002C190.055 14.5002 161.355 15.6003 158.555 12.0002C155.755 8.40015 146.389 4.83344 142.055 3.50009C138.855 1.90009 126.389 2.83344 120.555 3.50009C118.555 2.66675 112.855 4.1001 106.055 16.5002C99.2552 28.9004 98.2218 21.667 98.5552 16.5002Z" stroke="url(#paint12_linear_169_138)"/>
<path d="M370.055 18.0002C358.455 12.8002 358.555 4.50009 360.055 1.00003H424.555C430.055 60.0008 441.055 70.0009 466.555 88.0011C486.955 102.401 488.389 127.668 486.555 138.502C480.555 151.502 481.055 193.002 502.055 204.003C518.855 212.803 520.722 220.003 519.555 222.503C515.055 230.503 503.055 248.003 492.555 220.503C482.055 193.002 472.555 187.502 451.055 171.002C429.555 154.502 432.055 142.502 431.555 120.502C431.155 102.901 410.722 85.1677 400.555 78.501C386.155 79.301 387.222 73.1676 389.555 70.0009C390.722 62.1675 392.655 44.7006 391.055 37.5005C389.055 28.5004 384.555 24.5003 370.055 18.0002Z" stroke="url(#paint13_linear_169_138)"/>
<defs>
<linearGradient id="paint0_linear_169_138" x1="289.053" y1="293.417" x2="289.053" y2="1.00003" gradientUnits="userSpaceOnUse">
<stop stop-color="#2D2F34"/>
<stop offset="0.0001" stop-color="#A2240B"/>
<stop offset="0.859375" stop-color="#2D2F34"/>
</linearGradient>
<linearGradient id="paint1_linear_169_138" x1="289.053" y1="293.417" x2="289.053" y2="1.00003" gradientUnits="userSpaceOnUse">
<stop stop-color="#2D2F34"/>
<stop offset="0.0001" stop-color="#A2240B"/>
<stop offset="0.859375" stop-color="#2D2F34"/>
</linearGradient>
<linearGradient id="paint2_linear_169_138" x1="396.946" y1="208.263" x2="396.946" y2="1" gradientUnits="userSpaceOnUse">
<stop stop-color="#501414"/>
<stop offset="1" stop-color="#171E26"/>
</linearGradient>
<linearGradient id="paint3_linear_169_138" x1="396.946" y1="208.263" x2="396.946" y2="1" gradientUnits="userSpaceOnUse">
<stop stop-color="#501414"/>
<stop offset="1" stop-color="#171E26"/>
</linearGradient>
<linearGradient id="paint4_linear_169_138" x1="112.747" y1="42.8181" x2="112.747" y2="1.0001" gradientUnits="userSpaceOnUse">
<stop stop-color="#501414"/>
<stop offset="0.640625" stop-color="#171E26"/>
</linearGradient>
<linearGradient id="paint5_linear_169_138" x1="112.747" y1="42.8181" x2="112.747" y2="1.0001" gradientUnits="userSpaceOnUse">
<stop stop-color="#501414"/>
<stop offset="0.640625" stop-color="#171E26"/>
</linearGradient>
<linearGradient id="paint6_linear_169_138" x1="112.747" y1="42.8181" x2="112.747" y2="1.0001" gradientUnits="userSpaceOnUse">
<stop stop-color="#501414"/>
<stop offset="0.598958" stop-color="#171E26"/>
</linearGradient>
<linearGradient id="paint7_linear_169_138" x1="112.747" y1="42.8181" x2="112.747" y2="1.0001" gradientUnits="userSpaceOnUse">
<stop stop-color="#501414"/>
<stop offset="0.598958" stop-color="#171E26"/>
</linearGradient>
<linearGradient id="paint8_linear_169_138" x1="275.359" y1="293.67" x2="275.359" y2="1.00003" gradientUnits="userSpaceOnUse">
<stop offset="0.00520833" stop-color="#400E17"/>
<stop offset="0.947917" stop-color="#10151B"/>
</linearGradient>
<linearGradient id="paint9_linear_169_138" x1="275.359" y1="293.67" x2="275.359" y2="1.00003" gradientUnits="userSpaceOnUse">
<stop offset="0.00520833" stop-color="#400E17"/>
<stop offset="0.947917" stop-color="#10151B"/>
</linearGradient>
<linearGradient id="paint10_linear_169_138" x1="275.359" y1="293.67" x2="275.359" y2="1.00003" gradientUnits="userSpaceOnUse">
<stop offset="0.00520833" stop-color="#400E17"/>
<stop offset="0.947917" stop-color="#10151B"/>
</linearGradient>
<linearGradient id="paint11_linear_169_138" x1="275.359" y1="293.67" x2="275.359" y2="1.00003" gradientUnits="userSpaceOnUse">
<stop stop-color="#400E17"/>
<stop offset="0.93125" stop-color="#10151B"/>
</linearGradient>
<linearGradient id="paint12_linear_169_138" x1="275.359" y1="293.67" x2="275.359" y2="1.00003" gradientUnits="userSpaceOnUse">
<stop stop-color="#400E17"/>
<stop offset="0.93125" stop-color="#10151B"/>
</linearGradient>
<linearGradient id="paint13_linear_169_138" x1="275.359" y1="293.67" x2="275.359" y2="1.00003" gradientUnits="userSpaceOnUse">
<stop stop-color="#400E17"/>
<stop offset="0.93125" stop-color="#10151B"/>
</linearGradient>
</defs>
</svg>
