<svg width="1440" height="402" viewBox="0 0 1440 402" fill="none" xmlns="http://www.w3.org/2000/svg">
<path d="M1433 334.5C1426.6 246.1 1352.67 152.333 1316.5 116.5V100H1440V375C1435.2 360.2 1433.33 341.833 1433 334.5Z" fill="#301214" stroke="#301214"/>
<path d="M1316.5 116.5V100H1321.5C1332.5 111 1382.5 136.5 1387.5 138.5C1392.5 140.5 1395.5 150 1387.5 151.5C1381.1 152.7 1374 149.667 1371.5 147.5C1368.67 145.833 1363.8 143.5 1365 151.5C1366.2 159.5 1384.17 185.833 1393 198C1394.6 208.4 1389.17 208.833 1386 206C1372.5 183 1334.67 135.167 1316.5 116.5Z" fill="#741914" stroke="#741914"/>
<path d="M1381.5 135.5C1377.5 133.9 1336.17 111.167 1316 100H1352C1365.6 107.2 1385.33 121 1393.5 127C1401.67 135.333 1415.1 154.9 1403.5 166.5C1391.9 178.1 1402.67 192.333 1409.5 198C1413.83 200.167 1423.5 207.3 1427.5 218.5C1432.5 232.5 1420.5 236 1418 234C1416 232.4 1403.83 229.5 1398.5 228C1397.5 225.5 1390 213 1386.8 207C1394.5 203 1394.5 201 1393.5 198C1386.17 189.167 1370.4 168.4 1366 156C1360.5 140.5 1369.5 146 1371.5 148C1373.1 149.6 1378.83 151.333 1381.5 152C1404 152 1386.5 137.5 1381.5 135.5Z" fill="#591512" stroke="#591512"/>
<path d="M1405 166C1397 155.6 1390.33 117.667 1388 100H1417C1407.5 103 1411 143.5 1413 154.5C1415 165.5 1423.5 160 1425.5 156C1427.5 152 1431.5 154.5 1431 156C1430.5 157.5 1432 167.5 1434.5 186C1436.5 200.8 1439 201.833 1440 200.5C1440.17 213.5 1440.4 238.8 1440 236C1439.5 232.5 1436 223.5 1434.5 217C1433.3 211.8 1428 180.167 1425.5 165C1422 169.667 1413 176.4 1405 166Z" fill="#8A1E11" stroke="#8A1E11"/>
<path d="M1412 255.5C1422.5 253 1435 260.167 1440 264V326.5C1439.5 329.5 1438 332.5 1436.5 334.5C1435.3 336.1 1434 340.167 1433.5 342C1433 324.5 1420 277 1412 255.5Z" fill="#591512" stroke="#591512"/>
<path d="M1440 375C1437.6 370.2 1434.67 351 1433.5 342C1433.3 340.5 1435.5 336.5 1437 334.5C1438.2 332.9 1439.5 329.167 1440 327.5V375Z" fill="#741914" stroke="#741914"/>
<path d="M35.5 337.316C20.7 257.177 4.33333 227.321 -2 222.411V-1.83398H183.997H309.997H444.497H546.5C544 9.62378 545.5 10.9332 546.5 37.1224C547.3 58.0737 526.5 74.6602 516 80.3345C508 84.6994 489.8 96.179 481 107.178C472.2 118.178 464.333 149.518 461.5 163.813C447.5 191.049 430 175.161 423 163.813C416.667 154.428 398.8 133.891 378 126.82C357.2 119.749 352 108.379 352 103.577C349.5 107.833 343 110.779 325 116.017C307 121.255 314.5 135.004 303 163.813C291.5 192.621 278 201.459 271.5 163.813C266.3 133.695 259.667 121.146 257 118.636C245.4 153.206 222.5 164.904 212.5 166.431C214.1 178.217 205.5 197.313 201 205.388C199 242.315 176.5 225.575 165.5 212.59C163.667 220.228 154.5 235.702 132.5 236.487C110.5 237.273 103.333 255.802 102.5 264.968C102.667 285.592 99.1 333.977 83.5 362.523C64 398.206 54 437.489 35.5 337.316Z" fill="url(#paint0_linear_177_36)" stroke="url(#paint1_linear_177_36)"/>
<g opacity="0.56">
<path d="M-3 222.422L72.2029 308.507C76.715 298.905 85.4386 273.418 84.2353 248.28C82.7313 216.858 89.2488 196.564 110.807 190.345C132.365 184.126 147.406 177.907 153.923 159.904C154.09 158.486 156.23 155.715 163.449 155.977C172.473 156.304 203.056 135.356 200.048 106.552C197.04 77.7478 197.541 73.4927 178.49 57.7814C159.438 42.0702 149.431 26.3589 175 -2.11765H194C204.952 8.60718 204.566 12.2328 202.106 35.3527L202.053 35.8512C199.546 59.418 220.603 61.3819 228.625 62.3639C236.646 63.3458 255.196 62.3639 262.717 42.0702C265.892 34.4328 278.359 19.4853 302.825 20.7946C327.291 22.1038 311.348 40.9791 300.318 50.2531L277.256 60.4C272.577 67.4919 261.313 83.1813 253.692 89.2039C246.072 95.2265 275.919 130.773 291.795 147.794L297.31 144.521C299.316 137.647 303.226 120.43 302.825 106.552C302.424 92.6735 314.69 91.1678 320.874 92.1497C327.558 92.4771 341.529 90.0549 343.936 77.7478C346.342 65.4406 388.389 73.4927 409.112 79.0571C416.465 80.5845 431.171 79.8426 431.171 64.6551C431.171 45.6707 423.15 31.9233 418.136 26.3589C413.123 20.7946 404.98 11.6297 412.5 -2.11765H449.5C455.015 8.68381 459.748 19.4853 463.759 42.0702C467.77 64.6551 478.8 64.9824 503.366 60.4C507.878 58.9816 519.51 55.5557 529.938 53.199C540.366 50.8423 545.312 44.5796 546.482 41.7429C546.148 27.8864 545.78 -0.284668 546.984 -2.11765C548.187 -3.95062 487.5 -5.76233 454.5 -2.11765H449.5H412.5H194H175H-3V222.422Z" fill="url(#paint2_linear_177_36)"/>
<path d="M175 -2.11766C149.431 26.359 159.438 42.0702 178.49 57.7814C197.541 73.4927 197.04 77.7478 200.048 106.552C203.056 135.356 172.473 156.304 163.449 155.977C156.23 155.715 154.09 158.486 153.923 159.904C147.406 177.907 132.365 184.126 110.807 190.345C89.2488 196.564 82.7313 216.858 84.2353 248.28C85.4386 273.418 76.715 298.905 72.2029 308.507L-3 222.422V-2.11766H454.5C487.5 -5.76233 548.187 -3.95063 546.984 -2.11766C545.78 -0.284678 546.148 27.8864 546.482 41.7429C545.312 44.5796 540.366 50.8423 529.938 53.199C519.509 55.5557 507.878 58.9816 503.366 60.4C478.8 64.9824 467.77 64.6551 463.759 42.0702C459.748 19.4853 455.015 8.68382 449.5 -2.11766M194 -2.11766C205.03 8.68382 204.56 12.2843 202.053 35.8512C199.546 59.418 220.603 61.3819 228.625 62.3639C236.646 63.3458 255.196 62.3639 262.717 42.0702C265.892 34.4328 278.359 19.4853 302.825 20.7946C327.291 22.1038 311.348 40.9791 300.318 50.2531L277.256 60.4C272.577 67.4919 261.313 83.1813 253.692 89.2039C246.072 95.2265 275.919 130.773 291.795 147.794L297.31 144.521C299.316 137.647 303.226 120.43 302.825 106.552C302.424 92.6735 314.69 91.1678 320.874 92.1498C327.558 92.4771 341.529 90.0549 343.936 77.7478C346.342 65.4406 388.389 73.4927 409.112 79.0571C416.465 80.5846 431.171 79.8426 431.171 64.6551C431.171 45.6707 423.15 31.9233 418.136 26.3589C413.123 20.7946 404.98 11.6297 412.5 -2.11766" stroke="url(#paint3_linear_177_36)"/>
</g>
<path d="M37.0034 348.446C37.0034 348.446 4.33675 231.904 -1.99658 222.738V178.217C50.5034 184.109 46.5034 143.516 45.0034 138.278C43.5034 133.04 41.5034 127.148 43.0034 110.125C44.2034 96.5064 55.8368 93.1018 61.5034 93.1018C69.5034 93.5382 85.6034 101.679 86.0034 130.749C86.4034 159.819 69.8368 175.598 61.5034 179.853C26.3034 240.612 56.5034 287.229 76.0034 302.943C73.6034 315.513 71.0034 325.858 70.0034 329.459C58.4034 382.885 51.1701 392.531 49.0034 390.676C44.6034 380.201 39.1701 358.158 37.0034 348.446Z" fill="url(#paint4_linear_177_36)" stroke="url(#paint5_linear_177_36)"/>
<path d="M17.5433 48.3765C4.71628 51.0009 -1.49683 49.47 -3 48.3765V-2.14281L44.6004 -9.68791L94.5 -2.1613C73.4556 58.1995 109.237 63.1387 137.797 71.0119C160.645 77.3104 162.349 94.6313 160.345 102.504C167.86 174.019 183.894 197.638 190.408 215.025C195.619 228.934 183.894 225.85 177.381 222.57C160.345 205.84 146.816 137.934 146.816 129.076C146.816 121.99 144.812 122.843 143.81 124.156C140.803 131.701 120.26 155.976 116.252 150.727C112.243 145.479 110.74 134.653 106.731 122.187C103.525 112.215 99.7167 109.94 98.2135 110.05C54.1205 81.8374 32.5751 61.1704 29.5687 52.9692C27.1636 46.4082 20.5497 47.1737 17.5433 48.3765Z" fill="url(#paint6_linear_177_36)"/>
<path d="M240.514 98.5679C238.51 96.9932 240.013 95.5061 241.015 94.9593C243.42 90.4979 252.038 88.7264 256.047 88.3984C276.089 84.7899 280.097 76.9167 276.59 62.8107C273.784 51.5258 290.118 50.0168 298.636 50.6729C306.252 58.0211 303.814 70.5744 301.643 75.9326C292.624 80.8533 286.11 91.0228 285.108 92.0069C267.871 119.038 285.609 138.48 296.632 144.823C297.434 160.044 289.283 175.878 285.108 181.892C281.767 186.375 274.085 187.731 270.076 157.288C265.066 119.235 243.019 100.536 240.514 98.5679Z" fill="url(#paint7_linear_177_36)"/>
<path d="M296.632 14.2596C289.818 5.33667 277.425 -0.393219 272.08 -2.14281L308.658 -11.0001L343 -2.81604C345.004 12.2742 353.753 31.6461 380.309 48.0485C401.553 61.1704 411.541 73.4175 413.879 77.9008C424.903 87.0862 420.393 112.018 413.879 118.579C407.366 125.14 422.397 144.823 438.431 152.04C451.258 157.813 455.467 164.068 455.968 166.474C456.97 179.924 433.922 181.892 427.909 169.098C423.099 158.863 402.188 140.995 392.334 133.341C336.717 115.298 352.751 94.9593 351.247 85.774C349.744 76.5887 320.182 50.6729 308.658 50.6729C299.438 50.6729 298.135 47.3924 298.636 45.7522C300.808 38.9725 303.447 23.1825 296.632 14.2596Z" fill="url(#paint8_linear_177_36)"/>
<path d="M17.5433 48.3765C4.71628 51.0009 -1.49683 49.47 -3 48.3765V-2.14281L44.6004 -9.68791L94.5 -2.1613C73.4556 58.1995 109.237 63.1387 137.797 71.0119C160.645 77.3104 162.349 94.6313 160.345 102.504C167.86 174.019 183.894 197.638 190.408 215.025C195.619 228.934 183.894 225.85 177.381 222.57C160.345 205.84 146.816 137.934 146.816 129.076C146.816 121.99 144.812 122.843 143.81 124.156C140.803 131.701 120.26 155.976 116.252 150.727C112.243 145.479 110.74 134.653 106.731 122.187C103.525 112.215 99.7167 109.94 98.2135 110.05C54.1205 81.8374 32.5751 61.1704 29.5687 52.9692C27.1636 46.4082 20.5497 47.1737 17.5433 48.3765Z" stroke="url(#paint9_linear_177_36)"/>
<path d="M240.514 98.5679C238.51 96.9932 240.013 95.5061 241.015 94.9593C243.42 90.4979 252.038 88.7264 256.047 88.3984C276.089 84.7899 280.097 76.9167 276.59 62.8107C273.784 51.5258 290.118 50.0168 298.636 50.6729C306.252 58.0211 303.814 70.5744 301.643 75.9326C292.624 80.8533 286.11 91.0228 285.108 92.0069C267.871 119.038 285.609 138.48 296.632 144.823C297.434 160.044 289.283 175.878 285.108 181.892C281.767 186.375 274.085 187.731 270.076 157.288C265.066 119.235 243.019 100.536 240.514 98.5679Z" stroke="url(#paint10_linear_177_36)"/>
<path d="M296.632 14.2596C289.818 5.33667 277.425 -0.393219 272.08 -2.14281L308.658 -11.0001L343 -2.81604C345.004 12.2742 353.753 31.6461 380.309 48.0485C401.553 61.1704 411.541 73.4175 413.879 77.9008C424.903 87.0862 420.393 112.018 413.879 118.579C407.366 125.14 422.397 144.823 438.431 152.04C451.258 157.813 455.467 164.068 455.968 166.474C456.97 179.924 433.922 181.892 427.909 169.098C423.099 158.863 402.188 140.995 392.334 133.341C336.717 115.298 352.751 94.9593 351.247 85.774C349.744 76.5887 320.182 50.6729 308.658 50.6729C299.438 50.6729 298.135 47.3924 298.636 45.7522C300.808 38.9725 303.447 23.1825 296.632 14.2596Z" stroke="url(#paint11_linear_177_36)"/>
<path d="M873.055 0C866.222 2.66672 856.655 9.90012 873.055 17.5002C886.042 23.5187 891.316 21.991 892.949 19.5219C891.447 25.8716 892.434 36.4159 906.055 40.0004C921.255 44.0005 933.722 55.0006 938.055 60.0007C942.555 62.5007 955.255 65.2008 970.055 56.0006C974.222 51.6673 984.155 43.1005 990.555 43.5005C996.955 43.9005 1002.22 38.6671 1004.06 36.0004C1005.39 34.6671 1008.56 33.5004 1010.56 39.5004C1013.06 47.0005 1013.56 71.0008 1046.06 81.0009C1072.06 89.0011 1077.22 109.335 1076.56 118.501C1077.89 124.835 1086.16 139.202 1108.56 146.002C1113.89 145.002 1125.66 150.002 1130.06 178.002C1135.56 213.003 1138.06 257.003 1152.06 283.003C1163.26 303.804 1170.72 285.337 1173.06 273.503C1178.06 253.503 1188.86 204.402 1192.06 168.002C1195.26 131.602 1238.72 92.1678 1260.06 77.0009C1270.56 79.5009 1299.06 101.501 1295.06 129.002C1292.39 138.168 1293.36 159.302 1318.56 170.502C1327.39 177.002 1347.61 195.281 1355.06 218.003C1364.56 247.003 1378.06 231.003 1384.56 218.503C1388.56 208.836 1395.96 182.402 1393.56 154.002C1396.22 146.002 1405.56 127.702 1421.56 118.501C1437.56 109.301 1440.56 101.001 1440.06 98.0012V-6.10352e-05L873.055 0Z" fill="url(#paint12_linear_177_36)" stroke="url(#paint13_linear_177_36)"/>
<path d="M1107.55 101.501C1065.15 83.101 1080.55 24.0003 1094.06 0H1440.06V80.501C1434.86 80.901 1426.56 85.001 1423.06 87.0011C1391.56 104.001 1388.06 84.501 1388.06 70.0009C1388.06 58.4007 1381.39 36.8338 1378.06 27.5003C1372.56 9.50011 1362.56 -6.00008 1349.06 5.50006C1338.26 14.7002 1344.56 36.0004 1349.06 45.5006C1354.72 57.6674 1364.76 86.2011 1359.56 103.001C1354.36 119.801 1340.72 113.001 1334.56 107.501C1313.39 83.501 1267.46 36.1004 1253.06 38.5005C1235.06 41.5005 1225.56 61.0007 1220.56 74.5009C1215.56 88.0011 1207.06 92.0011 1193.06 92.0011C1179.06 92.0011 1172.06 77.0009 1175.56 61.0007C1178.36 48.2006 1176.72 31.6671 1175.56 25.0003C1163.96 0.600006 1151.39 14.8335 1146.56 25.0003C1142.56 38.6671 1136.96 67.7008 1146.56 74.5009C1156.16 81.301 1161.89 93.3345 1163.56 98.5012C1180.56 130.002 1169.06 169.002 1167.06 177.502C1165.06 186.002 1149.06 216.503 1146.56 204.503C1144.56 194.902 1140.39 164.502 1140.06 150.002C1145.26 112.801 1119.55 102.835 1107.55 101.501Z" fill="url(#paint14_linear_177_36)" stroke="url(#paint15_linear_177_36)"/>
<path d="M892.055 10.5002C880.055 13.7002 879.389 4.83343 880.555 3.8147e-05L967.055 8.01086e-05C965.055 2.80011 962.889 4.1668 962.055 4.50014C952.855 10.1002 944.555 6.8335 941.555 4.50014C941.722 5.66682 939.155 8.80019 927.555 12.0002C915.955 15.2003 910.389 7.3335 909.055 3.00012C908.389 4.16679 904.055 7.30013 892.055 10.5002Z" fill="url(#paint16_linear_177_36)"/>
<path d="M964.055 41.0006C942.555 45.5006 923.055 30.0005 921.555 29.0004C907.055 13.0003 946.748 21.1589 962.055 16.5002C973.555 13.0002 974.055 5.00009 979.055 8.01086e-05L1003.56 3.8147e-05C1018.76 12.8002 1053.89 13.3336 1069.56 12.0002C1074.76 18.0003 1067.39 21.8337 1063.06 23.0003C1050.89 24.0003 1024.56 24.7003 1016.56 19.5003C1008.56 14.3002 1004.56 15.3336 1003.56 16.5002C1007.06 22.0003 1011.06 31.6004 999.055 26.0004C987.055 20.4003 976.055 21.667 972.055 23.0003C972.389 25.0004 974.755 29.8004 981.555 33.0004C990.055 37.0004 985.555 36.5005 964.055 41.0006Z" fill="url(#paint17_linear_177_36)"/>
<path d="M892.055 10.5002C880.055 13.7002 879.389 4.83343 880.555 3.8147e-05L967.055 8.01086e-05C965.055 2.80011 962.889 4.1668 962.055 4.50014C952.855 10.1002 944.555 6.8335 941.555 4.50014C941.722 5.66682 939.155 8.80019 927.555 12.0002C915.955 15.2003 910.389 7.3335 909.055 3.00012C908.389 4.16679 904.055 7.30013 892.055 10.5002Z" stroke="url(#paint18_linear_177_36)"/>
<path d="M964.055 41.0006C942.555 45.5006 923.055 30.0005 921.555 29.0004C907.055 13.0003 946.748 21.1589 962.055 16.5002C973.555 13.0002 974.055 5.00009 979.055 8.01086e-05L1003.56 3.8147e-05C1018.76 12.8002 1053.89 13.3336 1069.56 12.0002C1074.76 18.0003 1067.39 21.8337 1063.06 23.0003C1050.89 24.0003 1024.56 24.7003 1016.56 19.5003C1008.56 14.3002 1004.56 15.3336 1003.56 16.5002C1007.06 22.0003 1011.06 31.6004 999.055 26.0004C987.055 20.4003 976.055 21.667 972.055 23.0003C972.389 25.0004 974.755 29.8004 981.555 33.0004C990.055 37.0004 985.555 36.5005 964.055 41.0006Z" stroke="url(#paint19_linear_177_36)"/>
<path d="M916.055 20.0002C908.855 22.4003 907.722 29.3337 908.055 32.5004C907.481 37.5005 906.055 36.0005 899.555 32.5004C893.055 29.0004 893.055 27.5003 895.055 20.0002C897.055 12.5002 910.555 12.5002 913.555 12.5002C916.555 12.5002 925.055 17.0002 916.055 20.0002Z" fill="url(#paint20_linear_177_36)"/>
<path d="M961.555 15.5002C967.155 7.90015 968.889 2.00006 969.055 3.05176e-05H1095.56C1081.06 26.0004 1085.56 24.5003 1084.56 58.0007C1083.76 84.8011 1101.22 96.1679 1110.06 98.5012C1114.22 99.0012 1123.86 101.201 1129.06 106.001C1135.56 112.001 1144.56 134.002 1142.06 156.002C1139.56 178.002 1157.06 262.003 1163.56 276.503C1170.06 291.004 1163.56 302.504 1151.06 280.004C1138.56 257.503 1132.56 187.002 1129.06 168.002C1126.26 152.802 1116.22 147.002 1111.56 146.002C1093.06 142.002 1077.06 133.502 1077.06 117.001C1077.06 100.501 1061.06 82.5011 1044.56 80.501C1031.36 78.901 1021.06 65.8342 1017.56 59.5008C1009.72 48.1673 1001.36 26.9004 1030.56 32.5004C1067.06 39.5005 1064.06 28.0004 1077.56 20.0002C1088.36 13.6002 1075.06 12.3335 1067.06 12.5002C1053.06 13.5002 1024.36 14.6002 1021.56 11.0002C1018.76 7.40012 1009.39 3.8334 1005.06 2.50006C1001.86 0.900055 989.389 1.8334 983.555 2.50006C981.555 1.66672 975.855 3.10007 969.055 15.5002C962.255 27.9004 961.222 20.667 961.555 15.5002Z" fill="url(#paint21_linear_177_36)"/>
<path d="M1233.06 17.0002C1221.46 11.8001 1221.56 3.50006 1223.06 0H1287.56C1293.06 59.0007 1304.06 69.0009 1329.56 87.0011C1349.96 101.401 1351.39 126.668 1349.56 137.502C1343.56 150.502 1344.06 192.002 1365.06 203.003C1381.86 211.803 1383.72 219.003 1382.56 221.503C1378.06 229.503 1366.06 247.003 1355.56 219.503C1345.06 192.002 1335.56 186.502 1314.06 170.002C1292.56 153.502 1295.06 141.502 1294.56 119.501C1294.16 101.901 1273.72 84.1677 1263.56 77.501C1249.16 78.301 1250.22 72.1676 1252.56 69.0009C1253.72 61.1674 1255.66 43.7005 1254.06 36.5005C1252.06 27.5003 1247.56 23.5003 1233.06 17.0002Z" fill="url(#paint22_linear_177_36)"/>
<path d="M916.055 20.0002C908.855 22.4003 907.722 29.3337 908.055 32.5004C907.481 37.5005 906.055 36.0005 899.555 32.5004C893.055 29.0004 893.055 27.5003 895.055 20.0002C897.055 12.5002 910.555 12.5002 913.555 12.5002C916.555 12.5002 925.055 17.0002 916.055 20.0002Z" stroke="url(#paint23_linear_177_36)"/>
<path d="M961.555 15.5002C967.155 7.90015 968.889 2.00006 969.055 3.05176e-05H1095.56C1081.06 26.0004 1085.56 24.5003 1084.56 58.0007C1083.76 84.8011 1101.22 96.1679 1110.06 98.5012C1114.22 99.0012 1123.86 101.201 1129.06 106.001C1135.56 112.001 1144.56 134.002 1142.06 156.002C1139.56 178.002 1157.06 262.003 1163.56 276.503C1170.06 291.004 1163.56 302.504 1151.06 280.004C1138.56 257.503 1132.56 187.002 1129.06 168.002C1126.26 152.802 1116.22 147.002 1111.56 146.002C1093.06 142.002 1077.06 133.502 1077.06 117.001C1077.06 100.501 1061.06 82.5011 1044.56 80.501C1031.36 78.901 1021.06 65.8342 1017.56 59.5008C1009.72 48.1673 1001.36 26.9004 1030.56 32.5004C1067.06 39.5005 1064.06 28.0004 1077.56 20.0002C1088.36 13.6002 1075.06 12.3335 1067.06 12.5002C1053.06 13.5002 1024.36 14.6002 1021.56 11.0002C1018.76 7.40012 1009.39 3.8334 1005.06 2.50006C1001.86 0.900055 989.389 1.8334 983.555 2.50006C981.555 1.66672 975.855 3.10007 969.055 15.5002C962.255 27.9004 961.222 20.667 961.555 15.5002Z" stroke="url(#paint24_linear_177_36)"/>
<path d="M1233.06 17.0002C1221.46 11.8001 1221.56 3.50006 1223.06 0H1287.56C1293.06 59.0007 1304.06 69.0009 1329.56 87.0011C1349.96 101.401 1351.39 126.668 1349.56 137.502C1343.56 150.502 1344.06 192.002 1365.06 203.003C1381.86 211.803 1383.72 219.003 1382.56 221.503C1378.06 229.503 1366.06 247.003 1355.56 219.503C1345.06 192.002 1335.56 186.502 1314.06 170.002C1292.56 153.502 1295.06 141.502 1294.56 119.501C1294.16 101.901 1273.72 84.1677 1263.56 77.501C1249.16 78.301 1250.22 72.1676 1252.56 69.0009C1253.72 61.1674 1255.66 43.7005 1254.06 36.5005C1252.06 27.5003 1247.56 23.5003 1233.06 17.0002Z" stroke="url(#paint25_linear_177_36)"/>
<defs>
<linearGradient id="paint0_linear_177_36" x1="272.261" y1="401" x2="272.261" y2="-1.83398" gradientUnits="userSpaceOnUse">
<stop stop-color="#A2240B"/>
<stop offset="0.942708" stop-color="#2D2F34"/>
</linearGradient>
<linearGradient id="paint1_linear_177_36" x1="272.261" y1="401" x2="272.261" y2="-1.83398" gradientUnits="userSpaceOnUse">
<stop stop-color="#A2240B"/>
<stop offset="0.864583" stop-color="#2D2F34"/>
</linearGradient>
<linearGradient id="paint2_linear_177_36" x1="272.001" y1="308.507" x2="272.001" y2="-4.22519" gradientUnits="userSpaceOnUse">
<stop offset="0.265625" stop-color="#501414"/>
<stop offset="1" stop-color="#171E26"/>
</linearGradient>
<linearGradient id="paint3_linear_177_36" x1="272.001" y1="308.507" x2="272.001" y2="-4.22519" gradientUnits="userSpaceOnUse">
<stop offset="0.182292" stop-color="#501414"/>
<stop offset="1" stop-color="#171E26"/>
</linearGradient>
<linearGradient id="paint4_linear_177_36" x1="42.007" y1="390.886" x2="42.007" y2="93.1018" gradientUnits="userSpaceOnUse">
<stop offset="0.423318" stop-color="#400E17"/>
<stop offset="1" stop-color="#10151B"/>
</linearGradient>
<linearGradient id="paint5_linear_177_36" x1="42.007" y1="390.886" x2="42.007" y2="93.1018" gradientUnits="userSpaceOnUse">
<stop offset="0.526042" stop-color="#400E17"/>
<stop offset="1" stop-color="#10151B"/>
</linearGradient>
<linearGradient id="paint6_linear_177_36" x1="226.5" y1="225.357" x2="226.5" y2="-11.0001" gradientUnits="userSpaceOnUse">
<stop stop-color="#400E17"/>
<stop offset="0.854167" stop-color="#10151B"/>
</linearGradient>
<linearGradient id="paint7_linear_177_36" x1="226.5" y1="225.357" x2="226.5" y2="-11.0001" gradientUnits="userSpaceOnUse">
<stop stop-color="#400E17"/>
<stop offset="0.854167" stop-color="#10151B"/>
</linearGradient>
<linearGradient id="paint8_linear_177_36" x1="226.5" y1="225.357" x2="226.5" y2="-11.0001" gradientUnits="userSpaceOnUse">
<stop stop-color="#400E17"/>
<stop offset="0.854167" stop-color="#10151B"/>
</linearGradient>
<linearGradient id="paint9_linear_177_36" x1="226.5" y1="225.357" x2="226.5" y2="-11.0001" gradientUnits="userSpaceOnUse">
<stop stop-color="#400E17"/>
<stop offset="1" stop-color="#10151B"/>
</linearGradient>
<linearGradient id="paint10_linear_177_36" x1="226.5" y1="225.357" x2="226.5" y2="-11.0001" gradientUnits="userSpaceOnUse">
<stop stop-color="#400E17"/>
<stop offset="1" stop-color="#10151B"/>
</linearGradient>
<linearGradient id="paint11_linear_177_36" x1="226.5" y1="225.357" x2="226.5" y2="-11.0001" gradientUnits="userSpaceOnUse">
<stop stop-color="#400E17"/>
<stop offset="1" stop-color="#10151B"/>
</linearGradient>
<linearGradient id="paint12_linear_177_36" x1="1152.05" y1="292.417" x2="1152.05" y2="0" gradientUnits="userSpaceOnUse">
<stop stop-color="#2D2F34"/>
<stop offset="0.0001" stop-color="#A2240B"/>
<stop offset="0.859375" stop-color="#2D2F34"/>
</linearGradient>
<linearGradient id="paint13_linear_177_36" x1="1152.05" y1="292.417" x2="1152.05" y2="0" gradientUnits="userSpaceOnUse">
<stop stop-color="#2D2F34"/>
<stop offset="0.0001" stop-color="#A2240B"/>
<stop offset="0.859375" stop-color="#2D2F34"/>
</linearGradient>
<linearGradient id="paint14_linear_177_36" x1="1259.95" y1="207.263" x2="1259.95" y2="0" gradientUnits="userSpaceOnUse">
<stop stop-color="#501414"/>
<stop offset="1" stop-color="#171E26"/>
</linearGradient>
<linearGradient id="paint15_linear_177_36" x1="1259.95" y1="207.263" x2="1259.95" y2="0" gradientUnits="userSpaceOnUse">
<stop stop-color="#501414"/>
<stop offset="1" stop-color="#171E26"/>
</linearGradient>
<linearGradient id="paint16_linear_177_36" x1="975.747" y1="41.8181" x2="975.747" y2="3.8147e-05" gradientUnits="userSpaceOnUse">
<stop stop-color="#501414"/>
<stop offset="0.640625" stop-color="#171E26"/>
</linearGradient>
<linearGradient id="paint17_linear_177_36" x1="975.747" y1="41.8181" x2="975.747" y2="3.8147e-05" gradientUnits="userSpaceOnUse">
<stop stop-color="#501414"/>
<stop offset="0.640625" stop-color="#171E26"/>
</linearGradient>
<linearGradient id="paint18_linear_177_36" x1="975.747" y1="41.8181" x2="975.747" y2="3.8147e-05" gradientUnits="userSpaceOnUse">
<stop stop-color="#501414"/>
<stop offset="0.598958" stop-color="#171E26"/>
</linearGradient>
<linearGradient id="paint19_linear_177_36" x1="975.747" y1="41.8181" x2="975.747" y2="3.8147e-05" gradientUnits="userSpaceOnUse">
<stop stop-color="#501414"/>
<stop offset="0.598958" stop-color="#171E26"/>
</linearGradient>
<linearGradient id="paint20_linear_177_36" x1="1138.36" y1="292.67" x2="1138.36" y2="0" gradientUnits="userSpaceOnUse">
<stop offset="0.00520833" stop-color="#400E17"/>
<stop offset="0.947917" stop-color="#10151B"/>
</linearGradient>
<linearGradient id="paint21_linear_177_36" x1="1138.36" y1="292.67" x2="1138.36" y2="0" gradientUnits="userSpaceOnUse">
<stop offset="0.00520833" stop-color="#400E17"/>
<stop offset="0.947917" stop-color="#10151B"/>
</linearGradient>
<linearGradient id="paint22_linear_177_36" x1="1138.36" y1="292.67" x2="1138.36" y2="0" gradientUnits="userSpaceOnUse">
<stop offset="0.00520833" stop-color="#400E17"/>
<stop offset="0.947917" stop-color="#10151B"/>
</linearGradient>
<linearGradient id="paint23_linear_177_36" x1="1138.36" y1="292.67" x2="1138.36" y2="0" gradientUnits="userSpaceOnUse">
<stop stop-color="#400E17"/>
<stop offset="0.93125" stop-color="#10151B"/>
</linearGradient>
<linearGradient id="paint24_linear_177_36" x1="1138.36" y1="292.67" x2="1138.36" y2="0" gradientUnits="userSpaceOnUse">
<stop stop-color="#400E17"/>
<stop offset="0.93125" stop-color="#10151B"/>
</linearGradient>
<linearGradient id="paint25_linear_177_36" x1="1138.36" y1="292.67" x2="1138.36" y2="0" gradientUnits="userSpaceOnUse">
<stop stop-color="#400E17"/>
<stop offset="0.93125" stop-color="#10151B"/>
</linearGradient>
</defs>
</svg>
