<svg width="582" height="351" viewBox="0 0 582 351" fill="none" xmlns="http://www.w3.org/2000/svg">
<path d="M30.0249 263.06C32.0249 259.06 37.8582 258.06 40.5249 258.06C36.5686 245.202 42.8843 235.279 53.183 219.097L53.5246 218.56C64.0246 202.06 64.0246 206.06 73.0245 202.56C80.2245 199.76 101.358 189.06 111.024 184.06C111.424 175.66 114.524 167.56 116.024 164.56C120.024 149.06 207.024 99.0604 212.524 94.0604C218.024 89.0604 233.024 84.5604 242.024 86.0604C249.224 87.2604 293.023 119.227 314.023 135.06C315.623 122.66 341.356 110.227 354.023 105.56C357.223 90.7604 372.69 67.7271 380.023 58.0604C392.523 51.8938 418.423 37.9604 422.023 31.5604C425.623 25.1604 432.189 19.5604 435.023 17.5605C473.022 -3.93954 485.022 2.06042 490.022 1.06042C495.022 0.0604239 526.022 21.0604 529.522 29.0604C532.322 35.4604 557.355 66.0604 569.522 80.5604C583.522 99.3604 588.022 126.394 588.522 137.56C601.722 139.96 619.022 151.227 626.022 156.56C635.221 150.96 649.855 157.227 656.021 161.06C658.821 159.86 664.521 156.227 667.021 154.56C664.621 138.16 680.021 131.727 688.021 130.56C710.021 119.36 733.854 124.894 743.021 129.06C765.421 132.26 818.354 201.394 842.02 235.56C852.42 230.76 865.02 236.227 870.02 239.56C884.02 242.36 902.187 265.727 909.52 277.06C923.02 288.06 903.02 311.56 903.02 313.56C899.02 324.06 875.02 319.56 850.52 319.56C830.92 319.56 822.021 308.56 820.021 303.06C815.521 304.06 776.521 312.06 753.021 319.56C734.221 325.56 669.521 307.727 639.521 298.06C638.188 301.727 635.321 312.36 634.521 325.56C633.521 342.06 584.522 347.56 558.022 358.06C536.822 366.46 508.856 359.894 497.522 355.56C499.189 361.727 494.922 374.36 464.522 375.56C434.123 376.76 420.523 362.727 417.523 355.56C407.023 360.56 354.023 355.56 345.523 353.06C337.023 350.56 331.523 346.06 331.023 337.06C330.623 329.86 334.19 325.06 336.023 323.56C331.523 323.56 327.023 323.06 315.023 323.56C303.023 324.06 295.023 309.56 289.523 305.06C285.123 301.46 286.023 293.56 287.023 290.06C281.823 287.66 258.524 287.727 247.524 288.06C242.524 298.06 229.524 318.46 217.524 320.06C202.524 322.06 142.524 322.06 128.024 322.06C116.424 322.06 111.858 319.394 111.024 318.06C100.224 328.46 76.1912 331.727 65.5246 332.06C46.0247 331.06 6.02505 326.06 2.02507 314.06C-1.97491 302.06 6.69171 284.394 11.525 277.06C16.8583 274.06 28.0249 267.06 30.0249 263.06Z" fill="url(#paint0_linear_175_21)" stroke="url(#paint1_linear_175_21)"/>
<path d="M107.025 212.061C112.625 207.661 124.358 192.894 129.525 186.061C140.324 192.061 158.358 216.227 166.025 227.561C157.025 230.061 130.525 240.561 118.525 247.061C108.925 252.261 106.858 251.227 107.025 250.061C111.025 229.561 107.025 213.061 107.025 212.061Z" fill="url(#paint2_linear_175_21)"/>
<path d="M245.524 92.0605C236.324 83.2605 236.358 88.3939 237.524 92.0605C233.191 97.8939 224.224 110.361 223.024 113.561C221.524 117.561 191.024 141.061 178.525 146.561C166.025 152.061 155.525 173.561 153.525 178.061C151.525 182.561 169.525 212.061 182.524 216.061C195.524 220.061 227.024 208.561 237.524 208.561C248.024 208.561 255.524 208.561 260.024 216.061C263.624 222.061 274.524 235.894 279.524 242.061C285.691 243.727 298.224 248.361 299.024 253.561C299.824 258.761 303.691 257.727 305.524 256.561C313.924 247.761 327.357 243.227 333.024 242.061C330.69 236.394 326.324 221.761 327.524 208.561C329.024 192.061 322.524 195.061 316.524 193.061C311.724 191.461 300.191 187.727 295.024 186.061C278.524 183.561 284.524 173.061 289.024 170.061C293.524 167.061 295.024 162.061 292.024 155.561C289.024 149.061 257.024 103.061 245.524 92.0605Z" fill="url(#paint3_linear_175_21)"/>
<path d="M327.524 256.561L366.024 237.061H377.023L366.024 256.561L352.524 300.561H327.524V256.561Z" fill="url(#paint4_linear_175_21)"/>
<path d="M336.024 137.561L368.524 96.0605C367.024 91.7272 367.624 85.6605 382.023 96.0605C400.023 109.061 409.023 126.561 413.523 130.061C417.123 132.861 417.69 141.227 417.523 145.061C426.323 145.861 449.856 168.061 460.523 179.061L384.523 234.561L372.023 216.061L386.023 173.061L392.023 157.561C382.357 159.894 362.424 164.461 360.024 164.061C357.624 163.661 348.357 159.561 344.024 157.561L336.024 137.561Z" fill="url(#paint5_linear_175_21)"/>
<path d="M388.023 82.5605L460.523 16.0605L468.023 13.0605C504.523 19.5605 500.523 52.0605 500.023 58.5605C499.623 63.7605 504.189 65.3939 506.523 65.5605C544.523 78.5605 557.023 89.0605 562.522 111.561C566.922 129.561 560.689 134.727 557.023 135.061C548.523 130.561 515.523 118.061 503.023 119.061C493.023 119.861 462.523 130.061 448.523 135.061C436.856 128.394 412.623 114.361 409.023 111.561C405.423 108.761 401.19 106.394 399.523 105.561L388.023 82.5605Z" fill="url(#paint6_linear_175_21)"/>
<path d="M562.022 159.561C544.423 174.361 561.189 149.727 572.022 135.561C587.222 132.761 617.356 148.394 628.522 157.561C615.322 159.961 607.689 171.561 606.022 176.061C599.022 174.061 587.922 159.261 579.522 154.061C571.122 148.861 566.022 159.061 562.022 159.561Z" fill="url(#paint7_linear_175_21)"/>
<path d="M623.022 187.561C619.422 176.361 626.189 164.894 630.522 161.061C637.322 161.061 646.022 165.394 649.022 167.061C643.189 169.894 630.822 177.161 628.022 183.561C625.222 189.961 623.522 188.894 623.022 187.561Z" fill="url(#paint8_linear_175_21)"/>
<path d="M749.521 154.061C745.922 152.461 718.522 132.227 706.022 124.561C700.522 132.061 700.522 162.061 699.522 174.061C698.722 183.661 681.855 192.061 673.522 195.061V246.561C691.188 244.894 726.622 242.161 727.022 244.561C727.422 246.961 752.521 261.894 765.021 269.061H779.021C806.021 273.061 815.021 285.061 816.021 283.061C817.021 281.061 815.021 238.561 813.021 239.561C811.421 240.361 778.021 216.227 761.521 204.061C759.021 188.061 753.121 155.661 749.521 154.061Z" fill="url(#paint9_linear_175_21)"/>
<path d="M870.521 250.061C870.521 245.661 870.854 240.394 870.021 239.561L841.021 264.561C837.688 274.394 832.521 294.061 840.521 294.061C850.521 294.061 865.521 303.561 870.521 309.561C874.521 314.361 878.521 315.227 880.021 315.061C882.354 312.394 887.521 305.761 889.521 300.561C891.521 295.361 888.687 279.727 887.021 272.561C881.521 266.894 870.521 254.461 870.521 250.061Z" fill="url(#paint10_linear_175_21)"/>
<path d="M481.023 271.061C472.623 269.061 443.523 250.894 430.023 242.061L484.523 210.561C489.856 187.061 501.423 140.261 505.023 141.061C509.523 142.061 560.522 195.061 562.522 196.561C564.122 197.761 564.856 226.061 565.022 240.061C578.022 248.727 604.322 267.461 605.522 273.061C606.722 278.661 606.022 302.061 605.522 313.061C604.022 312.394 599.922 312.061 595.522 316.061C591.122 320.061 582.689 319.727 579.022 319.061C573.522 297.061 544.023 296.561 535.523 296.561C528.723 296.561 505.356 294.227 494.523 293.061C493.523 286.561 489.423 273.061 481.023 271.061Z" fill="url(#paint11_linear_175_21)"/>
<path d="M107.025 212.061C112.625 207.661 124.358 192.894 129.525 186.061C140.324 192.061 158.358 216.227 166.025 227.561C157.025 230.061 130.525 240.561 118.525 247.061C108.925 252.261 106.858 251.227 107.025 250.061C111.025 229.561 107.025 213.061 107.025 212.061Z" stroke="url(#paint12_linear_175_21)"/>
<path d="M245.524 92.0605C236.324 83.2605 236.358 88.3939 237.524 92.0605C233.191 97.8939 224.224 110.361 223.024 113.561C221.524 117.561 191.024 141.061 178.525 146.561C166.025 152.061 155.525 173.561 153.525 178.061C151.525 182.561 169.525 212.061 182.524 216.061C195.524 220.061 227.024 208.561 237.524 208.561C248.024 208.561 255.524 208.561 260.024 216.061C263.624 222.061 274.524 235.894 279.524 242.061C285.691 243.727 298.224 248.361 299.024 253.561C299.824 258.761 303.691 257.727 305.524 256.561C313.924 247.761 327.357 243.227 333.024 242.061C330.69 236.394 326.324 221.761 327.524 208.561C329.024 192.061 322.524 195.061 316.524 193.061C311.724 191.461 300.191 187.727 295.024 186.061C278.524 183.561 284.524 173.061 289.024 170.061C293.524 167.061 295.024 162.061 292.024 155.561C289.024 149.061 257.024 103.061 245.524 92.0605Z" stroke="url(#paint13_linear_175_21)"/>
<path d="M327.524 256.561L366.024 237.061H377.023L366.024 256.561L352.524 300.561H327.524V256.561Z" stroke="url(#paint14_linear_175_21)"/>
<path d="M336.024 137.561L368.524 96.0605C367.024 91.7272 367.624 85.6605 382.023 96.0605C400.023 109.061 409.023 126.561 413.523 130.061C417.123 132.861 417.69 141.227 417.523 145.061C426.323 145.861 449.856 168.061 460.523 179.061L384.523 234.561L372.023 216.061L386.023 173.061L392.023 157.561C382.357 159.894 362.424 164.461 360.024 164.061C357.624 163.661 348.357 159.561 344.024 157.561L336.024 137.561Z" stroke="url(#paint15_linear_175_21)"/>
<path d="M388.023 82.5605L460.523 16.0605L468.023 13.0605C504.523 19.5605 500.523 52.0605 500.023 58.5605C499.623 63.7605 504.189 65.3939 506.523 65.5605C544.523 78.5605 557.023 89.0605 562.522 111.561C566.922 129.561 560.689 134.727 557.023 135.061C548.523 130.561 515.523 118.061 503.023 119.061C493.023 119.861 462.523 130.061 448.523 135.061C436.856 128.394 412.623 114.361 409.023 111.561C405.423 108.761 401.19 106.394 399.523 105.561L388.023 82.5605Z" stroke="url(#paint16_linear_175_21)"/>
<path d="M562.022 159.561C544.423 174.361 561.189 149.727 572.022 135.561C587.222 132.761 617.356 148.394 628.522 157.561C615.322 159.961 607.689 171.561 606.022 176.061C599.022 174.061 587.922 159.261 579.522 154.061C571.122 148.861 566.022 159.061 562.022 159.561Z" stroke="url(#paint17_linear_175_21)"/>
<path d="M623.022 187.561C619.422 176.361 626.189 164.894 630.522 161.061C637.322 161.061 646.022 165.394 649.022 167.061C643.189 169.894 630.822 177.161 628.022 183.561C625.222 189.961 623.522 188.894 623.022 187.561Z" stroke="url(#paint18_linear_175_21)"/>
<path d="M749.521 154.061C745.922 152.461 718.522 132.227 706.022 124.561C700.522 132.061 700.522 162.061 699.522 174.061C698.722 183.661 681.855 192.061 673.522 195.061V246.561C691.188 244.894 726.622 242.161 727.022 244.561C727.422 246.961 752.521 261.894 765.021 269.061H779.021C806.021 273.061 815.021 285.061 816.021 283.061C817.021 281.061 815.021 238.561 813.021 239.561C811.421 240.361 778.021 216.227 761.521 204.061C759.021 188.061 753.121 155.661 749.521 154.061Z" stroke="url(#paint19_linear_175_21)"/>
<path d="M870.521 250.061C870.521 245.661 870.854 240.394 870.021 239.561L841.021 264.561C837.688 274.394 832.521 294.061 840.521 294.061C850.521 294.061 865.521 303.561 870.521 309.561C874.521 314.361 878.521 315.227 880.021 315.061C882.354 312.394 887.521 305.761 889.521 300.561C891.521 295.361 888.687 279.727 887.021 272.561C881.521 266.894 870.521 254.461 870.521 250.061Z" stroke="url(#paint20_linear_175_21)"/>
<path d="M481.023 271.061C472.623 269.061 443.523 250.894 430.023 242.061L484.523 210.561C489.856 187.061 501.423 140.261 505.023 141.061C509.523 142.061 560.522 195.061 562.522 196.561C564.122 197.761 564.856 226.061 565.022 240.061C578.022 248.727 604.322 267.461 605.522 273.061C606.722 278.661 606.022 302.061 605.522 313.061C604.022 312.394 599.922 312.061 595.522 316.061C591.122 320.061 582.689 319.727 579.022 319.061C573.522 297.061 544.023 296.561 535.523 296.561C528.723 296.561 505.356 294.227 494.523 293.061C493.523 286.561 489.423 273.061 481.023 271.061Z" stroke="url(#paint21_linear_175_21)"/>
<path d="M62.9666 221.1C50.9667 206.1 66.2999 203.556 73.4665 202.722C89.4664 194.6 108.466 185.6 110.966 184.1C112.466 171.1 113.307 172.228 117.466 161.6C121.966 150.1 179.256 116.774 207.966 96.5997C226.466 83.5997 245.966 83.5997 238.966 88.5997C232.966 114.6 228.965 124.1 213.966 130.6C198.966 137.1 189.966 149.6 187.966 149.6C161.966 168.4 157.799 177.766 158.966 180.1C162.966 201.1 176.966 218.6 210.966 210.1C244.965 201.6 255.965 208.6 256.465 213.1C256.965 217.6 302.465 260.6 305.965 256.6C309.465 252.6 331.465 242.1 345.465 237.6C356.665 234 373.798 233.6 377.465 235.1C366.298 239.433 336.865 252.2 336.465 258.6C336.065 265 335.023 278.394 333.523 284.561C328.023 284.061 310.465 286.1 292.965 290.1C275.074 294.189 291.965 271.266 302.465 258.6C295.965 259.6 267.465 261.6 265.965 260.1C264.466 258.6 241.966 242.6 236.966 236.1C232.966 230.9 209.632 230.933 196.966 233.1C187.366 221.9 147.966 197.1 129.466 186.1C127.966 193.1 104.466 208.6 107.466 214.1C110.466 219.6 108.466 233.1 108.466 242.6C108.466 250.2 96.7995 249.266 90.4662 251.1C77.9662 259.1 73.9664 249.6 73.9664 247.6C73.9664 245.6 74.5907 235.63 62.9666 221.1Z" fill="url(#paint22_linear_175_21)"/>
<path d="M377.023 218.061C366.223 219.661 351.798 219.433 346.465 218.1C338.965 203.6 360.965 184.1 375.965 181.6C390.965 179.1 383.465 171.1 365.965 166.6C351.965 163 354.798 160.766 357.965 160.1C363.631 161.266 375.765 162.9 378.965 160.1C382.965 156.6 430.964 141.1 414.964 149.1C398.964 157.1 387.965 173.6 393.965 171.1C399.964 168.6 419.964 164.1 415.964 173.6C411.964 183.1 395.465 202.1 385.965 205.1C378.365 207.5 376.689 215.227 377.023 218.061Z" fill="url(#paint23_linear_175_21)"/>
<path d="M336.523 109.561C319.323 114.361 314.465 128.1 313.465 133.6C333.465 140.8 347.965 144.433 351.965 144.1C350.365 126.1 353.631 117.266 355.465 115.1C373.465 96.2997 383.631 95.5997 386.465 97.5997C399.264 106.4 401.798 105.933 401.464 104.6C399.864 84.1997 402.131 78.433 403.464 78.0997C444.664 61.6997 454.631 51.2663 454.464 48.0997C460.131 34.5997 471.47 3.56055 466.522 3.56055C461.022 3.56055 447.022 10.0605 440.022 14.0605C432.604 18.2996 426.224 24.4579 422.022 31.0605C418.522 36.5605 409.081 42.0214 401.523 46.0605C379.123 56.4605 369.672 60.5214 367.023 70.5605C363.866 82.5214 353.723 104.761 336.523 109.561Z" fill="url(#paint24_linear_175_21)"/>
<path d="M435.464 140.6C431.464 132.1 410.464 113.6 409.464 113.1C444.464 117.1 461.964 130.6 459.964 133.1C458.364 135.1 442.964 138.933 435.464 140.6Z" fill="url(#paint25_linear_175_21)"/>
<path d="M498.964 140.6C491.464 140.6 450.131 178.1 430.464 194.6C428.864 209.4 427.465 233.1 432.464 239.6C470.964 219.1 484.964 216.6 485.464 205.1C485.864 195.9 495.964 165.266 500.964 151.1C503.464 146.1 507.373 140.6 498.964 140.6Z" fill="url(#paint26_linear_175_21)"/>
<path d="M634.464 319.1C621.664 308.3 593.464 318.1 583.464 320.6C587.064 326.2 590.63 342.266 591.964 347.6C601.964 346 615.964 342.1 622.964 337.6C634.464 335.6 636.13 321.433 634.464 319.1Z" fill="url(#paint27_linear_175_21)"/>
<path d="M571.464 135.6C557.864 134 548.355 138.894 546.022 142.061C554.022 147.561 556.464 153.6 557.464 155.6C559.964 151.1 567.297 140.433 571.464 135.6Z" fill="url(#paint28_linear_175_21)"/>
<path d="M566.964 166.1C566.164 164.5 561.297 163.433 558.964 163.1C560.464 159.1 571.464 151.1 571.464 154.1C571.464 157.1 567.964 168.1 566.964 166.1Z" fill="url(#paint29_linear_175_21)"/>
<path d="M603.963 175.1C606.297 171.266 613.464 160.7 629.464 155.1C630.464 155.933 632.263 161.6 625.463 171.6C623.797 174.766 620.963 182.8 622.963 189.6C623.095 190.046 623.19 190.422 623.251 190.733C627.834 182.554 633.149 174.946 638.463 171.6C651.963 163.1 664.463 156.6 665.963 155.6C667.463 154.6 665.606 153.92 667.463 145.1C669.463 135.6 676.464 133.6 691.463 128.6C703.245 124.672 706.463 124.266 705.463 124.6C705.963 125.933 705.063 135.5 701.463 149.1C697.863 162.7 699.963 172.1 697.963 176.6C698.13 178.766 693.463 185.3 673.463 194.1C673.296 209.266 673.163 240.6 671.963 246.6C662.963 249.1 642.063 254.5 632.463 254.1C627.963 244.766 617.163 224.7 609.963 219.1C610.847 217.332 615.897 204.107 622.659 191.801C620.324 190.477 612.287 179.64 603.963 175.1Z" fill="url(#paint30_linear_175_21)"/>
<path d="M824.462 248.6C812.462 260.6 814.462 280.6 814.462 283.1C820.862 285.5 834.462 291.766 840.462 294.6C839.662 278.6 842.129 270.6 843.462 268.6C848.262 265 863.796 246.933 869.962 239.6C865.162 235.6 854.962 233.433 851.462 233.1C840.962 235.1 834.062 239 824.462 248.6Z" fill="url(#paint31_linear_175_21)"/>
<path d="M145.466 255.1C141.866 251.9 135.633 245.1 133.466 242.1C133.966 240.1 140.366 234.9 157.966 230.1C175.566 225.3 177.966 228.766 176.966 231.1C167.966 240.433 149.066 258.3 145.466 255.1Z" fill="url(#paint32_linear_175_21)"/>
<path d="M193.466 321.6C190.266 314.4 175.966 298.933 169.466 294.1C170.966 291.1 175.966 286.5 183.966 292.1C191.966 297.7 214.466 312.433 224.466 317.6C220.966 322.1 201.299 322.266 193.466 321.6Z" fill="url(#paint33_linear_175_21)"/>
<path d="M354.965 339.1C337.465 341.6 331.215 333.1 331.965 329.6C334.965 315.6 361.965 308.6 371.465 308.6C365.065 313 359.465 322.266 357.465 325.6C358.265 335.6 356.131 338.766 354.965 339.1Z" fill="url(#paint34_linear_175_21)"/>
<path d="M436.464 350.6C425.264 352.6 420.131 342.766 418.964 337.6C430.464 319.1 456.464 302.6 454.964 306.6C453.764 309.8 447.798 320.933 443.464 325.6C435.864 328.4 435.631 343.433 436.464 350.6Z" fill="url(#paint35_linear_175_21)"/>
<path d="M73.4665 202.722C66.2999 203.556 50.9667 206.1 62.9666 221.1C74.5907 235.63 73.9664 245.6 73.9664 247.6C73.9664 249.6 77.9662 259.1 90.4662 251.1C96.7995 249.266 108.466 250.2 108.466 242.6C108.466 233.1 110.466 219.6 107.466 214.1C104.466 208.6 127.966 193.1 129.466 186.1C147.966 197.1 187.366 221.9 196.966 233.1C209.632 230.933 232.966 230.9 236.966 236.1C241.966 242.6 264.466 258.6 265.966 260.1C267.465 261.6 295.965 259.6 302.465 258.6C291.965 271.266 275.074 294.189 292.965 290.1C310.465 286.1 328.023 284.061 333.523 284.561C335.023 278.394 336.065 265 336.465 258.6C336.865 252.2 366.298 239.433 377.465 235.1C373.798 233.6 356.665 234 345.465 237.6C331.465 242.1 309.465 252.6 305.965 256.6C302.465 260.6 256.965 217.6 256.465 213.1C255.965 208.6 244.965 201.6 210.966 210.1C176.966 218.6 162.966 201.1 158.966 180.1C157.799 177.766 161.966 168.4 187.966 149.6C189.966 149.6 198.966 137.1 213.966 130.6C228.965 124.1 232.966 114.6 238.966 88.5997C245.966 83.5997 226.466 83.5997 207.966 96.5997C179.256 116.774 121.966 150.1 117.466 161.6C113.307 172.228 112.466 171.1 110.966 184.1C108.466 185.6 89.4664 194.6 73.4665 202.722ZM346.465 218.1C351.798 219.433 366.223 219.661 377.023 218.061C376.689 215.227 378.365 207.5 385.965 205.1C395.465 202.1 411.964 183.1 415.964 173.6C419.964 164.1 399.964 168.6 393.965 171.1C387.965 173.6 398.964 157.1 414.964 149.1C430.964 141.1 382.965 156.6 378.965 160.1C375.765 162.9 363.631 161.266 357.965 160.1C354.798 160.766 351.965 163 365.965 166.6C383.465 171.1 390.965 179.1 375.965 181.6C360.965 184.1 338.965 203.6 346.465 218.1ZM313.465 133.6C314.465 128.1 319.323 114.361 336.523 109.561C353.723 104.761 363.866 82.5214 367.023 70.5605C369.672 60.5214 379.123 56.4605 401.523 46.0605C409.081 42.0214 418.522 36.5605 422.022 31.0605C426.224 24.4579 432.604 18.2996 440.022 14.0605C447.022 10.0605 461.022 3.56055 466.522 3.56055C471.47 3.56055 460.131 34.5997 454.464 48.0997C454.631 51.2663 444.664 61.6997 403.464 78.0997C402.131 78.433 399.864 84.1997 401.464 104.6C401.798 105.933 399.264 106.4 386.465 97.5997C383.631 95.5997 373.465 96.2997 355.465 115.1C353.631 117.266 350.365 126.1 351.965 144.1C347.965 144.433 333.465 140.8 313.465 133.6ZM409.464 113.1C410.464 113.6 431.464 132.1 435.464 140.6C442.964 138.933 458.364 135.1 459.964 133.1C461.964 130.6 444.464 117.1 409.464 113.1ZM430.464 194.6C450.131 178.1 491.464 140.6 498.964 140.6C507.373 140.6 503.464 146.1 500.964 151.1C495.964 165.266 485.864 195.9 485.464 205.1C484.964 216.6 470.964 219.1 432.464 239.6C427.465 233.1 428.864 209.4 430.464 194.6ZM583.464 320.6C593.464 318.1 621.664 308.3 634.464 319.1C636.13 321.433 634.464 335.6 622.964 337.6C615.964 342.1 601.964 346 591.964 347.6C590.63 342.266 587.064 326.2 583.464 320.6ZM546.022 142.061C548.355 138.894 557.864 134 571.464 135.6C567.297 140.433 559.964 151.1 557.464 155.6C556.464 153.6 554.022 147.561 546.022 142.061ZM558.964 163.1C561.297 163.433 566.164 164.5 566.964 166.1C567.964 168.1 571.464 157.1 571.464 154.1C571.464 151.1 560.464 159.1 558.964 163.1ZM603.963 175.1C606.297 171.266 613.464 160.7 629.464 155.1C630.464 155.933 632.263 161.6 625.463 171.6C623.797 174.766 620.963 182.8 622.963 189.6C625.463 198.1 614.963 181.1 603.963 175.1ZM609.963 219.1C611.463 216.1 624.963 180.1 638.463 171.6C651.963 163.1 664.463 156.6 665.963 155.6C667.463 154.6 665.606 153.92 667.463 145.1C669.463 135.6 676.464 133.6 691.463 128.6C703.245 124.672 706.463 124.266 705.463 124.6C705.963 125.933 705.063 135.5 701.463 149.1C697.863 162.7 699.963 172.1 697.963 176.6C698.13 178.766 693.463 185.3 673.463 194.1C673.296 209.266 673.163 240.6 671.963 246.6C662.963 249.1 642.063 254.5 632.463 254.1C627.963 244.766 617.163 224.7 609.963 219.1ZM814.462 283.1C814.462 280.6 812.462 260.6 824.462 248.6C834.062 239 840.962 235.1 851.462 233.1C854.962 233.433 865.162 235.6 869.962 239.6C863.796 246.933 848.262 265 843.462 268.6C842.129 270.6 839.662 278.6 840.462 294.6C834.462 291.766 820.862 285.5 814.462 283.1ZM133.466 242.1C135.633 245.1 141.866 251.9 145.466 255.1C149.066 258.3 167.966 240.433 176.966 231.1C177.966 228.766 175.566 225.3 157.966 230.1C140.366 234.9 133.966 240.1 133.466 242.1ZM169.466 294.1C175.966 298.933 190.266 314.4 193.466 321.6C201.299 322.266 220.966 322.1 224.466 317.6C214.466 312.433 191.966 297.7 183.966 292.1C175.966 286.5 170.966 291.1 169.466 294.1ZM331.965 329.6C331.215 333.1 337.465 341.6 354.965 339.1C356.131 338.766 358.265 335.6 357.465 325.6C359.465 322.266 365.065 313 371.465 308.6C361.965 308.6 334.965 315.6 331.965 329.6ZM418.964 337.6C420.131 342.766 425.264 352.6 436.464 350.6C435.631 343.433 435.864 328.4 443.464 325.6C447.798 320.933 453.764 309.8 454.964 306.6C456.464 302.6 430.464 319.1 418.964 337.6Z" stroke="url(#paint36_linear_175_21)"/>
<path d="M114.524 249.061C104.524 252.261 106.357 247.727 108.524 245.061C113.524 241.061 128.024 243.561 129.024 243.061C130.024 242.561 127.024 245.061 114.524 249.061Z" fill="#787B80"/>
<path d="M139.524 274.561C140.324 268.561 143.524 261.394 145.024 258.561C157.824 259.761 165.69 281.061 168.024 291.561C168.024 292.061 166.224 293.561 159.024 295.561C150.024 298.061 138.024 293.061 134.524 291.561C131.024 290.061 138.524 282.061 139.524 274.561Z" fill="#787B80"/>
<path d="M471.022 160.061C471.422 154.461 465.189 138.394 462.022 131.061C470.022 124.261 497.355 119.561 510.022 118.061C529.522 123.061 566.421 133.561 558.021 135.561C549.622 137.561 540.855 146.394 537.522 150.561C533.855 148.894 523.222 144.361 510.022 139.561C493.522 133.561 473.522 160.061 471.022 160.061Z" fill="#787B80"/>
<path d="M424.522 274.561C422.522 261.761 428.689 245.227 431.522 240.061C443.522 249.227 467.422 266.861 479.022 270.061C490.622 273.261 494.522 284.561 494.022 287.561C494.188 289.561 495.222 292.361 498.022 293.561C501.522 295.061 541.022 297.061 556.022 298.561C568.022 299.761 579.188 312.727 582.021 318.561C576.188 316.061 559.322 318.561 554.522 314.561C549.722 310.561 544.022 302.561 541.522 303.561C526.688 305.727 494.522 309.461 484.522 307.061C474.522 304.661 440.355 284.394 424.522 274.561Z" fill="#787B80"/>
<path d="M718.521 285.061C712.021 275.061 674.521 254.561 672.521 253.061V246.061C674.921 244.061 710.187 242.561 727.521 242.061C737.354 250.894 758.52 268.261 764.52 267.061C772.02 265.561 813.52 277.561 813.52 280.061V285.061C814.02 294.561 821.52 301.561 820.52 302.561C819.52 303.561 810.02 305.561 808.02 305.061C806.42 304.661 809.353 291.061 810.02 285.061C809.353 285.061 806.82 284.561 802.02 282.561C796.02 280.061 779.02 278.061 773.02 280.061C768.22 281.661 734.687 284.061 718.521 285.061Z" fill="#787B80"/>
<path d="M870.52 317.561C867.626 315.456 863.02 302.061 859.02 297.561C873.02 289.561 889.52 292.561 892.52 295.561C894.92 297.961 906.686 299.061 911.02 299.061C908.02 308.061 903.226 317.459 896.02 319.061C887.02 321.061 876.02 321.561 870.52 317.561Z" fill="#787B80"/>
<path d="M478.022 374.061C468.522 375.561 435.022 381.561 456.022 360.561C457.355 361.061 463.122 361.761 475.522 360.561C487.922 359.361 495.688 357.061 498.022 356.061C499.522 364.061 490.872 372.032 478.022 374.061Z" fill="#787B80"/>
<path d="M416.522 356.061C412.522 358.861 388.856 358.894 386.023 355.561C388.023 356.761 415.022 343.561 419.522 342.561C419.856 343.061 423.522 343.261 423.522 346.061C423.522 348.861 417.689 356.227 416.522 356.061Z" fill="#787B80"/>
<path d="M61.0242 309.061C59.0242 301.461 48.1909 301.227 43.0243 302.061C33.0243 300.561 35.0243 299.561 53.0242 294.061C67.4241 289.661 79.3574 299.894 83.524 305.561C76.3241 308.361 65.5241 309.061 61.0242 309.061Z" fill="#787B80"/>
<path d="M114.524 249.061C104.524 252.261 106.357 247.727 108.524 245.061C113.524 241.061 128.024 243.561 129.024 243.061C130.024 242.561 127.024 245.061 114.524 249.061Z" stroke="#787B80"/>
<path d="M139.524 274.561C140.324 268.561 143.524 261.394 145.024 258.561C157.824 259.761 165.69 281.061 168.024 291.561C168.024 292.061 166.224 293.561 159.024 295.561C150.024 298.061 138.024 293.061 134.524 291.561C131.024 290.061 138.524 282.061 139.524 274.561Z" stroke="#787B80"/>
<path d="M471.022 160.061C471.422 154.461 465.189 138.394 462.022 131.061C470.022 124.261 497.355 119.561 510.022 118.061C529.522 123.061 566.421 133.561 558.021 135.561C549.622 137.561 540.855 146.394 537.522 150.561C533.855 148.894 523.222 144.361 510.022 139.561C493.522 133.561 473.522 160.061 471.022 160.061Z" stroke="#787B80"/>
<path d="M424.522 274.561C422.522 261.761 428.689 245.227 431.522 240.061C443.522 249.227 467.422 266.861 479.022 270.061C490.622 273.261 494.522 284.561 494.022 287.561C494.188 289.561 495.222 292.361 498.022 293.561C501.522 295.061 541.022 297.061 556.022 298.561C568.022 299.761 579.188 312.727 582.021 318.561C576.188 316.061 559.322 318.561 554.522 314.561C549.722 310.561 544.022 302.561 541.522 303.561C526.688 305.727 494.522 309.461 484.522 307.061C474.522 304.661 440.355 284.394 424.522 274.561Z" stroke="#787B80"/>
<path d="M718.521 285.061C712.021 275.061 674.521 254.561 672.521 253.061V246.061C674.921 244.061 710.187 242.561 727.521 242.061C737.354 250.894 758.52 268.261 764.52 267.061C772.02 265.561 813.52 277.561 813.52 280.061V285.061C814.02 294.561 821.52 301.561 820.52 302.561C819.52 303.561 810.02 305.561 808.02 305.061C806.42 304.661 809.353 291.061 810.02 285.061C809.353 285.061 806.82 284.561 802.02 282.561C796.02 280.061 779.02 278.061 773.02 280.061C768.22 281.661 734.687 284.061 718.521 285.061Z" stroke="#787B80"/>
<path d="M870.52 317.561C867.626 315.456 863.02 302.061 859.02 297.561C873.02 289.561 889.52 292.561 892.52 295.561C894.92 297.961 906.686 299.061 911.02 299.061C908.02 308.061 903.226 317.459 896.02 319.061C887.02 321.061 876.02 321.561 870.52 317.561Z" stroke="#787B80"/>
<path d="M478.022 374.061C468.522 375.561 435.022 381.561 456.022 360.561C457.355 361.061 463.122 361.761 475.522 360.561C487.922 359.361 495.688 357.061 498.022 356.061C499.522 364.061 490.872 372.032 478.022 374.061Z" stroke="#787B80"/>
<path d="M416.522 356.061C412.522 358.861 388.856 358.894 386.023 355.561C388.023 356.761 415.022 343.561 419.522 342.561C419.856 343.061 423.522 343.261 423.522 346.061C423.522 348.861 417.689 356.227 416.522 356.061Z" stroke="#787B80"/>
<path d="M61.0242 309.061C59.0242 301.461 48.1909 301.227 43.0243 302.061C33.0243 300.561 35.0243 299.561 53.0242 294.061C67.4241 289.661 79.3574 299.894 83.524 305.561C76.3241 308.361 65.5241 309.061 61.0242 309.061Z" stroke="#787B80"/>
<path d="M3.52528 294.061C7.40151 282.432 10.3587 276.727 13.0254 276.061C16.3586 280.227 26.0253 290.961 32.0253 296.561C38.0252 302.161 50.8585 302.561 56.5251 302.061C59.3251 308.461 63.0251 309.394 64.5251 309.061C78.525 309.061 83.525 305.561 86.525 306.061C88.9249 306.461 99.0247 318.727 102.525 323.561L98.0247 326.061L92.5247 327.561C68.0249 338.061 26.5251 327.561 13.5251 323.561C0.525216 319.561 -1.47476 309.061 3.52528 294.061Z" fill="#4C5051"/>
<path d="M80.025 265.561C64.0251 256.361 47.0252 256.394 40.5252 257.561C32.025 247.561 58.0249 207.561 59.0249 211.561C60.0249 215.561 80.025 254.06 83.025 253.06C85.425 252.26 101.025 247.394 108.525 245.06C106.692 247.394 105.025 251.56 113.025 249.56C121.025 247.56 129.691 244.06 133.025 242.56C137.691 246.894 146.725 255.961 145.525 257.561C144.325 259.161 143.691 261.727 142.024 262.061C142.858 263.727 140.495 266.695 139.524 271.061C138.524 275.561 135.525 286.894 135.025 292.56C141.825 296.96 160.358 294.061 169.024 293.561C182.524 297.561 195.024 321.061 193.024 321.561C191.024 322.061 140.025 322.061 126.525 322.061C115.725 322.061 111.525 319.894 111.525 318.561C122.025 314.561 122.525 302.061 117.525 292.56C112.525 283.06 100.025 277.061 80.025 265.561Z" fill="#4C5051"/>
<path d="M240.024 270.56C238.424 270.56 211.358 245.894 198.024 233.561C204.824 229.961 225.858 230.727 235.524 231.561C242.191 235.894 256.724 246.361 261.524 253.561C266.324 260.761 291.524 260.227 303.524 259.061C296.724 263.061 289.524 280.727 285.524 289.061C280.324 290.661 257.19 289.394 247.524 288.061C249.524 278.561 242.024 270.56 240.024 270.56Z" fill="#4C5051"/>
<path d="M333.524 284.061C312.724 286.461 291.19 288.394 284.024 290.061C282.024 300.061 294.857 314.561 299.524 318.061C306.023 324.061 325.357 326.394 336.023 325.561C356.523 311.561 358.023 309.561 383.523 307.561C403.923 305.961 425.356 315.561 433.523 320.561C436.19 319.227 442.623 315.161 447.023 309.561C451.423 303.961 462.856 304.561 468.023 305.561C474.69 309.061 489.523 319.061 495.523 331.061C503.023 346.061 494.522 354.061 497.522 356.061C499.922 357.661 517.022 361.227 522.522 362.061C552.522 364.061 582.189 353.561 594.022 347.561C595.222 334.761 585.522 322.061 582.022 319.061C578.189 318.394 568.422 315.161 560.022 307.561C551.622 299.961 542.522 301.727 539.023 303.561C530.856 304.894 510.123 307.561 492.523 307.561C474.923 307.561 439.523 284.227 424.023 272.561C422.823 252.961 428.856 243.061 432.023 240.561C428.023 230.161 429.356 205.894 430.523 195.061C425.023 197.394 410.923 205.361 398.523 218.561C386.123 231.761 379.023 224.061 377.023 218.561C371.023 216.961 354.19 217.894 346.524 218.561C344.524 235.561 352.023 235.061 366.023 234.061C377.223 233.261 376.357 237.394 374.523 239.561C371.357 240.394 363.623 243.761 358.023 250.561C352.423 257.361 350.357 274.727 350.024 282.561C350.524 285.727 350.924 293.061 348.524 297.061C345.524 302.061 337.524 298.561 333.524 297.061C330.324 295.861 332.19 287.894 333.524 284.061Z" fill="#4C5051"/>
<path d="M343.523 157.561C340.723 156.761 321.19 140.227 314.023 134.061C316.023 134.061 346.523 146.061 352.023 144.561C355.023 151.061 347.023 158.561 343.523 157.561Z" fill="#4C5051"/>
<path d="M433.023 136.561C449.823 138.561 459.023 132.561 461.523 131.561C465.523 139.561 470.023 152.061 470.023 159.561C465.523 165.061 455.078 171.061 455.523 172.561C449.023 167.061 442.523 160.061 438.523 157.061C439.323 145.461 434.023 141.061 433.023 136.561Z" fill="#4C5051"/>
<path d="M554.522 162.561C552.122 158.161 541.023 152.727 537.023 150.561C539.023 147.361 544.189 143.561 546.522 142.061C550.856 144.894 559.222 151.361 558.022 154.561C556.822 157.761 556.022 161.227 554.522 162.561Z" fill="#4C5051"/>
<path d="M639.522 299.061C648.722 280.661 638.355 261.394 633.022 255.561C633.822 254.361 659.689 249.727 672.522 247.561V252.061C693.322 260.461 713.355 276.894 721.021 285.061C741.021 280.727 781.845 278.503 790.021 280.061C800.521 282.061 804.021 280.061 809.021 285.061C810.521 286.561 812.521 303.061 811.521 304.061C810.521 305.061 786.021 314.061 752.021 320.061C724.821 324.861 666.855 307.894 639.522 299.061Z" fill="#4C5051"/>
<path d="M848.021 320.061C821.521 320.061 814.021 296.061 814.521 283.061C823.961 288.526 837.023 293.004 842.91 295.023L843.021 295.061C859.521 295.561 864.021 300.061 864.021 303.061C864.021 305.461 869.021 309.061 871.521 310.561C890.021 318.061 894.67 318.129 889.52 320.061C885.52 321.561 856.521 320.061 848.021 320.061Z" fill="#4C5051"/>
<path d="M3.52528 294.061C7.40151 282.432 10.3587 276.727 13.0254 276.061C16.3586 280.227 26.0253 290.961 32.0253 296.561C38.0252 302.161 50.8585 302.561 56.5251 302.061C59.3251 308.461 63.0251 309.394 64.5251 309.061C78.525 309.061 83.525 305.561 86.525 306.061C88.9249 306.461 99.0247 318.727 102.525 323.561L98.0247 326.061L92.5247 327.561C68.0249 338.061 26.5251 327.561 13.5251 323.561C0.525216 319.561 -1.47476 309.061 3.52528 294.061Z" stroke="#4C5051"/>
<path d="M80.025 265.561C64.0251 256.361 47.0252 256.394 40.5252 257.561C32.025 247.561 58.0249 207.561 59.0249 211.561C60.0249 215.561 80.025 254.06 83.025 253.06C85.425 252.26 101.025 247.394 108.525 245.06C106.692 247.394 105.025 251.56 113.025 249.56C121.025 247.56 129.691 244.06 133.025 242.56C137.691 246.894 146.725 255.961 145.525 257.561C144.325 259.161 143.691 261.727 142.024 262.061C142.858 263.727 140.495 266.695 139.524 271.061C138.524 275.561 135.525 286.894 135.025 292.56C141.825 296.96 160.358 294.061 169.024 293.561C182.524 297.561 195.024 321.061 193.024 321.561C191.024 322.061 140.025 322.061 126.525 322.061C115.725 322.061 111.525 319.894 111.525 318.561C122.025 314.561 122.525 302.061 117.525 292.56C112.525 283.06 100.025 277.061 80.025 265.561Z" stroke="#4C5051"/>
<path d="M240.024 270.56C238.424 270.56 211.358 245.894 198.024 233.561C204.824 229.961 225.858 230.727 235.524 231.561C242.191 235.894 256.724 246.361 261.524 253.561C266.324 260.761 291.524 260.227 303.524 259.061C296.724 263.061 289.524 280.727 285.524 289.061C280.324 290.661 257.19 289.394 247.524 288.061C249.524 278.561 242.024 270.56 240.024 270.56Z" stroke="#4C5051"/>
<path d="M333.524 284.061C312.724 286.461 291.19 288.394 284.024 290.061C282.024 300.061 294.857 314.561 299.524 318.061C306.023 324.061 325.357 326.394 336.023 325.561C356.523 311.561 358.023 309.561 383.523 307.561C403.923 305.961 425.356 315.561 433.523 320.561C436.19 319.227 442.623 315.161 447.023 309.561C451.423 303.961 462.856 304.561 468.023 305.561C474.69 309.061 489.523 319.061 495.523 331.061C503.023 346.061 494.522 354.061 497.522 356.061C499.922 357.661 517.022 361.227 522.522 362.061C552.522 364.061 582.189 353.561 594.022 347.561C595.222 334.761 585.522 322.061 582.022 319.061C578.189 318.394 568.422 315.161 560.022 307.561C551.622 299.961 542.522 301.727 539.023 303.561C530.856 304.894 510.123 307.561 492.523 307.561C474.923 307.561 439.523 284.227 424.023 272.561C422.823 252.961 428.856 243.061 432.023 240.561C428.023 230.161 429.356 205.894 430.523 195.061C425.023 197.394 410.923 205.361 398.523 218.561C386.123 231.761 379.023 224.061 377.023 218.561C371.023 216.961 354.19 217.894 346.524 218.561C344.524 235.561 352.023 235.061 366.023 234.061C377.223 233.261 376.357 237.394 374.523 239.561C371.357 240.394 363.623 243.761 358.023 250.561C352.423 257.361 350.357 274.727 350.024 282.561C350.524 285.727 350.924 293.061 348.524 297.061C345.524 302.061 337.524 298.561 333.524 297.061C330.324 295.861 332.19 287.894 333.524 284.061Z" stroke="#4C5051"/>
<path d="M343.523 157.561C340.723 156.761 321.19 140.227 314.023 134.061C316.023 134.061 346.523 146.061 352.023 144.561C355.023 151.061 347.023 158.561 343.523 157.561Z" stroke="#4C5051"/>
<path d="M433.023 136.561C449.823 138.561 459.023 132.561 461.523 131.561C465.523 139.561 470.023 152.061 470.023 159.561C465.523 165.061 455.078 171.061 455.523 172.561C449.023 167.061 442.523 160.061 438.523 157.061C439.323 145.461 434.023 141.061 433.023 136.561Z" stroke="#4C5051"/>
<path d="M554.522 162.561C552.122 158.161 541.023 152.727 537.023 150.561C539.023 147.361 544.189 143.561 546.522 142.061C550.856 144.894 559.222 151.361 558.022 154.561C556.822 157.761 556.022 161.227 554.522 162.561Z" stroke="#4C5051"/>
<path d="M639.522 299.061C648.722 280.661 638.355 261.394 633.022 255.561C633.822 254.361 659.689 249.727 672.522 247.561V252.061C693.322 260.461 713.355 276.894 721.021 285.061C741.021 280.727 781.845 278.503 790.021 280.061C800.521 282.061 804.021 280.061 809.021 285.061C810.521 286.561 812.521 303.061 811.521 304.061C810.521 305.061 786.021 314.061 752.021 320.061C724.821 324.861 666.855 307.894 639.522 299.061Z" stroke="#4C5051"/>
<path d="M848.021 320.061C821.521 320.061 814.021 296.061 814.521 283.061C823.961 288.526 837.023 293.004 842.91 295.023L843.021 295.061C859.521 295.561 864.021 300.061 864.021 303.061C864.021 305.461 869.021 309.061 871.521 310.561C890.021 318.061 894.67 318.129 889.52 320.061C885.52 321.561 856.521 320.061 848.021 320.061Z" stroke="#4C5051"/>
<defs>
<linearGradient id="paint0_linear_175_21" x1="340.7" y1="53.5" x2="457.6" y2="375.633" gradientUnits="userSpaceOnUse">
<stop stop-color="#301318"/>
<stop offset="1" stop-color="#A6A9AE"/>
</linearGradient>
<linearGradient id="paint1_linear_175_21" x1="342.2" y1="16" x2="457.6" y2="375.633" gradientUnits="userSpaceOnUse">
<stop stop-color="#301318"/>
<stop offset="1" stop-color="#A6A9AE"/>
</linearGradient>
<linearGradient id="paint2_linear_175_21" x1="296.7" y1="-3" x2="498.612" y2="319.468" gradientUnits="userSpaceOnUse">
<stop stop-color="#6E0109"/>
<stop offset="0.635417" stop-color="#8F9297"/>
</linearGradient>
<linearGradient id="paint3_linear_175_21" x1="296.7" y1="-3" x2="498.612" y2="319.468" gradientUnits="userSpaceOnUse">
<stop stop-color="#6E0109"/>
<stop offset="0.635417" stop-color="#8F9297"/>
</linearGradient>
<linearGradient id="paint4_linear_175_21" x1="296.7" y1="-3" x2="498.612" y2="319.468" gradientUnits="userSpaceOnUse">
<stop stop-color="#6E0109"/>
<stop offset="0.635417" stop-color="#8F9297"/>
</linearGradient>
<linearGradient id="paint5_linear_175_21" x1="296.7" y1="-3" x2="498.612" y2="319.468" gradientUnits="userSpaceOnUse">
<stop stop-color="#6E0109"/>
<stop offset="0.635417" stop-color="#8F9297"/>
</linearGradient>
<linearGradient id="paint6_linear_175_21" x1="296.7" y1="-3" x2="498.612" y2="319.468" gradientUnits="userSpaceOnUse">
<stop stop-color="#6E0109"/>
<stop offset="0.635417" stop-color="#8F9297"/>
</linearGradient>
<linearGradient id="paint7_linear_175_21" x1="296.7" y1="-3" x2="498.612" y2="319.468" gradientUnits="userSpaceOnUse">
<stop stop-color="#6E0109"/>
<stop offset="0.635417" stop-color="#8F9297"/>
</linearGradient>
<linearGradient id="paint8_linear_175_21" x1="296.7" y1="-3" x2="498.612" y2="319.468" gradientUnits="userSpaceOnUse">
<stop stop-color="#6E0109"/>
<stop offset="0.635417" stop-color="#8F9297"/>
</linearGradient>
<linearGradient id="paint9_linear_175_21" x1="296.7" y1="-3" x2="498.612" y2="319.468" gradientUnits="userSpaceOnUse">
<stop stop-color="#6E0109"/>
<stop offset="0.635417" stop-color="#8F9297"/>
</linearGradient>
<linearGradient id="paint10_linear_175_21" x1="296.7" y1="-3" x2="498.612" y2="319.468" gradientUnits="userSpaceOnUse">
<stop stop-color="#6E0109"/>
<stop offset="0.635417" stop-color="#8F9297"/>
</linearGradient>
<linearGradient id="paint11_linear_175_21" x1="296.7" y1="-3" x2="498.612" y2="319.468" gradientUnits="userSpaceOnUse">
<stop stop-color="#6E0109"/>
<stop offset="0.635417" stop-color="#8F9297"/>
</linearGradient>
<linearGradient id="paint12_linear_175_21" x1="241.7" y1="-12.5" x2="498.612" y2="319.468" gradientUnits="userSpaceOnUse">
<stop stop-color="#6E0109"/>
<stop offset="0.645833" stop-color="#8F9297"/>
</linearGradient>
<linearGradient id="paint13_linear_175_21" x1="241.7" y1="-12.5" x2="498.612" y2="319.468" gradientUnits="userSpaceOnUse">
<stop stop-color="#6E0109"/>
<stop offset="0.645833" stop-color="#8F9297"/>
</linearGradient>
<linearGradient id="paint14_linear_175_21" x1="241.7" y1="-12.5" x2="498.612" y2="319.468" gradientUnits="userSpaceOnUse">
<stop stop-color="#6E0109"/>
<stop offset="0.645833" stop-color="#8F9297"/>
</linearGradient>
<linearGradient id="paint15_linear_175_21" x1="241.7" y1="-12.5" x2="498.612" y2="319.468" gradientUnits="userSpaceOnUse">
<stop stop-color="#6E0109"/>
<stop offset="0.645833" stop-color="#8F9297"/>
</linearGradient>
<linearGradient id="paint16_linear_175_21" x1="241.7" y1="-12.5" x2="498.612" y2="319.468" gradientUnits="userSpaceOnUse">
<stop stop-color="#6E0109"/>
<stop offset="0.645833" stop-color="#8F9297"/>
</linearGradient>
<linearGradient id="paint17_linear_175_21" x1="241.7" y1="-12.5" x2="498.612" y2="319.468" gradientUnits="userSpaceOnUse">
<stop stop-color="#6E0109"/>
<stop offset="0.645833" stop-color="#8F9297"/>
</linearGradient>
<linearGradient id="paint18_linear_175_21" x1="241.7" y1="-12.5" x2="498.612" y2="319.468" gradientUnits="userSpaceOnUse">
<stop stop-color="#6E0109"/>
<stop offset="0.645833" stop-color="#8F9297"/>
</linearGradient>
<linearGradient id="paint19_linear_175_21" x1="241.7" y1="-12.5" x2="498.612" y2="319.468" gradientUnits="userSpaceOnUse">
<stop stop-color="#6E0109"/>
<stop offset="0.645833" stop-color="#8F9297"/>
</linearGradient>
<linearGradient id="paint20_linear_175_21" x1="241.7" y1="-12.5" x2="498.612" y2="319.468" gradientUnits="userSpaceOnUse">
<stop stop-color="#6E0109"/>
<stop offset="0.645833" stop-color="#8F9297"/>
</linearGradient>
<linearGradient id="paint21_linear_175_21" x1="241.7" y1="-12.5" x2="498.612" y2="319.468" gradientUnits="userSpaceOnUse">
<stop stop-color="#6E0109"/>
<stop offset="0.645833" stop-color="#8F9297"/>
</linearGradient>
<linearGradient id="paint22_linear_175_21" x1="279.2" y1="25.5" x2="464.243" y2="350.864" gradientUnits="userSpaceOnUse">
<stop stop-color="#D32B0E"/>
<stop offset="0.441666" stop-color="#5B5E63"/>
</linearGradient>
<linearGradient id="paint23_linear_175_21" x1="279.2" y1="25.5" x2="464.243" y2="350.864" gradientUnits="userSpaceOnUse">
<stop stop-color="#D32B0E"/>
<stop offset="0.441666" stop-color="#5B5E63"/>
</linearGradient>
<linearGradient id="paint24_linear_175_21" x1="279.2" y1="25.5" x2="464.243" y2="350.864" gradientUnits="userSpaceOnUse">
<stop stop-color="#D32B0E"/>
<stop offset="0.441666" stop-color="#5B5E63"/>
</linearGradient>
<linearGradient id="paint25_linear_175_21" x1="279.2" y1="25.5" x2="464.243" y2="350.864" gradientUnits="userSpaceOnUse">
<stop stop-color="#D32B0E"/>
<stop offset="0.441666" stop-color="#5B5E63"/>
</linearGradient>
<linearGradient id="paint26_linear_175_21" x1="279.2" y1="25.5" x2="464.243" y2="350.864" gradientUnits="userSpaceOnUse">
<stop stop-color="#D32B0E"/>
<stop offset="0.441666" stop-color="#5B5E63"/>
</linearGradient>
<linearGradient id="paint27_linear_175_21" x1="279.2" y1="25.5" x2="464.243" y2="350.864" gradientUnits="userSpaceOnUse">
<stop stop-color="#D32B0E"/>
<stop offset="0.441666" stop-color="#5B5E63"/>
</linearGradient>
<linearGradient id="paint28_linear_175_21" x1="279.2" y1="25.5" x2="464.243" y2="350.864" gradientUnits="userSpaceOnUse">
<stop stop-color="#D32B0E"/>
<stop offset="0.441666" stop-color="#5B5E63"/>
</linearGradient>
<linearGradient id="paint29_linear_175_21" x1="279.2" y1="25.5" x2="464.243" y2="350.864" gradientUnits="userSpaceOnUse">
<stop stop-color="#D32B0E"/>
<stop offset="0.441666" stop-color="#5B5E63"/>
</linearGradient>
<linearGradient id="paint30_linear_175_21" x1="279.2" y1="25.5" x2="464.243" y2="350.864" gradientUnits="userSpaceOnUse">
<stop stop-color="#D32B0E"/>
<stop offset="0.441666" stop-color="#5B5E63"/>
</linearGradient>
<linearGradient id="paint31_linear_175_21" x1="279.2" y1="25.5" x2="464.243" y2="350.864" gradientUnits="userSpaceOnUse">
<stop stop-color="#D32B0E"/>
<stop offset="0.441666" stop-color="#5B5E63"/>
</linearGradient>
<linearGradient id="paint32_linear_175_21" x1="279.2" y1="25.5" x2="464.243" y2="350.864" gradientUnits="userSpaceOnUse">
<stop stop-color="#D32B0E"/>
<stop offset="0.441666" stop-color="#5B5E63"/>
</linearGradient>
<linearGradient id="paint33_linear_175_21" x1="279.2" y1="25.5" x2="464.243" y2="350.864" gradientUnits="userSpaceOnUse">
<stop stop-color="#D32B0E"/>
<stop offset="0.441666" stop-color="#5B5E63"/>
</linearGradient>
<linearGradient id="paint34_linear_175_21" x1="279.2" y1="25.5" x2="464.243" y2="350.864" gradientUnits="userSpaceOnUse">
<stop stop-color="#D32B0E"/>
<stop offset="0.441666" stop-color="#5B5E63"/>
</linearGradient>
<linearGradient id="paint35_linear_175_21" x1="279.2" y1="25.5" x2="464.243" y2="350.864" gradientUnits="userSpaceOnUse">
<stop stop-color="#D32B0E"/>
<stop offset="0.441666" stop-color="#5B5E63"/>
</linearGradient>
<linearGradient id="paint36_linear_175_21" x1="196.2" y1="21.5" x2="464.243" y2="350.864" gradientUnits="userSpaceOnUse">
<stop stop-color="#D32B0E"/>
<stop offset="0.427083" stop-color="#5B5E63" stop-opacity="0"/>
</linearGradient>
</defs>
</svg>
