<svg width="1440" height="1024" viewBox="0 0 1440 1024" fill="none" xmlns="http://www.w3.org/2000/svg">
<rect width="1440" height="104" fill="url(#paint0_linear_195_3)"/>
<rect x="1" y="100" width="1437" height="661" fill="url(#paint1_linear_195_3)"/>
<rect y="709" width="1440" height="130" fill="#301318"/>
<path d="M532 714C530.8 713.6 527.5 711 526 709.5H832.5C814.5 713.9 823 715.167 829.5 715.5C856 716.167 923.9 718.4 983.5 722C1058 726.5 907 730.5 831 730.5C770.2 730.5 796.667 733.5 817.5 735C873.667 736.833 995.2 741.6 1032 746C1078 751.5 965 761 939 764.5L938.778 764.53C912.538 768.062 831.282 779 931 779C1011 779 1119.33 781 1163.5 782C1169.17 782.833 1173.5 786.9 1145.5 796.5C1117.5 806.1 1123.17 811.167 1129.5 812.5C1206 818 1245 823.5 1283 828C1313.4 831.6 1285.33 836.833 1267.5 839H209C218.5 837.333 239.6 833.4 248 831C258.5 828 253.5 827 249 826C245.4 825.2 244.167 824.333 244 824C219.5 806 239 812 256 807C273 802 412.5 802.5 460 800C498 798 479.167 794.833 465 793.5C442.834 793.167 389.9 790.4 355.5 782C312.5 771.5 325.5 768.5 346.5 764C367.5 759.5 510.5 753 539.5 752.5C568.5 752 547 749.5 537.5 749.5C528 749.5 401.5 744 380.5 739.5C359.5 735 392 730 396 729.5C399.2 729.1 406 728 409 727.5C417 724.7 412.334 724.667 409 725C401.167 725.667 374.5 725.6 330.5 720C275.5 713 519 716 525.5 716C532 716 533.5 714.5 532 714Z" fill="#6E0109" stroke="#6E0109"/>
<path d="M545.5 713.5C538.7 711.5 535.667 710.167 535 709.5H821C802 714.5 798.5 716.5 813.5 719C825.5 721 895.833 722.833 929.5 723.5C955.833 724.167 995.9 725.5 945.5 725.5C895.1 725.5 821.167 726.833 790.5 727.5C706 737 942.5 746.5 973 747.5C1003.5 748.5 1007.5 750.5 959 754.5C920.2 757.7 846.5 764.5 814.5 767.5C747.7 775.1 767 780.333 785 782C913.5 787.5 1084.5 789.5 1103.5 789.5C1122.5 789.5 1128 788.5 1113 793.5C1101 797.5 1073 805.5 1060.5 809C1045.7 813.8 1048.33 816 1051.5 816.5C1090.83 821 1178.5 830.2 1214.5 831C1250.5 831.8 1229.5 836.667 1214.5 839H284C298.167 835.667 317.1 828 279.5 824C241.9 820 266.166 815.667 283 814C355.5 808 415 808.5 441.5 808.5C462.7 808.5 481.333 807.167 488 806.5C538 798.5 502.166 789.833 478 786.5C464.166 785.833 430.8 783.6 408 780C379.5 775.5 384 771.5 395.5 769C404.7 767 454.333 764.5 478 763.5C496.666 763.167 542.2 761.7 575 758.5C607.8 755.3 598.333 751.5 589.5 750C538.5 743 485 742 436.5 738C388 734 433.5 726 439 725C444.5 724 456 722 439 722C425.4 722 401.333 721.333 391 721C368.5 720 335.6 718 384 718C444.5 718 521 718.5 538.5 719.5C556 720.5 554 716 545.5 713.5Z" fill="#D32B0E" stroke="#D32B0E"/>
<path d="M611 709C611 711.761 608.761 714 606 714C603.239 714 601 711.761 601 709C601 706.239 603.239 704 606 704C608.761 704 611 706.239 611 709Z" fill="#FE5C16"/>
<path d="M657 720C657 722.209 655.209 724 653 724C650.791 724 649 722.209 649 720C649 717.791 650.791 716 653 716C655.209 716 657 717.791 657 720Z" fill="#FE5C16"/>
<path d="M622 750.5C622 752.433 620.433 754 618.5 754C616.567 754 615 752.433 615 750.5C615 748.567 616.567 747 618.5 747C620.433 747 622 748.567 622 750.5Z" fill="#FE5C16"/>
<path d="M721 723.5C721 726.538 718.538 729 715.5 729C712.462 729 710 726.538 710 723.5C710 720.462 712.462 718 715.5 718C718.538 718 721 720.462 721 723.5Z" fill="#FE5C16"/>
<path d="M716 797C716 800.314 713.314 803 710 803C706.686 803 704 800.314 704 797C704 793.686 706.686 791 710 791C713.314 791 716 793.686 716 797Z" fill="#FE5C16"/>
<path d="M733 811C733 813.209 731.209 815 729 815C726.791 815 725 813.209 725 811C725 808.791 726.791 807 729 807C731.209 807 733 808.791 733 811Z" fill="#FE5C16"/>
<path d="M552 799.5C552 801.433 550.433 803 548.5 803C546.567 803 545 801.433 545 799.5C545 797.567 546.567 796 548.5 796C550.433 796 552 797.567 552 799.5Z" fill="#FE5C16"/>
<path d="M894 788.5C894 790.433 892.433 792 890.5 792C888.567 792 887 790.433 887 788.5C887 786.567 888.567 785 890.5 785C892.433 785 894 786.567 894 788.5Z" fill="#FE5C16"/>
<path d="M1023 824.5C1023 826.985 1020.99 829 1018.5 829C1016.01 829 1014 826.985 1014 824.5C1014 822.015 1016.01 820 1018.5 820C1020.99 820 1023 822.015 1023 824.5Z" fill="#FE5C16"/>
<path d="M1078 793.5C1078 795.985 1075.99 798 1073.5 798C1071.01 798 1069 795.985 1069 793.5C1069 791.015 1071.01 789 1073.5 789C1075.99 789 1078 791.015 1078 793.5Z" fill="#FE5C16"/>
<path d="M366 819.5C366 821.985 363.985 824 361.5 824C359.015 824 357 821.985 357 819.5C357 817.015 359.015 815 361.5 815C363.985 815 366 817.015 366 819.5Z" fill="#FE5C16"/>
<path d="M432 775C432 777.209 430.209 779 428 779C425.791 779 424 777.209 424 775C424 772.791 425.791 771 428 771C430.209 771 432 772.791 432 775Z" fill="#FE5C16"/>
<path d="M467 732C467 733.657 465.657 735 464 735C462.343 735 461 733.657 461 732C461 730.343 462.343 729 464 729C465.657 729 467 730.343 467 732Z" fill="#FE5C16"/>
<path d="M544 774C544 774.552 533.255 775 520 775C506.745 775 496 774.552 496 774C496 773.448 506.745 773 520 773C533.255 773 544 773.448 544 774Z" fill="#922005"/>
<path d="M663 795.5C663 796.881 652.255 798 639 798C625.745 798 615 796.881 615 795.5C615 794.119 625.745 793 639 793C652.255 793 663 794.119 663 795.5Z" fill="#922005"/>
<path d="M689 752.5C689 753.328 680.941 754 671 754C661.059 754 653 753.328 653 752.5C653 751.672 661.059 751 671 751C680.941 751 689 751.672 689 752.5Z" fill="#922005"/>
<path d="M673 739C673 739.552 665.837 740 657 740C648.163 740 641 739.552 641 739C641 738.448 648.163 738 657 738C665.837 738 673 738.448 673 739Z" fill="#922005"/>
<path d="M821 820C821 821.105 811.598 822 800 822C788.402 822 779 821.105 779 820C779 818.895 788.402 818 800 818C811.598 818 821 818.895 821 820Z" fill="#922005"/>
<path d="M899 804C899 805.657 888.255 807 875 807C861.745 807 851 805.657 851 804C851 802.343 861.745 801 875 801C888.255 801 899 802.343 899 804Z" fill="#922005"/>
<path d="M1046 802C1046 804.209 1029.43 806 1009 806C988.565 806 972 804.209 972 802C972 799.791 988.565 798 1009 798C1029.43 798 1046 799.791 1046 802Z" fill="#922005"/>
<path d="M179 100H0V715H531C490 689.5 450.5 694.5 422 692.5C393.5 690.5 385.5 689 362.5 678C339.5 667 332.5 671.5 313.5 674.5C298.3 676.9 284.5 677.833 279.5 678C239.5 679.5 221 655.5 219.5 649.5C218 643.5 212 621.5 184 616C161.6 611.6 141 596.5 133.5 589.5C106.5 564 81.5 496 67 452.5C52.5 409 99 346.5 127 318C149.4 295.2 142.333 266.167 136 254.5C116 221.3 156.333 204.333 179 200V100Z" fill="#2A7151"/>
<path d="M1154 74.5H1440V715.5H842.5C855.5 704 931 673.5 965.5 682C1000 690.5 1001.5 694 1047.5 662.5C1084.3 637.3 1121.83 631.333 1136 631.5C1151.5 636.833 1198.8 633.5 1264 577.5C1345.5 507.5 1350.5 455.5 1361 432.5C1371.5 409.5 1346 347.5 1337 331C1328 314.5 1336.5 289.5 1340 256C1343.5 222.5 1288 197 1252.5 200C1217 203 1208 184 1189 161C1173.8 142.6 1159.33 143.667 1154 146.5V74.5Z" fill="#2A7151"/>
<path d="M179 100H0V715H531C490 689.5 450.5 694.5 422 692.5C393.5 690.5 385.5 689 362.5 678C339.5 667 332.5 671.5 313.5 674.5C298.3 676.9 284.5 677.833 279.5 678C239.5 679.5 221 655.5 219.5 649.5C218 643.5 212 621.5 184 616C161.6 611.6 141 596.5 133.5 589.5C106.5 564 81.5 496 67 452.5C52.5 409 99 346.5 127 318C149.4 295.2 142.333 266.167 136 254.5C116 221.3 156.333 204.333 179 200V100Z" stroke="#2A7151"/>
<path d="M1154 74.5H1440V715.5H842.5C855.5 704 931 673.5 965.5 682C1000 690.5 1001.5 694 1047.5 662.5C1084.3 637.3 1121.83 631.333 1136 631.5C1151.5 636.833 1198.8 633.5 1264 577.5C1345.5 507.5 1350.5 455.5 1361 432.5C1371.5 409.5 1346 347.5 1337 331C1328 314.5 1336.5 289.5 1340 256C1343.5 222.5 1288 197 1252.5 200C1217 203 1208 184 1189 161C1173.8 142.6 1159.33 143.667 1154 146.5V74.5Z" stroke="#2A7151"/>
<path d="M1221.5 88.5L1190 0H1440V716C1440 715.6 1205 715.833 1087.5 716C1091.5 710.5 1158.5 664.5 1195.5 669.5C1225.1 673.5 1249.17 640.167 1257.5 623C1299.9 572.2 1324.17 599.167 1331 619C1342 634.833 1359.7 652.5 1342.5 596.5C1321 526.5 1381.5 454.5 1412.5 429C1443.5 403.5 1414 382 1388 372C1362 362 1357.5 338.5 1384 317.5C1405.2 300.7 1390.5 265.833 1380.5 250.5C1327 161.5 1294 176 1251 163.5C1216.6 153.5 1217 109.333 1221.5 88.5Z" fill="#0F4233" stroke="#0F4233"/>
<path d="M151 161.5V0H0V715H224.5C219.5 712 210.5 707 199.5 703C190.7 699.8 180.5 690 176.5 685.5C144.5 644.5 135 666.5 111.5 685.5C92.7 700.7 81.3333 661.833 78 640.5C75.1666 616.667 60.1997 577.6 22.9997 612C-23.5003 655 17.9997 530.5 31.4997 498C42.2997 472 35.9997 455.167 31.4997 450C29.8331 450.333 26.3999 447.2 25.9999 432C25.4999 413 66.4999 344.5 88.9999 327C111.5 309.5 120.5 302.5 104 281.5C90.7998 264.7 104.5 241.5 113 232C146.2 202.8 152.166 172.833 151 161.5Z" fill="#0F4233" stroke="#0F4233"/>
<rect x="1" y="880" width="1438" height="144" fill="url(#paint2_linear_195_3)"/>
<path d="M333.627 905.521C335.031 889.116 322.9 878.346 316.659 875.012C310.47 870.21 306.279 878.346 304.957 883.014C293.254 902.52 281.552 881.013 276.286 870.51C272.073 862.107 279.212 846.002 283.307 839H1220.07L1220.65 839.5C1222.52 843.501 1223.38 848.17 1223.58 850.004C1227.32 886.015 1205.24 883.348 1193.74 877.512C1188.08 877.012 1176.42 877.912 1175.01 885.515C1173.26 895.018 1170.33 897.019 1162.14 896.518C1155.59 896.118 1152 897.685 1151.02 898.519C1148.29 899.519 1141.66 904.321 1136.98 915.524C1131.13 929.529 1109.48 928.028 1103.05 923.527C1097.9 919.926 1093.88 922.027 1092.51 923.527C1084.32 929.529 1079.64 927.528 1079.06 928.028C1059.16 928.028 1056.82 942.033 1049.8 961.039C1042.78 980.045 1004.16 978.545 990.119 972.043C976.077 965.54 966.13 964.54 958.523 965.54C952.438 966.341 945.066 964.207 942.14 963.04C933.247 958.238 926.342 962.039 924.002 964.54C904.693 978.545 884.214 967.041 881.874 963.04C880.002 959.839 872.512 955.704 869.002 954.037C863.346 950.536 849.927 949.535 841.501 973.543C833.076 997.551 805.225 991.215 792.352 985.047C792.352 984.38 788.257 981.546 771.874 975.544C751.395 968.041 742.033 976.044 739.693 978.545C737.82 980.545 730.331 987.047 726.82 990.048C699.32 1009.05 688.203 992.549 678.841 971.042C669.479 949.535 647.83 963.04 620.915 973.543C594 984.046 581.128 981.045 568.841 953.537C559.011 931.53 552.263 953.036 550.117 966.541C551.482 966.874 547.66 973.543 521.447 997.551C488.681 1027.56 465.861 989.548 467.617 985.547C469.021 982.346 465.861 979.212 464.106 978.044C463.911 979.712 459.776 977.944 444.798 957.538C426.074 932.03 406.765 934.03 394.478 929.029C382.191 924.027 380.436 932.03 376.925 934.03C373.414 936.031 364.638 944.534 358.201 941.533C351.765 938.532 331.872 926.028 333.627 905.521Z" fill="url(#paint3_linear_195_3)" stroke="#D32B0E"/>
<defs>
<linearGradient id="paint0_linear_195_3" x1="720" y1="0" x2="720" y2="104" gradientUnits="userSpaceOnUse">
<stop stop-color="#171E26"/>
<stop offset="1" stop-color="#0F3830"/>
</linearGradient>
<linearGradient id="paint1_linear_195_3" x1="719.5" y1="100" x2="719.5" y2="761" gradientUnits="userSpaceOnUse">
<stop stop-color="#0F3730"/>
<stop offset="1" stop-color="#71AF87"/>
</linearGradient>
<linearGradient id="paint2_linear_195_3" x1="720" y1="880" x2="720" y2="1024" gradientUnits="userSpaceOnUse">
<stop offset="0.566666" stop-color="#301318"/>
<stop offset="1" stop-color="#1D212A"/>
</linearGradient>
<linearGradient id="paint3_linear_195_3" x1="749.5" y1="839" x2="749.5" y2="1009" gradientUnits="userSpaceOnUse">
<stop stop-color="#D32B0E"/>
<stop offset="1" stop-color="#881602"/>
</linearGradient>
</defs>
</svg>
