<svg width="967" height="172" viewBox="0 0 967 172" fill="none" xmlns="http://www.w3.org/2000/svg">
<path d="M60.6153 67.5213C62.0432 51.116 49.7075 40.3459 43.3611 37.0115C37.0682 32.21 32.8061 40.3459 31.4616 45.0141C19.5622 64.5203 7.66263 43.0134 2.30787 32.5101C-1.97595 24.1074 5.28273 8.00224 9.44755 1H962.001L962.596 1.50016C964.5 5.50144 965.372 10.1696 965.571 12.0035C969.378 48.015 946.928 45.3475 935.227 39.5123C929.476 39.0122 917.616 39.9124 916.188 47.5149C914.403 57.0179 911.428 59.0186 903.098 58.5184C896.435 58.1183 892.785 59.6854 891.794 60.519C889.017 61.5194 882.274 66.3209 877.514 77.5245C871.565 91.529 849.551 90.0285 843.006 85.527C837.77 81.9259 833.685 84.0266 832.296 85.527C823.967 91.529 819.207 89.5283 818.612 90.0285C798.383 90.0285 796.003 104.033 788.863 123.039C781.724 142.045 742.455 140.545 728.176 134.043C713.897 127.54 703.782 126.54 696.047 127.54C689.86 128.341 682.363 126.207 679.388 125.04C670.345 120.238 663.324 124.039 660.944 126.54C641.31 140.545 620.486 129.041 618.106 125.04C616.202 121.839 608.586 117.704 605.016 116.037C599.265 112.536 585.62 111.535 577.053 135.543C568.485 159.551 540.164 153.215 527.075 147.047C527.075 146.38 522.91 143.546 506.251 137.544C485.427 130.041 475.907 138.044 473.527 140.545C471.623 142.545 464.008 149.047 460.438 152.048C432.474 171.054 421.169 154.549 411.65 133.042C402.13 111.535 380.116 125.04 352.747 135.543C325.379 146.046 312.289 143.045 299.795 115.537C289.799 93.5296 282.937 115.036 280.756 128.541C282.144 128.874 278.257 135.543 251.602 159.551C218.283 189.56 195.079 151.548 196.864 147.547C198.292 144.346 195.079 141.212 193.294 140.044C193.096 141.712 188.892 139.944 173.66 119.538C154.621 94.0298 134.987 96.0304 122.493 91.0288C109.998 86.0272 108.213 94.0298 104.643 96.0304C101.074 98.031 92.1489 106.534 85.6042 103.533C79.0595 100.532 58.8304 88.0278 60.6153 67.5213Z" fill="url(#paint0_linear_171_10)" stroke="#D32B0E"/>
<defs>
<linearGradient id="paint0_linear_171_10" x1="483.5" y1="1" x2="483.5" y2="171" gradientUnits="userSpaceOnUse">
<stop stop-color="#D32B0E"/>
<stop offset="1" stop-color="#881602"/>
</linearGradient>
</defs>
</svg>
