<svg width="1440" height="391" viewBox="0 0 1440 391" fill="none" xmlns="http://www.w3.org/2000/svg">
<path d="M1225 272.5H1440V62C1431.2 68.8 1404 77.8333 1391.5 81.5C1344 89 1353 113 1347 138.5C1342.2 158.9 1325.33 170 1317.5 173C1245.5 217 1225.83 257.667 1225 272.5Z" fill="#8A1E11" stroke="#8A1E11"/>
<path d="M1240 272.5H1440V62C1432.83 68 1413.3 81.5 1392.5 87.5C1366.5 95 1359.5 123.5 1355 147.5C1351.4 166.7 1339.5 173.5 1334 174.5C1320 178.9 1307.83 185 1303.5 187.5C1267.9 204.7 1246.33 251.333 1240 272.5Z" fill="#591512" stroke="#591512"/>
<path d="M1242.5 272.5H1440V76C1436 81.6 1420.67 88.3333 1413.5 91C1364.5 115 1360 154 1351.5 168C1344.7 179.2 1321.67 188 1311 191C1265.4 208.2 1246.33 252.5 1242.5 272.5Z" fill="#301214" stroke="#301214"/>
<path d="M1343 272.5H1440V109C1425 87 1408 113.5 1406 119.5C1404.4 124.3 1392.33 141.5 1386.5 149.5C1354.5 175.9 1344.17 242.5 1343 272.5Z" fill="#210E10" stroke="#210E10"/>
<path d="M1425.5 390H1440L1440 207C1399.5 171.5 1379.5 163.5 1318 205C1256.5 246.5 1112.5 308.5 1135 319C1153 327.4 1232.5 326.167 1270 324.5C1253.2 331.3 1260.33 335.333 1266 336.5C1300.8 350.5 1382.83 352.667 1419.5 352C1404 365 1401 365.5 1407.5 375C1412.7 382.6 1421.67 388.167 1425.5 390Z" fill="url(#paint0_linear_177_37)" stroke="url(#paint1_linear_177_37)"/>
<path d="M1424 288C1434 293.2 1438.83 288.833 1440 286V206.5C1438 203.7 1428.5 196.5 1424 192C1400.5 170 1369.5 173 1341 189.5C1314.68 204.739 1134 306.5 1137 309.5C1141.3 313.801 1158.5 304.5 1185.5 293C1207.1 283.8 1215.16 288.167 1216.5 291.5C1224.5 311.5 1248.5 290 1249.5 288C1250.3 286.4 1253.16 284 1254.5 283C1274 270.5 1277 282.5 1274.5 286C1272.5 288.8 1272.66 290.833 1273 291.5C1275.8 305.5 1285.83 300 1290.5 295.5C1291.66 293 1298 288 1314 288C1334 288 1348.5 288 1355.5 280.5C1362.5 273 1380 261 1398 256.5C1412.4 252.9 1407.33 262.667 1403 268C1396.6 284.8 1405.66 286 1411 284.5C1421.4 281.7 1424 285.667 1424 288Z" fill="url(#paint2_linear_177_37)" stroke="url(#paint3_linear_177_37)"/>
<path d="M1164.5 290.5C1148.56 301 1162.5 295.167 1172 292.5C1186.8 288.1 1202.5 279.667 1208.5 276C1280 232 1338 224.5 1355 222.5C1372 220.5 1365 211 1359.5 209C1355.1 207.4 1357 202.333 1358.5 200C1362.5 189.5 1384.5 182.5 1395.5 182C1404.3 181.6 1404 179.5 1402.5 179C1385 172 1361.5 178 1349 185C1336.5 192 1185 277 1164.5 290.5Z" fill="#5F3620" stroke="#5F3620"/>
<path d="M45 193C41 169.8 13.3333 55.3333 0 1V276H124C157.6 276 180.667 272.333 188 270.5C173.5 231.5 142.5 215 124 222C109.2 227.6 102.167 212.667 100.5 204.5C89.3 180.9 58.8333 187 45 193Z" fill="#8A1E11" stroke="#8A1E11"/>
<path d="M0 276V26C5.33333 55.3333 21 118.9 33 138.5C37.3333 154.167 45.6 184.7 46 191.5C55.1667 187 75.5 183.5 86.5 190.5C79.1667 195.833 66.8 208.1 80 210.5C96.4224 213.486 105.91 218.453 101.07 206.175C101.046 206.116 101.023 206.058 101 206C101.024 206.059 101.047 206.117 101.07 206.175C103.51 212.197 112.558 222.243 118.5 221.5C126.5 220.5 130 220 135.5 220.5C141 221 149.5 222 158 229.5C158.833 245.333 173 278 184.5 262C185 263 187.3 266.1 188.5 270.5C189.182 273 146 276 126 276H0Z" fill="#591512" stroke="#591512"/>
<path d="M0 65.5V276H170.5C161.3 272.8 158.667 263.333 158.5 259C160.5 233.5 139.5 224 126 227.5C112.5 231 98.5 226 85.5 203C75.1 184.6 51.1667 192.667 40.5 199C39.5 172.5 20.5 130 14.5 120.5C9.7 112.9 2.83333 80.6667 0 65.5Z" fill="#301214" stroke="#301214"/>
<path d="M0 175V276H24.5C23.5 264.167 22.1 237.9 24.5 227.5C26.9 217.1 36.8333 203.5 41.5 198C41 193.5 39.5 187.5 38.5 184.5C36 168.5 28.5 150.667 24.5 143.5C17.7 148.7 5.33333 166.667 0 175Z" fill="#210E10"/>
<path d="M77.5 259.5L79 276H87.5L85 262C91 242 104.333 230.167 110 227C107 225.5 105 224.5 103.5 224C102 222.5 102.4 224 90 236C77.6 248 76.5 256.667 77.5 259.5Z" fill="#210E10"/>
<path d="M0 175V276H24.5C23.5 264.167 22.1 237.9 24.5 227.5C26.9 217.1 36.8333 203.5 41.5 198C41 193.5 39.5 187.5 38.5 184.5C36 168.5 28.5 150.667 24.5 143.5C17.7 148.7 5.33333 166.667 0 175Z" stroke="#210E10"/>
<path d="M77.5 259.5L79 276H87.5L85 262C91 242 104.333 230.167 110 227C107 225.5 105 224.5 103.5 224C102 222.5 102.4 224 90 236C77.6 248 76.5 256.667 77.5 259.5Z" stroke="#210E10"/>
<path d="M148.5 298C124.1 303.6 39.3333 304.667 0 304.5V219.5C10 221.1 25.1667 232.833 31.5 238.5C45.8333 243.333 76.1 254.5 82.5 260.5C88.9 266.5 118.5 276.333 132.5 280.5C147.7 281.3 149.5 292.5 148.5 298Z" fill="#5F3620" stroke="#5F3620"/>
<path d="M10 237C5.2 230.6 1.33333 229.333 0 229.5V262C1.33333 263.667 7.1 268.9 19.5 276.5C31.9 284.1 41.6667 282 45 280C55 268.8 67.5 275.333 72.5 280C78.1667 284.833 90.5 293.3 94.5 288.5C99.5 282.5 104.5 284.5 113 288.5C121.5 292.5 121.5 292 134 291.5C144 291.1 145.333 286.667 144 284.5C142 282 132.8 279.2 128 280C122 281 112.5 282.5 102 273.5C93.6 266.3 79.5 264.833 73.5 265C68.1667 265 56.1 262.9 50.5 254.5C43.5 244 31 245 29 245C27 245 16 245 10 237Z" fill="url(#paint4_linear_177_37)" stroke="url(#paint5_linear_177_37)"/>
<path d="M0 262.5V304.5C81.5 306 142.796 300.682 147 299C152 297 149 295.236 149 293C149 290.5 144.5 282 143.5 285C142.5 288 142.5 291 141 291C134.5 293 120 293.5 109.5 286.5C99 279.5 100.5 285 95.5 287.5C90.5 290 90.5 294 72.5 279.5C58.1 267.9 51 272.667 49.5 276.5C48.5 278.5 45.6 281.2 38 282C28.5 283 10.5 273.5 6 266.5C2.4 260.9 0.5 261.5 0 262.5Z" fill="url(#paint6_linear_177_37)" stroke="url(#paint7_linear_177_37)"/>
<defs>
<linearGradient id="paint0_linear_177_37" x1="1286.32" y1="177.004" x2="1286.32" y2="390" gradientUnits="userSpaceOnUse">
<stop stop-color="#631B0F"/>
<stop offset="0.775" stop-color="#370F14"/>
</linearGradient>
<linearGradient id="paint1_linear_177_37" x1="1406" y1="161.5" x2="1251.5" y2="364" gradientUnits="userSpaceOnUse">
<stop stop-color="#631B0F"/>
<stop offset="0.597916" stop-color="#370F14"/>
</linearGradient>
<linearGradient id="paint2_linear_177_37" x1="1421" y1="164.5" x2="1287.43" y2="311.007" gradientUnits="userSpaceOnUse">
<stop stop-color="#194232"/>
<stop offset="1" stop-color="#1A1613"/>
</linearGradient>
<linearGradient id="paint3_linear_177_37" x1="1406.25" y1="167.817" x2="1327.76" y2="330.786" gradientUnits="userSpaceOnUse">
<stop stop-color="#194232"/>
<stop offset="0.597816" stop-color="#1B1714"/>
<stop offset="0.597916" stop-color="#1A1613"/>
</linearGradient>
<linearGradient id="paint4_linear_177_37" x1="29" y1="216" x2="95.5" y2="308" gradientUnits="userSpaceOnUse">
<stop stop-color="#194232"/>
<stop offset="0.894791" stop-color="#1A1613"/>
</linearGradient>
<linearGradient id="paint5_linear_177_37" x1="1.16578e-06" y1="220" x2="98.5" y2="309" gradientUnits="userSpaceOnUse">
<stop stop-color="#194232"/>
<stop offset="0.983333" stop-color="#1A1613"/>
</linearGradient>
<linearGradient id="paint6_linear_177_37" x1="34" y1="273" x2="74.6764" y2="304.724" gradientUnits="userSpaceOnUse">
<stop offset="0.166667" stop-color="#631B0F"/>
<stop offset="1" stop-color="#370F14"/>
</linearGradient>
<linearGradient id="paint7_linear_177_37" x1="1.47568e-06" y1="255.322" x2="65.0145" y2="343.648" gradientUnits="userSpaceOnUse">
<stop stop-color="#631B0F"/>
<stop offset="0.983333" stop-color="#370F14"/>
</linearGradient>
</defs>
</svg>
