<svg width="582" height="351" viewBox="0 0 582 351" fill="none" xmlns="http://www.w3.org/2000/svg">
<path d="M552.175 263.06C550.175 259.06 544.342 258.06 541.675 258.06C545.631 245.202 539.316 235.279 529.017 219.097L528.675 218.56C518.175 202.06 518.175 206.06 509.175 202.56C501.975 199.76 480.842 189.06 471.176 184.06C470.776 175.66 467.676 167.56 466.176 164.56C462.176 149.06 375.176 99.0604 369.676 94.0604C364.176 89.0604 349.176 84.5604 340.176 86.0604C332.976 87.2604 289.177 119.227 268.177 135.06C266.577 122.66 240.844 110.227 228.177 105.56C224.977 90.7604 209.51 67.7271 202.177 58.0604C189.677 51.8938 163.777 37.9604 160.177 31.5604C156.577 25.1604 150.011 19.5604 147.177 17.5605C109.178 -3.93954 97.1776 2.06042 92.1777 1.06042C87.1777 0.0604239 56.1779 21.0604 52.6779 29.0604C49.8779 35.4604 24.8447 66.0604 12.6781 80.5604C-1.32184 99.3604 -5.82178 126.394 -6.32178 137.56C-19.5217 139.96 -36.8217 151.227 -43.8216 156.56C-53.0215 150.96 -67.6548 157.227 -73.8214 161.06C-76.6214 159.86 -82.3214 156.227 -84.8214 154.56C-82.4214 138.16 -97.8214 131.727 -105.821 130.56C-127.821 119.36 -151.654 124.894 -160.821 129.06C-183.221 132.26 -236.154 201.394 -259.82 235.56C-270.22 230.76 -282.82 236.227 -287.82 239.56C-301.82 242.36 -319.987 265.727 -327.32 277.06C-340.82 288.06 -320.82 311.56 -320.82 313.56C-316.82 324.06 -292.82 319.56 -268.32 319.56C-248.72 319.56 -239.821 308.56 -237.821 303.06C-233.321 304.06 -194.321 312.06 -170.821 319.56C-152.021 325.56 -87.3214 307.727 -57.3215 298.06C-55.9882 301.727 -53.1215 312.36 -52.3215 325.56C-51.3215 342.06 -2.32184 347.56 24.178 358.06C45.3779 366.46 73.3444 359.894 84.6777 355.56C83.011 361.727 87.2777 374.36 117.678 375.56C148.077 376.76 161.677 362.727 164.677 355.56C175.177 360.56 228.177 355.56 236.677 353.06C245.177 350.56 250.677 346.06 251.177 337.06C251.577 329.86 248.01 325.06 246.177 323.56C250.677 323.56 255.177 323.06 267.177 323.56C279.177 324.06 287.177 309.56 292.677 305.06C297.077 301.46 296.177 293.56 295.177 290.06C300.377 287.66 323.676 287.727 334.676 288.06C339.676 298.06 352.676 318.46 364.676 320.06C379.676 322.06 439.676 322.06 454.176 322.06C465.776 322.06 470.342 319.394 471.176 318.06C481.976 328.46 506.009 331.727 516.675 332.06C536.175 331.06 576.175 326.06 580.175 314.06C584.175 302.06 575.508 284.394 570.675 277.06C565.342 274.06 554.175 267.06 552.175 263.06Z" fill="url(#paint0_linear_175_15)" stroke="url(#paint1_linear_175_15)"/>
<path d="M475.176 212.061C469.576 207.661 457.842 192.894 452.676 186.061C441.876 192.061 423.842 216.227 416.176 227.561C425.176 230.061 451.676 240.561 463.676 247.061C473.276 252.261 475.342 251.227 475.176 250.061C471.176 229.561 475.176 213.061 475.176 212.061Z" fill="url(#paint2_linear_175_15)"/>
<path d="M336.676 92.0605C345.876 83.2605 345.843 88.3939 344.676 92.0605C349.009 97.8939 357.976 110.361 359.176 113.561C360.676 117.561 391.176 141.061 403.676 146.561C416.176 152.061 426.676 173.561 428.676 178.061C430.676 182.561 412.676 212.061 399.676 216.061C386.676 220.061 355.176 208.561 344.676 208.561C334.176 208.561 326.676 208.561 322.176 216.061C318.576 222.061 307.676 235.894 302.676 242.061C296.51 243.727 283.976 248.361 283.176 253.561C282.376 258.761 278.51 257.727 276.676 256.561C268.276 247.761 254.843 243.227 249.176 242.061C251.51 236.394 255.876 221.761 254.676 208.561C253.176 192.061 259.676 195.061 265.676 193.061C270.476 191.461 282.01 187.727 287.176 186.061C303.676 183.561 297.676 173.061 293.176 170.061C288.676 167.061 287.176 162.061 290.176 155.561C293.176 149.061 325.176 103.061 336.676 92.0605Z" fill="url(#paint3_linear_175_15)"/>
<path d="M254.676 256.561L216.177 237.061H205.177L216.177 256.561L229.677 300.561H254.676V256.561Z" fill="url(#paint4_linear_175_15)"/>
<path d="M246.177 137.561L213.677 96.0605C215.177 91.7272 214.577 85.6605 200.177 96.0605C182.177 109.061 173.177 126.561 168.677 130.061C165.077 132.861 164.51 141.227 164.677 145.061C155.877 145.861 132.344 168.061 121.677 179.061L197.677 234.561L210.177 216.061L196.177 173.061L190.177 157.561C199.843 159.894 219.777 164.461 222.177 164.061C224.577 163.661 233.843 159.561 238.177 157.561L246.177 137.561Z" fill="url(#paint5_linear_175_15)"/>
<path d="M194.177 82.5605L121.677 16.0605L114.177 13.0605C77.6774 19.5605 81.6774 52.0605 82.1774 58.5605C82.5774 63.7605 78.0107 65.3939 75.6774 65.5605C37.6776 78.5605 25.1777 89.0605 19.6777 111.561C15.2777 129.561 21.511 134.727 25.1777 135.061C33.6776 130.561 66.6775 118.061 79.1774 119.061C89.1773 119.861 119.677 130.061 133.677 135.061C145.344 128.394 169.577 114.361 173.177 111.561C176.777 108.761 181.01 106.394 182.677 105.561L194.177 82.5605Z" fill="url(#paint6_linear_175_15)"/>
<path d="M20.1777 159.561C37.7776 174.361 21.011 149.727 10.1778 135.561C-5.02216 132.761 -35.1553 148.394 -46.322 157.561C-33.122 159.961 -25.4887 171.561 -23.8221 176.061C-16.8221 174.061 -5.72217 159.261 2.6778 154.061C11.0778 148.861 16.1777 159.061 20.1777 159.561Z" fill="url(#paint7_linear_175_15)"/>
<path d="M-40.822 187.561C-37.222 176.361 -43.9886 164.894 -48.3219 161.061C-55.1219 161.061 -63.8218 165.394 -66.8218 167.061C-60.9885 169.894 -48.6219 177.161 -45.822 183.561C-43.022 189.961 -41.322 188.894 -40.822 187.561Z" fill="url(#paint8_linear_175_15)"/>
<path d="M-167.321 154.061C-163.721 152.461 -136.321 132.227 -123.822 124.561C-118.322 132.061 -118.322 162.061 -117.322 174.061C-116.522 183.661 -99.655 192.061 -91.3217 195.061V246.561C-108.988 244.894 -144.421 242.161 -144.821 244.561C-145.221 246.961 -170.321 261.894 -182.821 269.061H-196.821C-223.821 273.061 -232.821 285.061 -233.821 283.061C-234.821 281.061 -232.821 238.561 -230.821 239.561C-229.221 240.361 -195.821 216.227 -179.321 204.061C-176.821 188.061 -170.921 155.661 -167.321 154.061Z" fill="url(#paint9_linear_175_15)"/>
<path d="M-288.321 250.061C-288.321 245.661 -288.654 240.394 -287.821 239.561L-258.821 264.561C-255.487 274.394 -250.321 294.061 -258.321 294.061C-268.321 294.061 -283.321 303.561 -288.321 309.561C-292.321 314.361 -296.321 315.227 -297.821 315.061C-300.154 312.394 -305.321 305.761 -307.321 300.561C-309.321 295.361 -306.487 279.727 -304.821 272.561C-299.321 266.894 -288.321 254.461 -288.321 250.061Z" fill="url(#paint10_linear_175_15)"/>
<path d="M101.177 271.061C109.577 269.061 138.677 250.894 152.177 242.061L97.6773 210.561C92.344 187.061 80.7774 140.261 77.1774 141.061C72.6774 142.061 21.6777 195.061 19.6777 196.561C18.0777 197.761 17.3444 226.061 17.1777 240.061C4.1778 248.727 -22.1221 267.461 -23.3221 273.061C-24.5221 278.661 -23.8221 302.061 -23.3221 313.061C-21.8221 312.394 -17.7221 312.061 -13.3221 316.061C-8.92215 320.061 -0.488861 319.727 3.1778 319.061C8.67776 297.061 38.1776 296.561 46.6776 296.561C53.4775 296.561 76.8441 294.227 87.6773 293.061C88.6773 286.561 92.7773 273.061 101.177 271.061Z" fill="url(#paint11_linear_175_15)"/>
<path d="M475.176 212.061C469.576 207.661 457.842 192.894 452.676 186.061C441.876 192.061 423.842 216.227 416.176 227.561C425.176 230.061 451.676 240.561 463.676 247.061C473.276 252.261 475.342 251.227 475.176 250.061C471.176 229.561 475.176 213.061 475.176 212.061Z" stroke="url(#paint12_linear_175_15)"/>
<path d="M336.676 92.0605C345.876 83.2605 345.843 88.3939 344.676 92.0605C349.009 97.8939 357.976 110.361 359.176 113.561C360.676 117.561 391.176 141.061 403.676 146.561C416.176 152.061 426.676 173.561 428.676 178.061C430.676 182.561 412.676 212.061 399.676 216.061C386.676 220.061 355.176 208.561 344.676 208.561C334.176 208.561 326.676 208.561 322.176 216.061C318.576 222.061 307.676 235.894 302.676 242.061C296.51 243.727 283.976 248.361 283.176 253.561C282.376 258.761 278.51 257.727 276.676 256.561C268.276 247.761 254.843 243.227 249.176 242.061C251.51 236.394 255.876 221.761 254.676 208.561C253.176 192.061 259.676 195.061 265.676 193.061C270.476 191.461 282.01 187.727 287.176 186.061C303.676 183.561 297.676 173.061 293.176 170.061C288.676 167.061 287.176 162.061 290.176 155.561C293.176 149.061 325.176 103.061 336.676 92.0605Z" stroke="url(#paint13_linear_175_15)"/>
<path d="M254.676 256.561L216.177 237.061H205.177L216.177 256.561L229.677 300.561H254.676V256.561Z" stroke="url(#paint14_linear_175_15)"/>
<path d="M246.177 137.561L213.677 96.0605C215.177 91.7272 214.577 85.6605 200.177 96.0605C182.177 109.061 173.177 126.561 168.677 130.061C165.077 132.861 164.51 141.227 164.677 145.061C155.877 145.861 132.344 168.061 121.677 179.061L197.677 234.561L210.177 216.061L196.177 173.061L190.177 157.561C199.843 159.894 219.777 164.461 222.177 164.061C224.577 163.661 233.843 159.561 238.177 157.561L246.177 137.561Z" stroke="url(#paint15_linear_175_15)"/>
<path d="M194.177 82.5605L121.677 16.0605L114.177 13.0605C77.6774 19.5605 81.6774 52.0605 82.1774 58.5605C82.5774 63.7605 78.0107 65.3939 75.6774 65.5605C37.6776 78.5605 25.1777 89.0605 19.6777 111.561C15.2777 129.561 21.511 134.727 25.1777 135.061C33.6776 130.561 66.6775 118.061 79.1774 119.061C89.1773 119.861 119.677 130.061 133.677 135.061C145.344 128.394 169.577 114.361 173.177 111.561C176.777 108.761 181.01 106.394 182.677 105.561L194.177 82.5605Z" stroke="url(#paint16_linear_175_15)"/>
<path d="M20.1777 159.561C37.7776 174.361 21.011 149.727 10.1778 135.561C-5.02216 132.761 -35.1553 148.394 -46.322 157.561C-33.122 159.961 -25.4887 171.561 -23.8221 176.061C-16.8221 174.061 -5.72217 159.261 2.6778 154.061C11.0778 148.861 16.1777 159.061 20.1777 159.561Z" stroke="url(#paint17_linear_175_15)"/>
<path d="M-40.822 187.561C-37.222 176.361 -43.9886 164.894 -48.3219 161.061C-55.1219 161.061 -63.8218 165.394 -66.8218 167.061C-60.9885 169.894 -48.6219 177.161 -45.822 183.561C-43.022 189.961 -41.322 188.894 -40.822 187.561Z" stroke="url(#paint18_linear_175_15)"/>
<path d="M-167.321 154.061C-163.721 152.461 -136.321 132.227 -123.822 124.561C-118.322 132.061 -118.322 162.061 -117.322 174.061C-116.522 183.661 -99.655 192.061 -91.3217 195.061V246.561C-108.988 244.894 -144.421 242.161 -144.821 244.561C-145.221 246.961 -170.321 261.894 -182.821 269.061H-196.821C-223.821 273.061 -232.821 285.061 -233.821 283.061C-234.821 281.061 -232.821 238.561 -230.821 239.561C-229.221 240.361 -195.821 216.227 -179.321 204.061C-176.821 188.061 -170.921 155.661 -167.321 154.061Z" stroke="url(#paint19_linear_175_15)"/>
<path d="M-288.321 250.061C-288.321 245.661 -288.654 240.394 -287.821 239.561L-258.821 264.561C-255.487 274.394 -250.321 294.061 -258.321 294.061C-268.321 294.061 -283.321 303.561 -288.321 309.561C-292.321 314.361 -296.321 315.227 -297.821 315.061C-300.154 312.394 -305.321 305.761 -307.321 300.561C-309.321 295.361 -306.487 279.727 -304.821 272.561C-299.321 266.894 -288.321 254.461 -288.321 250.061Z" stroke="url(#paint20_linear_175_15)"/>
<path d="M101.177 271.061C109.577 269.061 138.677 250.894 152.177 242.061L97.6773 210.561C92.344 187.061 80.7774 140.261 77.1774 141.061C72.6774 142.061 21.6777 195.061 19.6777 196.561C18.0777 197.761 17.3444 226.061 17.1777 240.061C4.1778 248.727 -22.1221 267.461 -23.3221 273.061C-24.5221 278.661 -23.8221 302.061 -23.3221 313.061C-21.8221 312.394 -17.7221 312.061 -13.3221 316.061C-8.92215 320.061 -0.488861 319.727 3.1778 319.061C8.67776 297.061 38.1776 296.561 46.6776 296.561C53.4775 296.561 76.8441 294.227 87.6773 293.061C88.6773 286.561 92.7773 273.061 101.177 271.061Z" stroke="url(#paint21_linear_175_15)"/>
<path d="M519.233 221.1C531.233 206.1 515.9 203.556 508.733 202.722C492.734 194.6 473.734 185.6 471.234 184.1C469.734 171.1 468.892 172.228 464.734 161.6C460.234 150.1 402.943 116.774 374.234 96.5997C355.734 83.5997 336.234 83.5997 343.234 88.5997C349.234 114.6 353.234 124.1 368.234 130.6C383.234 137.1 392.234 149.6 394.234 149.6C420.234 168.4 424.401 177.766 423.234 180.1C419.234 201.1 405.234 218.6 371.234 210.1C337.235 201.6 326.235 208.6 325.735 213.1C325.235 217.6 279.735 260.6 276.235 256.6C272.735 252.6 250.735 242.1 236.735 237.6C225.535 234 208.402 233.6 204.735 235.1C215.902 239.433 245.335 252.2 245.735 258.6C246.135 265 247.177 278.394 248.677 284.561C254.177 284.061 271.735 286.1 289.235 290.1C307.125 294.189 290.235 271.266 279.735 258.6C286.235 259.6 314.734 261.6 316.234 260.1C317.734 258.6 340.234 242.6 345.234 236.1C349.234 230.9 372.568 230.933 385.234 233.1C394.834 221.9 434.234 197.1 452.734 186.1C454.234 193.1 477.734 208.6 474.734 214.1C471.734 219.6 473.734 233.1 473.734 242.6C473.734 250.2 485.4 249.266 491.734 251.1C504.234 259.1 508.234 249.6 508.234 247.6C508.234 245.6 507.609 235.63 519.233 221.1Z" fill="url(#paint22_linear_175_15)"/>
<path d="M205.177 218.061C215.977 219.661 230.402 219.433 235.735 218.1C243.235 203.6 221.235 184.1 206.235 181.6C191.235 179.1 198.735 171.1 216.235 166.6C230.235 163 227.402 160.766 224.235 160.1C218.569 161.266 206.435 162.9 203.235 160.1C199.235 156.6 151.236 141.1 167.236 149.1C183.235 157.1 194.235 173.6 188.235 171.1C182.235 168.6 162.236 164.1 166.236 173.6C170.236 183.1 186.735 202.1 196.235 205.1C203.835 207.5 205.511 215.227 205.177 218.061Z" fill="url(#paint23_linear_175_15)"/>
<path d="M245.677 109.561C262.877 114.361 267.735 128.1 268.735 133.6C248.735 140.8 234.235 144.433 230.235 144.1C231.835 126.1 228.569 117.266 226.735 115.1C208.735 96.2997 198.569 95.5997 195.735 97.5997C182.935 106.4 180.402 105.933 180.735 104.6C182.335 84.1997 180.069 78.433 178.736 78.0997C137.536 61.6997 127.569 51.2663 127.736 48.0997C122.069 34.5997 110.73 3.56055 115.678 3.56055C121.178 3.56055 135.178 10.0605 142.178 14.0605C149.596 18.2996 155.976 24.4579 160.177 31.0605C163.677 36.5605 173.119 42.0214 180.677 46.0605C203.077 56.4605 212.528 60.5214 215.177 70.5605C218.334 82.5214 228.477 104.761 245.677 109.561Z" fill="url(#paint24_linear_175_15)"/>
<path d="M146.736 140.6C150.736 132.1 171.736 113.6 172.736 113.1C137.736 117.1 120.236 130.6 122.236 133.1C123.836 135.1 139.236 138.933 146.736 140.6Z" fill="url(#paint25_linear_175_15)"/>
<path d="M83.236 140.6C90.7357 140.6 132.069 178.1 151.736 194.6C153.336 209.4 154.735 233.1 149.736 239.6C111.236 219.1 97.2359 216.6 96.7359 205.1C96.3359 195.9 86.236 165.266 81.236 151.1C78.736 146.1 74.8265 140.6 83.236 140.6Z" fill="url(#paint26_linear_175_15)"/>
<path d="M-52.2635 319.1C-39.4636 308.3 -11.2641 318.1 -1.26385 320.6C-4.86383 326.2 -8.43048 342.266 -9.76379 347.6C-19.7637 346 -33.7637 342.1 -40.7636 337.6C-52.2635 335.6 -53.9302 321.433 -52.2635 319.1Z" fill="url(#paint27_linear_175_15)"/>
<path d="M10.7364 135.6C24.3363 134 33.8448 138.894 36.1782 142.061C28.1782 147.561 25.7363 153.6 24.7363 155.6C22.236 151.1 14.903 140.433 10.7364 135.6Z" fill="url(#paint28_linear_175_15)"/>
<path d="M15.2364 166.1C16.0364 164.5 20.903 163.433 23.2363 163.1C21.7363 159.1 10.7364 151.1 10.7364 154.1C10.7364 157.1 14.2364 168.1 15.2364 166.1Z" fill="url(#paint29_linear_175_15)"/>
<path d="M-21.7634 175.1C-24.0967 171.266 -31.2639 160.7 -47.2638 155.1C-48.2638 155.933 -50.0633 161.6 -43.2633 171.6C-41.5967 174.766 -38.7634 182.8 -40.7633 189.6C-40.8946 190.046 -40.9901 190.422 -41.0515 190.733C-45.6339 182.554 -50.9486 174.946 -56.2632 171.6C-69.7632 163.1 -82.2634 156.6 -83.7634 155.6C-85.2634 154.6 -83.4064 153.92 -85.2634 145.1C-87.2634 135.6 -94.2637 133.6 -109.263 128.6C-121.045 124.672 -124.263 124.266 -123.263 124.6C-123.763 125.933 -122.863 135.5 -119.263 149.1C-115.663 162.7 -117.763 172.1 -115.763 176.6C-115.93 178.766 -111.263 185.3 -91.2631 194.1C-91.0964 209.266 -90.9634 240.6 -89.7634 246.6C-80.7634 249.1 -59.8632 254.5 -50.2633 254.1C-45.7633 244.766 -34.9634 224.7 -27.7634 219.1C-28.6473 217.332 -33.6975 204.107 -40.4591 191.801C-38.1236 190.477 -30.0867 179.64 -21.7634 175.1Z" fill="url(#paint30_linear_175_15)"/>
<path d="M-242.262 248.6C-230.262 260.6 -232.262 280.6 -232.262 283.1C-238.662 285.5 -252.262 291.766 -258.262 294.6C-257.462 278.6 -259.929 270.6 -261.262 268.6C-266.062 265 -281.596 246.933 -287.763 239.6C-282.963 235.6 -272.762 233.433 -269.262 233.1C-258.762 235.1 -251.862 239 -242.262 248.6Z" fill="url(#paint31_linear_175_15)"/>
<path d="M436.734 255.1C440.334 251.9 446.567 245.1 448.734 242.1C448.234 240.1 441.834 234.9 424.234 230.1C406.634 225.3 404.234 228.766 405.234 231.1C414.234 240.433 433.134 258.3 436.734 255.1Z" fill="url(#paint32_linear_175_15)"/>
<path d="M388.734 321.6C391.934 314.4 406.234 298.933 412.734 294.1C411.234 291.1 406.234 286.5 398.234 292.1C390.234 297.7 367.734 312.433 357.734 317.6C361.234 322.1 380.901 322.266 388.734 321.6Z" fill="url(#paint33_linear_175_15)"/>
<path d="M227.235 339.1C244.735 341.6 250.985 333.1 250.235 329.6C247.235 315.6 220.235 308.6 210.735 308.6C217.135 313 222.735 322.266 224.735 325.6C223.935 335.6 226.069 338.766 227.235 339.1Z" fill="url(#paint34_linear_175_15)"/>
<path d="M145.736 350.6C156.936 352.6 162.069 342.766 163.236 337.6C151.736 319.1 125.735 302.6 127.235 306.6C128.435 309.8 134.402 320.933 138.736 325.6C146.336 328.4 146.569 343.433 145.736 350.6Z" fill="url(#paint35_linear_175_15)"/>
<path d="M508.733 202.722C515.9 203.556 531.233 206.1 519.233 221.1C507.609 235.63 508.234 245.6 508.234 247.6C508.234 249.6 504.234 259.1 491.734 251.1C485.4 249.266 473.734 250.2 473.734 242.6C473.734 233.1 471.734 219.6 474.734 214.1C477.734 208.6 454.234 193.1 452.734 186.1C434.234 197.1 394.834 221.9 385.234 233.1C372.568 230.933 349.234 230.9 345.234 236.1C340.234 242.6 317.734 258.6 316.234 260.1C314.734 261.6 286.235 259.6 279.735 258.6C290.235 271.266 307.125 294.189 289.235 290.1C271.735 286.1 254.177 284.061 248.677 284.561C247.177 278.394 246.135 265 245.735 258.6C245.335 252.2 215.902 239.433 204.735 235.1C208.402 233.6 225.535 234 236.735 237.6C250.735 242.1 272.735 252.6 276.235 256.6C279.735 260.6 325.235 217.6 325.735 213.1C326.235 208.6 337.235 201.6 371.234 210.1C405.234 218.6 419.234 201.1 423.234 180.1C424.401 177.766 420.234 168.4 394.234 149.6C392.234 149.6 383.234 137.1 368.234 130.6C353.234 124.1 349.234 114.6 343.234 88.5997C336.234 83.5997 355.734 83.5997 374.234 96.5997C402.943 116.774 460.234 150.1 464.734 161.6C468.892 172.228 469.734 171.1 471.234 184.1C473.734 185.6 492.734 194.6 508.733 202.722ZM235.735 218.1C230.402 219.433 215.977 219.661 205.177 218.061C205.511 215.227 203.835 207.5 196.235 205.1C186.735 202.1 170.236 183.1 166.236 173.6C162.236 164.1 182.235 168.6 188.235 171.1C194.235 173.6 183.235 157.1 167.236 149.1C151.236 141.1 199.235 156.6 203.235 160.1C206.435 162.9 218.569 161.266 224.235 160.1C227.402 160.766 230.235 163 216.235 166.6C198.735 171.1 191.235 179.1 206.235 181.6C221.235 184.1 243.235 203.6 235.735 218.1ZM268.735 133.6C267.735 128.1 262.877 114.361 245.677 109.561C228.477 104.761 218.334 82.5214 215.177 70.5605C212.528 60.5214 203.077 56.4605 180.677 46.0605C173.119 42.0214 163.677 36.5605 160.177 31.0605C155.976 24.4579 149.596 18.2996 142.178 14.0605C135.178 10.0605 121.178 3.56055 115.678 3.56055C110.73 3.56055 122.069 34.5997 127.736 48.0997C127.569 51.2663 137.536 61.6997 178.735 78.0997C180.069 78.433 182.335 84.1997 180.735 104.6C180.402 105.933 182.935 106.4 195.735 97.5997C198.569 95.5997 208.735 96.2997 226.735 115.1C228.569 117.266 231.835 126.1 230.235 144.1C234.235 144.433 248.735 140.8 268.735 133.6ZM172.736 113.1C171.736 113.6 150.736 132.1 146.736 140.6C139.236 138.933 123.836 135.1 122.236 133.1C120.236 130.6 137.736 117.1 172.736 113.1ZM151.736 194.6C132.069 178.1 90.7357 140.6 83.236 140.6C74.8265 140.6 78.736 146.1 81.236 151.1C86.236 165.266 96.3359 195.9 96.7359 205.1C97.2359 216.6 111.236 219.1 149.736 239.6C154.735 233.1 153.336 209.4 151.736 194.6ZM-1.26385 320.6C-11.2641 318.1 -39.4636 308.3 -52.2636 319.1C-53.9302 321.433 -52.2636 335.6 -40.7636 337.6C-33.7637 342.1 -19.7637 346 -9.7638 347.6C-8.43047 342.266 -4.86383 326.2 -1.26385 320.6ZM36.1782 142.061C33.8448 138.894 24.3363 134 10.7364 135.6C14.903 140.433 22.236 151.1 24.7363 155.6C25.7363 153.6 28.1782 147.561 36.1782 142.061ZM23.2363 163.1C20.903 163.433 16.0364 164.5 15.2364 166.1C14.2364 168.1 10.7364 157.1 10.7364 154.1C10.7364 151.1 21.7363 159.1 23.2363 163.1ZM-21.7634 175.1C-24.0968 171.266 -31.2639 160.7 -47.2638 155.1C-48.2638 155.933 -50.0633 161.6 -43.2633 171.6C-41.5967 174.766 -38.7633 182.8 -40.7633 189.6C-43.2633 198.1 -32.7634 181.1 -21.7634 175.1ZM-27.7634 219.1C-29.2634 216.1 -42.7633 180.1 -56.2632 171.6C-69.7632 163.1 -82.2634 156.6 -83.7634 155.6C-85.2634 154.6 -83.4065 153.92 -85.2634 145.1C-87.2634 135.6 -94.2637 133.6 -109.263 128.6C-121.045 124.672 -124.263 124.266 -123.263 124.6C-123.763 125.933 -122.863 135.5 -119.263 149.1C-115.663 162.7 -117.763 172.1 -115.763 176.6C-115.93 178.766 -111.263 185.3 -91.2631 194.1C-91.0964 209.266 -90.9634 240.6 -89.7634 246.6C-80.7634 249.1 -59.8632 254.5 -50.2633 254.1C-45.7633 244.766 -34.9634 224.7 -27.7634 219.1ZM-232.262 283.1C-232.262 280.6 -230.262 260.6 -242.262 248.6C-251.862 239 -258.762 235.1 -269.262 233.1C-272.762 233.433 -282.963 235.6 -287.762 239.6C-281.596 246.933 -266.062 265 -261.262 268.6C-259.929 270.6 -257.462 278.6 -258.262 294.6C-252.262 291.766 -238.662 285.5 -232.262 283.1ZM448.734 242.1C446.567 245.1 440.334 251.9 436.734 255.1C433.134 258.3 414.234 240.433 405.234 231.1C404.234 228.766 406.634 225.3 424.234 230.1C441.834 234.9 448.234 240.1 448.734 242.1ZM412.734 294.1C406.234 298.933 391.934 314.4 388.734 321.6C380.901 322.266 361.234 322.1 357.734 317.6C367.734 312.433 390.234 297.7 398.234 292.1C406.234 286.5 411.234 291.1 412.734 294.1ZM250.235 329.6C250.985 333.1 244.735 341.6 227.235 339.1C226.069 338.766 223.935 335.6 224.735 325.6C222.735 322.266 217.135 313 210.735 308.6C220.235 308.6 247.235 315.6 250.235 329.6ZM163.236 337.6C162.069 342.766 156.936 352.6 145.736 350.6C146.569 343.433 146.336 328.4 138.736 325.6C134.402 320.933 128.435 309.8 127.235 306.6C125.735 302.6 151.736 319.1 163.236 337.6Z" stroke="url(#paint36_linear_175_15)"/>
<path d="M467.676 249.061C477.676 252.261 475.842 247.727 473.676 245.061C468.676 241.061 454.176 243.561 453.176 243.061C452.176 242.561 455.176 245.061 467.676 249.061Z" fill="#787B80"/>
<path d="M442.676 274.561C441.876 268.561 438.676 261.394 437.176 258.561C424.376 259.761 416.509 281.061 414.176 291.561C414.176 292.061 415.976 293.561 423.176 295.561C432.176 298.061 444.176 293.061 447.676 291.561C451.176 290.061 443.676 282.061 442.676 274.561Z" fill="#787B80"/>
<path d="M111.178 160.061C110.778 154.461 117.011 138.394 120.178 131.061C112.178 124.261 84.8445 119.561 72.1779 118.061C52.6781 123.061 15.7783 133.561 24.1782 135.561C32.5782 137.561 41.3448 146.394 44.6781 150.561C48.3448 148.894 58.978 144.361 72.1779 139.561C88.6779 133.561 108.678 160.061 111.178 160.061Z" fill="#787B80"/>
<path d="M157.677 274.561C159.677 261.761 153.511 245.227 150.677 240.061C138.677 249.227 114.778 266.861 103.178 270.061C91.5777 273.261 87.6779 284.561 88.1779 287.561C88.0112 289.561 86.9778 292.361 84.1778 293.561C80.6778 295.061 41.178 297.061 26.1781 298.561C14.178 299.761 3.01154 312.727 0.178223 318.561C6.01154 316.061 22.8781 318.561 27.678 314.561C32.478 310.561 38.1781 302.561 40.6781 303.561C55.5114 305.727 87.6779 309.461 97.6778 307.061C107.678 304.661 141.844 284.394 157.677 274.561Z" fill="#787B80"/>
<path d="M-136.321 285.061C-129.821 275.061 -92.3212 254.561 -90.3212 253.061V246.061C-92.7212 244.061 -127.988 242.561 -145.321 242.061C-155.154 250.894 -176.321 268.261 -182.321 267.061C-189.821 265.561 -231.32 277.561 -231.32 280.061V285.061C-231.82 294.561 -239.32 301.561 -238.32 302.561C-237.32 303.561 -227.821 305.561 -225.821 305.061C-224.221 304.661 -227.154 291.061 -227.82 285.061C-227.154 285.061 -224.62 284.561 -219.82 282.561C-213.82 280.061 -196.821 278.061 -190.821 280.061C-186.021 281.661 -152.487 284.061 -136.321 285.061Z" fill="#787B80"/>
<path d="M-288.32 317.561C-285.427 315.456 -280.82 302.061 -276.82 297.561C-290.82 289.561 -307.32 292.561 -310.32 295.561C-312.72 297.961 -324.487 299.061 -328.82 299.061C-325.82 308.061 -321.027 317.459 -313.82 319.061C-304.82 321.061 -293.82 321.561 -288.32 317.561Z" fill="#787B80"/>
<path d="M104.178 374.061C113.678 375.561 147.177 381.561 126.178 360.561C124.844 361.061 119.078 361.761 106.678 360.561C94.2778 359.361 86.5112 357.061 84.1779 356.061C82.6778 364.061 91.3273 372.032 104.178 374.061Z" fill="#787B80"/>
<path d="M165.677 356.061C169.677 358.861 193.344 358.894 196.177 355.561C194.177 356.761 167.177 343.561 162.677 342.561C162.344 343.061 158.677 343.261 158.677 346.061C158.677 348.861 164.511 356.227 165.677 356.061Z" fill="#787B80"/>
<path d="M521.176 309.061C523.176 301.461 534.009 301.227 539.175 302.061C549.175 300.561 547.175 299.561 529.176 294.061C514.776 289.661 502.842 299.894 498.676 305.561C505.876 308.361 516.676 309.061 521.176 309.061Z" fill="#787B80"/>
<path d="M467.676 249.061C477.676 252.261 475.842 247.727 473.676 245.061C468.676 241.061 454.176 243.561 453.176 243.061C452.176 242.561 455.176 245.061 467.676 249.061Z" stroke="#787B80"/>
<path d="M442.676 274.561C441.876 268.561 438.676 261.394 437.176 258.561C424.376 259.761 416.509 281.061 414.176 291.561C414.176 292.061 415.976 293.561 423.176 295.561C432.176 298.061 444.176 293.061 447.676 291.561C451.176 290.061 443.676 282.061 442.676 274.561Z" stroke="#787B80"/>
<path d="M111.178 160.061C110.778 154.461 117.011 138.394 120.178 131.061C112.178 124.261 84.8445 119.561 72.1779 118.061C52.6781 123.061 15.7783 133.561 24.1782 135.561C32.5782 137.561 41.3448 146.394 44.6781 150.561C48.3448 148.894 58.978 144.361 72.1779 139.561C88.6779 133.561 108.678 160.061 111.178 160.061Z" stroke="#787B80"/>
<path d="M157.677 274.561C159.677 261.761 153.511 245.227 150.677 240.061C138.677 249.227 114.778 266.861 103.178 270.061C91.5777 273.261 87.6779 284.561 88.1779 287.561C88.0112 289.561 86.9778 292.361 84.1778 293.561C80.6778 295.061 41.178 297.061 26.1781 298.561C14.178 299.761 3.01154 312.727 0.178223 318.561C6.01154 316.061 22.8781 318.561 27.678 314.561C32.478 310.561 38.1781 302.561 40.6781 303.561C55.5114 305.727 87.6779 309.461 97.6778 307.061C107.678 304.661 141.844 284.394 157.677 274.561Z" stroke="#787B80"/>
<path d="M-136.321 285.061C-129.821 275.061 -92.3212 254.561 -90.3212 253.061V246.061C-92.7212 244.061 -127.988 242.561 -145.321 242.061C-155.154 250.894 -176.321 268.261 -182.321 267.061C-189.821 265.561 -231.32 277.561 -231.32 280.061V285.061C-231.82 294.561 -239.32 301.561 -238.32 302.561C-237.32 303.561 -227.821 305.561 -225.821 305.061C-224.221 304.661 -227.154 291.061 -227.82 285.061C-227.154 285.061 -224.62 284.561 -219.82 282.561C-213.82 280.061 -196.821 278.061 -190.821 280.061C-186.021 281.661 -152.487 284.061 -136.321 285.061Z" stroke="#787B80"/>
<path d="M-288.32 317.561C-285.427 315.456 -280.82 302.061 -276.82 297.561C-290.82 289.561 -307.32 292.561 -310.32 295.561C-312.72 297.961 -324.487 299.061 -328.82 299.061C-325.82 308.061 -321.027 317.459 -313.82 319.061C-304.82 321.061 -293.82 321.561 -288.32 317.561Z" stroke="#787B80"/>
<path d="M104.178 374.061C113.678 375.561 147.177 381.561 126.178 360.561C124.844 361.061 119.078 361.761 106.678 360.561C94.2778 359.361 86.5112 357.061 84.1779 356.061C82.6778 364.061 91.3273 372.032 104.178 374.061Z" stroke="#787B80"/>
<path d="M165.677 356.061C169.677 358.861 193.344 358.894 196.177 355.561C194.177 356.761 167.177 343.561 162.677 342.561C162.344 343.061 158.677 343.261 158.677 346.061C158.677 348.861 164.511 356.227 165.677 356.061Z" stroke="#787B80"/>
<path d="M521.176 309.061C523.176 301.461 534.009 301.227 539.175 302.061C549.175 300.561 547.175 299.561 529.176 294.061C514.776 289.661 502.842 299.894 498.676 305.561C505.876 308.361 516.676 309.061 521.176 309.061Z" stroke="#787B80"/>
<path d="M578.675 294.061C574.799 282.432 571.841 276.727 569.175 276.061C565.842 280.227 556.175 290.961 550.175 296.561C544.175 302.161 531.342 302.561 525.675 302.061C522.875 308.461 519.175 309.394 517.675 309.061C503.675 309.061 498.675 305.561 495.675 306.061C493.275 306.461 483.176 318.727 479.676 323.561L484.176 326.061L489.675 327.561C514.175 338.061 555.675 327.561 568.675 323.561C581.675 319.561 583.675 309.061 578.675 294.061Z" fill="#4C5051"/>
<path d="M502.175 265.561C518.175 256.361 535.175 256.394 541.675 257.561C550.175 247.561 524.175 207.561 523.175 211.561C522.175 215.561 502.175 254.06 499.175 253.06C496.775 252.26 481.175 247.394 473.675 245.06C475.509 247.394 477.175 251.56 469.175 249.56C461.175 247.56 452.509 244.06 449.176 242.56C444.509 246.894 435.476 255.961 436.676 257.561C437.876 259.161 438.509 261.727 440.176 262.061C439.342 263.727 441.705 266.695 442.676 271.061C443.676 275.561 446.676 286.894 447.176 292.56C440.376 296.96 421.843 294.061 413.176 293.561C399.676 297.561 387.176 321.061 389.176 321.561C391.176 322.061 442.176 322.061 455.675 322.061C466.475 322.061 470.676 319.894 470.676 318.561C460.176 314.561 459.675 302.061 464.675 292.56C469.675 283.06 482.175 277.061 502.175 265.561Z" fill="#4C5051"/>
<path d="M342.176 270.56C343.776 270.56 370.843 245.894 384.176 233.561C377.376 229.961 356.343 230.727 346.676 231.561C340.009 235.894 325.476 246.361 320.676 253.561C315.876 260.761 290.676 260.227 278.676 259.061C285.476 263.061 292.677 280.727 296.677 289.061C301.876 290.661 325.01 289.394 334.676 288.061C332.676 278.561 340.176 270.56 342.176 270.56Z" fill="#4C5051"/>
<path d="M248.677 284.061C269.477 286.461 291.01 288.394 298.177 290.061C300.177 300.061 287.343 314.561 282.677 318.061C276.177 324.061 256.843 326.394 246.177 325.561C225.677 311.561 224.177 309.561 198.677 307.561C178.277 305.961 156.844 315.561 148.677 320.561C146.01 319.227 139.577 315.161 135.177 309.561C130.777 303.961 119.344 304.561 114.177 305.561C107.511 309.061 92.6775 319.061 86.6775 331.061C79.1775 346.061 87.6777 354.061 84.6777 356.061C82.2777 357.661 65.1779 361.227 59.6779 362.061C29.678 364.061 0.0115356 353.561 -11.8217 347.561C-13.0217 334.761 -3.32202 322.061 0.177979 319.061C4.01129 318.394 13.7779 315.161 22.1779 307.561C30.5778 299.961 39.6777 301.727 43.1777 303.561C51.3444 304.894 72.0776 307.561 89.6775 307.561C107.277 307.561 142.677 284.227 158.177 272.561C159.377 252.961 153.344 243.061 150.177 240.561C154.177 230.161 152.844 205.894 151.677 195.061C157.177 197.394 171.277 205.361 183.677 218.561C196.077 231.761 203.177 224.061 205.177 218.561C211.177 216.961 228.01 217.894 235.677 218.561C237.677 235.561 230.177 235.061 216.177 234.061C204.977 233.261 205.844 237.394 207.677 239.561C210.843 240.394 218.577 243.761 224.177 250.561C229.777 257.361 231.843 274.727 232.177 282.561C231.677 285.727 231.277 293.061 233.677 297.061C236.677 302.061 244.677 298.561 248.677 297.061C251.877 295.861 250.01 287.894 248.677 284.061Z" fill="#4C5051"/>
<path d="M238.677 157.561C241.477 156.761 261.01 140.227 268.177 134.061C266.177 134.061 235.677 146.061 230.177 144.561C227.177 151.061 235.177 158.561 238.677 157.561Z" fill="#4C5051"/>
<path d="M149.177 136.561C132.377 138.561 123.178 132.561 120.678 131.561C116.678 139.561 112.178 152.061 112.178 159.561C116.678 165.061 127.122 171.061 126.677 172.561C133.177 167.061 139.677 160.061 143.677 157.061C142.877 145.461 148.177 141.061 149.177 136.561Z" fill="#4C5051"/>
<path d="M27.678 162.561C30.0781 158.161 41.1777 152.727 45.1777 150.561C43.1777 147.361 38.0111 143.561 35.6777 142.061C31.3445 144.894 22.9778 151.361 24.1779 154.561C25.3778 157.761 26.178 161.227 27.678 162.561Z" fill="#4C5051"/>
<path d="M-57.3215 299.061C-66.5214 280.661 -56.1551 261.394 -50.8218 255.561C-51.6218 254.361 -77.4883 249.727 -90.3215 247.561V252.061C-111.121 260.461 -131.154 276.894 -138.821 285.061C-158.821 280.727 -199.645 278.503 -207.821 280.061C-218.321 282.061 -221.821 280.061 -226.821 285.061C-228.321 286.561 -230.321 303.061 -229.321 304.061C-228.321 305.061 -203.821 314.061 -169.821 320.061C-142.621 324.861 -84.6547 307.894 -57.3215 299.061Z" fill="#4C5051"/>
<path d="M-265.82 320.061C-239.32 320.061 -231.821 296.061 -232.321 283.061C-241.761 288.526 -254.822 293.004 -260.71 295.023L-260.821 295.061C-277.321 295.561 -281.82 300.061 -281.82 303.061C-281.82 305.461 -286.82 309.061 -289.32 310.561C-307.82 318.061 -312.47 318.129 -307.32 320.061C-303.32 321.561 -274.32 320.061 -265.82 320.061Z" fill="#4C5051"/>
<path d="M578.675 294.061C574.799 282.432 571.841 276.727 569.175 276.061C565.842 280.227 556.175 290.961 550.175 296.561C544.175 302.161 531.342 302.561 525.675 302.061C522.875 308.461 519.175 309.394 517.675 309.061C503.675 309.061 498.675 305.561 495.675 306.061C493.275 306.461 483.176 318.727 479.676 323.561L484.176 326.061L489.675 327.561C514.175 338.061 555.675 327.561 568.675 323.561C581.675 319.561 583.675 309.061 578.675 294.061Z" stroke="#4C5051"/>
<path d="M502.175 265.561C518.175 256.361 535.175 256.394 541.675 257.561C550.175 247.561 524.175 207.561 523.175 211.561C522.175 215.561 502.175 254.06 499.175 253.06C496.775 252.26 481.175 247.394 473.675 245.06C475.509 247.394 477.175 251.56 469.175 249.56C461.175 247.56 452.509 244.06 449.176 242.56C444.509 246.894 435.476 255.961 436.676 257.561C437.876 259.161 438.509 261.727 440.176 262.061C439.342 263.727 441.705 266.695 442.676 271.061C443.676 275.561 446.676 286.894 447.176 292.56C440.376 296.96 421.843 294.061 413.176 293.561C399.676 297.561 387.176 321.061 389.176 321.561C391.176 322.061 442.176 322.061 455.675 322.061C466.475 322.061 470.676 319.894 470.676 318.561C460.176 314.561 459.675 302.061 464.675 292.56C469.675 283.06 482.175 277.061 502.175 265.561Z" stroke="#4C5051"/>
<path d="M342.176 270.56C343.776 270.56 370.843 245.894 384.176 233.561C377.376 229.961 356.343 230.727 346.676 231.561C340.009 235.894 325.476 246.361 320.676 253.561C315.876 260.761 290.676 260.227 278.676 259.061C285.476 263.061 292.677 280.727 296.677 289.061C301.876 290.661 325.01 289.394 334.676 288.061C332.676 278.561 340.176 270.56 342.176 270.56Z" stroke="#4C5051"/>
<path d="M248.677 284.061C269.477 286.461 291.01 288.394 298.177 290.061C300.177 300.061 287.343 314.561 282.677 318.061C276.177 324.061 256.843 326.394 246.177 325.561C225.677 311.561 224.177 309.561 198.677 307.561C178.277 305.961 156.844 315.561 148.677 320.561C146.01 319.227 139.577 315.161 135.177 309.561C130.777 303.961 119.344 304.561 114.177 305.561C107.511 309.061 92.6775 319.061 86.6775 331.061C79.1775 346.061 87.6777 354.061 84.6777 356.061C82.2777 357.661 65.1779 361.227 59.6779 362.061C29.678 364.061 0.0115356 353.561 -11.8217 347.561C-13.0217 334.761 -3.32202 322.061 0.177979 319.061C4.01129 318.394 13.7779 315.161 22.1779 307.561C30.5778 299.961 39.6777 301.727 43.1777 303.561C51.3444 304.894 72.0776 307.561 89.6775 307.561C107.277 307.561 142.677 284.227 158.177 272.561C159.377 252.961 153.344 243.061 150.177 240.561C154.177 230.161 152.844 205.894 151.677 195.061C157.177 197.394 171.277 205.361 183.677 218.561C196.077 231.761 203.177 224.061 205.177 218.561C211.177 216.961 228.01 217.894 235.677 218.561C237.677 235.561 230.177 235.061 216.177 234.061C204.977 233.261 205.844 237.394 207.677 239.561C210.843 240.394 218.577 243.761 224.177 250.561C229.777 257.361 231.843 274.727 232.177 282.561C231.677 285.727 231.277 293.061 233.677 297.061C236.677 302.061 244.677 298.561 248.677 297.061C251.877 295.861 250.01 287.894 248.677 284.061Z" stroke="#4C5051"/>
<path d="M238.677 157.561C241.477 156.761 261.01 140.227 268.177 134.061C266.177 134.061 235.677 146.061 230.177 144.561C227.177 151.061 235.177 158.561 238.677 157.561Z" stroke="#4C5051"/>
<path d="M149.177 136.561C132.377 138.561 123.178 132.561 120.678 131.561C116.678 139.561 112.178 152.061 112.178 159.561C116.678 165.061 127.122 171.061 126.677 172.561C133.177 167.061 139.677 160.061 143.677 157.061C142.877 145.461 148.177 141.061 149.177 136.561Z" stroke="#4C5051"/>
<path d="M27.678 162.561C30.0781 158.161 41.1777 152.727 45.1777 150.561C43.1777 147.361 38.0111 143.561 35.6777 142.061C31.3445 144.894 22.9778 151.361 24.1779 154.561C25.3778 157.761 26.178 161.227 27.678 162.561Z" stroke="#4C5051"/>
<path d="M-57.3215 299.061C-66.5214 280.661 -56.1551 261.394 -50.8218 255.561C-51.6218 254.361 -77.4883 249.727 -90.3215 247.561V252.061C-111.121 260.461 -131.154 276.894 -138.821 285.061C-158.821 280.727 -199.645 278.503 -207.821 280.061C-218.321 282.061 -221.821 280.061 -226.821 285.061C-228.321 286.561 -230.321 303.061 -229.321 304.061C-228.321 305.061 -203.821 314.061 -169.821 320.061C-142.621 324.861 -84.6547 307.894 -57.3215 299.061Z" stroke="#4C5051"/>
<path d="M-265.82 320.061C-239.32 320.061 -231.821 296.061 -232.321 283.061C-241.761 288.526 -254.822 293.004 -260.71 295.023L-260.821 295.061C-277.321 295.561 -281.82 300.061 -281.82 303.061C-281.82 305.461 -286.82 309.061 -289.32 310.561C-307.82 318.061 -312.47 318.129 -307.32 320.061C-303.32 321.561 -274.32 320.061 -265.82 320.061Z" stroke="#4C5051"/>
<defs>
<linearGradient id="paint0_linear_175_15" x1="241.5" y1="53.5" x2="124.6" y2="375.633" gradientUnits="userSpaceOnUse">
<stop stop-color="#301318"/>
<stop offset="1" stop-color="#A6A9AE"/>
</linearGradient>
<linearGradient id="paint1_linear_175_15" x1="240" y1="16" x2="124.6" y2="375.633" gradientUnits="userSpaceOnUse">
<stop stop-color="#301318"/>
<stop offset="1" stop-color="#A6A9AE"/>
</linearGradient>
<linearGradient id="paint2_linear_175_15" x1="285.5" y1="-3" x2="83.5881" y2="319.468" gradientUnits="userSpaceOnUse">
<stop stop-color="#6E0109"/>
<stop offset="0.635417" stop-color="#8F9297"/>
</linearGradient>
<linearGradient id="paint3_linear_175_15" x1="285.5" y1="-3" x2="83.5881" y2="319.468" gradientUnits="userSpaceOnUse">
<stop stop-color="#6E0109"/>
<stop offset="0.635417" stop-color="#8F9297"/>
</linearGradient>
<linearGradient id="paint4_linear_175_15" x1="285.5" y1="-3" x2="83.5881" y2="319.468" gradientUnits="userSpaceOnUse">
<stop stop-color="#6E0109"/>
<stop offset="0.635417" stop-color="#8F9297"/>
</linearGradient>
<linearGradient id="paint5_linear_175_15" x1="285.5" y1="-3" x2="83.5881" y2="319.468" gradientUnits="userSpaceOnUse">
<stop stop-color="#6E0109"/>
<stop offset="0.635417" stop-color="#8F9297"/>
</linearGradient>
<linearGradient id="paint6_linear_175_15" x1="285.5" y1="-3" x2="83.5881" y2="319.468" gradientUnits="userSpaceOnUse">
<stop stop-color="#6E0109"/>
<stop offset="0.635417" stop-color="#8F9297"/>
</linearGradient>
<linearGradient id="paint7_linear_175_15" x1="285.5" y1="-3" x2="83.5881" y2="319.468" gradientUnits="userSpaceOnUse">
<stop stop-color="#6E0109"/>
<stop offset="0.635417" stop-color="#8F9297"/>
</linearGradient>
<linearGradient id="paint8_linear_175_15" x1="285.5" y1="-3" x2="83.5881" y2="319.468" gradientUnits="userSpaceOnUse">
<stop stop-color="#6E0109"/>
<stop offset="0.635417" stop-color="#8F9297"/>
</linearGradient>
<linearGradient id="paint9_linear_175_15" x1="285.5" y1="-3" x2="83.5881" y2="319.468" gradientUnits="userSpaceOnUse">
<stop stop-color="#6E0109"/>
<stop offset="0.635417" stop-color="#8F9297"/>
</linearGradient>
<linearGradient id="paint10_linear_175_15" x1="285.5" y1="-3" x2="83.5881" y2="319.468" gradientUnits="userSpaceOnUse">
<stop stop-color="#6E0109"/>
<stop offset="0.635417" stop-color="#8F9297"/>
</linearGradient>
<linearGradient id="paint11_linear_175_15" x1="285.5" y1="-3" x2="83.5881" y2="319.468" gradientUnits="userSpaceOnUse">
<stop stop-color="#6E0109"/>
<stop offset="0.635417" stop-color="#8F9297"/>
</linearGradient>
<linearGradient id="paint12_linear_175_15" x1="340.5" y1="-12.5" x2="83.5881" y2="319.468" gradientUnits="userSpaceOnUse">
<stop stop-color="#6E0109"/>
<stop offset="0.645833" stop-color="#8F9297"/>
</linearGradient>
<linearGradient id="paint13_linear_175_15" x1="340.5" y1="-12.5" x2="83.5881" y2="319.468" gradientUnits="userSpaceOnUse">
<stop stop-color="#6E0109"/>
<stop offset="0.645833" stop-color="#8F9297"/>
</linearGradient>
<linearGradient id="paint14_linear_175_15" x1="340.5" y1="-12.5" x2="83.5881" y2="319.468" gradientUnits="userSpaceOnUse">
<stop stop-color="#6E0109"/>
<stop offset="0.645833" stop-color="#8F9297"/>
</linearGradient>
<linearGradient id="paint15_linear_175_15" x1="340.5" y1="-12.5" x2="83.5881" y2="319.468" gradientUnits="userSpaceOnUse">
<stop stop-color="#6E0109"/>
<stop offset="0.645833" stop-color="#8F9297"/>
</linearGradient>
<linearGradient id="paint16_linear_175_15" x1="340.5" y1="-12.5" x2="83.5881" y2="319.468" gradientUnits="userSpaceOnUse">
<stop stop-color="#6E0109"/>
<stop offset="0.645833" stop-color="#8F9297"/>
</linearGradient>
<linearGradient id="paint17_linear_175_15" x1="340.5" y1="-12.5" x2="83.5881" y2="319.468" gradientUnits="userSpaceOnUse">
<stop stop-color="#6E0109"/>
<stop offset="0.645833" stop-color="#8F9297"/>
</linearGradient>
<linearGradient id="paint18_linear_175_15" x1="340.5" y1="-12.5" x2="83.5881" y2="319.468" gradientUnits="userSpaceOnUse">
<stop stop-color="#6E0109"/>
<stop offset="0.645833" stop-color="#8F9297"/>
</linearGradient>
<linearGradient id="paint19_linear_175_15" x1="340.5" y1="-12.5" x2="83.5881" y2="319.468" gradientUnits="userSpaceOnUse">
<stop stop-color="#6E0109"/>
<stop offset="0.645833" stop-color="#8F9297"/>
</linearGradient>
<linearGradient id="paint20_linear_175_15" x1="340.5" y1="-12.5" x2="83.5881" y2="319.468" gradientUnits="userSpaceOnUse">
<stop stop-color="#6E0109"/>
<stop offset="0.645833" stop-color="#8F9297"/>
</linearGradient>
<linearGradient id="paint21_linear_175_15" x1="340.5" y1="-12.5" x2="83.5881" y2="319.468" gradientUnits="userSpaceOnUse">
<stop stop-color="#6E0109"/>
<stop offset="0.645833" stop-color="#8F9297"/>
</linearGradient>
<linearGradient id="paint22_linear_175_15" x1="303" y1="25.5" x2="117.956" y2="350.864" gradientUnits="userSpaceOnUse">
<stop stop-color="#D32B0E"/>
<stop offset="0.441666" stop-color="#5B5E63"/>
</linearGradient>
<linearGradient id="paint23_linear_175_15" x1="303" y1="25.5" x2="117.956" y2="350.864" gradientUnits="userSpaceOnUse">
<stop stop-color="#D32B0E"/>
<stop offset="0.441666" stop-color="#5B5E63"/>
</linearGradient>
<linearGradient id="paint24_linear_175_15" x1="303" y1="25.5" x2="117.956" y2="350.864" gradientUnits="userSpaceOnUse">
<stop stop-color="#D32B0E"/>
<stop offset="0.441666" stop-color="#5B5E63"/>
</linearGradient>
<linearGradient id="paint25_linear_175_15" x1="303" y1="25.5" x2="117.956" y2="350.864" gradientUnits="userSpaceOnUse">
<stop stop-color="#D32B0E"/>
<stop offset="0.441666" stop-color="#5B5E63"/>
</linearGradient>
<linearGradient id="paint26_linear_175_15" x1="303" y1="25.5" x2="117.956" y2="350.864" gradientUnits="userSpaceOnUse">
<stop stop-color="#D32B0E"/>
<stop offset="0.441666" stop-color="#5B5E63"/>
</linearGradient>
<linearGradient id="paint27_linear_175_15" x1="303" y1="25.5" x2="117.956" y2="350.864" gradientUnits="userSpaceOnUse">
<stop stop-color="#D32B0E"/>
<stop offset="0.441666" stop-color="#5B5E63"/>
</linearGradient>
<linearGradient id="paint28_linear_175_15" x1="303" y1="25.5" x2="117.956" y2="350.864" gradientUnits="userSpaceOnUse">
<stop stop-color="#D32B0E"/>
<stop offset="0.441666" stop-color="#5B5E63"/>
</linearGradient>
<linearGradient id="paint29_linear_175_15" x1="303" y1="25.5" x2="117.956" y2="350.864" gradientUnits="userSpaceOnUse">
<stop stop-color="#D32B0E"/>
<stop offset="0.441666" stop-color="#5B5E63"/>
</linearGradient>
<linearGradient id="paint30_linear_175_15" x1="303" y1="25.5" x2="117.956" y2="350.864" gradientUnits="userSpaceOnUse">
<stop stop-color="#D32B0E"/>
<stop offset="0.441666" stop-color="#5B5E63"/>
</linearGradient>
<linearGradient id="paint31_linear_175_15" x1="303" y1="25.5" x2="117.956" y2="350.864" gradientUnits="userSpaceOnUse">
<stop stop-color="#D32B0E"/>
<stop offset="0.441666" stop-color="#5B5E63"/>
</linearGradient>
<linearGradient id="paint32_linear_175_15" x1="303" y1="25.5" x2="117.956" y2="350.864" gradientUnits="userSpaceOnUse">
<stop stop-color="#D32B0E"/>
<stop offset="0.441666" stop-color="#5B5E63"/>
</linearGradient>
<linearGradient id="paint33_linear_175_15" x1="303" y1="25.5" x2="117.956" y2="350.864" gradientUnits="userSpaceOnUse">
<stop stop-color="#D32B0E"/>
<stop offset="0.441666" stop-color="#5B5E63"/>
</linearGradient>
<linearGradient id="paint34_linear_175_15" x1="303" y1="25.5" x2="117.956" y2="350.864" gradientUnits="userSpaceOnUse">
<stop stop-color="#D32B0E"/>
<stop offset="0.441666" stop-color="#5B5E63"/>
</linearGradient>
<linearGradient id="paint35_linear_175_15" x1="303" y1="25.5" x2="117.956" y2="350.864" gradientUnits="userSpaceOnUse">
<stop stop-color="#D32B0E"/>
<stop offset="0.441666" stop-color="#5B5E63"/>
</linearGradient>
<linearGradient id="paint36_linear_175_15" x1="386" y1="21.5" x2="117.957" y2="350.864" gradientUnits="userSpaceOnUse">
<stop stop-color="#D32B0E"/>
<stop offset="0.427083" stop-color="#5B5E63" stop-opacity="0"/>
</linearGradient>
</defs>
</svg>
