<svg width="550" height="638" viewBox="0 0 550 638" fill="none" xmlns="http://www.w3.org/2000/svg">
<path d="M37.5 98C22.7 220.4 6.33333 266 0 273.5V616L187 628L442.5 631.5L548.5 616C546 598.5 547.5 596.5 548.5 556.5C549.3 524.5 528.5 499.167 518 490.5C510 483.833 491.8 466.3 483 449.5C474.2 432.7 466.333 384.833 463.5 363C449.5 321.4 432 345.667 425 363C418.667 377.333 400.8 408.7 380 419.5C359.2 430.3 354 447.667 354 455C351.5 448.5 345 444 327 436C309 428 316.5 407 305 363C293.5 319 280 305.5 273.5 363C268.3 409 261.667 428.167 259 432C247.4 379.2 224.5 361.333 214.5 359C216.1 341 207.5 311.833 203 299.5C201 243.1 178.5 268.667 167.5 288.5C165.667 276.833 156.5 253.2 134.5 252C112.5 250.8 105.333 222.5 104.5 208.5C104.667 177 101.1 103.1 85.5 59.5C66 5 56 -55 37.5 98Z" fill="#2D2F34" stroke="#2D2F34"/>
<path opacity="0.56" d="M75 141.5L0 273V637.5H455C486.667 631.5 549.7 618.8 548.5 616C547.3 613.2 547.667 570.167 548 549C546.833 544.667 541.9 535.1 531.5 531.5C521.1 527.9 509.5 522.667 505 520.5C480.5 513.5 469.5 514 465.5 548.5C461.5 583 454.5 599.5 449 616C443.5 632.5 422.5 635 415 614C407.5 593 415 581 420 572.5C425 564 433 543 433 514C433 490.8 418.333 489.667 411 492C390.333 500.5 348.4 512.8 346 494C343.6 475.2 329.667 471.5 323 472C316.833 473.5 304.6 471.2 305 450C305.4 428.8 301.5 402.5 299.5 392L294 387C278.167 413 248.4 467.3 256 476.5C263.6 485.7 274.833 509.667 279.5 520.5L302.5 536C313.5 550.167 329.4 579 305 581C280.6 583 268.167 560.167 265 548.5C257.5 517.5 239 516 231 517.5C223 519 202 522 204.5 558C207 594 207.5 597.5 196.5 614C187.7 627.2 179.833 619.5 177 614C151.5 570.5 162 548.5 181 524.5C200 500.5 199.5 494 202.5 450C205.5 406 175 374 166 374.5C158.8 374.9 156.667 370.667 156.5 368.5C150 341 135 331.5 113.5 322C92 312.5 85.5 281.5 87 233.5C88.2 195.1 79.5 156.167 75 141.5Z" fill="#171E26" stroke="#171E26"/>
<path d="M39 81C39 81 6.33333 259 0 273V341C52.5 332 48.5 394 47 402C45.5 410 43.5 419 45 445C46.2 465.8 57.8333 471 63.5 471C71.5 470.333 87.6 457.9 88 413.5C88.4 369.1 71.8333 345 63.5 338.5C28.3 245.7 58.5 174.5 78 150.5C75.6 131.3 73 115.5 72 110C60.4 28.4 53.1667 13.6667 51 16.5C46.6 32.5 41.1667 66.1667 39 81Z" fill="#10151B" stroke="#10151B"/>
<path d="M20.5 539C7.7 535 1.5 537.333 0 539V616L47.5 627.5L98 616C77 524 112 516.5 140.5 504.5C163.3 494.9 165 468.5 163 456.5C170.5 347.5 186.5 311.5 193 285C198.2 263.8 186.5 268.5 180 273.5C163 299 149.5 402.5 149.5 416C149.5 426.8 147.5 425.5 146.5 423.5C143.5 412 123 375 119 383C115 391 113.5 407.5 109.5 426.5C106.3 441.7 102.5 445.167 101 445C57 488 35.5 519.5 32.5 532C30.1 542 23.5 540.833 20.5 539Z" fill="#10151B"/>
<path d="M243 462.5C241 464.9 242.5 467.167 243.5 468C245.9 474.8 254.5 477.5 258.5 478C278.5 483.5 282.5 495.5 279 517C276.2 534.2 292.5 536.5 301 535.5C308.6 524.3 306.167 505.167 304 497C295 489.5 288.5 474 287.5 472.5C270.3 431.3 288 401.667 299 392C299.8 368.8 291.667 344.667 287.5 335.5C284.167 328.667 276.5 326.6 272.5 373C267.5 431 245.5 459.5 243 462.5Z" fill="#10151B"/>
<path d="M299 591C292.2 604.6 279.833 613.333 274.5 616L311 629.5L343 616C345 593 356 564.5 382.5 539.5C403.7 519.5 413.667 500.833 416 494C427 480 422.5 442 416 432C409.5 422 424.5 392 440.5 381C453.3 372.2 457.5 362.667 458 359C459 338.5 436 335.5 430 355C425.2 370.6 404.333 397.833 394.5 409.5C339 437 355 468 353.5 482C352 496 322.5 535.5 311 535.5C301.8 535.5 300.5 540.5 301 543C303.167 553.333 305.8 577.4 299 591Z" fill="#10151B"/>
<path d="M20.5 539C7.7 535 1.5 537.333 0 539V616L47.5 627.5L98 616C77 524 112 516.5 140.5 504.5C163.3 494.9 165 468.5 163 456.5C170.5 347.5 186.5 311.5 193 285C198.2 263.8 186.5 268.5 180 273.5C163 299 149.5 402.5 149.5 416C149.5 426.8 147.5 425.5 146.5 423.5C143.5 412 123 375 119 383C115 391 113.5 407.5 109.5 426.5C106.3 441.7 102.5 445.167 101 445C57 488 35.5 519.5 32.5 532C30.1 542 23.5 540.833 20.5 539Z" stroke="#10151B"/>
<path d="M243 462.5C241 464.9 242.5 467.167 243.5 468C245.9 474.8 254.5 477.5 258.5 478C278.5 483.5 282.5 495.5 279 517C276.2 534.2 292.5 536.5 301 535.5C308.6 524.3 306.167 505.167 304 497C295 489.5 288.5 474 287.5 472.5C270.3 431.3 288 401.667 299 392C299.8 368.8 291.667 344.667 287.5 335.5C284.167 328.667 276.5 326.6 272.5 373C267.5 431 245.5 459.5 243 462.5Z" stroke="#10151B"/>
<path d="M299 591C292.2 604.6 279.833 613.333 274.5 616L311 629.5L343 616C345 593 356 564.5 382.5 539.5C403.7 519.5 413.667 500.833 416 494C427 480 422.5 442 416 432C409.5 422 424.5 392 440.5 381C453.3 372.2 457.5 362.667 458 359C459 338.5 436 335.5 430 355C425.2 370.6 404.333 397.833 394.5 409.5C339 437 355 468 353.5 482C352 496 322.5 535.5 311 535.5C301.8 535.5 300.5 540.5 301 543C303.167 553.333 305.8 577.4 299 591Z" stroke="#10151B"/>
</svg>
