<svg width="577" height="295" viewBox="0 0 577 295" fill="none" xmlns="http://www.w3.org/2000/svg">
<path d="M10.0001 294C3.16678 291.333 -6.39989 284.1 10.0001 276.5C22.9873 270.481 28.261 272.009 29.8935 274.478C28.3923 268.129 29.3789 257.585 43 254C58.2 250 70.6667 239 75 234C79.5 231.5 92.2 228.8 107 238C111.167 242.333 121.1 250.9 127.5 250.5C133.9 250.1 139.167 255.333 141 258C142.333 259.333 145.5 260.5 147.5 254.5C150 247 150.5 223 183 213C209 205 214.167 184.667 213.5 175.5C214.833 169.167 223.1 154.8 245.5 148C250.833 149 262.6 144 267 116C272.5 81 275 37 289 11C300.2 -9.8 307.667 8.66667 310 20.5C315 40.5 325.8 89.6 329 126C332.2 162.4 375.667 201.833 397 217C407.5 214.5 436 192.5 432 165C429.333 155.833 430.3 134.7 455.5 123.5C464.333 117 484.557 98.7217 492 76C501.5 47 515 63 521.5 75.5C525.5 85.1667 532.9 111.6 530.5 140C533.167 148 542.5 166.3 558.5 175.5C574.5 184.7 577.5 193 577 196V294L10.0001 294Z" fill="#2D2F34" stroke="#2D2F34"/>
<path d="M244.5 192.5C202.1 210.9 217.5 270 231 294H577V213.5C571.8 213.1 563.5 209 560 207C528.5 190 525 209.5 525 224C525 235.6 518.333 257.167 515 266.5C509.5 284.5 499.5 300 486 288.5C475.2 279.3 481.5 258 486 248.5C491.667 236.333 501.7 207.8 496.5 191C491.3 174.2 477.667 181 471.5 186.5C450.333 210.5 404.4 257.9 390 255.5C372 252.5 362.5 233 357.5 219.5C352.5 206 344 202 330 202C316 202 309 217 312.5 233C315.3 245.8 313.667 262.333 312.5 269C300.9 293.4 288.333 279.167 283.5 269C279.5 255.333 273.9 226.3 283.5 219.5C293.1 212.7 298.833 200.667 300.5 195.5C317.5 164 306 125 304 116.5C302 108 286 77.5 283.5 89.5C281.5 99.1 277.333 129.5 277 144C282.2 181.2 256.5 191.167 244.5 192.5Z" fill="#171E26" stroke="#171E26"/>
<path d="M29.0003 283.5C17.0003 280.3 16.3336 289.167 17.5003 294L104 294C102 291.2 99.8333 289.833 99 289.5C89.8 283.9 81.5 287.167 78.5 289.5C78.6667 288.333 76.1 285.2 64.5 282C52.9 278.8 47.3333 286.667 46 291C45.3334 289.833 41.0003 286.7 29.0003 283.5Z" fill="#171E26"/>
<path d="M101 253C79.5 248.5 60 264 58.5 265C44 281 83.6932 272.841 99 277.5C110.5 281 111 289 116 294L140.5 294C155.7 281.2 190.833 280.667 206.5 282C211.7 276 204.333 272.167 200 271C187.833 270 161.5 269.3 153.5 274.5C145.5 279.7 141.5 278.667 140.5 277.5C144 272 148 262.4 136 268C124 273.6 113 272.333 109 271C109.333 269 111.7 264.2 118.5 261C127 257 122.5 257.5 101 253Z" fill="#171E26"/>
<path d="M29.0003 283.5C17.0003 280.3 16.3336 289.167 17.5003 294L104 294C102 291.2 99.8333 289.833 99 289.5C89.8 283.9 81.5 287.167 78.5 289.5C78.6667 288.333 76.1 285.2 64.5 282C52.9 278.8 47.3333 286.667 46 291C45.3334 289.833 41.0003 286.7 29.0003 283.5Z" stroke="#171E26"/>
<path d="M101 253C79.5 248.5 60 264 58.5 265C44 281 83.6932 272.841 99 277.5C110.5 281 111 289 116 294L140.5 294C155.7 281.2 190.833 280.667 206.5 282C211.7 276 204.333 272.167 200 271C187.833 270 161.5 269.3 153.5 274.5C145.5 279.7 141.5 278.667 140.5 277.5C144 272 148 262.4 136 268C124 273.6 113 272.333 109 271C109.333 269 111.7 264.2 118.5 261C127 257 122.5 257.5 101 253Z" stroke="#171E26"/>
<path d="M52.9999 274C45.7999 271.6 44.6665 264.667 44.9999 261.5C44.4261 256.5 42.9997 258 36.4997 261.5C29.9997 265 29.9997 266.5 31.9997 274C33.9997 281.5 47.4997 281.5 50.4997 281.5C53.4997 281.5 61.9999 277 52.9999 274Z" fill="#10151B"/>
<path d="M98.5 278.5C104.1 286.1 105.833 292 106 294H232.5C218 268 222.5 269.5 221.5 236C220.7 209.2 238.167 197.833 247 195.5C251.167 195 260.8 192.8 266 188C272.5 182 281.5 160 279 138C276.5 116 294 32 300.5 17.5C307 2.99997 300.5 -8.50003 288 14C275.5 36.5 269.5 107 266 126C263.2 141.2 253.167 147 248.5 148C230 152 214 160.5 214 177C214 193.5 198 211.5 181.5 213.5C168.3 215.1 158 228.167 154.5 234.5C146.667 245.833 138.3 267.1 167.5 261.5C204 254.5 201 266 214.5 274C225.3 280.4 212 281.667 204 281.5C190 280.5 161.3 279.4 158.5 283C155.7 286.6 146.333 290.167 142 291.5C138.8 293.1 126.333 292.167 120.5 291.5C118.5 292.333 112.8 290.9 106 278.5C99.2 266.1 98.1667 273.333 98.5 278.5Z" fill="#10151B"/>
<path d="M370 277C358.4 282.2 358.5 290.5 360 294H424.5C430 235 441 225 466.5 207C486.9 192.6 488.333 167.333 486.5 156.5C480.5 143.5 481 102 502 91C518.8 82.2 520.667 75 519.5 72.5C515 64.5 503 47 492.5 74.5C482 102 472.5 107.5 451 124C429.5 140.5 432 152.5 431.5 174.5C431.1 192.1 410.667 209.833 400.5 216.5C386.1 215.7 387.167 221.833 389.5 225C390.667 232.833 392.6 250.3 391 257.5C389 266.5 384.5 270.5 370 277Z" fill="#10151B"/>
<path d="M52.9999 274C45.7999 271.6 44.6665 264.667 44.9999 261.5C44.4261 256.5 42.9997 258 36.4997 261.5C29.9997 265 29.9997 266.5 31.9997 274C33.9997 281.5 47.4997 281.5 50.4997 281.5C53.4997 281.5 61.9999 277 52.9999 274Z" stroke="#10151B"/>
<path d="M98.5 278.5C104.1 286.1 105.833 292 106 294H232.5C218 268 222.5 269.5 221.5 236C220.7 209.2 238.167 197.833 247 195.5C251.167 195 260.8 192.8 266 188C272.5 182 281.5 160 279 138C276.5 116 294 32 300.5 17.5C307 2.99997 300.5 -8.50003 288 14C275.5 36.5 269.5 107 266 126C263.2 141.2 253.167 147 248.5 148C230 152 214 160.5 214 177C214 193.5 198 211.5 181.5 213.5C168.3 215.1 158 228.167 154.5 234.5C146.667 245.833 138.3 267.1 167.5 261.5C204 254.5 201 266 214.5 274C225.3 280.4 212 281.667 204 281.5C190 280.5 161.3 279.4 158.5 283C155.7 286.6 146.333 290.167 142 291.5C138.8 293.1 126.333 292.167 120.5 291.5C118.5 292.333 112.8 290.9 106 278.5C99.2 266.1 98.1667 273.333 98.5 278.5Z" stroke="#10151B"/>
<path d="M370 277C358.4 282.2 358.5 290.5 360 294H424.5C430 235 441 225 466.5 207C486.9 192.6 488.333 167.333 486.5 156.5C480.5 143.5 481 102 502 91C518.8 82.2 520.667 75 519.5 72.5C515 64.5 503 47 492.5 74.5C482 102 472.5 107.5 451 124C429.5 140.5 432 152.5 431.5 174.5C431.1 192.1 410.667 209.833 400.5 216.5C386.1 215.7 387.167 221.833 389.5 225C390.667 232.833 392.6 250.3 391 257.5C389 266.5 384.5 270.5 370 277Z" stroke="#10151B"/>
</svg>
