<svg width="460" height="261" viewBox="0 0 460 261" fill="none" xmlns="http://www.w3.org/2000/svg">
<path d="M8.00016 254.5C12.0002 264.1 30.3335 256.167 39.0002 251C37.5003 260 51 262 62.5 258C74 254 74 256 84.5 258C92.9 259.6 101.333 258.667 104.5 258C103.3 250.8 108.333 249.333 111 249.5C140.5 260 168 251 173.5 251C204 256 213.5 247.5 213.5 246C213.5 244.5 218 241 219 245.5C220 250 236 252 239.5 248C242.3 244.8 244.667 246.333 245.5 247.5C244.5 249.5 249 259.5 261 256C270.6 253.2 274 245.5 274.5 242C282.167 243.167 301.7 244.8 318.5 242C335.3 239.2 365.833 240.833 379 242C377.5 243.833 376.6 248.8 385 254C393.4 259.2 405.167 251.833 410 247.5C418 250.7 446.667 248.833 460 247.5V180.5C453 181 435 181.5 438 154C441 126.5 431 100.5 431 99C419 70.6 414.333 89.8333 413.5 103C416.167 110.667 419.6 132.1 412 156.5C402.5 187 384.5 189.5 385 188C385.5 186.5 381.5 186 381.5 163.5C381.5 141 369.5 133.5 360 126C350.5 118.5 342 102.5 342 94.5C342 88.1 338.667 75.1667 337 69.5C327.8 30.3 315.833 44.5 311 56.5C306.667 66.5 295.2 87.1 284 89.5C272.8 91.9 269 107.5 268.5 115C270.167 118 270.2 128.5 257 146.5C243.8 164.5 232.5 157.667 228.5 152C226 139.5 211.5 121 205 111C198.5 101 191.5 76 186.5 29C182.5 -8.59997 171.833 -0.999969 167 7.50003C155.5 30 156 69.5 153 86.5C150.6 100.1 142 104.833 138 105.5C120 110 116.5 121 113 133.5C110.2 143.5 103.5 147.667 100.5 148.5C74.9 154.1 67.1667 178.833 66.5 190.5C60.3333 191 44.7 193.1 31.5 197.5C15 203 18.5 213.5 19 218C19.4 221.6 23.5 227.167 25.5 229.5C25.0001 230.667 20.8002 234.2 8.00016 239C-4.79984 243.8 2.66683 251.333 8.00016 254.5Z" fill="#2D2F34" stroke="#2D2F34"/>
<path d="M131.5 140.5C103.9 165.7 114.667 199 123.5 212.5C136.7 203.7 165.334 210.833 175 215.5C189 207.5 206.5 212.167 213.5 215.5L240 209L255.5 219C261.167 228 278.1 244.9 300.5 240.5C322.9 236.1 356.167 238.667 370 240.5L415 236C435.4 248.8 453.5 241.333 460 236V206C453.5 204 433.5 215 420 222.5C406.5 230 404 230 403.5 225C403 220 400.5 204.5 385.5 213.5C370.5 222.5 374 220 359 227C344 234 335 223 349 220C360.2 217.6 368.333 210.667 371 207.5C371.8 196.7 382.667 196.667 388 198C395.833 196.5 413.2 188.5 420 168.5C426.8 148.5 418 116.5 413.5 103C417.5 144.5 410.5 153 410.5 158C407.5 174 382.5 191 382.5 185.5C382.5 170.651 382 156 380 152C369.2 156 359 150.833 355.5 147.5C332.5 127.5 330.5 175 330.5 187.5C330.5 200 312 221 306 204.5C300 188 307.5 181 312 170C315.6 161.2 316.833 151.333 317 147.5C318.2 127.1 308.167 127.333 303 130C284.5 146.833 246.3 180.9 241.5 182.5C235.5 184.5 219 173 215.5 159C212 145 197.5 144 190 147.5C182.5 151 182.5 171.5 182.5 186C182.5 200.5 176.5 214.5 164.5 199.5C152.5 184.5 160.5 156.5 169 150C175.8 144.8 180.833 126.167 182.5 117.5C186.1 81.9 172 68.6667 164.5 66.5C163 71.6667 160.1 87.7 160.5 110.5C160.9 133.3 139.333 140 131.5 140.5Z" fill="#171E26"/>
<path d="M104 229.5C86.8 205.1 52.8333 210 38 215.5C39.6 228.3 49.3333 235.167 54 237C64.4 230.2 90 234.167 101.5 237C103.9 233.8 104.167 230.667 104 229.5Z" fill="#171E26"/>
<path d="M10.5 246.5C14.8333 241.667 26.8 234.5 40 244.5C34.1667 250.833 20.1 260.1 10.5 246.5Z" fill="#171E26"/>
<path d="M86.5 252.5C74.5 248.5 52.1667 250.833 42.5 252.5C39.3 250.5 41.1667 247.667 42.5 246.5C62 238 91 246.5 99.5 248.5C106.3 250.1 105.333 253.5 104 255C103.167 255.833 98.5 256.5 86.5 252.5Z" fill="#171E26"/>
<path d="M121.5 227C118.3 225 110.833 227.667 109.5 228.5C108.5 229.333 111.1 231 113.5 237C116.5 244.5 147.5 248.5 149.5 245C151.5 241.5 163 238.5 169 237C175 235.5 175 231.5 169 227C164.2 223.4 159 227.167 157 229.5C152 232.833 143.1 237.5 147.5 229.5C151.9 221.5 146.667 221.167 143.5 222C137.5 224.5 124.7 229 121.5 227Z" fill="#171E26"/>
<path d="M213.5 228.5C209.9 222.1 191.5 222.667 184 224.5C177.6 230.5 187.833 235.5 192.5 236.5C201 236.5 217.1 234.9 213.5 228.5Z" fill="#171E26"/>
<path d="M251.5 227C235.027 220.6 223.47 230.167 221.5 235.5C223.9 245.9 242 243 249 240.5C256.697 238.667 267.973 233.4 251.5 227Z" fill="#171E26"/>
<path d="M385.5 248.5C386.5 247.5 395 237 406.5 247C401.833 250.45 391.1 255.58 385.5 248.5Z" fill="#171E26"/>
<path d="M131.5 140.5C103.9 165.7 114.667 199 123.5 212.5C136.7 203.7 165.334 210.833 175 215.5C189 207.5 206.5 212.167 213.5 215.5L240 209L255.5 219C261.167 228 278.1 244.9 300.5 240.5C322.9 236.1 356.167 238.667 370 240.5L415 236C435.4 248.8 453.5 241.333 460 236V206C453.5 204 433.5 215 420 222.5C406.5 230 404 230 403.5 225C403 220 400.5 204.5 385.5 213.5C370.5 222.5 374 220 359 227C344 234 335 223 349 220C360.2 217.6 368.333 210.667 371 207.5C371.8 196.7 382.667 196.667 388 198C395.833 196.5 413.2 188.5 420 168.5C426.8 148.5 418 116.5 413.5 103C417.5 144.5 410.5 153 410.5 158C407.5 174 382.5 191 382.5 185.5C382.5 170.651 382 156 380 152C369.2 156 359 150.833 355.5 147.5C332.5 127.5 330.5 175 330.5 187.5C330.5 200 312 221 306 204.5C300 188 307.5 181 312 170C315.6 161.2 316.833 151.333 317 147.5C318.2 127.1 308.167 127.333 303 130C284.5 146.833 246.3 180.9 241.5 182.5C235.5 184.5 219 173 215.5 159C212 145 197.5 144 190 147.5C182.5 151 182.5 171.5 182.5 186C182.5 200.5 176.5 214.5 164.5 199.5C152.5 184.5 160.5 156.5 169 150C175.8 144.8 180.833 126.167 182.5 117.5C186.1 81.9 172 68.6667 164.5 66.5C163 71.6667 160.1 87.7 160.5 110.5C160.9 133.3 139.333 140 131.5 140.5Z" stroke="#171E26"/>
<path d="M104 229.5C86.8 205.1 52.8333 210 38 215.5C39.6 228.3 49.3333 235.167 54 237C64.4 230.2 90 234.167 101.5 237C103.9 233.8 104.167 230.667 104 229.5Z" stroke="#171E26"/>
<path d="M10.5 246.5C14.8333 241.667 26.8 234.5 40 244.5C34.1667 250.833 20.1 260.1 10.5 246.5Z" stroke="#171E26"/>
<path d="M86.5 252.5C74.5 248.5 52.1667 250.833 42.5 252.5C39.3 250.5 41.1667 247.667 42.5 246.5C62 238 91 246.5 99.5 248.5C106.3 250.1 105.333 253.5 104 255C103.167 255.833 98.5 256.5 86.5 252.5Z" stroke="#171E26"/>
<path d="M121.5 227C118.3 225 110.833 227.667 109.5 228.5C108.5 229.333 111.1 231 113.5 237C116.5 244.5 147.5 248.5 149.5 245C151.5 241.5 163 238.5 169 237C175 235.5 175 231.5 169 227C164.2 223.4 159 227.167 157 229.5C152 232.833 143.1 237.5 147.5 229.5C151.9 221.5 146.667 221.167 143.5 222C137.5 224.5 124.7 229 121.5 227Z" stroke="#171E26"/>
<path d="M213.5 228.5C209.9 222.1 191.5 222.667 184 224.5C177.6 230.5 187.833 235.5 192.5 236.5C201 236.5 217.1 234.9 213.5 228.5Z" stroke="#171E26"/>
<path d="M251.5 227C235.027 220.6 223.47 230.167 221.5 235.5C223.9 245.9 242 243 249 240.5C256.697 238.667 267.973 233.4 251.5 227Z" stroke="#171E26"/>
<path d="M385.5 248.5C386.5 247.5 395 237 406.5 247C401.833 250.45 391.1 255.58 385.5 248.5Z" stroke="#171E26"/>
<path d="M23 201.5C23 201.5 16 202.5 19 220C21.5 226.167 30.3 238.4 43.5 242C56.7 245.6 54.6667 240.5 52 237.5C46.5 233 35.8 220.5 37 206.5C38.0286 194.5 30.5 197 23 201.5Z" fill="#10151B"/>
<path d="M11 245.5C-2.99998 235.5 3.50002 249 3.50002 250.5C4.20079 253 9.00002 258.5 20.5 258C32 257.5 27 253.5 20.5 253.5C15.3 253.5 12 248.167 11 245.5Z" fill="#10151B"/>
<path d="M78.5 250.5C58.9 244.5 45.3334 251.333 41 255.5C44.6667 257.833 54.1 261.6 62.5 258C70.9 254.4 83 256.5 88 258C102.4 258 103.333 256.333 102 255.5C102.333 256.333 98.1 256.5 78.5 250.5Z" fill="#10151B"/>
<path d="M102 211.5C95.6 190.7 74.6667 189.833 65 192C65.6667 179.333 71.3 153.7 88.5 152.5C105.7 151.3 110 141 110 136C111 126.5 117 107.4 133 107C149 106.6 151.667 90.1667 151 82C153 45.2 159.833 22 163 15C179.8 -8.59998 178.333 5.16669 175.5 15C162 43 160.5 116.5 160.5 120C160.5 123.5 155 135.5 142 138.5C131.6 140.9 127.333 144.833 126.5 146.5C111.5 163 121 206.5 124.5 206.5C128 206.5 134 213.5 126.5 215C120.5 216.2 117.667 220.167 117 222C109.4 228 103.833 217.5 102 211.5Z" fill="#10151B"/>
<path d="M160.5 237.5C128.9 255.5 113.667 240 110 230C106.167 225 99.2 219.5 102 237.5C104.8 255.5 145.167 253.667 165 250.5C170.167 246.167 181.8 239.5 187 247.5C192.2 255.5 204.833 250.833 210.5 247.5C212.167 244.167 216.3 238.8 219.5 244C223.5 250.5 234 250.5 238 247.5C241.2 245.1 245 246.5 246.5 247.5C250.9 255.5 257 254.833 259.5 253.5C267.5 255.9 266.167 252.5 264.5 250.5C260.167 250.5 251.5 249.5 251.5 245.5C251.5 240.5 251 239.5 238 242C225 244.5 221.5 235.5 219 230C217 225.6 214.5 228.167 213.5 230C210.833 233.333 203.2 239.1 194 235.5C184.8 231.9 167.833 235.333 160.5 237.5Z" fill="#10151B"/>
<path d="M240 188.5C240 185 235.5 160.5 240 156.5C244.5 152.5 264.5 143 267.5 128C270.5 113 268.5 97 287.5 87C302.7 79 310.167 61.6667 312 54C317.833 45.6667 329.4 34 329 54C325 61.6667 315.2 78 308 82C299 87 308 109.5 308 112C308 114.5 314.5 128.5 295.5 146.5C276.5 164.5 264.5 182.5 264.5 215C264.962 216.708 265.275 218.713 265.181 220.523C278.968 213.928 314.115 216.297 329 217.5C342.6 207.5 348 191 349 184C365 169.2 381.5 172.5 383.5 183C386 188.5 386.1 192.9 378.5 188.5C370.9 184.1 364.667 186.667 362.5 188.5C356.5 214.1 340.333 221.5 333 222C319.333 222 291.5 223.6 289.5 230C287 238 290 237.5 277 242C267.782 245.191 261.812 233.299 261.385 225.68C259.272 225.92 256.111 224.946 251.5 222C248.333 215.333 238.2 206 223 222C215.167 221.833 204.2 217.2 223 200C224.833 199.333 230.8 196.1 240 188.5Z" fill="#10151B"/>
<path d="M411.5 245.5C409.9 241.5 403.167 238.167 400 237C403 226.5 413.5 234 415 237C416.5 240 440 244.5 445.5 240C449.9 236.4 457 235.833 460 236V246C444.5 247.5 413.1 249.5 411.5 245.5Z" fill="#10151B"/>
<path d="M23 201.5C23 201.5 16 202.5 19 220C21.5 226.167 30.3 238.4 43.5 242C56.7 245.6 54.6667 240.5 52 237.5C46.5 233 35.8 220.5 37 206.5C38.0286 194.5 30.5 197 23 201.5Z" stroke="#10151B"/>
<path d="M11 245.5C-2.99998 235.5 3.50002 249 3.50002 250.5C4.20079 253 9.00002 258.5 20.5 258C32 257.5 27 253.5 20.5 253.5C15.3 253.5 12 248.167 11 245.5Z" stroke="#10151B"/>
<path d="M78.5 250.5C58.9 244.5 45.3334 251.333 41 255.5C44.6667 257.833 54.1 261.6 62.5 258C70.9 254.4 83 256.5 88 258C102.4 258 103.333 256.333 102 255.5C102.333 256.333 98.1 256.5 78.5 250.5Z" stroke="#10151B"/>
<path d="M102 211.5C95.6 190.7 74.6667 189.833 65 192C65.6667 179.333 71.3 153.7 88.5 152.5C105.7 151.3 110 141 110 136C111 126.5 117 107.4 133 107C149 106.6 151.667 90.1667 151 82C153 45.2 159.833 22 163 15C179.8 -8.59998 178.333 5.16669 175.5 15C162 43 160.5 116.5 160.5 120C160.5 123.5 155 135.5 142 138.5C131.6 140.9 127.333 144.833 126.5 146.5C111.5 163 121 206.5 124.5 206.5C128 206.5 134 213.5 126.5 215C120.5 216.2 117.667 220.167 117 222C109.4 228 103.833 217.5 102 211.5Z" stroke="#10151B"/>
<path d="M160.5 237.5C128.9 255.5 113.667 240 110 230C106.167 225 99.2 219.5 102 237.5C104.8 255.5 145.167 253.667 165 250.5C170.167 246.167 181.8 239.5 187 247.5C192.2 255.5 204.833 250.833 210.5 247.5C212.167 244.167 216.3 238.8 219.5 244C223.5 250.5 234 250.5 238 247.5C241.2 245.1 245 246.5 246.5 247.5C250.9 255.5 257 254.833 259.5 253.5C267.5 255.9 266.167 252.5 264.5 250.5C260.167 250.5 251.5 249.5 251.5 245.5C251.5 240.5 251 239.5 238 242C225 244.5 221.5 235.5 219 230C217 225.6 214.5 228.167 213.5 230C210.833 233.333 203.2 239.1 194 235.5C184.8 231.9 167.833 235.333 160.5 237.5Z" stroke="#10151B"/>
<path d="M240 188.5C240 185 235.5 160.5 240 156.5C244.5 152.5 264.5 143 267.5 128C270.5 113 268.5 97 287.5 87C302.7 79 310.167 61.6667 312 54C317.833 45.6667 329.4 34 329 54C325 61.6667 315.2 78 308 82C299 87 308 109.5 308 112C308 114.5 314.5 128.5 295.5 146.5C276.5 164.5 264.5 182.5 264.5 215C264.962 216.708 265.275 218.713 265.181 220.523C278.968 213.928 314.115 216.297 329 217.5C342.6 207.5 348 191 349 184C365 169.2 381.5 172.5 383.5 183C386 188.5 386.1 192.9 378.5 188.5C370.9 184.1 364.667 186.667 362.5 188.5C356.5 214.1 340.333 221.5 333 222C319.333 222 291.5 223.6 289.5 230C287 238 290 237.5 277 242C267.782 245.191 261.812 233.299 261.385 225.68C259.272 225.92 256.111 224.946 251.5 222C248.333 215.333 238.2 206 223 222C215.167 221.833 204.2 217.2 223 200C224.833 199.333 230.8 196.1 240 188.5Z" stroke="#10151B"/>
<path d="M411.5 245.5C409.9 241.5 403.167 238.167 400 237C403 226.5 413.5 234 415 237C416.5 240 440 244.5 445.5 240C449.9 236.4 457 235.833 460 236V246C444.5 247.5 413.1 249.5 411.5 245.5Z" stroke="#10151B"/>
</svg>
