<svg width="1440" height="996" viewBox="0 0 1440 996" fill="none" xmlns="http://www.w3.org/2000/svg">
<path d="M1412.5 497.5C1411.3 467.1 1406 432.5 1403.5 419H1440V771C1432.17 773.167 1409.5 776.7 1381.5 773.5C1346.5 769.5 1329.5 730 1338 704C1344.8 683.2 1377.83 650.333 1393.5 636.5C1399.83 629.333 1412.5 612 1412.5 600C1412.5 588 1417.83 575.667 1420.5 571C1412 559 1414 535.5 1412.5 497.5Z" fill="#1B2D23" stroke="#1B2D23"/>
<path d="M168 401.5L0 370.5V102.5H1440V237C1375.33 235.667 1248.5 236.8 1258.5 252C1271 271 1268.5 265.5 1264.5 276C1260.5 286.5 1253.5 318 1255 335.5C1256.5 353 1248.5 396.5 1239 375C1229.5 353.5 1229.5 312.5 1227.5 300.5C1225.5 288.5 1221 280.5 1206 272.5C1194 266.1 1183.67 307.167 1180 328.5C1183.67 346.333 1187.9 397.4 1175.5 459C1160 536 1139 410 1133 366C1128.2 330.8 1111.33 284.333 1103.5 265.5C1092.5 251.167 1070.6 232.5 1071 272.5C1071.4 312.5 1067.5 365.5 1065.5 387C1063.5 414.5 1052.5 426 1043 394C1035.4 368.4 1031.5 296 1030.5 263C1023.17 236.667 1004.2 184.9 987 188.5C969.8 192.1 968.5 202.333 970 207C974.5 233.5 980.8 297 970 339C959.2 381 950.167 337.167 947 310C942.2 290.4 940.333 270.5 940 263C929.2 258.2 928.167 251.667 929 249C931.667 235.667 933.5 209.1 919.5 209.5C905.5 209.9 902.667 198 903 192C902 198.167 896.4 203.6 882 176C867.6 148.4 863 169.833 862.5 184C850.9 229.2 833.667 192.167 826.5 168C804.9 124.4 791.5 181.167 787.5 215C776.3 252.6 766.5 210 763 184C743 123.6 725.333 178.167 719 213C718.833 223.833 716.9 251.3 710.5 274.5C702.5 303.5 687.5 305.5 671.5 232.5C658.7 174.1 640.833 153.167 633.5 150C624.5 147.5 605.8 154.6 603 203C600.2 251.4 589.5 251.5 584.5 245.5C568.1 224.3 571.667 200.333 575.5 191C539 88.5 514.5 174.5 511.5 272C508.5 369.5 502 409 502 415C501 427.5 492 458.5 471.5 415C455.1 380.2 445.333 305.167 442.5 272C424.1 218 411.167 246.167 407 267C403.5 356.5 398 425 392 441.5C387.2 454.7 382 449.333 380 445C366.8 388.2 357.5 306 354.5 272C332 289.167 287.1 333.8 287.5 375C287.9 416.2 285.333 472.167 284 495C269.6 548.6 262.333 516 260.5 493C262 471 262.8 424.6 254 415C245.2 405.4 243.667 395.667 244 392C246.5 347.5 243.5 330.5 227.5 333.5C211.5 336.5 212.5 335 209.5 392C207.1 437.6 195.833 453 190.5 455C177.3 448.2 170 416.5 168 401.5Z" fill="#1B2D23" stroke="#1B2D23"/>
<path d="M188 227C168.5 188.5 140.5 214 140.5 233.5C142.9 255.5 129.167 258.167 125 262C121.5 265.5 108.4 282.5 102 294.5C95.6 306.5 62.5 415.667 45 469C31.43 515.697 11.7536 486.463 0.0772435 469.115L0 469V820L257.5 964C268.667 997.833 297.8 1032.4 325 900C359 734.5 274 683.5 242 640.5C216.4 606.1 193.667 565.5 188 549.5C154.5 399 205 299.5 209.5 294.5C213.1 290.5 221.5 280.5 220 279.5C198 269 189.333 239 188 227Z" fill="#1D212A" stroke="#1D212A"/>
<path d="M0.5 475V382V93H1440V480C1433.85 474.235 1434.29 450.776 1435.37 438.45C1434.01 451.123 1427.56 469.137 1411 449.5C1393.8 429.1 1390.83 404.667 1391.5 395C1386.83 384.833 1376.1 360.1 1370.5 342.5C1364.9 324.9 1362.5 325.5 1362 328C1362.5 328.333 1361.2 333.7 1352 352.5C1340.5 376 1328 399.5 1310.5 384C1296.5 371.6 1291.33 346.833 1290.5 336L1275 243.5C1271.33 248.667 1259.5 260.4 1241.5 266C1219 273 1217.5 285.5 1217 286.5C1211.5 315.5 1195 349.5 1185.5 358C1177.9 364.8 1173.33 357.167 1172 352.5V341.5C1161 292.667 1135.5 197.7 1121.5 208.5C1107.5 219.3 1105.67 226.333 1106.5 228.5C1105.17 240.833 1098.8 269.9 1084 287.5C1069.2 305.1 1063.5 294.167 1062.5 286.5C1067.83 267.333 1071.8 232.5 1045 246.5C1018.2 260.5 1004.17 253 1000.5 247.5C999.667 224 995 175.3 983 168.5C968 160 955.5 187 946 204C938.4 217.6 926.167 197 921 185C922.5 193 921.6 207.2 906 200C890.4 192.8 887.5 177 888 170L890.5 104.5H617.5C613.667 135.833 605.4 199.8 603 205C600 211.5 584 218.5 572 208C560 197.5 557 181 551 171.5C546.2 163.9 536 167 531.5 169.5C532.167 187.167 529.8 230.6 515 263C500.2 295.4 486.833 292.5 482 287C466.4 270.6 449.167 234.5 442.5 218.5C441.5 215.167 436.2 205.2 423 192C406.5 175.5 395.5 189 381.5 196C367.5 203 321 375.5 321.5 384C322 392.5 296 428 285 370C274 312 247 287.5 238 287C230.8 286.6 222 281.167 218.5 278.5C184 252 193 226.5 181 214C169 201.5 142 211.5 111 234C80 256.5 88.5 367 74 414C62.4 451.6 48.8333 480.333 43.5 490C28.3 520.4 8.5 492.667 0.5 475Z" fill="#10151B" stroke="#10151B"/>
<path d="M0 315.5V406.5C4.5 410.833 15.2 421.8 22 431C30.5 442.5 56 456.5 66 437C74 421.4 86.6667 374.167 92 352.5C93.2 324.9 116.5 290.333 128 276.5C145 267 140.5 246.5 142 232.5C143.2 221.3 149.167 213.833 152 211.5C143.2 203.1 136.667 180.667 134.5 170.5C136.5 130.9 160.667 141.333 172.5 151.5C185.5 177 186 187.5 196.5 208.5C207 229.5 221 234 247 230C267.8 226.8 275.333 245.333 276.5 255C279.7 301.8 307.5 362.5 321 387C342.2 336.2 354.167 291.5 357.5 275.5L349 151.5C354.667 151.5 366.7 152.1 369.5 154.5C373 157.5 405 170.5 433.5 170.5C456.3 170.5 467.667 187.833 470.5 196.5C471.7 228.1 500.333 254.333 514.5 263.5C523.3 251.9 526.5 239 527 234L525 230C519.667 205.667 513.7 155.9 532.5 151.5C551.3 147.1 556.667 153.333 557 157C569.4 180.6 592.5 199.5 602.5 206C614.9 192.8 617.667 176.833 617.5 170.5L625 108H667.5L784 112H873C875.333 122.167 879.9 144.5 879.5 152.5C879.1 160.5 885.667 174.167 889 180C895.667 172 909.3 158.1 910.5 166.5C911.7 174.9 923 191.667 928.5 199C938 189.833 957.7 168.6 960.5 157C963.3 145.4 978 146.5 985 148.5C986 166 987.9 201.9 987.5 205.5C987.1 209.1 996 235 1000.5 247.5C1011.67 239.667 1034.7 219 1037.5 199C1040.3 179 1052 169.333 1057.5 167C1071.1 167.4 1087.83 164.5 1094.5 163C1108.1 151 1133.17 148 1144 148L1157 142.5C1149.67 167.167 1135.1 223.3 1135.5 250.5C1135.9 277.7 1159.67 329.833 1171.5 352.5C1192.5 310.5 1206 249 1207 230C1207.8 214.8 1220.67 213.667 1227 215C1234.83 219 1254.2 223.3 1269 208.5C1283.8 193.7 1290.5 164.667 1292 152C1305.2 129.6 1322.5 141.333 1329.5 150C1334.7 172 1319.67 192.5 1311.5 200C1321.1 204 1323.83 213.333 1324 217.5C1325 236 1327 244 1329 249C1330.6 253 1335 255.667 1337 256.5C1331.17 268.167 1316 289.6 1302 282C1288 274.4 1279.83 243.5 1277.5 229C1267 251.5 1266 304.5 1288 333.5C1305.6 356.7 1338.33 311.833 1352.5 286.5C1361.7 302.9 1368.33 328.333 1370.5 339C1369.5 349.833 1372.2 376.1 1391 394.5C1409.8 412.9 1431.5 386.833 1440 371.5V96H1250.5L1076 106L918.5 112L805.5 90L620.5 94L562 112L380.5 116.5L265.5 119.5L134.5 86L42.5 136L0 315.5Z" fill="#171E26"/>
<path d="M1091.5 177.5C1063.9 196.7 1048.33 231.833 1044 247C1048 264.6 1058 280.667 1062.5 286.5C1074.1 270.1 1086.67 223.667 1091.5 202.5C1100.7 173.7 1095.33 173.833 1091.5 177.5Z" fill="#171E26"/>
<path d="M0 315.5V406.5C4.5 410.833 15.2 421.8 22 431C30.5 442.5 56 456.5 66 437C74 421.4 86.6667 374.167 92 352.5C93.2 324.9 116.5 290.333 128 276.5C145 267 140.5 246.5 142 232.5C143.2 221.3 149.167 213.833 152 211.5C143.2 203.1 136.667 180.667 134.5 170.5C136.5 130.9 160.667 141.333 172.5 151.5C185.5 177 186 187.5 196.5 208.5C207 229.5 221 234 247 230C267.8 226.8 275.333 245.333 276.5 255C279.7 301.8 307.5 362.5 321 387C342.2 336.2 354.167 291.5 357.5 275.5L349 151.5C354.667 151.5 366.7 152.1 369.5 154.5C373 157.5 405 170.5 433.5 170.5C456.3 170.5 467.667 187.833 470.5 196.5C471.7 228.1 500.333 254.333 514.5 263.5C523.3 251.9 526.5 239 527 234L525 230C519.667 205.667 513.7 155.9 532.5 151.5C551.3 147.1 556.667 153.333 557 157C569.4 180.6 592.5 199.5 602.5 206C614.9 192.8 617.667 176.833 617.5 170.5L625 108H667.5L784 112H873C875.333 122.167 879.9 144.5 879.5 152.5C879.1 160.5 885.667 174.167 889 180C895.667 172 909.3 158.1 910.5 166.5C911.7 174.9 923 191.667 928.5 199C938 189.833 957.7 168.6 960.5 157C963.3 145.4 978 146.5 985 148.5C986 166 987.9 201.9 987.5 205.5C987.1 209.1 996 235 1000.5 247.5C1011.67 239.667 1034.7 219 1037.5 199C1040.3 179 1052 169.333 1057.5 167C1071.1 167.4 1087.83 164.5 1094.5 163C1108.1 151 1133.17 148 1144 148L1157 142.5C1149.67 167.167 1135.1 223.3 1135.5 250.5C1135.9 277.7 1159.67 329.833 1171.5 352.5C1192.5 310.5 1206 249 1207 230C1207.8 214.8 1220.67 213.667 1227 215C1234.83 219 1254.2 223.3 1269 208.5C1283.8 193.7 1290.5 164.667 1292 152C1305.2 129.6 1322.5 141.333 1329.5 150C1334.7 172 1319.67 192.5 1311.5 200C1321.1 204 1323.83 213.333 1324 217.5C1325 236 1327 244 1329 249C1330.6 253 1335 255.667 1337 256.5C1331.17 268.167 1316 289.6 1302 282C1288 274.4 1279.83 243.5 1277.5 229C1267 251.5 1266 304.5 1288 333.5C1305.6 356.7 1338.33 311.833 1352.5 286.5C1361.7 302.9 1368.33 328.333 1370.5 339C1369.5 349.833 1372.2 376.1 1391 394.5C1409.8 412.9 1431.5 386.833 1440 371.5V96H1250.5L1076 106L918.5 112L805.5 90L620.5 94L562 112L380.5 116.5L265.5 119.5L134.5 86L42.5 136L0 315.5Z" stroke="#171E26"/>
<path d="M1091.5 177.5C1063.9 196.7 1048.33 231.833 1044 247C1048 264.6 1058 280.667 1062.5 286.5C1074.1 270.1 1086.67 223.667 1091.5 202.5C1100.7 173.7 1095.33 173.833 1091.5 177.5Z" stroke="#171E26"/>
<path d="M0 339V100H1440V317.5C1433 331 1397 377.5 1387.5 314.5C1379.9 264.1 1359.33 235.167 1350 227C1336 195.8 1364.83 187 1381 186.5C1404.2 156.9 1388.67 134.5 1378 127C1303.6 103.4 1264.67 117.167 1254.5 127C1255.17 131.667 1254.9 144.1 1248.5 156.5C1242.1 168.9 1231.83 173.333 1227.5 174C1154 200 1155.5 236.5 1147 249C1140.2 259 1137.17 256.833 1136.5 254.5C1127 208 1114.5 194 1109 186.5C1103.5 179 1090.5 172 1125 159.5C1159.5 147 1138.5 130.5 1114.5 139C1095.3 145.8 1064.17 147.833 1051 148C1015 183 1001.5 212.5 997.5 218C994.3 222.4 991.833 220.5 991 219C983.4 207 982.5 165.667 983 146.5C972.2 128.1 958.167 133.833 952.5 139C933.7 159 916.667 166 910.5 167C905.3 161.8 900 141.167 898 131.5C892.8 134.3 883.833 147.333 880 153.5C876 148 878.5 138.5 874 128C869.5 117.5 858.5 119 855.5 132.5C853.1 143.3 848.167 149 846 150.5C844.667 148.333 838.1 141.3 822.5 130.5C803 117 798 130.5 795.5 136.5C793.5 141.3 784.333 146.833 780 149C771.5 145 767.5 134.5 754.5 123C741.5 111.5 727.5 122.5 726 128C724.8 132.4 713.833 143.833 708.5 149C695.7 145 677.167 127.667 669.5 119.5C658.667 114.167 636.4 108.4 634 128C631.6 147.6 621.667 167.167 617 174.5C597 164.1 578.667 147.5 572 140.5C548 131 529 141.5 534.5 164.5C538.9 182.9 531.333 219.167 527 235C497.5 206.5 500 196.5 482.5 174.5C465 152.5 460 150.5 432.5 150C410.5 149.6 385.667 141.5 376 137.5C364.833 136 344.1 136.2 350.5 149C358.5 165 375 169 386.5 172C395.7 174.4 396.667 183.333 396 187.5C374 206.3 361.5 254 358 275.5C349.6 274.3 345.5 268.333 344.5 265.5C339 246.667 318.2 205.8 279 193C230 177 228 162.5 228.5 147C228.9 134.6 227 127.833 226 126C174.8 83.6 106.333 108.333 78.5 126C61.6667 143.833 38.8 183.2 82 198C136 216.5 101.5 254 92.5 262.5C85.3 269.3 68.5 331 61 361C43.8 405.8 13.1667 365 0 339Z" fill="#1D212A" stroke="#1D212A"/>
<rect width="1440" height="100" fill="url(#paint0_linear_152_27)"/>
<defs>
<linearGradient id="paint0_linear_152_27" x1="720" y1="0" x2="720" y2="100" gradientUnits="userSpaceOnUse">
<stop stop-color="#01362B"/>
<stop offset="0.729167" stop-color="#1D212A"/>
</linearGradient>
</defs>
</svg>
