<svg width="1440" height="987" viewBox="0 0 1440 987" fill="none" xmlns="http://www.w3.org/2000/svg">
<path d="M1440 677H0V986.5H1440V677Z" fill="#171E26" stroke="#171E26"/>
<path d="M1047.5 677H622C468.5 683.5 493.5 711.5 497.5 720C501.5 728.5 538 749 610 748.5C682 748 728.5 754.5 775.5 781C822.5 807.5 800 820.5 750.5 824.5C710.9 827.7 674.334 836.5 661 840.5C595.5 853.5 554.5 889.5 661 901.5C746.2 911.1 854.167 951.5 897.5 970.5V986H1163L1103.5 927.5C1078.17 922.5 1009.7 907.9 938.5 889.5C867.3 871.1 908.834 861.5 938.5 859C1013.5 858.5 1180.2 854.5 1247 842.5C1330.5 827.5 1247.5 821.5 1233 813.5C1221.4 807.1 1008.17 789.167 903 781C866.5 778.5 799.4 771.5 823 763.5C846.6 755.5 982.5 737.5 1047.5 729.5V677Z" fill="#3E5774" stroke="#3E5774"/>
<path d="M1022 732.5C1072.4 726.1 1103.67 697.167 1113 683.5V677H1169C1177 686.333 1190.6 708.1 1181 720.5C1169 736 1033 743 964 752.5C895 762 891.5 768.5 896.5 773.5C901.5 778.5 1048.5 785 1153 783.5C1236.6 782.3 1296.17 798.333 1315.5 806.5C1329.5 820.667 1343.3 852.1 1286.5 864.5C1229.7 876.9 1246.83 911.667 1262.5 927.5L1244 986H1193H911H837.5C817.333 979 766.2 963.7 723 958.5C679.8 953.3 647.667 943 637 938.5C545 908.5 541 874.667 550.5 861.5C595.7 822.3 696.333 806.167 741 803C651 803 568.5 780 538.5 768.5C507.334 754.5 450.5 720.6 472.5 697C494.5 673.4 586.667 675.167 630 679C589.667 677.333 505.8 679 493 699C477 724 548 759.5 630 750C712 740.5 764.5 772 794 795.5C817.6 814.3 738.167 827.333 695.5 831.5C564 850 576.5 889.5 658 900.5C723.2 909.3 850.5 951.5 906 971.5L911 986H1193V944C1146.67 935.833 1032.8 914.3 948 893.5C842 867.5 945.5 854.5 1005.5 859C1065.5 863.5 1164.5 851 1232.5 845.5C1300.23 840.022 1286.61 831.567 1272.17 822.606L1272 822.5C1257.5 813.5 1038 785 867 777.5C696 770 959 740.5 1022 732.5Z" fill="#10151B" stroke="#10151B"/>
<rect x="0.62207" y="0.668579" width="1439.38" height="676.315" transform="rotate(0.052997 0.62207 0.668579)" fill="url(#paint0_linear_177_34)"/>
<defs>
<linearGradient id="paint0_linear_177_34" x1="720.311" y1="0.668579" x2="720.311" y2="676.984" gradientUnits="userSpaceOnUse">
<stop stop-color="#0C302E"/>
<stop offset="0.0001" stop-color="#0C302E"/>
<stop offset="0.295833" stop-color="#124B3A"/>
<stop offset="1" stop-color="#171E26"/>
</linearGradient>
</defs>
</svg>
