<svg width="1440" height="535" viewBox="0 0 1440 535" fill="none" xmlns="http://www.w3.org/2000/svg">
<path d="M113.267 41.2821C88.9933 50.6883 28.814 57.3383 1.75856 59.4876H1V533.969H1439.99V50.0055C1417.49 53.7984 1372.03 56.7568 1370.21 38.2478C1368.39 19.7389 1354.53 16.8816 1347.83 17.7666C1334.05 20.0423 1304.44 23.2283 1296.25 17.7666C1288.05 12.305 1281.45 14.7324 1279.18 16.6288C1262.79 25.1247 1251.62 24.973 1248.08 23.8351C1240.62 22.0651 1221.15 18.2976 1202.94 17.3873C1180.19 16.2495 1179.05 24.973 1168.05 23.4558C1157.05 21.9387 1143.78 33.3172 1139.98 34.8343L1139.92 34.8594C1136.13 36.376 1130.71 38.5435 1100.92 23.4558C1076.95 11.3188 1039.85 18.3988 1024.3 23.4558C1009.38 26.3637 974.54 31.269 954.514 27.6279C929.481 23.0766 915.068 26.8694 902.931 24.2144C893.222 22.0904 887.002 15.4909 885.105 12.4567C875.244 7.14674 875.244 7.9053 858.176 14.7324C841.109 21.5594 840.729 21.5594 830.868 24.2144C821.007 26.8694 806.594 30.2829 773.596 39.0064C740.599 47.7299 665.88 51.902 613.919 55.6948C561.957 59.4876 512.271 37.11 503.169 30.2829C494.066 23.4558 477.378 24.5937 462.586 28.0072C450.752 30.738 442.231 29.9036 439.449 29.1451C433.988 29.7519 418.968 19.7895 412.141 14.7324C375.123 -10.4519 325.412 4.23891 305.184 14.7324C297.851 18.1459 278.482 23.4558 259.67 17.3873C236.155 9.80171 224.397 9.04314 209.605 17.3873C197.771 24.0627 187.986 26.2372 184.572 26.4901C170.918 27.5015 137.541 31.8759 113.267 41.2821Z" fill="#B7EAE3" stroke="#B7EAE3"/>
</svg>
