<svg width="1440" height="555" viewBox="0 0 1440 555" fill="none" xmlns="http://www.w3.org/2000/svg">
<path d="M4.79281 62.4199C3.57911 61.5096 1.75856 62.0406 1 62.4199V553.969H1439.99V17.6647L1439.24 17.2854C1424.67 11.8237 1421.79 25.1239 1422.17 32.4567C1414.08 28.0317 1398.12 25.6296 1399.03 51.4207C1400.17 83.6597 1396 78.729 1396 80.2461C1378.64 94.5826 1370.29 93.1573 1324.29 85.3026L1323.55 85.1768C1276.9 77.2119 1312.93 45.3522 1265.15 45.3522C1217.36 45.3522 1216.6 65.0749 1177.15 85.1768C1137.71 105.279 1073.23 117.416 1060.33 116.657C1050.02 116.05 1045.67 114.887 1044.78 114.381C1038.59 111.853 1024 106.341 1015.2 104.52C1004.2 102.244 995.855 93.1417 985.615 85.1768C975.374 77.2119 960.582 69.6263 939.342 82.5218C922.351 92.8383 913.804 93.9003 911.655 93.1417C887.988 96.176 853.498 75.6948 839.212 65.0749C830.868 51.2943 805.835 24.1125 772.459 25.6296C730.738 27.526 719.738 26.0089 693.568 11.2169C672.632 -0.616699 658.042 0.21772 653.364 2.11413C616.574 10.079 610.505 20.6989 607.85 23.7332C605.726 26.1606 604.69 24.7446 604.437 23.7332C597.458 17.0578 588.128 20.9518 584.335 23.7332C565.219 33.7462 517.708 78.2233 496.342 99.2102C485.342 109.577 459.551 125.305 444.38 105.279C429.209 85.2526 418.842 81.7632 415.555 82.5218C406.452 84.2918 387.26 86.7698 383.316 82.5218C378.385 77.2119 368.903 69.6262 362.076 73.0398C356.614 75.7706 351.203 78.2233 349.18 79.1083C293.047 97.3138 309.735 96.9345 290.392 102.244C274.917 106.492 257.647 95.4174 250.947 89.3489C244.625 82.7747 230.086 69.9297 222.5 71.1434C214.915 72.3571 212.766 70.6377 212.639 69.6262C210.363 61.282 199.743 52.5586 187.227 46.4901C174.711 40.4216 160.298 29.4224 159.919 26.0089C159.616 23.278 157.264 22.3425 156.126 22.216C150.816 21.8368 142.093 19.9404 138.3 15.7683C135.266 12.4306 132.99 13.619 132.231 14.6304C126.921 18.4232 116.681 22.9746 111.75 26.0089C107.806 28.4363 103.785 27.0203 102.268 26.0089C96.5031 17.8164 91.7747 25.8824 90.1311 30.9395C76.9889 33.568 75.3707 38.4269 73.8675 42.94L73.822 43.0765C72.6083 46.7176 71.2935 46.1108 70.7878 45.3522C59.0301 30.181 34.3768 37.3873 33.9975 41.9387C33.6941 45.5798 29.3197 49.0186 27.1704 50.2829C11.6199 51.8 9.34419 60.1442 8.58563 61.2821C7.82707 62.4199 6.30994 63.5577 4.79281 62.4199Z" fill="#93DFD4" stroke="#93DFD4"/>
</svg>
