<svg width="598" height="483" viewBox="0 0 598 483" fill="none" xmlns="http://www.w3.org/2000/svg">
<path d="M57.8922 21.9003C26.9429 40.4092 7.0685 40.4851 1 38.2094V481.969H596.851V162.993C572.957 143.144 521.374 99.653 506.203 84.4817C491.032 69.3105 463.723 57.4263 451.966 53.3806C431.333 35.4786 416.819 45.9214 412.141 53.3806C383.316 87.1367 364.352 104.204 361.697 93.9638C359.042 83.7232 355.628 77.2754 337.043 70.8276C318.459 64.3798 301.391 79.1718 291.909 86.3781C284.323 92.1432 277.876 88.7803 275.6 86.3781C256.787 72.724 226.04 59.702 213.018 54.8978C181.159 33.658 192.158 23.4174 170.539 28.7273C153.244 32.9753 146.897 28.7273 145.886 26.0724C106.82 -10.3387 101.889 7.48758 86.7176 1.41908C74.5806 -3.43573 62.4436 13.0504 57.8922 21.9003Z" fill="#87D8CA" stroke="#87D8CA"/>
</svg>
