<svg width="1440" height="385" viewBox="0 0 1440 385" fill="none" xmlns="http://www.w3.org/2000/svg">
<path d="M10.1028 33.5126C6.15823 29.2647 2.3907 31.7426 1 33.5126V383.969H1439.99V244.393H1428.99C1414.2 247.048 1265.15 241.738 1224.56 234.911C1183.98 228.084 1190.81 206.086 1161.22 195.845C1131.64 185.605 1008.75 168.537 990.545 168.537C972.34 168.537 954.134 154.503 938.963 138.953C926.826 126.512 906.345 123.149 897.621 123.023C888.772 122.391 870.692 118.32 869.175 107.093C867.658 95.8665 855.142 94.8298 849.073 95.7148C795.215 93.4391 774.355 63.4759 769.045 51.3389C763.735 39.2018 759.563 35.0298 756.908 38.4433C754.784 41.1741 752.23 40.5925 751.219 39.9604C748.185 31.4645 736.3 28.8348 730.738 28.582C733.468 20.3895 727.324 19.8585 723.911 20.6171C722.773 14.1693 711.015 10.3765 705.326 12.6521C699.637 14.9278 684.086 23.6513 679.914 30.0991C675.742 36.5469 662.088 35.7883 632.504 27.0648C608.836 20.0861 600.897 25.1684 599.885 28.582C599 31.4898 596.775 35.8642 594.955 30.0991C592.679 22.8927 586.611 31.9955 582.059 35.7883C577.508 39.5811 553.992 17.2035 554.372 13.79C554.675 11.0592 552.981 8.85933 552.096 8.10076C552.349 7.46863 551.868 5.52165 547.924 2.79082C543.979 0.0599939 539.2 1.65298 537.304 2.79082C536.166 2.03226 533.739 1.12198 533.132 3.54939C532.525 5.97679 531.109 5.57222 530.477 5.06651C527.316 3.80224 519.705 1.19784 514.547 0.894415C509.389 0.59099 507.594 3.29653 507.341 4.68723C505.192 4.30795 500.817 4.08038 500.514 6.20436C500.21 8.32833 502.916 11.3879 504.307 12.6521C501.652 18.7206 497.479 19.0999 495.962 20.6171C494.749 21.8308 492.675 21.3756 491.79 20.9963C486.935 14.9278 481.929 20.2378 480.033 23.6513C477.757 24.4099 472.674 24.5616 470.55 19.0999C467.896 12.2729 465.999 16.0657 465.62 18.3414C465.316 20.1619 464.229 19.6056 463.723 19.0999C458.262 11.5143 452.345 11.6407 450.069 12.6521C440.208 -0.243429 435.657 15.6864 435.277 18.3414C434.974 20.4653 431.105 19.7321 429.209 19.0999C426.175 13.0314 420.106 15.56 417.451 17.5828C401.142 16.445 390.901 17.5828 382.178 22.1342C373.454 26.6856 370.42 28.9613 361.697 50.5803C354.718 67.8755 343.618 78.7736 338.94 82.0607C323.389 89.1406 285.689 98.1422 259.291 77.5093C226.293 51.7181 135.645 57.0281 121.232 57.0281C109.702 57.0281 97.9696 50.201 93.5447 46.7875L80.6491 39.5811C79.3848 38.5697 76.7804 36.0159 76.477 33.8919C76.1736 31.7679 74.3278 29.467 73.4428 28.582C72.6842 28.2027 71.0154 26.3063 70.4085 21.7549C69.6499 16.0657 68.8914 17.5828 66.2364 15.3071C63.5814 13.0314 57.5129 13.0314 57.8922 14.5486C58.1956 15.7623 57.2601 16.0657 56.7544 16.0657C55.1108 15.6864 51.7479 15.3071 51.4444 16.8242C51.141 18.3414 49.548 17.9621 48.7895 17.5828C38.5489 14.1693 40.8246 14.9278 33.9975 14.1693C27.1704 13.4107 28.3083 15.3071 27.5497 16.8242C26.7911 18.3414 26.4119 17.9621 23.3776 17.2035C19.9641 16.445 18.0677 22.1342 20.7226 24.0306C22.8466 25.5477 22.619 26.9384 22.2398 27.4441C20.7226 28.582 17.4608 31.3887 16.5505 33.5126C15.6403 35.6366 11.8727 34.3976 10.1028 33.5126Z" fill="#5AB3A8" stroke="#5AB3A8"/>
</svg>
