<svg width="1440" height="375" viewBox="0 0 1440 375" fill="none" xmlns="http://www.w3.org/2000/svg">
<path d="M1434.69 22.3748C1435.29 26.0159 1438.73 29.7076 1440.37 31.0983L1439.99 373.969H1C2.26427 373.463 16.0195 370.176 60.9265 361.073C105.833 351.97 166.872 314.801 191.779 297.354C212.007 297.354 259.973 294.244 290.013 281.803C327.561 266.253 332.113 244.254 346.905 237.048C361.697 229.842 391.66 237.048 419.727 224.911C447.794 212.774 459.931 195.706 458.034 190.396C456.138 185.087 465.999 174.467 471.688 169.915C476.24 166.274 480.665 170.168 482.308 172.57C487.997 170.674 486.86 174.087 490.273 174.467C493.004 174.77 492.17 179.144 491.411 181.294C493.181 181.926 496.721 183.949 496.721 186.983C496.721 190.017 511.387 192.799 518.719 193.81C524.535 193.81 536.546 194.189 538.063 195.706C539.959 197.603 553.613 195.706 564.612 193.81C575.612 191.914 578.266 199.12 586.232 198.741C592.604 198.437 599.759 193.81 602.54 191.534C602.288 187.362 601.099 179.17 598.368 179.777C595.638 180.383 593.691 187.109 593.058 190.396C590.631 189.486 591.541 183.949 592.3 181.294C592.047 181.167 591.314 181.142 590.404 182.052C589.266 183.19 583.197 190.396 583.956 185.466C584.714 180.535 591.162 177.122 588.507 176.363C586.383 175.756 582.818 176.869 581.301 177.501C580.997 175.68 584.462 172.697 586.232 171.432C586.232 169.612 583.197 168.651 581.68 168.398C582.287 165.971 589.013 166.375 592.3 166.881C591.39 164.15 589.392 161.445 588.507 160.433C593.059 160.433 595.461 163.468 596.093 164.985C596.093 158.537 601.782 155.882 601.023 157.399C600.417 158.613 600.771 162.962 601.023 164.985C606.182 159.523 610 159.675 611.264 160.433L605.195 165.364C605.575 165.364 607.092 165.288 610.126 164.985C613.16 164.681 613.919 167.134 613.919 168.398C608.609 168.651 600.417 169.612 610.126 171.432C619.836 173.253 617.965 175.984 615.815 177.122C612.023 175.984 605.12 174.391 607.85 177.122C611.264 180.535 615.057 188.121 611.264 184.707C607.471 181.294 601.782 178.639 601.782 179.777C601.782 180.687 604.816 187.236 606.333 190.396H623.022C626.435 168.019 627.573 166.122 629.09 161.571C630.607 157.02 629.849 155.503 629.09 157.399C628.332 159.295 624.918 161.192 624.16 161.571C623.553 161.875 619.861 164.732 618.091 166.122C616.953 167.513 614.678 169.308 614.678 165.364C614.678 160.433 619.608 157.399 620.746 155.882C621.884 154.365 622.263 155.503 619.608 154.365C617.484 153.454 611.39 153.733 608.609 153.985C608.912 150.951 612.781 149.94 614.678 149.813C617.206 150.066 621.732 149.889 619.608 147.158C617.674 144.671 612.866 143.673 610.113 143.419C609.216 146.986 609.242 144.875 609.368 143.366C609.593 143.377 609.843 143.395 610.113 143.419C610.117 143.402 610.122 143.384 610.126 143.366C611.036 139.724 615.815 139.573 618.091 139.952C619.608 140.963 622.567 142.379 622.263 139.952C621.96 137.525 618.85 135.401 617.333 134.642C620.063 132.518 623.022 133.251 624.16 133.884C626.056 136.918 630.001 142.076 630.607 138.435C631.214 134.794 630.355 131.355 629.849 130.091C634.731 130.378 636.374 136.125 636.643 139.419C637.131 134.626 658.009 129.495 650.33 133.884C642.365 138.435 637.814 145.641 641.227 143.745C643.958 142.228 649.445 144.377 651.847 145.641C647.802 147.285 641.076 150.496 646.537 150.193C651.999 149.889 655.387 153.606 656.399 155.503C652.732 154.997 645.324 154.365 645.02 155.882C644.641 157.778 649.192 158.537 651.847 163.468C653.971 167.412 652.479 170.674 651.468 171.812C651.341 171.18 650.709 169.308 649.192 166.881C647.296 163.847 641.607 160.433 641.227 162.33C640.924 163.847 642.112 165.49 642.744 166.122C643.882 175.605 638.572 176.742 638.572 175.225C638.572 173.708 638.572 169.157 636.676 167.64C635.159 166.426 633.262 161.065 632.504 158.537C628.559 165.516 626.562 183.443 626.056 191.534C626.182 191.787 627.346 192.596 630.987 193.81C635.538 195.327 643.503 196.465 647.675 195.706C651.847 194.948 651.847 201.396 656.399 201.396C660.04 201.396 662.72 198.614 663.605 197.224C664.869 197.982 667.929 198.892 670.053 196.465C672.708 193.431 679.914 193.81 680.673 193.81C685.603 183.949 687.12 188.5 692.051 185.845C695.996 183.721 699.005 183.949 700.016 184.328C703.935 182.432 712.229 179.549 714.049 183.19C716.325 187.742 714.429 185.845 719.739 185.845C725.049 185.845 721.635 190.396 722.394 190.396C723.152 190.396 724.29 191.155 724.29 192.293C724.29 193.431 723.531 193.81 725.049 194.948C726.262 195.858 727.071 198.361 727.324 199.499C725.681 198.614 723.38 198.058 727.324 202.913C731.269 207.768 738.324 206.958 741.358 205.947C741.231 204.556 741.51 202.003 743.633 202.913C745.757 203.823 746.794 201.522 747.047 200.258C746.036 196.086 745.454 187.514 751.219 186.604C756.984 185.693 760.448 188.5 761.46 190.017C763.735 189.512 768.059 189.259 767.149 192.293C766.239 195.327 768.793 196.591 770.183 196.844C772.585 197.097 777.466 198.134 777.769 200.258C778.072 202.382 779.918 203.924 780.803 204.43C789.603 203.216 788.01 205.441 786.113 206.706C785.607 207.085 784.9 208.299 786.113 210.119C787.327 211.94 786.366 213.912 785.734 214.671C788.515 216.061 793.775 219.525 792.561 222.256C791.347 224.987 790.285 225.164 789.906 224.911C790.538 228.198 793.092 234.621 798.25 234.014C804.698 233.255 805.077 237.048 805.836 237.048C810.084 243.723 816.708 240.841 819.49 238.565C831.93 225.518 839.845 223.268 842.247 223.773C841.867 223.647 842.095 222.939 846.04 221.118C849.984 219.298 854.763 217.578 856.659 216.946C854.763 216.188 851.956 214.671 855.901 214.671C859.845 214.671 861.59 212.648 861.969 211.636C860.452 211.131 856.735 210.347 854.005 211.257C850.591 212.395 850.591 207.843 852.487 205.568C854.384 203.292 862.349 204.43 861.59 206.326C860.983 207.843 862.854 208.476 863.866 208.602C872.589 206.706 874.106 210.498 876.003 211.257C877.52 211.864 876.888 214.038 876.382 215.05C876.761 214.671 878.051 213.988 880.175 214.291C882.299 214.595 883.336 216.946 883.588 218.084C881.692 218.716 878.734 220.132 882.071 220.739C885.409 221.346 889.025 220.233 890.416 219.601C896.105 220.739 893.07 216.567 893.07 216.188C893.07 203.292 891.553 204.809 890.036 203.292C888.519 201.775 888.519 197.603 888.898 194.189C889.278 190.776 888.14 178.639 887.761 177.88C887.457 177.273 882.577 177.627 880.175 177.88C879.037 178.386 875.699 179.246 871.451 178.639C867.203 178.032 867.153 178.892 867.659 179.397C868.797 179.903 871.224 181.445 871.831 183.569C872.577 186.182 869.651 185.856 866.304 185.484L866.142 185.466C862.728 185.087 861.969 185.466 861.59 188.5C861.287 190.927 858.177 191.029 856.659 190.776C856.786 189.891 856.432 188.197 854.005 188.5C851.577 188.804 851.223 186.857 851.35 185.845C851.855 184.454 852.487 181.673 850.97 181.673C849.074 181.673 844.902 182.052 843.764 179.397C842.626 176.742 844.902 175.984 848.315 175.605C851.729 175.225 850.591 171.812 848.315 171.432C846.495 171.129 846.292 169.03 846.419 168.019C850.97 164.352 860.376 157.702 861.59 160.433C862.804 163.164 867.406 164.858 869.555 165.364C872.969 162.962 879.416 157.399 877.899 154.365C876.382 151.33 878.784 150.572 880.175 150.572C881.313 150.825 883.664 151.179 883.968 150.572C884.347 149.813 888.519 146.4 891.933 149.813C895.346 153.227 894.588 151.71 897.622 148.676C900.049 146.248 897.369 144.63 895.725 144.124C894.461 143.745 891.478 142.683 889.657 141.469C887.381 139.952 887.002 141.469 885.106 145.262C883.209 149.055 879.416 146.4 875.244 146.779C871.907 147.083 869.555 142.86 868.797 140.711C869.808 140.331 871.527 139.042 870.314 136.918C869.1 134.794 870.061 133.504 870.693 133.125C871.831 133.251 874.562 133.504 876.382 133.504C878.658 133.504 879.796 130.091 877.141 130.849C875.017 131.456 872.969 130.596 872.21 130.091C872.969 129.459 874.258 127.739 873.348 125.919C872.438 124.098 874.992 122.379 876.382 121.747C876.382 122.758 877.444 124.402 881.692 122.884C887.002 120.988 888.14 120.988 891.553 123.643C894.284 125.767 901.035 125.286 904.07 124.781C905.283 120.533 907.862 121.747 909 122.884C908.621 123.896 909 125.691 913.552 124.781C919.241 123.643 923.413 124.781 921.137 126.677C918.862 128.574 920 129.711 921.517 130.091C922.73 130.394 922.781 131.734 922.655 132.366C922.149 132.619 920.986 133.504 920.379 135.021C919.62 136.918 918.103 136.539 916.586 135.401C915.069 134.263 910.517 135.021 907.104 135.401C903.69 135.78 902.173 139.952 905.587 139.193C908.318 138.587 910.012 139.952 910.517 140.711C910.77 141.848 912.49 143.821 917.345 142.607C922.199 141.393 922.907 142.101 922.655 142.607C921.896 143.871 920.834 146.248 922.655 145.641C924.93 144.883 927.964 145.262 927.585 146.4C927.206 147.538 927.206 149.813 930.24 150.572C932.668 151.179 931.504 155.123 930.619 157.02C929.229 157.02 926.827 157.551 928.344 159.675C930.24 162.33 924.551 161.192 924.551 160.813C924.551 160.433 918.862 158.916 920.379 161.192C921.896 163.467 915.069 164.226 913.931 163.088C912.793 161.95 909.759 161.95 909 162.709C908.242 163.467 901.415 167.64 898.38 165.364C895.346 163.088 893.45 163.468 892.691 166.122C891.932 168.777 897.622 171.432 899.518 170.295C901.415 169.157 908.242 170.674 908.621 172.57C909 174.467 910.517 174.846 912.793 174.846C914.614 174.846 915.827 175.352 916.207 175.605C916.965 178.259 919.62 178.639 920.379 179.777C920.985 180.687 918.356 182.179 916.965 182.811C916.08 182.684 914.159 182.811 913.552 184.328C912.81 186.181 910.258 185.861 907.311 185.492L907.104 185.466C904.07 185.087 905.587 179.397 901.794 180.914C898.76 182.128 894.208 180.409 892.312 179.397C891.427 180.282 890.264 184.631 892.691 194.948C895.725 207.843 897.622 208.981 899.139 208.602C900.353 208.299 906.977 202.407 910.138 199.499C912.667 199.626 918.255 199.879 920.379 199.879C922.503 199.879 925.815 198.361 927.206 197.603C929.102 196.591 933.047 194.038 933.654 191.914C934.26 189.79 929.861 190.017 927.585 190.396C925.562 189.385 921.82 187.893 923.034 190.017C924.247 192.141 922.275 193.178 921.137 193.431C918.103 197.679 917.597 192.419 917.724 189.259C915.827 189.512 912.338 189.486 913.552 187.362C914.765 185.238 918.609 184.454 920.379 184.328C918.103 183.19 921.137 180.914 921.896 181.673C922.503 182.28 923.413 182.179 923.792 182.052C925.183 180.409 929.026 177.577 933.274 179.397C937.522 181.218 939.09 179.397 939.343 178.259C949.204 176.363 947.308 182.811 946.549 183.569C945.791 184.328 940.101 185.087 937.446 184.328C934.791 183.569 931.378 186.983 937.067 186.224C942.756 185.466 943.894 188.879 941.618 189.638C939.343 190.396 940.101 190.017 940.481 191.534C940.784 192.748 939.848 193.304 939.343 193.431C938.458 192.799 936.384 191.989 935.171 193.81C933.654 196.086 925.309 201.396 923.413 202.154C921.896 202.761 914.689 202.66 911.276 202.534C908.621 204.43 902.628 209.057 899.898 212.395C897.167 215.732 898.254 217.578 899.139 218.084C907.028 214.443 925.436 213.027 933.654 212.774C933.401 208.855 936.005 197.679 948.445 184.328C960.886 170.977 978.409 173.961 985.615 177.122C996.235 165.364 997.752 167.26 1003.06 162.709C1005.21 160.869 1007.38 159.726 1009.22 159.046C1011.12 156.542 1015.1 151.937 1018.99 149.434C1023.24 146.703 1029.86 145.262 1032.65 144.883C1036.06 141.09 1036.44 133.884 1035.68 133.884C1034.92 133.884 1026.58 136.539 1026.58 133.884C1026.58 131.229 1022.78 128.574 1022.03 128.953C1021.27 129.332 1017.85 131.608 1017.85 129.711C1017.85 127.815 1017.1 128.953 1012.92 129.711C1008.75 130.47 1011.03 128.953 1008.75 128.574C1006.48 128.194 1002.3 124.781 1006.85 119.85C1011.41 114.919 1015.2 117.954 1015.58 116.437C1015.88 115.223 1016.97 114.667 1017.47 114.54C1018.11 114.54 1019.67 114.237 1020.89 113.023C1022.41 111.506 1023.92 111.885 1026.2 110.747C1028.47 109.61 1025.82 105.817 1024.3 107.334C1022.78 108.851 1023.54 107.334 1018.99 107.334C1014.44 107.334 1012.92 101.645 1015.2 97.8518C1017.47 94.059 1023.92 92.9212 1027.72 94.8176C1031.51 96.714 1029.99 95.5761 1033.4 95.5761C1036.82 95.5761 1040.23 100.507 1041.37 100.886C1042.51 101.265 1043.27 105.437 1038.71 105.437C1034.16 105.437 1036.44 110.747 1036.44 111.127C1035.53 113.251 1037.32 112.77 1038.34 112.265C1056.24 109.837 1062.48 114.287 1063.37 116.816C1064.28 116.209 1065.77 116.563 1066.4 116.816C1072.17 119.85 1073.1 126.93 1072.85 130.091C1069.44 132.24 1064.51 136.463 1072.09 136.159C1079.68 135.856 1078.29 141.09 1076.64 143.745C1080.81 150.951 1088.4 150.572 1089.16 149.434C1089.77 148.524 1091.43 147.032 1092.19 146.4C1093.46 147.032 1095.91 147.917 1095.61 146.4C1095.23 144.503 1097.12 142.986 1099.78 143.745C1102.43 144.503 1100.92 142.986 1101.68 141.09C1102.43 139.193 1118.74 137.297 1123.67 140.331C1128.6 143.366 1140.36 139.573 1144.16 137.297C1147.95 135.021 1145.67 132.366 1145.29 130.091C1144.91 127.815 1139.6 127.436 1136.95 128.194C1134.29 128.953 1130.88 125.16 1132.4 124.402C1133.91 123.643 1135.81 119.85 1133.54 119.092C1131.71 118.485 1132.02 116.563 1132.4 115.678C1133.41 115.552 1135.28 114.844 1134.67 113.023C1133.91 110.747 1136.57 109.23 1137.33 109.61C1138.09 109.989 1143.02 108.472 1143.02 106.955C1143.02 105.437 1148.33 102.403 1150.6 105.058C1152.42 107.182 1155.41 108.219 1156.67 108.472C1162.13 107.561 1161.98 109.357 1161.22 110.368C1159.83 112.391 1157.58 116.588 1159.71 117.195C1161.83 117.802 1162.11 118.712 1161.98 119.092C1170.17 127.587 1185.62 129.964 1192.32 130.091C1201.73 138.587 1211.92 136.412 1215.84 134.263C1218.49 131.861 1223.05 126.981 1220.01 126.677C1216.98 126.374 1218.24 124.275 1219.25 123.264C1222.54 118.965 1228.73 109.837 1227.22 107.713C1225.7 105.589 1227.85 102.024 1229.11 100.507C1234.8 96.9668 1244.29 89.3559 1236.7 87.2319C1229.11 85.1079 1235.82 80.7841 1240.11 78.8877C1242.89 77.497 1247.62 74.4122 1244.29 73.1985C1240.95 71.9848 1243.4 69.6586 1245.04 68.6471C1246.31 68.9 1248.46 68.9506 1246.94 67.13C1245.42 65.3095 1249.09 63.3372 1251.11 62.5786C1253.01 62.4522 1256.65 61.2891 1256.04 57.648C1255.44 54.0069 1259.33 51.8323 1261.35 51.2002C1262.62 51.2002 1264.92 50.8968 1264.01 49.6831C1262.87 48.1659 1268.56 44.3731 1273.11 51.9587C1277.66 59.5444 1315.21 64.8543 1313.69 51.9587C1312.48 41.6423 1327.1 26.6733 1334.56 20.4784C1343.96 2.57629 1366.54 1.38788 1376.66 3.03143C1381.84 6.82425 1393.12 12.741 1396.76 6.06568C1400.4 -0.609672 1408.14 1.26145 1411.55 3.03143C1411.42 4.67498 1412.99 8.1138 1420.27 8.72065C1429.38 9.47922 1433.93 17.8234 1434.69 22.3748Z" fill="#349080"/>
<path d="M1440.37 31.0983C1438.73 29.7076 1435.29 26.0159 1434.69 22.3748C1433.93 17.8234 1429.38 9.47922 1420.27 8.72065C1412.99 8.1138 1411.42 4.67498 1411.55 3.03143C1408.14 1.26145 1400.4 -0.609672 1396.76 6.06568C1393.12 12.741 1381.84 6.82425 1376.66 3.03143C1366.54 1.38788 1343.96 2.57629 1334.56 20.4784C1327.1 26.6733 1312.48 41.6423 1313.69 51.9587C1315.21 64.8543 1277.66 59.5444 1273.11 51.9587C1268.56 44.3731 1262.87 48.1659 1264.01 49.6831C1264.92 50.8968 1262.62 51.2002 1261.35 51.2002C1259.33 51.8323 1255.44 54.0069 1256.04 57.648C1256.65 61.2891 1253.01 62.4522 1251.11 62.5786C1249.09 63.3372 1245.42 65.3095 1246.94 67.13C1248.46 68.9506 1246.31 68.9 1245.04 68.6471C1243.4 69.6586 1240.95 71.9848 1244.29 73.1985C1247.62 74.4122 1242.89 77.497 1240.11 78.8877C1235.82 80.7841 1229.11 85.108 1236.7 87.2319C1244.29 89.3559 1234.8 96.9668 1229.11 100.507C1227.85 102.024 1225.7 105.589 1227.22 107.713C1228.73 109.837 1222.54 118.965 1219.25 123.264C1218.24 124.275 1216.98 126.374 1220.01 126.677C1223.05 126.981 1218.49 131.861 1215.84 134.263C1211.92 136.412 1201.73 138.587 1192.32 130.091C1185.62 129.964 1170.17 127.587 1161.98 119.092C1162.11 118.712 1161.83 117.802 1159.71 117.195C1157.58 116.588 1159.83 112.391 1161.22 110.368C1161.98 109.357 1162.13 107.561 1156.67 108.472C1155.41 108.219 1152.42 107.182 1150.6 105.058C1148.33 102.403 1143.02 105.437 1143.02 106.955C1143.02 108.472 1138.09 109.989 1137.33 109.61C1136.57 109.23 1133.91 110.747 1134.67 113.023C1135.28 114.844 1133.41 115.552 1132.4 115.678C1132.02 116.563 1131.71 118.485 1133.54 119.092C1135.81 119.85 1133.91 123.643 1132.4 124.402C1130.88 125.16 1134.29 128.953 1136.95 128.194C1139.6 127.436 1144.91 127.815 1145.29 130.091C1145.67 132.366 1147.95 135.021 1144.16 137.297C1140.36 139.573 1128.6 143.366 1123.67 140.331C1118.74 137.297 1102.43 139.193 1101.68 141.09C1100.92 142.986 1102.43 144.503 1099.78 143.745C1097.12 142.986 1095.23 144.503 1095.61 146.4C1095.91 147.917 1093.46 147.032 1092.19 146.4C1091.43 147.032 1089.77 148.524 1089.16 149.434C1088.4 150.572 1080.81 150.951 1076.64 143.745C1078.29 141.09 1079.68 135.856 1072.09 136.159C1064.51 136.463 1069.44 132.24 1072.85 130.091C1073.1 126.93 1072.17 119.85 1066.4 116.816C1065.77 116.563 1064.28 116.209 1063.37 116.816C1062.48 114.287 1056.24 109.837 1038.34 112.265C1037.32 112.77 1035.53 113.251 1036.44 111.127C1036.44 110.747 1034.16 105.437 1038.71 105.437C1043.27 105.437 1042.51 101.265 1041.37 100.886C1040.23 100.507 1036.82 95.5761 1033.4 95.5761C1029.99 95.5761 1031.51 96.714 1027.72 94.8176C1023.92 92.9212 1017.47 94.059 1015.2 97.8518C1012.92 101.645 1014.44 107.334 1018.99 107.334C1023.54 107.334 1022.78 108.851 1024.3 107.334C1025.82 105.817 1028.47 109.61 1026.2 110.747C1023.92 111.885 1022.41 111.506 1020.89 113.023C1019.67 114.237 1018.11 114.54 1017.47 114.54C1016.97 114.667 1015.88 115.223 1015.58 116.437C1015.2 117.954 1011.41 114.919 1006.85 119.85C1002.3 124.781 1006.48 128.194 1008.75 128.574C1011.03 128.953 1008.75 130.47 1012.92 129.711C1017.1 128.953 1017.85 127.815 1017.85 129.711C1017.85 131.608 1021.27 129.332 1022.03 128.953C1022.78 128.574 1026.58 131.229 1026.58 133.884C1026.58 136.539 1034.92 133.884 1035.68 133.884C1036.44 133.884 1036.06 141.09 1032.65 144.883C1029.86 145.262 1023.24 146.703 1018.99 149.434C1014.74 152.165 1010.39 157.399 1008.75 159.675L1017.85 159.295C1018.74 156.893 1022.78 151.861 1031.89 150.951C1033.53 150.572 1038.03 148.372 1042.89 142.607C1045.29 141.09 1049.79 139.421 1048.58 144.883C1049.46 145.768 1051.69 147.386 1053.51 146.779C1055.78 146.021 1060.71 149.813 1055.78 154.365C1051.84 158.006 1040.23 158.916 1034.92 158.916L1013.3 158.158C1011.66 158.158 1007.31 159.068 1003.06 162.709C997.752 167.26 996.235 165.364 985.615 177.122C978.409 173.961 960.886 170.977 948.446 184.328C936.005 197.679 933.401 208.855 933.654 212.774C925.436 213.027 907.028 214.443 899.139 218.084C898.254 217.578 897.167 215.732 899.898 212.395C902.628 209.057 908.621 204.43 911.276 202.534C914.689 202.66 921.896 202.761 923.413 202.154C925.309 201.396 933.654 196.086 935.171 193.81C936.384 191.989 938.458 192.799 939.343 193.431C939.848 193.304 940.784 192.748 940.481 191.534C940.101 190.017 939.343 190.396 941.618 189.638C943.894 188.879 942.756 185.466 937.067 186.224C931.378 186.983 934.791 183.569 937.446 184.328C940.101 185.087 945.791 184.328 946.549 183.569C947.308 182.811 949.204 176.363 939.343 178.259C939.09 179.397 937.522 181.218 933.274 179.397C929.026 177.577 925.183 180.409 923.792 182.052C923.413 182.179 922.503 182.28 921.896 181.673C921.137 180.914 918.103 183.19 920.379 184.328C918.609 184.454 914.765 185.238 913.552 187.362C912.338 189.486 915.827 189.512 917.724 189.259C917.597 192.419 918.103 197.679 921.137 193.431C922.275 193.178 924.247 192.141 923.034 190.017C921.82 187.893 925.562 189.385 927.585 190.396C929.861 190.017 934.26 189.79 933.654 191.914C933.047 194.038 929.102 196.591 927.206 197.603C925.815 198.361 922.503 199.879 920.379 199.879C918.255 199.879 912.667 199.626 910.138 199.499C906.977 202.407 900.353 208.299 899.139 208.602C897.622 208.981 895.725 207.843 892.691 194.948C890.264 184.631 891.427 180.282 892.312 179.397C894.208 180.409 898.76 182.128 901.794 180.914C905.587 179.397 904.07 185.087 907.104 185.466C910.138 185.845 912.793 186.224 913.552 184.328C914.159 182.811 916.08 182.684 916.965 182.811C918.356 182.179 920.985 180.687 920.379 179.777C919.62 178.639 916.965 178.259 916.207 175.605C915.827 175.352 914.614 174.846 912.793 174.846C910.517 174.846 909 174.467 908.621 172.57C908.242 170.674 901.415 169.157 899.518 170.295C897.622 171.432 891.932 168.777 892.691 166.122C893.45 163.468 895.346 163.088 898.38 165.364C901.415 167.64 908.242 163.468 909 162.709C909.759 161.95 912.793 161.95 913.931 163.088C915.069 164.226 921.896 163.468 920.379 161.192C918.862 158.916 924.551 160.433 924.551 160.813C924.551 161.192 930.24 162.33 928.344 159.675C926.827 157.551 929.229 157.02 930.619 157.02C931.504 155.123 932.668 151.179 930.24 150.572C927.206 149.813 927.206 147.538 927.585 146.4C927.964 145.262 924.93 144.883 922.655 145.641C920.834 146.248 921.896 143.871 922.655 142.607C922.907 142.101 922.199 141.393 917.345 142.607C912.49 143.821 910.77 141.848 910.517 140.711C910.012 139.952 908.318 138.587 905.587 139.193C902.173 139.952 903.69 135.78 907.104 135.401C910.517 135.021 915.069 134.263 916.586 135.401C918.103 136.539 919.62 136.918 920.379 135.021C920.986 133.504 922.149 132.619 922.655 132.366C922.781 131.734 922.73 130.394 921.517 130.091C920 129.711 918.862 128.574 921.137 126.677C923.413 124.781 919.241 123.643 913.552 124.781C909 125.691 908.621 123.896 909 122.884C907.862 121.747 905.283 120.533 904.07 124.781C901.035 125.286 894.284 125.767 891.553 123.643C888.14 120.988 887.002 120.988 881.692 122.884C877.444 124.402 876.382 122.758 876.382 121.747C874.992 122.379 872.438 124.098 873.348 125.919C874.258 127.739 872.969 129.459 872.21 130.091C872.969 130.596 875.017 131.456 877.141 130.849C879.796 130.091 878.658 133.504 876.382 133.504C874.562 133.504 871.831 133.251 870.693 133.125C870.061 133.504 869.1 134.794 870.314 136.918C871.527 139.042 869.808 140.331 868.796 140.711C869.555 142.86 871.907 147.083 875.244 146.779C879.416 146.4 883.209 149.055 885.106 145.262C887.002 141.469 887.381 139.952 889.657 141.469C891.478 142.683 894.461 143.745 895.725 144.124C897.369 144.63 900.049 146.248 897.622 148.676C894.588 151.71 895.346 153.227 891.933 149.813C888.519 146.4 884.347 149.813 883.968 150.572C883.664 151.179 881.313 150.825 880.175 150.572C878.784 150.572 876.382 151.33 877.899 154.365C879.416 157.399 872.969 162.962 869.555 165.364C867.406 164.858 862.804 163.164 861.59 160.433C860.376 157.702 850.97 164.352 846.419 168.019C846.292 169.03 846.495 171.129 848.315 171.432C850.591 171.812 851.729 175.225 848.315 175.605C844.902 175.984 842.626 176.742 843.764 179.397C844.902 182.052 849.074 181.673 850.97 181.673C852.487 181.673 851.855 184.454 851.35 185.845C851.223 186.857 851.577 188.804 854.005 188.5C856.432 188.197 856.786 189.891 856.659 190.776C858.177 191.029 861.287 190.927 861.59 188.5C861.969 185.466 862.728 185.087 866.142 185.466C869.555 185.845 872.589 186.224 871.831 183.569C871.224 181.445 868.796 179.903 867.659 179.397C867.153 178.892 867.204 178.032 871.451 178.639C875.699 179.246 879.037 178.386 880.175 177.88C882.577 177.627 887.457 177.273 887.761 177.88C888.14 178.639 889.278 190.776 888.898 194.189C888.519 197.603 888.519 201.775 890.036 203.292C891.553 204.809 893.071 203.292 893.071 216.188C893.071 216.567 896.105 220.739 890.416 219.601C889.025 220.233 885.409 221.346 882.071 220.739C878.734 220.132 881.692 218.716 883.588 218.084C883.336 216.946 882.299 214.595 880.175 214.291C878.051 213.988 876.761 214.671 876.382 215.05C876.888 214.038 877.52 211.864 876.003 211.257C874.106 210.498 872.589 206.706 863.866 208.602C862.854 208.476 860.983 207.843 861.59 206.326C862.349 204.43 854.384 203.292 852.487 205.568C850.591 207.843 850.591 212.395 854.005 211.257C856.735 210.347 860.452 211.131 861.969 211.636C861.59 212.648 859.845 214.671 855.901 214.671C851.956 214.671 854.763 216.188 856.659 216.946C854.763 217.578 849.984 219.298 846.04 221.118C842.095 222.939 841.868 223.647 842.247 223.773C839.845 223.268 831.93 225.518 819.49 238.565C816.708 240.841 810.084 243.723 805.836 237.048C805.077 237.048 804.698 233.255 798.25 234.014C793.092 234.621 790.538 228.198 789.906 224.911C790.285 225.164 791.347 224.987 792.561 222.256C793.775 219.525 788.515 216.061 785.734 214.671C786.366 213.912 787.327 211.94 786.113 210.119C784.9 208.299 785.608 207.085 786.113 206.706C788.01 205.441 789.603 203.216 780.803 204.43C779.918 203.924 778.072 202.382 777.769 200.258C777.465 198.134 772.585 197.097 770.183 196.844C768.793 196.591 766.239 195.327 767.149 192.293C768.059 189.259 763.735 189.512 761.46 190.017C760.448 188.5 756.984 185.693 751.219 186.604C745.454 187.514 746.036 196.086 747.047 200.258C746.794 201.522 745.757 203.823 743.633 202.913C741.51 202.003 741.231 204.556 741.358 205.947C738.324 206.958 731.269 207.768 727.324 202.913C723.38 198.058 725.681 198.614 727.324 199.499C727.071 198.361 726.262 195.858 725.049 194.948C723.531 193.81 724.29 193.431 724.29 192.293C724.29 191.155 723.152 190.396 722.394 190.396C721.635 190.397 725.049 185.845 719.739 185.845C714.429 185.845 716.325 187.742 714.049 183.19C712.229 179.549 703.935 182.432 700.016 184.328C699.005 183.949 695.996 183.721 692.051 185.845C687.12 188.5 685.603 183.949 680.673 193.81C679.914 193.81 672.708 193.431 670.053 196.465C667.929 198.892 664.869 197.982 663.605 197.224C662.72 198.614 660.04 201.396 656.399 201.396C651.847 201.396 651.847 194.948 647.675 195.706C643.503 196.465 635.538 195.327 630.987 193.81C627.346 192.596 626.182 191.787 626.056 191.534C626.562 183.443 628.559 165.516 632.504 158.537C633.262 161.065 635.159 166.426 636.676 167.64C638.572 169.157 638.572 173.708 638.572 175.225C638.572 176.742 643.882 175.605 642.744 166.122C642.112 165.49 640.924 163.847 641.227 162.33C641.607 160.433 647.296 163.847 649.192 166.881C650.709 169.308 651.341 171.18 651.468 171.812C652.479 170.674 653.971 167.412 651.847 163.468C649.192 158.537 644.641 157.778 645.02 155.882C645.324 154.365 652.732 154.997 656.399 155.503C655.387 153.606 651.999 149.889 646.537 150.193C641.076 150.496 647.802 147.285 651.847 145.641C649.445 144.377 643.958 142.228 641.227 143.745C637.814 145.641 642.365 138.435 650.33 133.884C658.295 129.332 635.538 135.021 636.676 139.952C636.549 136.791 635.007 130.394 629.849 130.091C630.355 131.355 631.214 134.794 630.607 138.435C630.001 142.076 626.056 136.918 624.16 133.884C623.022 133.251 620.063 132.518 617.333 134.642C618.85 135.401 621.96 137.525 622.263 139.952C622.567 142.379 619.608 140.963 618.091 139.952C615.815 139.573 611.036 139.724 610.126 143.366C609.216 147.007 609.241 144.883 609.368 143.366C611.896 143.492 617.484 144.428 619.608 147.158C621.732 149.889 617.206 150.066 614.678 149.813C612.781 149.94 608.912 150.951 608.609 153.985C611.39 153.733 617.484 153.454 619.608 154.365C622.263 155.503 621.884 154.365 620.746 155.882C619.608 157.399 614.678 160.433 614.678 165.364C614.678 169.308 616.953 167.513 618.091 166.122C619.861 164.732 623.553 161.875 624.16 161.571C624.918 161.192 628.332 159.295 629.09 157.399C629.849 155.503 630.607 157.02 629.09 161.571C627.573 166.122 626.435 168.019 623.022 190.396H606.333C604.816 187.236 601.782 180.687 601.782 179.777C601.782 178.639 607.471 181.294 611.264 184.707C615.057 188.121 611.264 180.535 607.85 177.122C605.12 174.391 612.023 175.984 615.815 177.122C617.965 175.984 619.836 173.253 610.126 171.432C600.417 169.612 608.609 168.651 613.919 168.398C613.919 167.134 613.16 164.681 610.126 164.985C607.092 165.288 605.575 165.364 605.196 165.364L611.264 160.433C610 159.675 606.182 159.523 601.023 164.985C600.771 162.962 600.417 158.613 601.023 157.399C601.782 155.882 596.093 158.537 596.093 164.985C595.461 163.468 593.059 160.433 588.507 160.433C589.392 161.445 591.39 164.15 592.3 166.881C589.013 166.375 582.287 165.971 581.68 168.398C583.197 168.651 586.232 169.612 586.232 171.432C584.462 172.697 580.997 175.68 581.301 177.501C582.818 176.869 586.383 175.756 588.507 176.363C591.162 177.122 584.714 180.535 583.956 185.466C583.197 190.396 589.266 183.19 590.403 182.052C591.314 181.142 592.047 181.167 592.3 181.294C591.541 183.949 590.631 189.486 593.058 190.396C593.691 187.109 595.638 180.383 598.368 179.777C601.099 179.17 602.288 187.362 602.54 191.534C599.759 193.81 592.604 198.437 586.232 198.741C578.266 199.12 575.612 191.914 564.612 193.81C553.613 195.706 539.959 197.603 538.063 195.706C536.546 194.189 524.535 193.81 518.719 193.81C511.386 192.799 496.721 190.017 496.721 186.983C496.721 183.949 493.181 181.926 491.411 181.294C492.17 179.144 493.004 174.77 490.273 174.467C486.86 174.087 487.997 170.674 482.308 172.57C480.665 170.168 476.24 166.274 471.688 169.915C465.999 174.467 456.138 185.087 458.034 190.396C459.931 195.706 447.794 212.774 419.727 224.911C391.66 237.048 361.697 229.842 346.905 237.048C332.113 244.254 327.561 266.253 290.013 281.803C259.973 294.244 212.007 297.354 191.779 297.354C166.872 314.801 105.833 351.97 60.9265 361.073C16.0195 370.176 2.26427 373.463 1 373.969H1439.99L1440.37 31.0983Z" stroke="#349080"/>
</svg>
