<svg width="1440" height="464" viewBox="0 0 1440 464" fill="none" xmlns="http://www.w3.org/2000/svg">
<path d="M418.589 236.538C375.199 224.704 122.117 208.597 1 202.023V462.969H1439.99V3.65883C1432.41 1.00386 1415.72 -2.0304 1409.65 7.07236C1402.07 18.4508 1371.34 19.5887 1334.17 30.5878C1297 41.587 1299.28 49.5519 1296.25 48.7933C1293.82 48.1865 1290.94 50.3105 1289.8 51.4483C1286.16 51.7517 1282.72 53.3447 1281.45 54.1033C1278.72 54.4067 1274.5 55.494 1272.73 55.9997C1260.29 56.3031 1253.89 60.6775 1252.25 62.8267C1243.15 72.3088 1210.15 87.48 1207.87 90.135C1206.05 92.259 1204.33 91.5257 1203.7 90.8936C1199.91 87.1008 1191.56 87.8593 1188.15 93.9278C1185.42 98.7826 1179.17 97.2149 1176.39 95.8242C1176.7 91.5763 1168.43 88.9972 1164.26 88.2386C1164.56 83.0804 1160.84 82.5494 1158.95 82.9287C1158.04 79.2876 1156.54 79.1358 1155.91 79.5151C1154.27 80.4001 1151.06 80.4254 1151.36 73.4466C1151.74 64.7231 1144.53 66.2403 1141.88 68.8952C1139.75 71.0192 1138.72 70.2859 1138.47 69.6538C1136.57 65.4817 1133.91 65.4817 1132.4 70.0331C1131.18 73.6742 1130.37 72.8145 1130.12 71.9295C1121.93 64.0404 1119.37 64.8496 1119.12 66.2403C1119.12 68.3895 1118.36 71.3985 1115.33 66.2403C1112.29 61.082 1109.01 58.7811 1107.74 58.2754C1099.78 48.7933 1095.23 62.8267 1094.09 68.516C1093.18 73.0673 1089.66 71.4238 1088.02 70.0331C1078.54 55.2411 1073.61 63.5853 1071.33 68.516C1069.51 72.4605 1066.53 69.6538 1065.26 67.7574C1054.95 52.8896 1047.31 59.5396 1044.78 64.7231C1040.23 72.4352 1029.46 86.5698 1022.78 81.4115C1014.44 74.9638 1010.27 77.6187 1009.51 80.653C1008.75 83.6872 1002.3 94.6864 1001.17 90.8936C1000.26 87.8593 997.499 89.6293 996.235 90.8936C994.338 95.6978 989.939 104.851 987.511 103.031C984.477 100.755 983.339 101.513 981.063 103.41C979.243 104.927 975.501 104.295 973.857 103.789C966.271 99.6171 964.754 102.651 960.582 105.686C957.245 108.113 955.146 106.697 954.514 105.686C939.646 94.4588 932.895 105.053 931.378 111.754C932.263 114.409 933.501 119.643 931.378 119.34C928.723 118.96 929.481 122.753 930.24 123.133C930.998 123.512 929.86 128.822 927.964 127.305C926.068 125.787 923.413 126.925 924.171 128.822C924.778 130.339 924.93 134.511 924.93 136.407C922.654 137.166 918.103 139.214 918.103 141.338C918.103 143.993 919.24 150.061 918.103 150.82C916.965 151.579 914.689 155.751 914.689 156.509C905.966 155.751 903.69 166.371 903.311 168.267C903.007 169.784 902.426 168.899 902.173 168.267C899.139 164.929 897.116 166.876 896.484 168.267C896.357 169.658 895.573 172.743 893.449 173.956C891.325 175.17 887.76 174.462 886.243 173.956C885.864 178.508 880.933 184.955 878.278 183.059C875.623 181.163 872.589 180.404 871.83 182.3C871.072 184.197 870.313 186.852 866.9 189.128C863.486 191.403 865.383 190.265 865.003 194.437C864.624 198.61 855.9 201.644 857.797 198.61C859.693 195.575 858.176 194.437 855.521 193.3C852.866 192.162 849.453 194.058 846.798 196.713C844.674 198.837 837.821 198.862 834.661 198.61C825.558 192.92 818.731 196.713 817.593 200.506C816.455 204.299 825.558 207.712 825.937 207.712C829.275 212.567 827.075 213.528 825.558 213.402C823.914 212.39 820.551 211.278 820.248 214.919C819.945 218.56 818.352 218.964 817.593 218.711C815.57 218.459 810.994 219.091 808.87 223.642C806.746 228.193 803.18 228.067 801.663 227.435C799.767 225.539 796.581 221.442 799.008 220.229C801.436 219.015 802.295 217.447 802.422 216.815C804.546 209.229 800.273 209.862 797.87 211.126C796.985 212.769 795.14 214.691 794.836 209.229C794.533 203.768 791.423 205.689 789.906 207.333C788.768 206.827 786.492 206.65 786.492 209.988C786.492 213.326 784.469 214.413 783.458 214.539C777.086 215.45 777.768 220.987 778.906 223.642C783.154 223.339 783.711 223.769 783.458 224.021C782.826 224.906 781.941 226.98 783.458 228.193C784.975 229.407 785.354 230.722 785.354 231.228C786.568 236.689 784.343 236.791 783.078 236.158C781.814 235.526 779.21 234.793 778.906 236.917C778.603 239.041 776.757 239.319 775.872 239.193C771.624 239.193 770.815 240.71 770.941 241.468C771.245 247.537 768.539 247.537 767.149 246.778C761.687 245.261 758.299 246.146 757.287 246.778C755.391 251.709 753.874 253.226 749.702 247.916C746.364 243.668 743.507 245.388 742.495 246.778C741.737 248.675 735.668 256.26 731.875 254.364C728.841 252.847 727.324 255.755 726.945 257.398C724.214 256.791 716.451 259.927 712.911 261.57C705.705 267.639 673.087 279.017 619.608 263.846C576.825 251.709 485.975 245.64 445.897 244.123L418.589 236.538Z" fill="#4B9D93" stroke="#4B9D93"/>
</svg>
