<svg width="1440" height="397" viewBox="0 0 1440 397" fill="none" xmlns="http://www.w3.org/2000/svg">
<path d="M1 118.714C2.01142 117.197 4.18596 113.48 4.79281 110.749C5.55138 107.336 1.75856 103.163 13.5163 89.13C14.5277 88.1186 16.7781 85.3372 17.6884 82.3029C18.8262 78.5101 19.9641 75.4759 30.9632 76.993C41.9624 78.5101 46.1345 75.4759 46.5138 72.4416C46.8931 69.4074 46.5138 67.1317 54.4787 67.511C54.4787 67.1317 59.4094 60.6839 64.34 61.4425C64.2136 59.4196 64.4159 55.374 66.2364 55.374C68.5121 55.374 79.8905 51.2019 80.2698 36.7892C82.4191 32.6171 88.083 24.9556 93.5447 27.6864C94.3032 27.9393 95.6687 27.914 95.0618 25.79C94.3032 23.135 98.0961 14.4115 103.027 18.9629C103.532 19.9743 104.62 21.2386 104.923 18.2044C106.946 12.6416 112.205 2.88139 117.06 8.34304C117.439 9.1016 118.501 10.1636 119.715 8.34304C121.232 6.06735 122.37 0.757411 137.541 4.17094C140.828 5.68807 148.161 8.19133 151.195 6.06735C152.08 3.53881 154.837 -0.759714 158.781 2.27454C163.712 6.06735 168.642 3.79166 170.539 2.65382C172.435 1.51597 176.228 -1.51828 178.124 4.92951C178.251 5.68807 178.959 6.82591 180.779 5.30879C183.055 3.41238 192.537 3.41238 192.916 13.653C196.456 13.5266 203.688 14.184 204.295 17.8251C204.674 18.4572 205.66 19.2663 206.571 17.4458C208.341 14.7908 213.777 11.0739 221.363 17.4458C222.5 18.7101 225.307 20.5559 227.431 17.8251C229.58 15.2965 234.637 11.6807 237.672 17.4458C240.706 23.2109 244.499 21.1122 246.016 19.3422C247.786 17.9515 251.629 16.9148 252.843 23.8936C252.969 25.6636 254.436 28.8242 259.291 27.3071C260.808 26.5486 265.587 27.5347 272.566 37.5477C275.094 37.1684 280.151 37.0926 280.151 39.8234C283.691 39.5706 290.468 40.2027 289.254 44.7541C289.507 45.5126 290.164 46.4229 290.771 43.9955C291.53 40.9613 296.081 42.4784 296.84 44.7541C297.598 47.0298 300.253 44.7541 299.874 43.9955C299.495 43.2369 300.632 42.4784 302.529 42.4784C304.425 42.4784 301.77 40.582 301.391 40.582C301.012 40.582 297.598 39.0648 298.736 37.927C299.874 36.7892 301.012 35.272 301.012 34.5135C301.012 33.7549 304.046 31.4792 303.667 35.6513C306.322 36.4099 312.314 37.4719 315.045 35.6513C315.424 34.5135 316.486 32.3136 317.7 32.6171C319.217 32.9963 321.493 30.7206 318.838 29.2035C316.183 27.6864 316.941 25.79 319.596 26.1693C321.746 25.9164 326.272 25.7141 327.182 26.9278C328.092 28.1415 330.09 28.1921 330.975 28.0657C331.354 27.9393 332.416 28.2932 333.63 30.7206C335.147 33.7549 341.215 29.9621 335.526 29.2035C330.975 28.5967 335.653 27.9393 338.561 27.6864C339.193 24.7786 341.215 20.48 344.25 26.5486C344.503 27.0543 345.084 27.6864 345.388 26.1693C345.64 24.5257 346.905 22.3765 349.939 26.9278C351.709 28.0657 355.021 30.7965 354.111 32.6171C352.088 32.7435 348.801 33.7549 351.835 36.7892C354.87 39.8234 350.318 38.5591 347.663 37.5477C345.893 37.2949 342.505 37.7753 343.112 41.7198C343.365 42.7312 344.174 43.9955 345.388 40.9613C346.02 40.0763 347.967 38.8373 350.698 40.9613C351.456 41.5934 351.835 43.6162 347.284 46.6505C346.905 47.2826 346.45 48.6227 347.663 48.9262C347.79 50.064 347.132 51.7328 343.491 49.3054C339.85 46.878 336.664 50.064 335.526 51.9604C335.147 52.9718 335.147 54.4637 338.181 52.3397C341.974 49.6847 341.974 54.6154 340.457 55.374C340.078 55.374 336.664 55.7532 339.319 57.6496C341.974 59.546 341.215 59.5461 342.733 57.6496C343.946 56.1325 345.514 57.5232 346.146 58.4082C347.158 59.2932 349.332 60.3805 349.939 57.6496C349.813 54.8682 349.787 49.3054 350.698 49.3054C351.835 49.3054 352.215 49.6847 352.973 52.3397C353.732 54.9947 357.525 61.4425 357.525 62.5803V66.3731C357.904 67.6374 358.814 69.4074 359.421 66.3731C360.18 62.5803 358.283 59.1668 361.697 54.2361C362.329 54.1097 363.593 55.9808 363.593 64.4767C363.593 75.0966 363.214 75.4759 363.593 81.9237C363.846 82.5558 365.49 83.8201 370.041 83.8201C371.052 83.9465 373.227 84.8062 373.834 87.2336C374.441 89.661 375.604 87.4865 376.109 86.0958C376.489 85.59 377.551 85.2613 378.764 87.9922C380.281 91.4057 384.833 87.2336 381.419 86.0958C378.689 85.1855 384.58 82.4294 387.867 81.1651C388.752 80.6594 389.688 79.3445 386.35 78.1308C383.012 76.9171 386.729 76.108 389.005 75.8552C390.143 74.338 393.405 72.3658 397.349 76.6137C397.981 76.8666 399.246 76.9171 399.246 75.0966C399.246 73.276 401.016 73.5795 401.901 73.9587C402.406 72.6945 402.507 69.6349 398.866 67.511C398.108 67.511 398.108 64.4767 389.764 62.201C381.419 59.9253 386.35 60.3046 375.73 59.9253C374.845 59.5461 373.682 58.4082 376.109 56.8911C378.537 55.374 381.419 54.9947 382.557 54.9947C383.063 54.3625 383.619 52.8707 381.799 51.9604C379.523 50.8226 379.144 49.6847 380.661 48.5469C382.178 47.409 384.833 47.409 386.35 49.6847C387.741 49.5583 390.75 49.6089 391.66 50.8226C392.57 52.0363 395.073 53.604 396.211 54.2361C397.728 54.7418 399.625 56.0567 395.073 57.2704C395.073 58.0289 394.694 59.6978 393.177 60.3046C391.66 60.9115 393.556 61.5689 394.694 61.8217C396.464 62.4539 400.308 64.4009 401.521 67.1317C402.735 69.8625 402.786 57.6496 402.659 51.2019C402.28 49.3054 400.535 44.8299 396.591 42.0991C392.646 39.3683 389.637 38.4327 388.626 38.3063C387.741 37.927 385.895 37.6994 385.591 39.8234C385.212 42.4784 380.661 42.0991 380.281 37.927C379.902 37.927 381.419 36.4099 376.868 35.6513C372.317 34.8927 376.868 32.6171 379.144 32.6171C381.419 32.6171 380.661 30.3414 378.764 30.3414C376.868 30.3414 376.489 28.8242 380.281 27.6864C384.074 26.5486 382.936 21.9972 387.867 27.3071C388.373 28.0657 389.839 28.976 391.66 26.5486C393.936 23.5143 393.177 20.1008 395.073 19.7215C396.97 19.3422 397.349 19.3422 397.728 19.7215C398.487 18.2044 400.459 16.0804 402.28 19.7215C404.556 24.2729 407.59 18.9629 405.314 17.4458C403.038 15.9287 405.314 13.2737 408.728 12.8944C411.458 12.591 412.141 14.7908 412.141 15.9287C414.29 15.2965 418.513 14.715 418.21 17.4458C420.359 17.3194 424.126 17.6734 422.002 20.1008C423.393 20.8593 425.188 22.5282 421.244 23.135C420.991 25.2843 419.878 28.5208 417.451 24.2729C417.325 24.02 416.996 23.7419 416.693 24.6521C416.313 25.79 414.796 29.9621 411.383 25.0314C410.118 27.0543 406.679 30.0379 403.038 25.79C400.889 26.8014 397.88 28.976 403.038 29.5828C408.197 30.1897 415.302 33.3756 418.21 34.8927C418.715 35.7777 418.741 37.4719 414.796 37.1684C414.543 37.042 413.734 37.0167 412.52 37.927C411.003 39.0648 409.865 41.3405 409.107 37.927C408.5 35.1962 405.314 34.7663 403.797 34.8927C402.912 34.5135 401.37 35.6513 402.28 43.2369C403.165 46.6505 405.162 52.7948 406.073 50.064C407.21 46.6505 414.796 45.8919 415.934 45.5126C417.072 45.1333 422.382 43.9955 422.761 42.4784C423.14 40.9613 420.485 41.3405 419.727 42.8577C418.968 44.3748 415.175 42.4784 415.175 41.7198C415.175 40.9613 411.383 40.2027 417.451 37.927C418.21 37.6741 419.878 36.9409 420.485 36.0306C421.244 34.8927 423.52 33.7549 425.037 35.6513C426.25 37.1684 426.554 35.7777 426.554 34.8927C427.312 33.7549 429.285 32.3136 431.105 35.6513C432.926 38.989 430.094 38.5591 428.45 37.927C427.565 38.9384 426.326 40.9613 428.45 40.9613C431.105 40.9613 434.139 43.2369 434.139 47.0298C434.139 50.064 430.347 46.0183 428.45 43.6162C427.692 43.6162 425.719 43.9955 423.899 45.5126C421.623 47.409 412.141 47.7883 411.762 47.7883C411.383 47.7883 408.69 52.3397 405.693 53.0983C405.44 54.1097 405.011 56.5118 405.314 58.0289C405.693 59.9253 407.21 57.6496 407.969 56.5118C408.728 55.374 411.003 55.7532 411.003 55.374C411.003 54.9947 412.752 53.4775 412.52 52.3397C412.289 51.2019 414.417 51.5811 414.796 54.2361C416.06 54.6154 417.906 55.5257 415.175 56.1325C412.445 56.7394 412.015 56.3854 412.141 56.1325C411.635 56.6382 410.472 57.6496 409.865 57.6496C409.107 57.6496 408.348 60.6839 406.452 60.3046C404.556 59.9253 404.176 67.1317 404.556 68.2695C404.859 69.1798 405.946 67.6374 406.452 66.7524C407.084 66.2467 408.803 65.8421 410.624 68.2695C412.445 70.6969 413.153 69.2809 413.279 68.2695C413.658 68.396 414.417 68.573 414.417 68.2695C414.417 67.8902 414.796 66.7524 412.9 65.9938C411.383 65.387 414.29 62.7067 415.934 61.4425C416.313 61.1896 417.299 61.139 418.21 62.9596C419.221 62.7067 421.244 62.5803 421.244 64.0974C423.772 63.7181 428.374 63.5664 426.554 65.9938C428.703 65.9938 432.395 66.449 429.967 68.2695C431.358 68.6488 433.457 69.7867 430.726 71.3038C430.726 71.5566 430.498 71.9865 429.588 71.6831C429.209 73.2002 427.995 75.5517 426.175 72.8209C425.669 72.6945 424.657 72.6692 424.657 73.5795C425.29 75.3494 425.492 77.9033 421.244 73.9587C420.359 73.5795 418.437 73.3519 417.83 75.4759C417.072 78.1308 411.003 77.3723 410.624 75.0966C410.245 72.8209 406.073 76.993 410.245 78.1308C413.582 79.0411 416.187 79.0158 417.072 78.8894C418.462 79.2687 421.32 80.2548 421.623 81.1651C421.927 82.0754 424.784 82.5558 426.175 82.6822C427.312 83.3144 428.602 84.8062 424.657 85.7165C419.727 86.8543 417.83 85.3372 419.727 89.5093L419.828 89.7329C421.704 93.857 423.906 98.6999 424.278 103.543C424.657 108.473 426.554 113.783 432.243 116.438C431.99 118.208 431.712 122.431 432.622 125.162C433.128 124.656 434.367 123.038 435.277 120.61C436.415 117.576 438.312 118.335 436.415 123.265C434.519 128.196 433.76 127.817 433.76 131.989C433.76 136.161 439.07 125.541 439.07 124.024C439.07 122.507 439.449 119.093 440.208 119.093C440.967 119.093 442.863 120.61 440.967 125.162C439.07 129.713 437.932 129.713 439.449 129.713C440.663 129.713 442.231 127.437 442.863 126.3C443.369 125.162 444.152 124.631 443.242 131.61C442.332 138.588 447.414 126.679 450.069 119.852C450.954 118.714 452.648 117.5 452.345 121.748C452.042 125.996 450.196 128.575 449.311 129.334C450.069 130.472 451.738 131.989 452.345 128.955C452.952 125.92 454.874 120.863 455.759 118.714C456.264 117.703 457.352 116.666 457.655 120.61C457.781 121.243 458.186 121.976 458.793 119.852C459.551 117.197 461.827 116.059 461.448 120.61C462.712 120.105 465.999 118.259 469.033 114.921C472.826 110.749 475.102 114.542 474.723 114.921C474.343 115.3 473.585 116.059 472.447 116.438C471.309 116.818 463.344 121.748 461.827 124.024C460.613 125.844 464.608 123.518 466.758 122.128C468.148 122.001 470.247 122.279 467.516 124.403C466.126 124.909 462.813 126.3 460.689 127.817C458.565 129.334 463.597 127.69 466.378 126.679C467.263 127.058 467.365 128.499 460.689 131.23C452.345 134.644 461.068 133.127 462.965 131.989C464.861 130.851 470.171 128.955 470.93 129.713C471.688 130.472 469.033 132.747 465.999 133.506C462.965 134.265 460.689 134.265 459.931 135.023C459.172 135.782 465.62 138.816 466.758 138.816C467.896 138.816 468.275 140.712 466.378 141.092C464.482 141.471 459.551 138.437 458.793 138.057C458.034 137.678 451.586 136.54 451.586 139.954C451.586 143.367 453.483 142.988 454.621 141.85C455.759 140.712 456.517 139.954 458.034 139.954C459.248 139.954 456.77 142.988 455.379 144.505C456.643 143.747 459.4 142.002 460.31 141.092C461.448 139.954 462.965 141.85 461.827 142.988C460.917 143.898 458.919 145.137 458.034 145.643C459.046 145.39 461.448 144.657 462.965 143.747C464.861 142.609 469.033 142.229 470.55 142.609C472.068 142.988 468.654 144.884 467.137 144.884C465.62 144.884 461.827 145.643 460.689 147.16C462.333 147.413 465.772 148.146 466.378 149.056C466.985 149.967 462.08 148.93 459.551 148.298C458.287 148.171 456.365 148.222 458.793 149.436C461.22 150.649 462.08 151.711 462.206 152.091C461.827 152.217 460.689 152.318 459.172 151.711C457.276 150.953 453.862 151.332 454.621 152.091C455.379 152.849 460.689 153.229 460.689 153.229C462.712 153.355 467.516 154.366 470.55 157.401C474.343 161.193 462.206 154.746 461.068 154.746C459.931 154.746 455.379 154.746 459.551 156.263C463.723 157.78 462.586 157.021 463.344 157.021C464.103 157.021 466.378 158.539 463.723 158.539C461.068 158.539 458.413 158.539 458.034 158.918C457.655 159.297 458.793 160.814 461.068 160.814C463.344 160.814 467.896 160.814 469.033 159.676C470.171 158.539 473.585 160.814 472.068 161.952C470.55 163.09 464.861 163.848 463.723 163.469C462.586 163.09 465.241 164.986 470.171 164.607C475.102 164.228 477.757 167.641 477.378 168.4C477.074 169.007 472.953 167.388 470.93 166.503C469.286 166.124 466.909 165.972 470.55 168.4C475.102 171.434 476.24 176.365 475.86 177.882C475.557 179.096 473.964 176.618 473.205 175.227C472.194 173.457 469.64 169.689 467.516 168.779C465.392 167.869 467.896 170.928 469.413 172.572C469.286 173.71 468.73 175.454 467.516 173.331C465.999 170.676 464.861 169.917 464.482 169.538C464.103 169.158 462.586 168.021 463.344 170.676C464.103 173.331 463.723 169.538 465.241 174.468C466.454 178.413 462.206 172.319 459.931 168.779C458.793 168.4 456.82 168.248 458.034 170.676C459.551 173.71 455 172.193 465.62 179.778C466.252 180.79 466.606 182.433 462.965 180.916C462.459 180.284 461.144 178.792 459.931 177.882C458.413 176.744 456.517 179.778 460.689 182.813C464.861 185.847 467.516 186.226 475.481 196.467C481.853 204.659 490.526 209.236 494.066 210.5C494.824 209.615 496.873 208.073 498.997 208.983C498.617 207.087 498.314 202.99 500.134 201.777C502.41 197.857 507.568 190.626 509.996 193.053C511.007 190.398 514.244 184.633 519.099 182.813C520.742 180.537 524.939 176.441 528.581 178.261C529.213 178.261 530.477 178.034 530.477 177.123C530.477 175.985 531.994 175.227 536.166 177.882C539.504 180.006 541.855 180.031 542.614 179.778C543.373 180.537 545.117 183.116 546.028 187.364C548.177 190.272 550.806 197.377 544.131 202.535C542.235 204.558 537.987 207.39 536.166 202.535C535.408 201.903 533.891 201.549 533.891 205.19C533.511 205.822 532.677 207.087 532.373 207.087C531.994 207.087 531.994 213.153 532.373 215.24C532.753 217.327 526.305 227.188 525.546 228.326C524.788 229.464 525.167 235.912 530.477 235.912C535.787 235.912 535.787 234.395 537.304 231.361C538.518 228.933 539.58 229.338 539.959 229.843C540.718 229.591 542.159 228.63 541.855 226.809C541.552 224.989 543.499 224.281 544.51 224.154C545.016 223.775 545.876 222.789 545.269 221.879C544.51 220.741 546.786 220.361 549.82 223.016C552.248 225.14 554.877 222.384 555.889 220.741C556.268 219.856 557.937 218.465 561.578 219.982C566.129 221.879 562.337 215.81 560.44 213.914C558.544 212.017 559.302 210.121 563.095 208.224C563.601 207.972 564.688 207.162 564.992 205.949C565.371 204.432 566.129 202.156 568.405 206.328C568.532 206.834 569.012 207.314 569.922 205.19L569.962 205.098C571.078 202.492 571.845 200.701 574.094 205.949C575.106 206.454 577.204 208.073 577.508 210.5C577.811 212.927 576.623 212.776 575.991 212.396C575.106 213.661 573.867 216.038 575.991 215.431C576.496 214.293 577.811 212.776 579.025 215.81C578.899 216.442 579.025 217.327 580.542 215.81C582.439 213.914 581.301 218.465 584.335 219.982C587.369 221.499 585.473 228.326 582.439 229.843C579.404 231.361 574.853 237.05 581.68 237.808C588.507 238.567 589.645 237.808 593.058 242.739C595.208 243.245 599.734 243.953 600.644 242.739C601.782 242.739 603.527 242.36 601.403 240.843C598.748 238.946 605.195 238.946 607.85 242.739C608.609 242.739 610.657 243.953 612.781 248.808C613.034 249.44 614.374 250.476 617.712 249.566C621.884 248.428 622.263 250.325 623.022 251.842C623.628 253.055 626.056 250.072 627.194 248.428C627.699 247.923 629.09 246.911 630.607 246.911C632.124 246.911 631.998 246.153 631.745 245.773C632.124 245.394 633.035 244.863 633.642 245.773C634.021 244.13 635.159 241.829 636.676 245.773C637.434 245.647 638.8 246.228 638.193 249.566C639.836 250.704 642.137 253.055 638.193 253.359C633.262 253.738 632.883 260.565 638.193 260.565C643.503 260.565 644.261 261.324 646.158 259.807C648.054 258.29 651.089 257.531 650.33 262.082C649.723 265.723 647.549 266.634 646.537 266.634C645.526 267.772 644.792 269.82 649.951 268.909C656.398 267.772 654.123 264.737 656.019 268.909C657.536 268.657 661.026 267.847 662.846 266.634C664.667 265.42 669.926 264.611 672.328 264.358C673.087 263.347 675.287 261.931 678.017 264.358C680.748 266.785 683.707 266.634 684.845 266.254C686.235 266.128 689.775 266.71 692.809 270.047C693.315 270.3 694.63 270.502 695.844 269.289C697.361 267.772 700.774 266.254 703.429 270.047C706.084 273.84 709.119 268.909 707.601 267.013C706.388 265.496 709.624 264.105 711.394 263.6C712.785 263.979 715.87 264.282 717.083 262.462C718.601 260.186 721.256 260.186 723.911 262.841C726.565 265.496 731.875 261.324 732.255 259.807C732.558 258.593 733.898 258.542 734.53 258.669C735.289 256.772 737.792 253.89 741.737 257.531C742.875 257.531 745.302 258.214 745.909 260.945C746.516 263.675 748.437 262.335 749.322 261.324C749.955 260.565 751.446 260.338 752.357 265.496C752.23 266.634 752.205 269.061 753.115 269.668C754.253 270.427 755.391 270.047 753.115 272.702C750.839 275.357 750.46 278.771 751.598 279.909C752.736 281.046 755.77 280.288 754.253 286.356C754.127 287.115 754.253 288.708 755.77 289.011C757.667 289.391 756.529 290.908 755.391 292.425C754.253 293.942 755.391 294.701 756.908 294.321C758.425 293.942 762.218 296.218 762.597 297.735C762.977 299.252 762.977 307.596 766.39 308.734C769.804 309.872 777.01 310.251 775.872 302.286C774.962 295.914 779.286 300.137 781.561 303.045C783.331 303.171 786.568 302.666 785.354 299.631C783.837 295.838 789.906 299.252 791.423 301.148C792.94 303.045 795.215 302.666 798.629 307.975C800.399 307.596 803.711 308.279 802.801 314.044C804.698 316.572 808.111 323.147 806.594 329.215C807.352 331.617 810.842 335.891 818.731 333.767C819.869 330.859 822.524 326.484 824.041 332.249C825.558 338.015 828.466 339.456 829.73 339.456C831.879 339.962 836.936 343.173 839.971 351.972C843.005 360.771 847.303 354.121 849.073 349.696C849.326 349.444 850.818 349.09 854.763 349.696C854.889 349.064 855.445 347.724 856.659 347.421C857.67 344.386 860.983 340.139 866.141 347.421C866.647 348.432 868.037 349.621 869.555 346.283C871.451 342.111 869.934 343.628 874.865 343.249C875.75 342.869 876.913 341.883 874.485 340.973C871.451 339.835 871.072 336.422 874.865 335.663C877.014 336.295 880.402 336.953 876.761 334.525C873.12 332.098 877.52 330.227 880.174 329.594C881.312 329.594 883.057 328.76 880.933 325.422C878.278 321.25 883.209 316.32 888.139 313.285C893.07 310.251 887.002 309.113 896.104 309.872C897.748 306.711 902.552 302.666 908.621 311.768C910.264 310.63 913.703 309.417 914.31 313.665C915.827 311.895 919.165 309.417 920.378 313.665C920.631 314.297 921.364 315.03 922.275 312.906L922.351 312.729C923.48 310.087 924.997 306.542 927.964 310.251C930.366 304.815 936.46 297.052 941.618 309.493C942.503 309.745 944.425 309.948 945.032 308.734C945.79 307.217 955.651 293.942 952.997 308.734C955.651 307.849 961.189 307.444 962.099 312.906C961.973 313.791 962.479 315.03 965.513 312.906C969.306 310.251 971.961 305.32 978.408 311.389C978.661 312.021 980.001 312.83 983.339 311.01C987.511 308.734 988.27 309.493 984.477 307.596C980.684 305.7 984.098 302.286 985.615 301.907C987.132 301.528 987.132 297.428 983.339 296.444C980.305 295.656 984.856 290.908 987.511 288.632C988.396 287.874 989.863 285.446 988.649 281.805C987.132 277.254 991.683 279.909 992.821 281.046C993.959 282.184 998.89 282.184 998.51 279.15C998.131 276.116 996.235 274.978 1001.17 274.219C1006.1 273.461 1007.61 269.668 1011.41 275.737C1015.2 281.805 1016.34 282.943 1017.85 282.943C1019.37 282.943 1020.51 284.081 1020.89 281.805C1021.27 279.529 1024.68 279.909 1025.44 282.184C1026.2 284.46 1028.09 282.184 1028.09 281.046C1028.09 279.909 1032.65 273.461 1034.54 279.15C1036.06 277.759 1039.17 276.116 1039.47 280.667C1040.74 281.679 1044.18 283.474 1047.82 282.564C1052.37 281.426 1055.02 282.184 1055.4 280.288C1055.78 278.391 1059.2 276.495 1059.57 276.874C1060.49 274.472 1062.43 271.109 1062.85 276.874C1063.37 276.495 1065.26 277.254 1065.26 274.978C1065.26 273.157 1068.05 273.461 1069.44 273.84C1070.07 273.967 1071.26 273.916 1070.95 272.702C1070.57 271.185 1070.57 268.53 1076.26 271.944C1077.27 272.07 1079.3 271.413 1079.3 267.772C1079.3 263.22 1078.16 260.945 1082.71 262.841C1084.23 262.335 1086.2 260.262 1081.95 256.014C1077.7 251.766 1079.42 249.693 1080.81 249.187C1081.57 247.29 1082.1 244.18 1078.16 246.911C1077.4 246.532 1075.5 247.29 1075.5 245.394C1075.5 243.498 1075.41 241.98 1071.86 245.394C1068.3 248.808 1063.75 244.635 1064.13 241.601C1064.43 239.174 1062.48 236.038 1061.47 234.774C1059.7 234.268 1057.53 232.726 1062.99 230.602H1072.47C1073.86 230.223 1075.81 229.161 1072.47 227.947C1073.99 226.936 1076.11 224.534 1072.47 223.016C1068.83 221.499 1067.41 218.086 1067.16 216.569C1066.91 215.051 1067.92 212.093 1073.99 212.396C1075.25 211.638 1076.72 209.438 1072.47 206.707C1068.22 203.976 1071.96 203.294 1074.37 203.294C1075.25 202.409 1076.04 200.411 1072.09 199.501C1068.15 198.591 1074.24 193.053 1077.78 190.398C1078.41 189.766 1080.51 189.564 1083.85 193.812C1084.86 194.697 1087.26 195.556 1088.78 191.915C1090.3 188.274 1093.96 189.387 1095.61 190.398C1096.36 190.272 1098.03 188.35 1098.64 181.675C1098.51 180.916 1098.87 179.171 1101.3 178.261C1104.33 177.123 1106.61 171.434 1102.43 172.951C1098.26 174.468 1100.16 168.779 1102.05 169.158C1103.95 169.538 1104.71 166.503 1102.05 166.124C1099.4 165.745 1101.3 159.676 1104.33 159.676C1106.76 159.676 1107.36 156.642 1107.36 155.125C1108.63 153.734 1111.99 151.863 1115.33 155.504C1115.71 156.136 1116.77 156.794 1117.98 154.366C1119.2 151.939 1120.77 153.102 1121.4 153.987C1123.67 150.068 1129.06 144.505 1132.4 153.608C1132.78 154.114 1133.53 154.67 1133.53 152.849C1133.53 150.574 1140.36 147.539 1143.02 153.229C1145.14 157.78 1148.96 159.676 1150.6 160.056C1153 159.171 1157.58 158.539 1156.67 163.09C1157.56 164.481 1159.55 166.2 1160.46 161.952C1160.21 160.941 1160.84 159.07 1165.39 159.676C1166.15 158.665 1168.12 156.49 1169.95 155.884C1169.44 153.861 1169.11 149.436 1171.84 147.919C1174.57 146.402 1175.51 148.804 1175.63 150.194C1177.66 147.034 1182.54 142.533 1185.88 149.815C1185.62 150.7 1185.27 152.698 1185.88 153.608C1186.48 154.518 1187.9 154.746 1188.53 154.746C1189.54 155.504 1190.88 157.401 1188.15 158.918C1185.42 160.435 1187.77 162.078 1189.29 162.711C1190.43 162.584 1192.4 163.621 1191.19 168.779C1189.97 173.937 1194.73 174.974 1197.25 174.848C1199.66 174.089 1205.29 171.738 1208.63 168.4C1212.8 164.228 1214.7 164.228 1214.7 163.09C1214.7 161.952 1217.73 162.331 1214.7 160.814C1212.27 159.601 1211.41 161.826 1211.29 163.09C1210.53 163.216 1208.86 163.393 1208.25 163.09C1207.6 162.761 1205.23 161.861 1205.6 161.134C1204.88 161.574 1203.74 162.244 1202.94 162.711C1202.18 162.963 1200.89 163.014 1201.81 161.193C1202.72 159.373 1202.94 158.665 1202.94 158.539C1202.44 158.286 1201.35 158.008 1201.05 158.918C1200.67 160.056 1199.91 163.09 1199.15 163.09C1198.39 163.09 1197.25 163.848 1196.87 163.09C1197.13 163.596 1197.25 164.455 1195.74 163.848C1194.22 163.242 1194.85 163.596 1195.36 163.848C1194.73 164.986 1193.31 166.959 1192.7 165.745C1191.94 164.228 1190.81 158.539 1191.56 157.401C1192.32 156.263 1191.56 154.366 1198.39 152.849C1201.3 151.964 1207.95 150.118 1211.29 149.815C1215.46 149.436 1217.36 148.677 1213.94 146.402C1211.21 144.581 1209.26 146.149 1208.63 147.16C1208.51 147.287 1208.18 147.236 1207.87 146.022C1207.57 144.809 1205.47 146.275 1204.46 147.16C1203.95 146.149 1203.55 143.671 1205.98 141.85C1205.98 141.471 1205.37 141.092 1202.94 142.609C1200.52 144.126 1199.4 145.011 1199.15 145.264C1198.77 144.758 1198.24 143.443 1199.15 142.229C1200.06 141.016 1201.55 139.701 1202.18 139.195C1202.44 139.069 1202.11 139.195 1198.77 140.712C1195.43 142.229 1194.09 143.367 1193.84 143.747C1193.21 142.482 1192.4 139.499 1194.22 137.678C1196.5 135.402 1199.15 131.61 1206.74 133.885C1212.8 135.706 1218.87 138.437 1221.15 139.574C1222.92 139.954 1226.31 140.105 1225.7 137.678C1224.94 134.644 1222.67 130.472 1221.91 130.472C1221.15 130.472 1217.73 131.23 1217.73 130.851C1217.73 130.472 1216.22 127.817 1218.11 127.437C1219.63 127.134 1221.02 127.058 1221.53 127.058C1221.53 126.426 1221.15 125.162 1219.63 125.162C1218.11 125.162 1216.47 125.667 1215.84 125.92C1216.09 125.162 1217.13 123.569 1219.25 123.265C1221.38 122.962 1215.08 121.875 1211.67 121.369C1210.66 120.105 1210 117.424 1215.46 116.818C1220.92 116.211 1228.86 125.667 1232.15 130.472C1232.53 130.851 1233.29 131.154 1233.29 129.334C1233.29 127.058 1231.77 111.887 1238.6 109.232C1238.85 108.473 1240.04 106.88 1242.77 106.577C1245.5 106.274 1246.69 107.209 1246.94 107.715C1246.94 108.726 1246.48 110.825 1244.66 111.128C1242.84 111.432 1241.38 114.542 1240.87 116.059C1241.38 115.68 1242.69 114.921 1243.91 114.921C1245.42 114.921 1242.39 116.059 1242.01 117.955C1241.71 119.473 1241.88 120.358 1242.01 120.61C1242.39 119.978 1243.6 118.638 1245.42 118.335C1247.24 118.031 1247.19 118.714 1246.94 119.093C1245.93 119.725 1243.91 121.293 1243.91 122.507C1243.91 123.72 1244.41 125.794 1244.66 126.679C1244.28 126.679 1243.45 127.286 1243.15 129.713C1242.77 132.747 1243.91 133.506 1243.91 133.127C1243.91 132.747 1250.73 122.507 1256.42 119.473C1262.11 116.438 1263.25 112.645 1270.83 116.059C1276.9 118.79 1271.85 119.725 1268.56 119.852C1269.44 120.737 1270.53 122.583 1267.8 122.886C1265.03 123.194 1262.76 124.001 1261.6 123.889C1263.65 124.731 1266.52 126.235 1265.15 127.058C1263.25 128.196 1259.08 128.955 1258.32 128.955C1257.56 128.955 1262.87 130.472 1259.46 132.368C1256.04 134.265 1268.94 131.23 1273.49 129.713C1278.04 128.196 1283.35 129.334 1284.11 133.506C1284.72 136.844 1280.32 134.897 1278.04 133.506C1279.31 135.276 1281.61 138.892 1280.7 139.195C1279.79 139.499 1276.52 137.046 1275.01 135.782C1273.49 136.287 1270.99 137.45 1273.11 138.057C1275.23 138.664 1276.27 140.839 1276.52 141.85C1274.88 142.356 1271.14 142.912 1269.32 141.092C1267.5 139.271 1264.26 143.114 1262.87 145.264C1261.98 145.769 1261.43 146.933 1266.28 147.539C1272.35 148.298 1285.63 150.194 1290.18 157.78C1293.82 163.848 1290.18 161.573 1287.9 159.676C1287.9 160.941 1287.6 163.545 1286.39 163.848C1285.17 164.152 1283.86 159.929 1283.35 157.78C1282.72 157.527 1281.53 157.325 1281.83 158.539C1282.21 160.056 1282.59 162.331 1282.21 163.09C1281.91 163.697 1279.56 159.297 1278.42 157.021C1278.04 156.769 1277.28 156.566 1277.28 157.78C1277.28 159.297 1278.04 161.573 1277.28 162.711C1276.52 163.848 1275.01 160.056 1274.63 158.539C1274.25 157.021 1272.73 160.435 1272.73 160.814C1272.73 161.193 1270.46 160.814 1270.08 159.297C1269.7 157.78 1268.18 161.952 1268.56 162.331C1268.94 162.711 1265.52 161.573 1265.15 159.676C1264.77 157.78 1261.35 162.711 1265.52 164.607C1269.7 166.503 1277.66 172.572 1278.04 177.882C1278.42 183.192 1278.8 182.054 1278.04 187.364C1277.43 191.612 1276.27 185.341 1275.77 181.675C1275.89 182.813 1275.92 185.543 1275.01 187.364C1273.87 189.64 1273.11 190.398 1273.11 186.226C1273.11 182.054 1273.49 186.605 1273.11 180.537C1272.35 181.043 1270.61 182.509 1269.7 184.33C1268.79 186.15 1269.32 180.284 1269.7 177.123C1268.81 177.503 1266.89 178.64 1266.28 180.158C1265.68 181.675 1265.52 178.261 1265.52 176.365C1265.15 176.112 1264.08 175.91 1262.87 177.123C1261.66 178.337 1261.61 175.1 1261.73 173.331C1260.59 174.089 1257.94 175.53 1256.42 175.227C1254.9 174.923 1258.07 171.813 1259.84 170.296C1258.07 170.928 1254.3 172.648 1253.39 174.468C1252.48 176.289 1253.51 171.687 1254.15 169.158C1252.63 169.411 1249.67 169.614 1249.97 168.4C1250.28 167.186 1248.58 165.871 1247.7 165.366C1247.32 162.963 1246.18 159.297 1244.66 163.848C1243.15 168.4 1245.8 173.078 1247.32 174.848L1249.97 183.571C1250.73 187.743 1252.4 196.543 1253.01 198.363C1253.77 200.639 1257.56 216.569 1257.18 220.741C1256.88 224.078 1259.08 221.373 1260.21 219.603C1261.73 217.327 1265.45 214.369 1268.18 220.741C1270.91 227.113 1279.18 218.844 1282.97 213.914C1283.86 213.408 1285.93 212.7 1287.14 213.914C1288.53 212.649 1291.69 210.955 1293.21 214.293C1294.73 217.631 1296.37 215.684 1297 214.293C1297.51 214.04 1298.75 213.686 1299.66 214.293C1300.57 214.9 1300.54 213.534 1300.42 212.776C1300.42 212.523 1300.65 212.093 1301.56 212.396C1302.69 212.776 1302.69 209.742 1299.28 207.845C1295.87 205.949 1298.52 202.156 1301.56 204.052C1304.59 205.949 1307.62 202.156 1304.21 201.397C1301.48 200.79 1296.75 193.812 1294.73 190.398C1294.1 189.766 1293.67 188.122 1297 186.605C1301.18 184.709 1297.38 184.33 1297.76 184.33C1298.14 184.33 1296.25 182.054 1299.66 182.433C1302.39 182.737 1301.05 180.031 1300.04 178.64C1299.79 177.123 1300.57 174.241 1305.73 174.848C1306.49 174.974 1307.93 174.468 1307.62 171.434C1307.32 168.4 1309.02 168.906 1309.9 169.538C1310.41 169.538 1311.42 169.158 1311.42 167.641C1311.42 165.745 1313.69 164.228 1315.97 169.158C1317.79 173.103 1320.77 174.342 1322.04 174.468C1321.53 175.985 1320.9 179.475 1322.42 181.295C1323.36 182.427 1323.77 182.738 1323.91 182.72C1323.92 182.621 1323.93 182.526 1323.93 182.433C1323.98 182.577 1323.99 182.709 1323.91 182.72C1323.66 185.462 1323.35 190.571 1323.93 191.157C1324.69 191.915 1326.21 193.053 1329.24 192.295C1332.28 191.536 1336.45 191.915 1334.17 196.087C1332.91 196.972 1330.91 199.349 1333.04 201.777C1335.16 204.204 1332.66 204.305 1331.14 204.052C1329.88 204.558 1328.03 205.873 1330.76 207.087C1334.17 208.604 1335.69 206.707 1335.69 210.5C1338.22 211.006 1342.9 213.079 1341.38 217.327C1344.16 215.304 1349.65 213.231 1349.35 221.12C1350.36 221.499 1352.61 221.879 1353.52 220.361C1354.66 218.465 1359.97 192.674 1360.72 191.157C1361.48 189.64 1356.55 189.64 1356.55 193.053C1356.55 195.784 1356.8 200.259 1356.93 202.156C1356.8 204.305 1355.95 207.162 1353.52 201.397C1351.6 196.854 1351.14 195.31 1351.15 194.983C1347.58 196.276 1340.78 199.763 1341.38 203.673C1342.14 208.604 1336.07 198.363 1338.73 196.467C1340.85 194.95 1345.43 190.272 1347.45 188.122C1345.68 186.353 1340.55 183.875 1334.17 188.122C1326.21 193.432 1334.17 180.916 1336.45 180.158C1338.73 179.399 1341.76 178.64 1342.14 179.02C1342.52 179.399 1343.66 169.917 1338.35 169.538C1333.04 169.158 1330.76 170.676 1340.24 164.986C1340.37 158.918 1343.66 149.739 1355.79 161.573C1359.71 156.263 1368.39 148.374 1371.72 159.297C1371.85 160.309 1372.79 161.952 1375.52 160.435C1378.93 158.539 1380.45 157.78 1383.86 157.78C1387.27 157.78 1378.93 164.228 1374.76 171.813C1374.38 172.446 1374.76 173.255 1379.31 171.434C1385 169.158 1390.69 166.883 1394.48 172.951C1397.51 177.806 1392.96 175.227 1390.31 173.331C1385.88 173.583 1378.1 175.075 1382.34 179.02C1386.26 179.02 1394.63 180.385 1396.76 185.847C1398.88 191.308 1393.85 187.87 1391.07 185.468C1389.42 187.238 1385.23 189.715 1381.58 185.468C1380.57 187.617 1380.14 192.37 1386.52 194.191C1392.89 196.012 1391.45 201.777 1389.93 204.432C1388.29 203.799 1385 201.928 1385 199.501C1385 197.074 1379.18 195.961 1376.27 195.708C1377.79 198.742 1380.37 205.797 1378.55 209.742C1376.73 213.686 1373.49 214.672 1372.1 214.672C1372.48 213.534 1373.09 210.652 1372.48 208.224C1371.88 205.797 1369.19 201.903 1367.93 200.259L1365.28 191.915C1364.64 189.892 1363.08 187.743 1361.86 195.329C1360.65 202.914 1357.31 215.936 1355.79 221.499C1357.18 222.131 1360.42 223.472 1362.24 223.775C1364.52 224.154 1363 226.051 1366.03 224.154C1369.07 222.258 1371.72 225.671 1372.1 228.706C1372.48 231.74 1381.58 230.223 1383.86 229.464C1386.14 228.706 1396.38 218.844 1397.14 217.706C1397.89 216.569 1400.17 214.293 1394.1 214.672C1388.03 215.051 1390.69 204.811 1400.17 207.845C1402.07 208.098 1405.93 207.314 1406.24 202.156C1406.62 195.708 1402.07 194.191 1407.76 187.364C1412.31 184.203 1419.29 178.64 1410.79 181.675C1410.79 181.295 1406.62 177.123 1414.2 175.985C1420.27 175.075 1420.02 169.791 1419.13 167.262C1419.89 164.733 1422.09 160.511 1424.82 163.848C1425.45 163.722 1426.42 162.407 1425.2 158.159C1423.99 153.911 1431.78 153.355 1435.82 153.608C1436.96 153.481 1438.86 152.773 1437.34 150.953C1435.82 149.132 1438.48 147.666 1439.99 147.16V395.969H1V118.714Z" fill="#298270"/>
<path d="M1 118.714C2.01142 117.197 4.18596 113.48 4.79281 110.749C5.55138 107.336 1.75856 103.163 13.5163 89.13C14.5277 88.1186 16.7781 85.3372 17.6884 82.3029C18.8262 78.5101 19.9641 75.4759 30.9632 76.993C41.9624 78.5101 46.1345 75.4759 46.5138 72.4416C46.8931 69.4074 46.5138 67.1317 54.4787 67.511C54.4787 67.1317 59.4093 60.6839 64.34 61.4425C64.2136 59.4196 64.4159 55.374 66.2364 55.374C68.5121 55.374 79.8906 51.2019 80.2698 36.7892C82.4191 32.6171 88.083 24.9556 93.5447 27.6864C94.3032 27.9393 95.6687 27.914 95.0618 25.79C94.3032 23.135 98.0961 14.4115 103.027 18.9629C103.532 19.9743 104.62 21.2386 104.923 18.2044C106.946 12.6416 112.205 2.88139 117.06 8.34304C117.439 9.1016 118.501 10.1636 119.715 8.34304C121.232 6.06735 122.37 0.757411 137.541 4.17094C140.828 5.68807 148.161 8.19133 151.195 6.06735C152.08 3.53881 154.837 -0.759714 158.781 2.27454C163.712 6.06735 168.642 3.79166 170.539 2.65382C172.435 1.51597 176.228 -1.51828 178.124 4.92951C178.251 5.68807 178.959 6.82591 180.779 5.30879C183.055 3.41238 192.537 3.41238 192.916 13.653C196.456 13.5266 203.688 14.184 204.295 17.8251C204.674 18.4572 205.66 19.2663 206.571 17.4458C208.341 14.7908 213.777 11.0739 221.363 17.4458C222.5 18.7101 225.307 20.5559 227.431 17.8251C229.58 15.2965 234.637 11.6807 237.672 17.4458C240.706 23.2109 244.499 21.1122 246.016 19.3422C247.786 17.9515 251.629 16.9148 252.843 23.8936C252.969 25.6636 254.436 28.8242 259.291 27.3071C260.808 26.5486 265.587 27.5347 272.566 37.5477C275.094 37.1684 280.151 37.0926 280.151 39.8234C283.691 39.5706 290.468 40.2027 289.254 44.7541C289.507 45.5126 290.164 46.4229 290.771 43.9955C291.53 40.9613 296.081 42.4784 296.84 44.7541C297.598 47.0298 300.253 44.7541 299.874 43.9955C299.495 43.2369 300.632 42.4784 302.529 42.4784C304.425 42.4784 301.77 40.582 301.391 40.582C301.012 40.582 297.598 39.0648 298.736 37.927C299.874 36.7892 301.012 35.272 301.012 34.5135C301.012 33.7549 304.046 31.4792 303.667 35.6513C306.322 36.4099 312.314 37.4719 315.045 35.6513C315.424 34.5135 316.486 32.3136 317.7 32.6171C319.217 32.9963 321.493 30.7207 318.838 29.2035C316.183 27.6864 316.941 25.79 319.596 26.1693C321.746 25.9164 326.272 25.7141 327.182 26.9278C328.092 28.1415 330.09 28.1921 330.975 28.0657C331.354 27.9393 332.416 28.2932 333.63 30.7207C335.147 33.7549 341.215 29.9621 335.526 29.2035C330.975 28.5967 335.653 27.9393 338.561 27.6864C339.193 24.7786 341.215 20.48 344.25 26.5486C344.503 27.0543 345.084 27.6864 345.388 26.1693C345.64 24.5257 346.905 22.3765 349.939 26.9278C351.709 28.0657 355.021 30.7965 354.111 32.6171C352.088 32.7435 348.801 33.7549 351.835 36.7892C354.87 39.8234 350.318 38.5591 347.663 37.5477C345.893 37.2949 342.505 37.7753 343.112 41.7198C343.365 42.7312 344.174 43.9955 345.388 40.9613C346.02 40.0763 347.967 38.8373 350.698 40.9613C351.456 41.5934 351.835 43.6162 347.284 46.6505C346.905 47.2826 346.45 48.6227 347.663 48.9262C347.79 50.064 347.132 51.7328 343.491 49.3054C339.85 46.878 336.664 50.064 335.526 51.9604C335.147 52.9718 335.147 54.4637 338.181 52.3397C341.974 49.6847 341.974 54.6154 340.457 55.374C340.078 55.374 336.664 55.7532 339.319 57.6496C341.974 59.546 341.215 59.5461 342.733 57.6496C343.946 56.1325 345.514 57.5232 346.146 58.4082C347.158 59.2932 349.332 60.3805 349.939 57.6496C349.813 54.8682 349.787 49.3054 350.698 49.3054C351.835 49.3054 352.215 49.6847 352.973 52.3397C353.732 54.9947 357.525 61.4425 357.525 62.5803C357.525 63.4906 357.525 65.4881 357.525 66.3731C357.904 67.6374 358.814 69.4074 359.421 66.3731C360.18 62.5803 358.283 59.1668 361.697 54.2361C362.329 54.1097 363.593 55.9808 363.593 64.4767C363.593 75.0966 363.214 75.4759 363.593 81.9237C363.846 82.5558 365.49 83.8201 370.041 83.8201C371.052 83.9465 373.227 84.8062 373.834 87.2336C374.441 89.661 375.604 87.4865 376.109 86.0958C376.489 85.59 377.551 85.2613 378.764 87.9922C380.281 91.4057 384.833 87.2336 381.419 86.0958C378.689 85.1855 384.58 82.4294 387.867 81.1651C388.752 80.6594 389.688 79.3445 386.35 78.1308C383.012 76.9171 386.729 76.108 389.005 75.8552C390.143 74.338 393.405 72.3658 397.349 76.6137C397.981 76.8666 399.246 76.9171 399.246 75.0966C399.246 73.276 401.016 73.5795 401.901 73.9587C402.406 72.6945 402.507 69.6349 398.866 67.511C398.108 67.511 398.108 64.4767 389.764 62.201C381.419 59.9253 386.35 60.3046 375.73 59.9253C374.845 59.5461 373.682 58.4082 376.109 56.8911C378.537 55.3739 381.419 54.9947 382.557 54.9947C383.063 54.3625 383.619 52.8707 381.799 51.9604C379.523 50.8226 379.144 49.6847 380.661 48.5469C382.178 47.409 384.833 47.409 386.35 49.6847C387.741 49.5583 390.75 49.6089 391.66 50.8226C392.57 52.0363 395.073 53.604 396.211 54.2361C397.728 54.7418 399.625 56.0567 395.073 57.2704C395.073 58.0289 394.694 59.6978 393.177 60.3046C391.66 60.9115 393.556 61.5689 394.694 61.8217C396.464 62.4539 400.308 64.4009 401.521 67.1317C402.735 69.8625 402.786 57.6496 402.659 51.2019C402.28 49.3054 400.535 44.8299 396.591 42.0991C392.646 39.3683 389.637 38.4327 388.626 38.3063C387.741 37.927 385.895 37.6994 385.591 39.8234C385.212 42.4784 380.661 42.0991 380.281 37.927C379.902 37.927 381.419 36.4099 376.868 35.6513C372.317 34.8927 376.868 32.6171 379.144 32.6171C381.419 32.6171 380.661 30.3414 378.764 30.3414C376.868 30.3414 376.489 28.8242 380.281 27.6864C384.074 26.5486 382.936 21.9972 387.867 27.3071C388.373 28.0657 389.839 28.976 391.66 26.5486C393.936 23.5143 393.177 20.1008 395.073 19.7215C396.97 19.3422 397.349 19.3422 397.728 19.7215C398.487 18.2044 400.459 16.0804 402.28 19.7215C404.556 24.2729 407.59 18.9629 405.314 17.4458C403.038 15.9287 405.314 13.2737 408.728 12.8944C411.458 12.591 412.141 14.7908 412.141 15.9287C414.29 15.2965 418.513 14.715 418.21 17.4458C420.359 17.3194 424.126 17.6734 422.002 20.1008C423.393 20.8593 425.188 22.5282 421.244 23.135C420.991 25.2843 419.878 28.5208 417.451 24.2729C417.325 24.02 416.996 23.7419 416.693 24.6521C416.313 25.79 414.796 29.9621 411.383 25.0314C410.118 27.0543 406.679 30.0379 403.038 25.79C400.889 26.8014 397.88 28.976 403.038 29.5828C408.197 30.1897 415.302 33.3756 418.21 34.8927C418.715 35.7777 418.741 37.4719 414.796 37.1684C414.543 37.042 413.734 37.0167 412.52 37.927C411.003 39.0648 409.865 41.3405 409.107 37.927C408.5 35.1962 405.314 34.7663 403.797 34.8927C402.912 34.5135 401.37 35.6513 402.28 43.2369C403.165 46.6505 405.162 52.7948 406.073 50.064C407.21 46.6505 414.796 45.8919 415.934 45.5126C417.072 45.1333 422.382 43.9955 422.761 42.4784C423.14 40.9613 420.485 41.3405 419.727 42.8577C418.968 44.3748 415.175 42.4784 415.175 41.7198C415.175 40.9613 411.383 40.2027 417.451 37.927C418.21 37.6741 419.878 36.9409 420.485 36.0306C421.244 34.8927 423.52 33.7549 425.037 35.6513C426.25 37.1684 426.554 35.7777 426.554 34.8927C427.312 33.7549 429.285 32.3136 431.105 35.6513C432.926 38.989 430.094 38.5591 428.45 37.927C427.565 38.9384 426.326 40.9613 428.45 40.9613C431.105 40.9613 434.139 43.2369 434.139 47.0298C434.139 50.064 430.347 46.0183 428.45 43.6162C427.692 43.6162 425.719 43.9955 423.899 45.5126C421.623 47.409 412.141 47.7883 411.762 47.7883C411.383 47.7883 408.69 52.3397 405.693 53.0983C405.44 54.1097 405.011 56.5118 405.314 58.0289C405.693 59.9253 407.21 57.6496 407.969 56.5118C408.728 55.3739 411.003 55.7532 411.003 55.374C411.003 54.9947 412.752 53.4775 412.52 52.3397C412.289 51.2019 414.417 51.5811 414.796 54.2361C416.06 54.6154 417.906 55.5257 415.175 56.1325C412.445 56.7394 412.015 56.3854 412.141 56.1325C411.635 56.6382 410.472 57.6496 409.865 57.6496C409.107 57.6496 408.348 60.6839 406.452 60.3046C404.556 59.9253 404.176 67.1317 404.556 68.2695C404.859 69.1798 405.946 67.6374 406.452 66.7524C407.084 66.2467 408.803 65.8421 410.624 68.2695C412.445 70.6969 413.153 69.2809 413.279 68.2695C413.658 68.396 414.417 68.573 414.417 68.2695C414.417 67.8902 414.796 66.7524 412.9 65.9938C411.383 65.387 414.29 62.7067 415.934 61.4425C416.313 61.1896 417.299 61.139 418.21 62.9596C419.221 62.7067 421.244 62.5803 421.244 64.0974C423.772 63.7181 428.374 63.5664 426.554 65.9938C428.703 65.9938 432.395 66.449 429.967 68.2695C431.358 68.6488 433.457 69.7867 430.726 71.3038C430.726 71.5566 430.498 71.9865 429.588 71.6831C429.209 73.2002 427.995 75.5517 426.175 72.8209C425.669 72.6945 424.657 72.6692 424.657 73.5795C425.29 75.3494 425.492 77.9033 421.244 73.9587C420.359 73.5795 418.437 73.3519 417.83 75.4759C417.072 78.1308 411.003 77.3723 410.624 75.0966C410.245 72.8209 406.073 76.993 410.245 78.1308C413.582 79.0411 416.187 79.0158 417.072 78.8894C418.462 79.2687 421.32 80.2548 421.623 81.1651C421.927 82.0754 424.784 82.5558 426.175 82.6822C427.312 83.3144 428.602 84.8062 424.657 85.7165C419.727 86.8543 417.83 85.3372 419.727 89.5093C421.623 93.6814 423.899 98.612 424.278 103.543C424.657 108.473 426.554 113.783 432.243 116.438C431.99 118.208 431.712 122.431 432.622 125.162C433.128 124.656 434.367 123.038 435.277 120.61C436.415 117.576 438.312 118.335 436.415 123.265C434.519 128.196 433.76 127.817 433.76 131.989C433.76 136.161 439.07 125.541 439.07 124.024C439.07 122.507 439.449 119.093 440.208 119.093C440.967 119.093 442.863 120.61 440.967 125.162C439.07 129.713 437.932 129.713 439.449 129.713C440.663 129.713 442.231 127.437 442.863 126.3C443.369 125.162 444.152 124.631 443.242 131.61C442.332 138.588 447.414 126.679 450.069 119.852C450.954 118.714 452.648 117.5 452.345 121.748C452.042 125.996 450.196 128.575 449.311 129.334C450.069 130.472 451.738 131.989 452.345 128.955C452.952 125.92 454.874 120.863 455.759 118.714C456.264 117.703 457.351 116.666 457.655 120.61C457.781 121.243 458.186 121.976 458.793 119.852C459.551 117.197 461.827 116.059 461.448 120.61C462.712 120.105 465.999 118.259 469.033 114.921C472.826 110.749 475.102 114.542 474.723 114.921C474.343 115.3 473.585 116.059 472.447 116.438C471.309 116.818 463.344 121.748 461.827 124.024C460.613 125.844 464.608 123.518 466.758 122.128C468.148 122.001 470.247 122.279 467.516 124.403C466.126 124.909 462.813 126.3 460.689 127.817C458.565 129.334 463.597 127.69 466.378 126.679C467.263 127.058 467.365 128.499 460.689 131.23C452.345 134.644 461.068 133.127 462.965 131.989C464.861 130.851 470.171 128.955 470.93 129.713C471.688 130.472 469.033 132.747 465.999 133.506C462.965 134.265 460.689 134.265 459.931 135.023C459.172 135.782 465.62 138.816 466.758 138.816C467.896 138.816 468.275 140.712 466.378 141.092C464.482 141.471 459.551 138.437 458.793 138.057C458.034 137.678 451.586 136.54 451.586 139.954C451.586 143.367 453.483 142.988 454.621 141.85C455.759 140.712 456.517 139.954 458.034 139.954C459.248 139.954 456.77 142.988 455.379 144.505C456.643 143.747 459.4 142.002 460.31 141.092C461.448 139.954 462.965 141.85 461.827 142.988C460.917 143.898 458.919 145.137 458.034 145.643C459.046 145.39 461.448 144.657 462.965 143.747C464.861 142.609 469.033 142.229 470.55 142.609C472.068 142.988 468.654 144.884 467.137 144.884C465.62 144.884 461.827 145.643 460.689 147.16C462.333 147.413 465.772 148.146 466.378 149.056C466.985 149.967 462.08 148.93 459.551 148.298C458.287 148.171 456.365 148.222 458.793 149.436C461.22 150.649 462.08 151.711 462.206 152.091C461.827 152.217 460.689 152.318 459.172 151.711C457.276 150.953 453.862 151.332 454.621 152.091C455.379 152.849 460.689 153.229 460.689 153.229C462.712 153.355 467.516 154.366 470.55 157.401C474.343 161.193 462.206 154.746 461.068 154.746C459.931 154.746 455.379 154.746 459.551 156.263C463.723 157.78 462.586 157.021 463.344 157.021C464.103 157.021 466.378 158.539 463.723 158.539C461.068 158.539 458.413 158.539 458.034 158.918C457.655 159.297 458.793 160.814 461.068 160.814C463.344 160.814 467.896 160.814 469.033 159.676C470.171 158.539 473.585 160.814 472.068 161.952C470.55 163.09 464.861 163.848 463.723 163.469C462.586 163.09 465.241 164.986 470.171 164.607C475.102 164.228 477.757 167.641 477.378 168.4C477.074 169.007 472.953 167.388 470.93 166.503C469.286 166.124 466.909 165.972 470.55 168.4C475.102 171.434 476.24 176.365 475.86 177.882C475.557 179.096 473.964 176.618 473.205 175.227C472.194 173.457 469.64 169.689 467.516 168.779C465.392 167.869 467.896 170.928 469.413 172.572C469.286 173.71 468.73 175.454 467.516 173.331C465.999 170.676 464.861 169.917 464.482 169.538C464.103 169.158 462.586 168.021 463.344 170.676C464.103 173.331 463.723 169.538 465.241 174.468C466.454 178.413 462.206 172.319 459.931 168.779C458.793 168.4 456.82 168.248 458.034 170.676C459.551 173.71 455 172.193 465.62 179.778C466.252 180.79 466.606 182.433 462.965 180.916C462.459 180.284 461.144 178.792 459.931 177.882C458.413 176.744 456.517 179.778 460.689 182.813C464.861 185.847 467.516 186.226 475.481 196.467C481.853 204.659 490.526 209.236 494.066 210.5C494.825 209.615 496.873 208.073 498.997 208.983C498.617 207.087 498.314 202.99 500.134 201.777C502.41 197.857 507.568 190.626 509.996 193.053C511.007 190.398 514.244 184.633 519.099 182.813C520.742 180.537 524.939 176.441 528.581 178.261C529.213 178.261 530.477 178.034 530.477 177.123C530.477 175.985 531.994 175.227 536.166 177.882C539.504 180.006 541.855 180.031 542.614 179.778C543.373 180.537 545.117 183.116 546.028 187.364C548.177 190.272 550.806 197.377 544.131 202.535C542.235 204.558 537.987 207.39 536.166 202.535C535.408 201.903 533.89 201.549 533.89 205.19C533.511 205.822 532.677 207.087 532.373 207.087C531.994 207.087 531.994 213.153 532.373 215.24C532.753 217.327 526.305 227.188 525.546 228.326C524.788 229.464 525.167 235.912 530.477 235.912C535.787 235.912 535.787 234.395 537.304 231.361C538.518 228.933 539.58 229.338 539.959 229.843C540.718 229.591 542.159 228.63 541.855 226.809C541.552 224.989 543.499 224.281 544.51 224.154C545.016 223.775 545.876 222.789 545.269 221.879C544.51 220.741 546.786 220.361 549.82 223.016C552.248 225.14 554.877 222.384 555.889 220.741C556.268 219.856 557.937 218.465 561.578 219.982C566.129 221.879 562.337 215.81 560.44 213.914C558.544 212.017 559.302 210.121 563.095 208.224C563.601 207.972 564.688 207.162 564.992 205.949C565.371 204.432 566.129 202.156 568.405 206.328C568.532 206.834 569.012 207.314 569.922 205.19C571.06 202.535 571.819 200.639 574.094 205.949C575.106 206.454 577.204 208.073 577.508 210.5C577.811 212.927 576.623 212.776 575.991 212.397C575.106 213.661 573.867 216.038 575.991 215.431C576.496 214.293 577.811 212.776 579.025 215.81C578.899 216.442 579.025 217.327 580.542 215.81C582.439 213.914 581.301 218.465 584.335 219.982C587.369 221.499 585.473 228.326 582.439 229.843C579.404 231.361 574.853 237.05 581.68 237.808C588.507 238.567 589.645 237.808 593.058 242.739C595.208 243.245 599.734 243.953 600.644 242.739C601.782 242.739 603.527 242.36 601.403 240.843C598.748 238.946 605.195 238.946 607.85 242.739C608.609 242.739 610.657 243.953 612.781 248.808C613.034 249.44 614.374 250.476 617.712 249.566C621.884 248.428 622.263 250.325 623.022 251.842C623.628 253.055 626.056 250.072 627.194 248.428C627.699 247.923 629.09 246.911 630.607 246.911C632.124 246.911 631.998 246.153 631.745 245.773C632.124 245.394 633.035 244.863 633.642 245.773C634.021 244.13 635.159 241.829 636.676 245.773C637.434 245.647 638.8 246.228 638.193 249.566C639.836 250.704 642.137 253.055 638.193 253.359C633.262 253.738 632.883 260.565 638.193 260.565C643.503 260.565 644.261 261.324 646.158 259.807C648.054 258.29 651.088 257.531 650.33 262.082C649.723 265.723 647.549 266.634 646.537 266.634C645.526 267.772 644.792 269.82 649.951 268.909C656.398 267.772 654.123 264.737 656.019 268.909C657.536 268.657 661.026 267.847 662.846 266.634C664.667 265.42 669.926 264.611 672.328 264.358C673.087 263.347 675.287 261.931 678.017 264.358C680.748 266.785 683.707 266.634 684.845 266.254C686.235 266.128 689.775 266.71 692.809 270.047C693.315 270.3 694.63 270.502 695.844 269.289C697.361 267.772 700.774 266.254 703.429 270.047C706.084 273.84 709.119 268.909 707.601 267.013C706.388 265.496 709.624 264.105 711.394 263.6C712.785 263.979 715.87 264.282 717.083 262.462C718.601 260.186 721.256 260.186 723.911 262.841C726.565 265.496 731.875 261.324 732.255 259.807C732.558 258.593 733.898 258.542 734.53 258.669C735.289 256.772 737.792 253.89 741.737 257.531C742.875 257.531 745.302 258.214 745.909 260.945C746.516 263.675 748.437 262.335 749.322 261.324C749.955 260.565 751.446 260.338 752.357 265.496C752.23 266.634 752.205 269.061 753.115 269.668C754.253 270.427 755.391 270.047 753.115 272.702C750.84 275.357 750.46 278.771 751.598 279.909C752.736 281.046 755.77 280.288 754.253 286.356C754.127 287.115 754.253 288.708 755.77 289.011C757.667 289.391 756.529 290.908 755.391 292.425C754.253 293.942 755.391 294.701 756.908 294.321C758.425 293.942 762.218 296.218 762.597 297.735C762.977 299.252 762.977 307.596 766.39 308.734C769.804 309.872 777.01 310.251 775.872 302.286C774.962 295.914 779.286 300.137 781.561 303.045C783.331 303.171 786.568 302.666 785.354 299.631C783.837 295.838 789.906 299.252 791.423 301.148C792.94 303.045 795.215 302.666 798.629 307.975C800.399 307.596 803.711 308.279 802.801 314.044C804.697 316.572 808.111 323.147 806.594 329.215C807.352 331.617 810.842 335.891 818.731 333.767C819.869 330.859 822.524 326.484 824.041 332.249C825.558 338.015 828.466 339.456 829.73 339.456C831.879 339.962 836.936 343.173 839.971 351.972C843.005 360.771 847.303 354.121 849.073 349.696C849.326 349.444 850.818 349.09 854.763 349.696C854.889 349.064 855.445 347.724 856.659 347.421C857.67 344.386 860.983 340.139 866.141 347.421C866.647 348.432 868.037 349.621 869.555 346.283C871.451 342.111 869.934 343.628 874.865 343.249C875.75 342.869 876.913 341.883 874.485 340.973C871.451 339.835 871.072 336.422 874.865 335.663C877.014 336.295 880.402 336.953 876.761 334.525C873.12 332.098 877.52 330.227 880.174 329.594C881.312 329.594 883.057 328.76 880.933 325.422C878.278 321.25 883.209 316.32 888.139 313.285C893.07 310.251 887.002 309.113 896.104 309.872C897.748 306.711 902.552 302.666 908.621 311.768C910.264 310.63 913.703 309.417 914.31 313.665C915.827 311.895 919.165 309.417 920.378 313.665C920.631 314.297 921.364 315.03 922.275 312.906C923.413 310.251 924.93 306.458 927.964 310.251C930.366 304.815 936.46 297.052 941.618 309.493C942.503 309.745 944.425 309.948 945.032 308.734C945.79 307.217 955.652 293.942 952.997 308.734C955.652 307.849 961.189 307.444 962.099 312.906C961.973 313.791 962.479 315.03 965.513 312.906C969.306 310.251 971.961 305.32 978.408 311.389C978.661 312.021 980.001 312.83 983.339 311.01C987.511 308.734 988.27 309.493 984.477 307.596C980.684 305.7 984.098 302.286 985.615 301.907C987.132 301.528 987.132 297.428 983.339 296.444C980.305 295.656 984.856 290.908 987.511 288.632C988.396 287.874 989.863 285.446 988.649 281.805C987.132 277.254 991.683 279.909 992.821 281.046C993.959 282.184 998.89 282.184 998.51 279.15C998.131 276.116 996.235 274.978 1001.17 274.219C1006.1 273.461 1007.61 269.668 1011.41 275.737C1015.2 281.805 1016.34 282.943 1017.85 282.943C1019.37 282.943 1020.51 284.081 1020.89 281.805C1021.27 279.529 1024.68 279.909 1025.44 282.184C1026.2 284.46 1028.09 282.184 1028.09 281.046C1028.09 279.909 1032.65 273.461 1034.54 279.15C1036.06 277.759 1039.17 276.116 1039.47 280.667C1040.74 281.679 1044.18 283.474 1047.82 282.564C1052.37 281.426 1055.02 282.184 1055.4 280.288C1055.78 278.391 1059.2 276.495 1059.57 276.874C1060.49 274.472 1062.43 271.109 1062.85 276.874C1063.37 276.495 1065.26 277.254 1065.26 274.978C1065.26 273.157 1068.05 273.461 1069.44 273.84C1070.07 273.967 1071.26 273.916 1070.95 272.702C1070.57 271.185 1070.57 268.53 1076.26 271.944C1077.27 272.07 1079.3 271.413 1079.3 267.772C1079.3 263.22 1078.16 260.945 1082.71 262.841C1084.23 262.335 1086.2 260.262 1081.95 256.014C1077.7 251.766 1079.42 249.693 1080.81 249.187C1081.57 247.29 1082.1 244.18 1078.16 246.911C1077.4 246.532 1075.5 247.29 1075.5 245.394C1075.5 243.498 1075.41 241.98 1071.86 245.394C1068.3 248.808 1063.75 244.635 1064.13 241.601C1064.43 239.174 1062.48 236.038 1061.47 234.774C1059.7 234.268 1057.53 232.726 1062.99 230.602H1072.47C1073.86 230.223 1075.81 229.161 1072.47 227.947C1073.99 226.936 1076.11 224.534 1072.47 223.016C1068.83 221.499 1067.41 218.086 1067.16 216.569C1066.91 215.051 1067.92 212.093 1073.99 212.397C1075.25 211.638 1076.72 209.438 1072.47 206.707C1068.22 203.976 1071.96 203.294 1074.37 203.294C1075.25 202.409 1076.04 200.411 1072.09 199.501C1068.15 198.591 1074.24 193.053 1077.78 190.398C1078.41 189.766 1080.51 189.564 1083.85 193.812C1084.86 194.697 1087.26 195.556 1088.78 191.915C1090.3 188.274 1093.96 189.387 1095.61 190.398C1096.36 190.272 1098.03 188.35 1098.64 181.675C1098.51 180.916 1098.87 179.171 1101.3 178.261C1104.33 177.123 1106.61 171.434 1102.43 172.951C1098.26 174.468 1100.16 168.779 1102.05 169.158C1103.95 169.538 1104.71 166.503 1102.05 166.124C1099.4 165.745 1101.3 159.676 1104.33 159.676C1106.76 159.676 1107.36 156.642 1107.36 155.125C1108.63 153.734 1111.99 151.863 1115.33 155.504C1115.71 156.136 1116.77 156.794 1117.98 154.366C1119.2 151.939 1120.77 153.102 1121.4 153.987C1123.67 150.068 1129.06 144.505 1132.4 153.608C1132.78 154.114 1133.53 154.67 1133.53 152.849C1133.53 150.574 1140.36 147.539 1143.02 153.229C1145.14 157.78 1148.96 159.676 1150.6 160.056C1153 159.171 1157.58 158.539 1156.67 163.09C1157.56 164.481 1159.55 166.2 1160.46 161.952C1160.21 160.941 1160.84 159.07 1165.39 159.676C1166.15 158.665 1168.13 156.49 1169.95 155.884C1169.44 153.861 1169.11 149.436 1171.84 147.919C1174.57 146.402 1175.51 148.804 1175.63 150.194C1177.66 147.034 1182.54 142.533 1185.88 149.815C1185.62 150.7 1185.27 152.698 1185.88 153.608C1186.48 154.518 1187.9 154.746 1188.53 154.746C1189.54 155.504 1190.88 157.401 1188.15 158.918C1185.42 160.435 1187.77 162.078 1189.29 162.711C1190.43 162.584 1192.4 163.621 1191.19 168.779C1189.97 173.937 1194.73 174.974 1197.25 174.848C1199.66 174.089 1205.29 171.738 1208.63 168.4C1212.8 164.228 1214.7 164.228 1214.7 163.09C1214.7 161.952 1217.74 162.331 1214.7 160.814C1212.27 159.601 1211.41 161.826 1211.29 163.09C1210.53 163.216 1208.86 163.393 1208.25 163.09C1207.49 162.711 1204.46 161.573 1205.98 160.814C1207.19 160.207 1204.46 161.826 1202.94 162.711C1202.18 162.963 1200.89 163.014 1201.81 161.193C1202.72 159.373 1202.94 158.665 1202.94 158.539C1202.44 158.286 1201.35 158.008 1201.05 158.918C1200.67 160.056 1199.91 163.09 1199.15 163.09C1198.39 163.09 1197.25 163.848 1196.87 163.09C1197.13 163.596 1197.25 164.455 1195.74 163.848C1194.22 163.242 1194.85 163.596 1195.36 163.848C1194.73 164.986 1193.31 166.959 1192.7 165.745C1191.94 164.228 1190.81 158.539 1191.56 157.401C1192.32 156.263 1191.56 154.366 1198.39 152.849C1201.3 151.964 1207.95 150.118 1211.29 149.815C1215.46 149.436 1217.36 148.677 1213.94 146.402C1211.21 144.581 1209.26 146.149 1208.63 147.16C1208.51 147.287 1208.18 147.236 1207.87 146.022C1207.57 144.809 1205.47 146.275 1204.46 147.16C1203.95 146.149 1203.55 143.671 1205.98 141.85C1205.98 141.471 1205.37 141.092 1202.94 142.609C1200.52 144.126 1199.4 145.011 1199.15 145.264C1198.77 144.758 1198.24 143.443 1199.15 142.229C1200.06 141.016 1201.55 139.701 1202.18 139.195C1202.44 139.069 1202.11 139.195 1198.77 140.712C1195.43 142.229 1194.09 143.367 1193.84 143.747C1193.21 142.482 1192.4 139.499 1194.22 137.678C1196.5 135.402 1199.15 131.61 1206.74 133.885C1212.8 135.706 1218.87 138.437 1221.15 139.574C1222.92 139.954 1226.31 140.105 1225.7 137.678C1224.94 134.644 1222.67 130.472 1221.91 130.472C1221.15 130.472 1217.74 131.23 1217.74 130.851C1217.74 130.472 1216.22 127.817 1218.11 127.437C1219.63 127.134 1221.02 127.058 1221.53 127.058C1221.53 126.426 1221.15 125.162 1219.63 125.162C1218.11 125.162 1216.47 125.667 1215.84 125.92C1216.09 125.162 1217.13 123.569 1219.25 123.265C1221.38 122.962 1215.08 121.875 1211.67 121.369C1210.66 120.105 1210 117.424 1215.46 116.818C1220.92 116.211 1228.86 125.667 1232.15 130.472C1232.53 130.851 1233.29 131.154 1233.29 129.334C1233.29 127.058 1231.77 111.887 1238.6 109.232C1238.85 108.473 1240.04 106.88 1242.77 106.577C1245.5 106.274 1246.69 107.209 1246.94 107.715C1246.94 108.726 1246.48 110.825 1244.66 111.128C1242.84 111.432 1241.38 114.542 1240.87 116.059C1241.38 115.68 1242.69 114.921 1243.91 114.921C1245.42 114.921 1242.39 116.059 1242.01 117.955C1241.71 119.473 1241.88 120.358 1242.01 120.61C1242.39 119.978 1243.6 118.638 1245.42 118.335C1247.24 118.031 1247.19 118.714 1246.94 119.093C1245.93 119.725 1243.91 121.293 1243.91 122.507C1243.91 123.72 1244.41 125.794 1244.66 126.679C1244.28 126.679 1243.45 127.286 1243.15 129.713C1242.77 132.747 1243.91 133.506 1243.91 133.127C1243.91 132.747 1250.73 122.507 1256.42 119.473C1262.11 116.438 1263.25 112.645 1270.83 116.059C1276.9 118.79 1271.85 119.725 1268.56 119.852C1269.44 120.737 1270.53 122.583 1267.8 122.886C1264.39 123.265 1261.73 124.403 1260.97 123.645C1263 124.403 1266.66 126.148 1265.15 127.058C1263.25 128.196 1259.08 128.955 1258.32 128.955C1257.56 128.955 1262.87 130.472 1259.46 132.368C1256.04 134.265 1268.94 131.23 1273.49 129.713C1278.04 128.196 1283.35 129.334 1284.11 133.506C1284.72 136.844 1280.32 134.897 1278.04 133.506C1279.31 135.276 1281.61 138.892 1280.7 139.195C1279.79 139.499 1276.52 137.046 1275.01 135.782C1273.49 136.287 1270.99 137.45 1273.11 138.057C1275.23 138.664 1276.27 140.839 1276.52 141.85C1274.88 142.356 1271.14 142.912 1269.32 141.092C1267.5 139.271 1264.26 143.114 1262.87 145.264C1261.98 145.769 1261.43 146.933 1266.28 147.539C1272.35 148.298 1285.63 150.194 1290.18 157.78C1293.82 163.848 1290.18 161.573 1287.9 159.676C1287.9 160.941 1287.6 163.545 1286.38 163.848C1285.17 164.152 1283.86 159.929 1283.35 157.78C1282.72 157.527 1281.53 157.325 1281.83 158.539C1282.21 160.056 1282.59 162.331 1282.21 163.09C1281.91 163.697 1279.56 159.297 1278.42 157.021C1278.04 156.769 1277.28 156.566 1277.28 157.78C1277.28 159.297 1278.04 161.573 1277.28 162.711C1276.52 163.848 1275.01 160.056 1274.63 158.539C1274.25 157.021 1272.73 160.435 1272.73 160.814C1272.73 161.193 1270.46 160.814 1270.08 159.297C1269.7 157.78 1268.18 161.952 1268.56 162.331C1268.94 162.711 1265.52 161.573 1265.15 159.676C1264.77 157.78 1261.35 162.711 1265.52 164.607C1269.7 166.503 1277.66 172.572 1278.04 177.882C1278.42 183.192 1278.8 182.054 1278.04 187.364C1277.43 191.612 1276.27 185.341 1275.77 181.675C1275.89 182.813 1275.92 185.543 1275.01 187.364C1273.87 189.64 1273.11 190.398 1273.11 186.226C1273.11 182.054 1273.49 186.605 1273.11 180.537C1272.35 181.043 1270.61 182.509 1269.7 184.33C1268.79 186.15 1269.32 180.284 1269.7 177.123C1268.81 177.503 1266.89 178.64 1266.28 180.158C1265.68 181.675 1265.52 178.261 1265.52 176.365C1265.15 176.112 1264.08 175.91 1262.87 177.123C1261.66 178.337 1261.61 175.1 1261.73 173.331C1260.59 174.089 1257.94 175.53 1256.42 175.227C1254.9 174.923 1258.07 171.813 1259.84 170.296C1258.07 170.928 1254.3 172.648 1253.39 174.468C1252.48 176.289 1253.51 171.687 1254.15 169.158C1252.63 169.411 1249.67 169.614 1249.97 168.4C1250.28 167.186 1248.58 165.871 1247.7 165.366C1247.32 162.963 1246.18 159.297 1244.66 163.848C1243.15 168.4 1245.8 173.078 1247.32 174.848L1249.97 183.571C1250.73 187.743 1252.4 196.543 1253.01 198.363C1253.77 200.639 1257.56 216.569 1257.18 220.741C1256.88 224.078 1259.08 221.373 1260.21 219.603C1261.73 217.327 1265.45 214.369 1268.18 220.741C1270.91 227.113 1279.18 218.844 1282.97 213.914C1283.86 213.408 1285.93 212.7 1287.14 213.914C1288.53 212.649 1291.69 210.955 1293.21 214.293C1294.73 217.631 1296.37 215.684 1297 214.293C1297.51 214.04 1298.75 213.686 1299.66 214.293C1300.57 214.9 1300.54 213.534 1300.42 212.776C1300.42 212.523 1300.65 212.093 1301.56 212.397C1302.69 212.776 1302.69 209.742 1299.28 207.845C1295.87 205.949 1298.52 202.156 1301.56 204.052C1304.59 205.949 1307.62 202.156 1304.21 201.397C1301.48 200.79 1296.75 193.812 1294.73 190.398C1294.1 189.766 1293.67 188.122 1297 186.605C1301.18 184.709 1297.38 184.33 1297.76 184.33C1298.14 184.33 1296.25 182.054 1299.66 182.433C1302.39 182.737 1301.05 180.031 1300.04 178.64C1299.79 177.123 1300.57 174.241 1305.73 174.848C1306.49 174.974 1307.93 174.468 1307.62 171.434C1307.32 168.4 1309.02 168.906 1309.9 169.538C1310.41 169.538 1311.42 169.158 1311.42 167.641C1311.42 165.745 1313.69 164.228 1315.97 169.158C1317.79 173.103 1320.77 174.342 1322.04 174.468C1321.53 175.985 1320.9 179.475 1322.42 181.295C1323.93 183.116 1324.06 182.813 1323.93 182.433C1323.68 185.088 1323.33 190.55 1323.93 191.157C1324.69 191.915 1326.21 193.053 1329.24 192.295C1332.28 191.536 1336.45 191.915 1334.17 196.087C1332.91 196.972 1330.91 199.349 1333.04 201.777C1335.16 204.204 1332.66 204.305 1331.14 204.052C1329.88 204.558 1328.03 205.873 1330.76 207.087C1334.17 208.604 1335.69 206.707 1335.69 210.5C1338.22 211.006 1342.9 213.079 1341.38 217.327C1344.16 215.304 1349.65 213.231 1349.35 221.12C1350.36 221.499 1352.61 221.879 1353.52 220.361C1354.66 218.465 1359.97 192.674 1360.72 191.157C1361.48 189.64 1356.55 189.64 1356.55 193.053C1356.55 195.784 1356.8 200.259 1356.93 202.156C1356.8 204.305 1355.95 207.162 1353.52 201.397C1351.09 195.632 1350.99 194.697 1351.24 194.95C1347.7 196.214 1340.77 199.729 1341.38 203.673C1342.14 208.604 1336.07 198.363 1338.73 196.467C1340.85 194.95 1345.43 190.272 1347.45 188.122C1345.68 186.353 1340.55 183.875 1334.17 188.122C1326.21 193.432 1334.17 180.916 1336.45 180.158C1338.73 179.399 1341.76 178.64 1342.14 179.02C1342.52 179.399 1343.66 169.917 1338.35 169.538C1333.04 169.158 1330.76 170.676 1340.24 164.986C1340.37 158.918 1343.66 149.739 1355.79 161.573C1359.71 156.263 1368.39 148.374 1371.72 159.297C1371.85 160.309 1372.79 161.952 1375.52 160.435C1378.93 158.539 1380.45 157.78 1383.86 157.78C1387.27 157.78 1378.93 164.228 1374.76 171.813C1374.38 172.446 1374.76 173.255 1379.31 171.434C1385 169.158 1390.69 166.883 1394.48 172.951C1397.51 177.806 1392.96 175.227 1390.31 173.331C1385.88 173.583 1378.1 175.075 1382.34 179.02C1386.26 179.02 1394.63 180.385 1396.76 185.847C1398.88 191.308 1393.85 187.87 1391.07 185.468C1389.42 187.237 1385.23 189.715 1381.58 185.468C1380.57 187.617 1380.14 192.37 1386.52 194.191C1392.89 196.012 1391.45 201.777 1389.93 204.432C1388.29 203.799 1385 201.928 1385 199.501C1385 197.074 1379.18 195.961 1376.27 195.708C1377.79 198.742 1380.37 205.797 1378.55 209.742C1376.73 213.686 1373.49 214.672 1372.1 214.672C1372.48 213.534 1373.09 210.652 1372.48 208.224C1371.88 205.797 1369.19 201.903 1367.93 200.259L1365.28 191.915C1364.64 189.892 1363.08 187.743 1361.86 195.329C1360.65 202.914 1357.31 215.936 1355.79 221.499C1357.18 222.131 1360.42 223.472 1362.24 223.775C1364.52 224.154 1363 226.051 1366.03 224.154C1369.07 222.258 1371.72 225.671 1372.1 228.706C1372.48 231.74 1381.58 230.223 1383.86 229.464C1386.14 228.706 1396.38 218.844 1397.14 217.706C1397.89 216.569 1400.17 214.293 1394.1 214.672C1388.03 215.051 1390.69 204.811 1400.17 207.845C1402.07 208.098 1405.93 207.314 1406.24 202.156C1406.62 195.708 1402.07 194.191 1407.76 187.364C1412.31 184.203 1419.29 178.64 1410.79 181.675C1410.79 181.295 1406.62 177.123 1414.2 175.985C1420.27 175.075 1420.02 169.791 1419.13 167.262C1419.89 164.733 1422.09 160.511 1424.82 163.848C1425.45 163.722 1426.42 162.407 1425.2 158.159C1423.99 153.911 1431.78 153.355 1435.82 153.608C1436.96 153.481 1438.86 152.773 1437.34 150.953C1435.82 149.132 1438.48 147.666 1439.99 147.16V395.969H1V118.714Z" stroke="#298270"/>
</svg>
