<svg width="1440" height="137" viewBox="0 0 1440 137" fill="none" xmlns="http://www.w3.org/2000/svg">
<path d="M1 13.0815C1.25285 12.1965 2.06199 10.3507 3.27569 10.0473C4.48939 9.74386 5.55138 10.6794 5.93066 11.1851C7.0685 11.1851 8.8132 10.5783 6.68922 8.15089C4.56525 5.72348 9.09134 3.0938 11.6199 2.08238C12.6313 1.82953 14.8058 1.85481 15.4127 3.97879C17.3091 2.20881 21.7088 -0.724309 24.1362 1.70309C26.5636 4.13049 28.9404 4.9902 29.8254 5.11663C32.8596 4.35806 39.3074 4.2822 40.8246 10.0473C42.3417 15.8124 45.7552 15.9894 47.2723 15.3572C47.5252 17.1272 48.7895 20.0603 51.8237 17.6329C54.858 15.2055 59.6622 18.6443 61.685 20.6672C63.0757 20.4143 66.464 20.743 68.8914 24.0807C71.3188 27.4184 73.1899 26.4828 73.822 25.5978C75.592 26.23 79.4354 28.7838 80.6491 33.942C82.7984 33.4363 87.552 33.2593 89.3726 36.597C91.6483 40.7691 102.268 33.942 104.165 28.6321C105.682 24.3841 108.337 28.8849 109.475 31.6663C111.497 29.7699 116.226 27.115 118.957 31.6663C120.221 29.7699 123.129 27.115 124.646 31.6663C126.163 36.2177 129.829 28.7585 131.473 24.46C133.369 23.4486 137.617 22.336 139.438 25.9771C140.449 26.3564 142.548 26.5081 142.851 24.0807C143.231 21.0465 143.989 16.1158 152.713 21.805C152.965 19.4029 154.837 14.978 160.298 16.4951C163.206 15.1044 170.16 13.5367 174.711 18.3915C180.4 24.46 185.331 25.9771 189.882 24.46C194.434 22.9429 210.743 24.46 213.398 21.805C216.053 19.15 221.742 10.4266 228.569 10.4266C229.707 9.79444 231.907 8.15088 231.603 6.63376C231.224 4.73735 238.051 2.84094 243.361 4.73735C248.671 6.63376 251.705 7.39232 252.843 14.5987C252.843 15.7365 260.429 11.9437 260.049 21.805C262.451 19.2765 268.09 15.9641 271.428 22.9429C274.083 21.6786 279.696 20.4396 280.91 25.5978C286.725 26.7357 298.281 31.2871 297.977 40.3898C297.674 49.4926 304.678 50.504 308.218 49.8718C310.241 49.1133 314.059 48.9616 313.149 54.4232C316.056 51.389 322.251 47.2927 323.769 55.1818C325.539 53.9175 329.154 52.3751 329.458 56.3196C330.596 56.8253 332.871 57.1541 332.871 54.4232C332.871 51.0097 336.285 44.9412 344.25 56.3196C352.215 67.6981 355.628 68.4566 355.249 75.2837C357.904 74.2723 362.91 73.9941 361.697 80.9729C366.88 80.8465 376.944 82.1866 375.73 88.5586C379.017 88.9378 385.06 90.9101 382.936 95.7649C386.476 94.6271 393.405 94.3236 392.798 102.213C395.326 102.213 400.232 103.351 399.625 107.902C399.018 112.453 399.372 110.051 399.625 108.281C403.291 108.408 410.396 109.495 409.486 112.833C408.576 116.17 413.911 113.212 416.693 111.315C418.462 110.178 421.927 108.888 421.623 112.833C421.75 114.097 423.064 115.563 427.312 111.315C431.56 107.067 449.311 110.557 457.655 112.833C458.919 108.155 463.723 100.468 472.826 107.143C479.148 100.569 493.687 86.3587 501.272 82.1108C502.031 78.4444 504.838 72.0219 509.996 75.663C514.294 72.2495 524.257 68.3049 529.718 79.8351C536.545 78.318 548.455 77.7111 541.476 87.4207C543.373 88.1793 546.786 91.3652 545.269 98.0406C543.752 104.716 549.947 102.592 553.234 100.696C554.245 99.937 556.496 99.1026 557.406 101.833C559.682 99.937 564.916 97.282 567.647 101.833C570.807 101.328 577.584 100.468 579.404 101.075C581.427 99.8106 586.08 96.3718 588.507 92.7307C590.934 89.0896 597.357 90.2021 600.265 91.2135C603.299 89.57 609.595 87.9517 610.505 94.6271C610.632 95.6385 611.34 96.9028 613.16 93.8685C615.436 90.0757 632.504 82.4901 662.088 91.2135C667.398 93.4892 679.459 99.3302 685.224 104.488C687.373 103.73 693.796 103.199 702.292 107.143C712.911 112.074 778.906 132.555 785.354 134.072C790.512 135.286 803.939 135.842 810.007 135.969H988.09C992.575 134.578 1008.75 132.631 1037.58 135.969H1122.54C1144.41 132.682 1191.49 124.59 1204.84 118.522C1221.53 110.936 1273.87 79.4558 1314.45 75.663C1355.03 71.8702 1359.21 70.3531 1380.83 70.3531C1390.69 69.8473 1411.02 68.7601 1413.44 68.4566C1416.48 68.0774 1422.55 66.181 1439.99 67.6981V135.969H1122.54H1037.58H988.09H810.007H1V13.0815Z" fill="#01362B"/>
<path d="M1 13.0815C1.25285 12.1965 2.06199 10.3507 3.27569 10.0473C4.48939 9.74386 5.55138 10.6794 5.93066 11.1851C7.0685 11.1851 8.8132 10.5783 6.68922 8.15089C4.56525 5.72348 9.09134 3.0938 11.6199 2.08238C12.6313 1.82953 14.8058 1.85481 15.4127 3.97879C17.3091 2.20881 21.7088 -0.724309 24.1362 1.70309C26.5636 4.13049 28.9404 4.9902 29.8254 5.11663C32.8596 4.35806 39.3074 4.2822 40.8246 10.0473C42.3417 15.8124 45.7552 15.9894 47.2723 15.3572C47.5252 17.1272 48.7895 20.0603 51.8237 17.6329C54.858 15.2055 59.6622 18.6443 61.685 20.6672C63.0757 20.4143 66.464 20.743 68.8914 24.0807C71.3188 27.4184 73.1899 26.4828 73.822 25.5978C75.592 26.23 79.4354 28.7838 80.6491 33.942C82.7984 33.4363 87.552 33.2593 89.3726 36.597C91.6483 40.7691 102.268 33.942 104.165 28.6321C105.682 24.3841 108.337 28.8849 109.475 31.6663C111.497 29.7699 116.226 27.115 118.957 31.6663C120.221 29.7699 123.129 27.115 124.646 31.6663C126.163 36.2177 129.829 28.7585 131.473 24.46C133.369 23.4486 137.617 22.336 139.438 25.9771C140.449 26.3564 142.548 26.5081 142.851 24.0807C143.231 21.0465 143.989 16.1158 152.713 21.805C152.965 19.4029 154.837 14.978 160.298 16.4951C163.206 15.1044 170.16 13.5367 174.711 18.3915C180.4 24.46 185.331 25.9771 189.882 24.46C194.434 22.9429 210.743 24.46 213.398 21.805C216.053 19.15 221.742 10.4266 228.569 10.4266C229.707 9.79444 231.907 8.15088 231.603 6.63376C231.224 4.73735 238.051 2.84094 243.361 4.73735C248.671 6.63376 251.705 7.39232 252.843 14.5987C252.843 15.7365 260.429 11.9437 260.049 21.805C262.451 19.2765 268.09 15.9641 271.428 22.9429C274.083 21.6786 279.696 20.4396 280.91 25.5978C286.725 26.7357 298.281 31.2871 297.977 40.3898C297.674 49.4926 304.678 50.504 308.218 49.8718C310.241 49.1133 314.059 48.9616 313.149 54.4232C316.056 51.389 322.251 47.2927 323.769 55.1818C325.539 53.9175 329.154 52.3751 329.458 56.3196C330.596 56.8253 332.871 57.1541 332.871 54.4232C332.871 51.0097 336.285 44.9412 344.25 56.3196C352.215 67.6981 355.628 68.4566 355.249 75.2837C357.904 74.2723 362.91 73.9942 361.697 80.9729C366.88 80.8465 376.944 82.1866 375.73 88.5586C379.017 88.9378 385.06 90.9101 382.936 95.7649C386.476 94.6271 393.405 94.3236 392.798 102.213C395.326 102.213 400.232 103.351 399.625 107.902C399.018 112.453 399.372 110.051 399.625 108.281C403.291 108.408 410.396 109.495 409.486 112.833C408.576 116.17 413.911 113.212 416.693 111.315C418.462 110.178 421.927 108.888 421.623 112.833C421.75 114.097 423.064 115.563 427.312 111.315C431.56 107.067 449.311 110.557 457.655 112.833C458.919 108.155 463.723 100.468 472.826 107.143C479.148 100.569 493.687 86.3587 501.272 82.1108C502.031 78.4444 504.838 72.0219 509.996 75.663C514.294 72.2495 524.257 68.3049 529.718 79.8351C536.545 78.318 548.455 77.7111 541.476 87.4207C543.373 88.1793 546.786 91.3652 545.269 98.0406C543.752 104.716 549.947 102.592 553.234 100.696C554.245 99.937 556.496 99.1026 557.406 101.833C559.682 99.937 564.916 97.282 567.647 101.833C570.807 101.328 577.584 100.468 579.404 101.075C581.427 99.8106 586.08 96.3718 588.507 92.7307C590.934 89.0896 597.357 90.2021 600.265 91.2135C603.299 89.57 609.595 87.9517 610.505 94.6271C610.632 95.6385 611.34 96.9028 613.16 93.8685C615.436 90.0757 632.504 82.4901 662.088 91.2135C667.398 93.4892 679.459 99.3302 685.224 104.488C687.373 103.73 693.796 103.199 702.291 107.143C712.911 112.074 778.906 132.555 785.354 134.072C790.512 135.286 803.939 135.842 810.007 135.969H988.09C992.575 134.578 1008.75 132.631 1037.58 135.969H1122.54C1144.41 132.682 1191.49 124.59 1204.84 118.522C1221.53 110.936 1273.87 79.4558 1314.45 75.663C1355.03 71.8702 1359.21 70.353 1380.83 70.353C1390.69 69.8473 1411.02 68.7601 1413.44 68.4566C1416.48 68.0774 1422.55 66.181 1439.99 67.6981V135.969H1V13.0815Z" stroke="#01362B"/>
</svg>
