<?xml version="1.0" encoding="utf-8"?>
<!-- Generator: Adobe Illustrator 28.0.0, SVG Export Plug-In . SVG Version: 6.00 Build 0)  -->
<svg version="1.1" id="Calque_1" xmlns="http://www.w3.org/2000/svg" xmlns:xlink="http://www.w3.org/1999/xlink" x="0px" y="0px"
	 viewBox="0 0 384.01 384" style="enable-background:new 0 0 384.01 384;" xml:space="preserve">
<style type="text/css">
	.st0{fill:#1D70FA;}
	.st1{fill:#FFFFFF;}
</style>
<g id="Calque_2_00000060020192458530178140000013155139526913778067_">
	<g>
		<path class="st0" d="M331.57,384H52.43C23.48,384,0,360.53,0,331.57V52.43C0,23.48,23.47,0,52.43,0h279.15
			c28.95,0,52.43,23.47,52.43,52.43v279.15C384,360.53,360.53,384,331.57,384z"/>
	</g>
</g>
<g id="Calque_3">
	<path class="st1" d="M72,264.85l0.3-148h81.96c0,0,36.26,6,34.21,33.45c0,0,3.32,23.87-19.66,33.32c0,0,27.57,8.04,26.43,37.91
		c-1.15,29.87-17.11,36.72-43.15,43.32L72,264.85L72,264.85z"/>
	<path class="st0" d="M104.34,239.4v-40.47h39.57c0,0,18.77,1.4,19.53,20.23c0,0,1.4,18.32-20.17,20.23L104.34,239.4L104.34,239.4z"
		/>
	<path class="st0" d="M104.34,142.26v33.96h36.77c0,0,17.62-1.66,16.72-16.98s-14.17-16.47-18.38-16.98L104.34,142.26L104.34,142.26
		z"/>
</g>
<g id="Calque_4">
	<path class="st1" d="M311.79,218.21c0,0,7.53-59.23-53.62-64.47c0,0-58.34-0.64-54,64.47s96.77,62.81,105.62,13.11l-26.02,0.04
		c0,0-7.09,14.94-24.96,14.04c-17.87-0.89-24.26-13.66-24.64-26.94L311.79,218.21z"/>
	<path class="st0" d="M234.68,199.57h46.98c0,0-1.79-21.83-23.49-23.36C258.17,176.21,236.85,176.6,234.68,199.57z"/>
	<rect x="227.91" y="126.3" class="st1" width="60.09" height="14.81"/>
</g>
</svg>
