<svg width="1440" height="2323" viewBox="0 0 1440 2323" fill="none" xmlns="http://www.w3.org/2000/svg">
<path d="M1440 777H0V1086.5H1440V777Z" fill="#171E26" stroke="#171E26"/>
<path d="M1047.5 777H622C468.5 783.5 493.5 811.5 497.5 820C501.5 828.5 538 849 610 848.5C682 848 728.5 854.5 775.5 881C822.5 907.5 800 920.5 750.5 924.5C710.9 927.7 674.334 936.5 661 940.5C595.5 953.5 554.5 989.5 661 1001.5C746.2 1011.1 854.167 1051.5 897.5 1070.5V1086H1163L1103.5 1027.5C1078.17 1022.5 1009.7 1007.9 938.5 989.5C867.3 971.1 908.834 961.5 938.5 959C1013.5 958.5 1180.2 954.5 1247 942.5C1330.5 927.5 1247.5 921.5 1233 913.5C1221.4 907.1 1008.17 889.167 903 881C866.5 878.5 799.4 871.5 823 863.5C846.6 855.5 982.5 837.5 1047.5 829.5V777Z" fill="#3E5774" stroke="#3E5774"/>
<path d="M1022 832.5C1072.4 826.1 1103.67 797.167 1113 783.5V777H1169C1177 786.333 1190.6 808.1 1181 820.5C1169 836 1033 843 964 852.5C895 862 891.5 868.5 896.5 873.5C901.5 878.5 1048.5 885 1153 883.5C1236.6 882.3 1296.17 898.333 1315.5 906.5C1329.5 920.667 1343.3 952.1 1286.5 964.5C1229.7 976.9 1246.83 1011.67 1262.5 1027.5L1244 1086H1193H911H837.5C817.333 1079 766.2 1063.7 723 1058.5C679.8 1053.3 647.667 1043 637 1038.5C545 1008.5 541 974.667 550.5 961.5C595.7 922.3 696.333 906.167 741 903C651 903 568.5 880 538.5 868.5C507.334 854.5 450.5 820.6 472.5 797C494.5 773.4 586.667 775.167 630 779C589.667 777.333 505.8 779 493 799C477 824 548 859.5 630 850C712 840.5 764.5 872 794 895.5C817.6 914.3 738.167 927.333 695.5 931.5C564 950 576.5 989.5 658 1000.5C723.2 1009.3 850.5 1051.5 906 1071.5L911 1086H1193V1044C1146.67 1035.83 1032.8 1014.3 948 993.5C842 967.5 945.5 954.5 1005.5 959C1065.5 963.5 1164.5 951 1232.5 945.5C1300.23 940.022 1286.61 931.567 1272.17 922.606L1272 922.5C1257.5 913.5 1038 885 867 877.5C696 870 959 840.5 1022 832.5Z" fill="#10151B" stroke="#10151B"/>
<rect x="0.62207" y="100.669" width="1439.38" height="676.315" transform="rotate(0.052997 0.62207 100.669)" fill="url(#paint0_linear_208_81)"/>
<path d="M1412.5 497.5C1411.3 467.1 1406 432.5 1403.5 419H1440V771C1432.17 773.167 1409.5 776.7 1381.5 773.5C1346.5 769.5 1329.5 730 1338 704C1344.8 683.2 1377.83 650.333 1393.5 636.5C1399.83 629.333 1412.5 612 1412.5 600C1412.5 588 1417.83 575.667 1420.5 571C1412 559 1414 535.5 1412.5 497.5Z" fill="#1B2D23" stroke="#1B2D23"/>
<path d="M168 401.5L0 370.5V102.5H1440V237C1375.33 235.667 1248.5 236.8 1258.5 252C1271 271 1268.5 265.5 1264.5 276C1260.5 286.5 1253.5 318 1255 335.5C1256.5 353 1248.5 396.5 1239 375C1229.5 353.5 1229.5 312.5 1227.5 300.5C1225.5 288.5 1221 280.5 1206 272.5C1194 266.1 1183.67 307.167 1180 328.5C1183.67 346.333 1187.9 397.4 1175.5 459C1160 536 1139 410 1133 366C1128.2 330.8 1111.33 284.333 1103.5 265.5C1092.5 251.167 1070.6 232.5 1071 272.5C1071.4 312.5 1067.5 365.5 1065.5 387C1063.5 414.5 1052.5 426 1043 394C1035.4 368.4 1031.5 296 1030.5 263C1023.17 236.667 1004.2 184.9 987 188.5C969.8 192.1 968.5 202.333 970 207C974.5 233.5 980.8 297 970 339C959.2 381 950.167 337.167 947 310C942.2 290.4 940.333 270.5 940 263C929.2 258.2 928.167 251.667 929 249C931.667 235.667 933.5 209.1 919.5 209.5C905.5 209.9 902.667 198 903 192C902 198.167 896.4 203.6 882 176C867.6 148.4 863 169.833 862.5 184C850.9 229.2 833.667 192.167 826.5 168C804.9 124.4 791.5 181.167 787.5 215C776.3 252.6 766.5 210 763 184C743 123.6 725.333 178.167 719 213C718.833 223.833 716.9 251.3 710.5 274.5C702.5 303.5 687.5 305.5 671.5 232.5C658.7 174.1 640.833 153.167 633.5 150C624.5 147.5 605.8 154.6 603 203C600.2 251.4 589.5 251.5 584.5 245.5C568.1 224.3 571.667 200.333 575.5 191C539 88.5 514.5 174.5 511.5 272C508.5 369.5 502 409 502 415C501 427.5 492 458.5 471.5 415C455.1 380.2 445.333 305.167 442.5 272C424.1 218 411.167 246.167 407 267C403.5 356.5 398 425 392 441.5C387.2 454.7 382 449.333 380 445C366.8 388.2 357.5 306 354.5 272C332 289.167 287.1 333.8 287.5 375C287.9 416.2 285.333 472.167 284 495C269.6 548.6 262.333 516 260.5 493C262 471 262.8 424.6 254 415C245.2 405.4 243.667 395.667 244 392C246.5 347.5 243.5 330.5 227.5 333.5C211.5 336.5 212.5 335 209.5 392C207.1 437.6 195.833 453 190.5 455C177.3 448.2 170 416.5 168 401.5Z" fill="#1B2D23" stroke="#1B2D23"/>
<path d="M188 227C168.5 188.5 140.5 214 140.5 233.5C142.9 255.5 129.167 258.167 125 262C121.5 265.5 108.4 282.5 102 294.5C95.6 306.5 62.5 415.667 45 469C31.43 515.697 11.7536 486.463 0.0772435 469.115L0 469V820L257.5 964C268.667 997.833 297.8 1032.4 325 900C359 734.5 274 683.5 242 640.5C216.4 606.1 193.667 565.5 188 549.5C154.5 399 205 299.5 209.5 294.5C213.1 290.5 221.5 280.5 220 279.5C198 269 189.333 239 188 227Z" fill="#1D212A" stroke="#1D212A"/>
<path d="M0.5 475V382V93H1440V480C1433.85 474.235 1434.29 450.776 1435.37 438.45C1434.01 451.123 1427.56 469.137 1411 449.5C1393.8 429.1 1390.83 404.667 1391.5 395C1386.83 384.833 1376.1 360.1 1370.5 342.5C1364.9 324.9 1362.5 325.5 1362 328C1362.5 328.333 1361.2 333.7 1352 352.5C1340.5 376 1328 399.5 1310.5 384C1296.5 371.6 1291.33 346.833 1290.5 336L1275 243.5C1271.33 248.667 1259.5 260.4 1241.5 266C1219 273 1217.5 285.5 1217 286.5C1211.5 315.5 1195 349.5 1185.5 358C1177.9 364.8 1173.33 357.167 1172 352.5V341.5C1161 292.667 1135.5 197.7 1121.5 208.5C1107.5 219.3 1105.67 226.333 1106.5 228.5C1105.17 240.833 1098.8 269.9 1084 287.5C1069.2 305.1 1063.5 294.167 1062.5 286.5C1067.83 267.333 1071.8 232.5 1045 246.5C1018.2 260.5 1004.17 253 1000.5 247.5C999.667 224 995 175.3 983 168.5C968 160 955.5 187 946 204C938.4 217.6 926.167 197 921 185C922.5 193 921.6 207.2 906 200C890.4 192.8 887.5 177 888 170L890.5 104.5H617.5C613.667 135.833 605.4 199.8 603 205C600 211.5 584 218.5 572 208C560 197.5 557 181 551 171.5C546.2 163.9 536 167 531.5 169.5C532.167 187.167 529.8 230.6 515 263C500.2 295.4 486.833 292.5 482 287C466.4 270.6 449.167 234.5 442.5 218.5C441.5 215.167 436.2 205.2 423 192C406.5 175.5 395.5 189 381.5 196C367.5 203 321 375.5 321.5 384C322 392.5 296 428 285 370C274 312 247 287.5 238 287C230.8 286.6 222 281.167 218.5 278.5C184 252 193 226.5 181 214C169 201.5 142 211.5 111 234C80 256.5 88.5 367 74 414C62.4 451.6 48.8333 480.333 43.5 490C28.3 520.4 8.5 492.667 0.5 475Z" fill="#10151B" stroke="#10151B"/>
<path d="M0 315.5V406.5C4.5 410.833 15.2 421.8 22 431C30.5 442.5 56 456.5 66 437C74 421.4 86.6667 374.167 92 352.5C93.2 324.9 116.5 290.333 128 276.5C145 267 140.5 246.5 142 232.5C143.2 221.3 149.167 213.833 152 211.5C143.2 203.1 136.667 180.667 134.5 170.5C136.5 130.9 160.667 141.333 172.5 151.5C185.5 177 186 187.5 196.5 208.5C207 229.5 221 234 247 230C267.8 226.8 275.333 245.333 276.5 255C279.7 301.8 307.5 362.5 321 387C342.2 336.2 354.167 291.5 357.5 275.5L349 151.5C354.667 151.5 366.7 152.1 369.5 154.5C373 157.5 405 170.5 433.5 170.5C456.3 170.5 467.667 187.833 470.5 196.5C471.7 228.1 500.333 254.333 514.5 263.5C523.3 251.9 526.5 239 527 234L525 230C519.667 205.667 513.7 155.9 532.5 151.5C551.3 147.1 556.667 153.333 557 157C569.4 180.6 592.5 199.5 602.5 206C614.9 192.8 617.667 176.833 617.5 170.5L625 108H667.5L784 112H873C875.333 122.167 879.9 144.5 879.5 152.5C879.1 160.5 885.667 174.167 889 180C895.667 172 909.3 158.1 910.5 166.5C911.7 174.9 923 191.667 928.5 199C938 189.833 957.7 168.6 960.5 157C963.3 145.4 978 146.5 985 148.5C986 166 987.9 201.9 987.5 205.5C987.1 209.1 996 235 1000.5 247.5C1011.67 239.667 1034.7 219 1037.5 199C1040.3 179 1052 169.333 1057.5 167C1071.1 167.4 1087.83 164.5 1094.5 163C1108.1 151 1133.17 148 1144 148L1157 142.5C1149.67 167.167 1135.1 223.3 1135.5 250.5C1135.9 277.7 1159.67 329.833 1171.5 352.5C1192.5 310.5 1206 249 1207 230C1207.8 214.8 1220.67 213.667 1227 215C1234.83 219 1254.2 223.3 1269 208.5C1283.8 193.7 1290.5 164.667 1292 152C1305.2 129.6 1322.5 141.333 1329.5 150C1334.7 172 1319.67 192.5 1311.5 200C1321.1 204 1323.83 213.333 1324 217.5C1325 236 1327 244 1329 249C1330.6 253 1335 255.667 1337 256.5C1331.17 268.167 1316 289.6 1302 282C1288 274.4 1279.83 243.5 1277.5 229C1267 251.5 1266 304.5 1288 333.5C1305.6 356.7 1338.33 311.833 1352.5 286.5C1361.7 302.9 1368.33 328.333 1370.5 339C1369.5 349.833 1372.2 376.1 1391 394.5C1409.8 412.9 1431.5 386.833 1440 371.5V96H1250.5L1076 106L918.5 112L805.5 90L620.5 94L562 112L380.5 116.5L265.5 119.5L134.5 86L42.5 136L0 315.5Z" fill="#171E26"/>
<path d="M1091.5 177.5C1063.9 196.7 1048.33 231.833 1044 247C1048 264.6 1058 280.667 1062.5 286.5C1074.1 270.1 1086.67 223.667 1091.5 202.5C1100.7 173.7 1095.33 173.833 1091.5 177.5Z" fill="#171E26"/>
<path d="M0 315.5V406.5C4.5 410.833 15.2 421.8 22 431C30.5 442.5 56 456.5 66 437C74 421.4 86.6667 374.167 92 352.5C93.2 324.9 116.5 290.333 128 276.5C145 267 140.5 246.5 142 232.5C143.2 221.3 149.167 213.833 152 211.5C143.2 203.1 136.667 180.667 134.5 170.5C136.5 130.9 160.667 141.333 172.5 151.5C185.5 177 186 187.5 196.5 208.5C207 229.5 221 234 247 230C267.8 226.8 275.333 245.333 276.5 255C279.7 301.8 307.5 362.5 321 387C342.2 336.2 354.167 291.5 357.5 275.5L349 151.5C354.667 151.5 366.7 152.1 369.5 154.5C373 157.5 405 170.5 433.5 170.5C456.3 170.5 467.667 187.833 470.5 196.5C471.7 228.1 500.333 254.333 514.5 263.5C523.3 251.9 526.5 239 527 234L525 230C519.667 205.667 513.7 155.9 532.5 151.5C551.3 147.1 556.667 153.333 557 157C569.4 180.6 592.5 199.5 602.5 206C614.9 192.8 617.667 176.833 617.5 170.5L625 108H667.5L784 112H873C875.333 122.167 879.9 144.5 879.5 152.5C879.1 160.5 885.667 174.167 889 180C895.667 172 909.3 158.1 910.5 166.5C911.7 174.9 923 191.667 928.5 199C938 189.833 957.7 168.6 960.5 157C963.3 145.4 978 146.5 985 148.5C986 166 987.9 201.9 987.5 205.5C987.1 209.1 996 235 1000.5 247.5C1011.67 239.667 1034.7 219 1037.5 199C1040.3 179 1052 169.333 1057.5 167C1071.1 167.4 1087.83 164.5 1094.5 163C1108.1 151 1133.17 148 1144 148L1157 142.5C1149.67 167.167 1135.1 223.3 1135.5 250.5C1135.9 277.7 1159.67 329.833 1171.5 352.5C1192.5 310.5 1206 249 1207 230C1207.8 214.8 1220.67 213.667 1227 215C1234.83 219 1254.2 223.3 1269 208.5C1283.8 193.7 1290.5 164.667 1292 152C1305.2 129.6 1322.5 141.333 1329.5 150C1334.7 172 1319.67 192.5 1311.5 200C1321.1 204 1323.83 213.333 1324 217.5C1325 236 1327 244 1329 249C1330.6 253 1335 255.667 1337 256.5C1331.17 268.167 1316 289.6 1302 282C1288 274.4 1279.83 243.5 1277.5 229C1267 251.5 1266 304.5 1288 333.5C1305.6 356.7 1338.33 311.833 1352.5 286.5C1361.7 302.9 1368.33 328.333 1370.5 339C1369.5 349.833 1372.2 376.1 1391 394.5C1409.8 412.9 1431.5 386.833 1440 371.5V96H1250.5L1076 106L918.5 112L805.5 90L620.5 94L562 112L380.5 116.5L265.5 119.5L134.5 86L42.5 136L0 315.5Z" stroke="#171E26"/>
<path d="M1091.5 177.5C1063.9 196.7 1048.33 231.833 1044 247C1048 264.6 1058 280.667 1062.5 286.5C1074.1 270.1 1086.67 223.667 1091.5 202.5C1100.7 173.7 1095.33 173.833 1091.5 177.5Z" stroke="#171E26"/>
<path d="M0 339V100H1440V317.5C1433 331 1397 377.5 1387.5 314.5C1379.9 264.1 1359.33 235.167 1350 227C1336 195.8 1364.83 187 1381 186.5C1404.2 156.9 1388.67 134.5 1378 127C1303.6 103.4 1264.67 117.167 1254.5 127C1255.17 131.667 1254.9 144.1 1248.5 156.5C1242.1 168.9 1231.83 173.333 1227.5 174C1154 200 1155.5 236.5 1147 249C1140.2 259 1137.17 256.833 1136.5 254.5C1127 208 1114.5 194 1109 186.5C1103.5 179 1090.5 172 1125 159.5C1159.5 147 1138.5 130.5 1114.5 139C1095.3 145.8 1064.17 147.833 1051 148C1015 183 1001.5 212.5 997.5 218C994.3 222.4 991.833 220.5 991 219C983.4 207 982.5 165.667 983 146.5C972.2 128.1 958.167 133.833 952.5 139C933.7 159 916.667 166 910.5 167C905.3 161.8 900 141.167 898 131.5C892.8 134.3 883.833 147.333 880 153.5C876 148 878.5 138.5 874 128C869.5 117.5 858.5 119 855.5 132.5C853.1 143.3 848.167 149 846 150.5C844.667 148.333 838.1 141.3 822.5 130.5C803 117 798 130.5 795.5 136.5C793.5 141.3 784.333 146.833 780 149C771.5 145 767.5 134.5 754.5 123C741.5 111.5 727.5 122.5 726 128C724.8 132.4 713.833 143.833 708.5 149C695.7 145 677.167 127.667 669.5 119.5C658.667 114.167 636.4 108.4 634 128C631.6 147.6 621.667 167.167 617 174.5C597 164.1 578.667 147.5 572 140.5C548 131 529 141.5 534.5 164.5C538.9 182.9 531.333 219.167 527 235C497.5 206.5 500 196.5 482.5 174.5C465 152.5 460 150.5 432.5 150C410.5 149.6 385.667 141.5 376 137.5C364.833 136 344.1 136.2 350.5 149C358.5 165 375 169 386.5 172C395.7 174.4 396.667 183.333 396 187.5C374 206.3 361.5 254 358 275.5C349.6 274.3 345.5 268.333 344.5 265.5C339 246.667 318.2 205.8 279 193C230 177 228 162.5 228.5 147C228.9 134.6 227 127.833 226 126C174.8 83.6 106.333 108.333 78.5 126C61.6667 143.833 38.8 183.2 82 198C136 216.5 101.5 254 92.5 262.5C85.3 269.3 68.5 331 61 361C43.8 405.8 13.1667 365 0 339Z" fill="#1D212A" stroke="#1D212A"/>
<rect width="1440" height="100" fill="url(#paint1_linear_208_81)"/>
<path d="M988 828.5C992 838.1 1010.33 830.167 1019 825C1017.5 834 1031 836 1042.5 832C1054 828 1054 830 1064.5 832C1072.9 833.6 1081.33 832.667 1084.5 832C1083.3 824.8 1088.33 823.333 1091 823.5C1120.5 834 1148 825 1153.5 825C1184 830 1193.5 821.5 1193.5 820C1193.5 818.5 1198 815 1199 819.5C1200 824 1216 826 1219.5 822C1222.3 818.8 1224.67 820.333 1225.5 821.5C1224.5 823.5 1229 833.5 1241 830C1250.6 827.2 1254 819.5 1254.5 816C1262.17 817.167 1281.7 818.8 1298.5 816C1315.3 813.2 1345.83 814.833 1359 816C1357.5 817.833 1356.6 822.8 1365 828C1373.4 833.2 1385.17 825.833 1390 821.5C1398 824.7 1426.67 822.833 1440 821.5V754.5C1433 755 1415 755.5 1418 728C1421 700.5 1411 674.5 1411 673C1399 644.6 1394.33 663.833 1393.5 677C1396.17 684.667 1399.6 706.1 1392 730.5C1382.5 761 1364.5 763.5 1365 762C1365.5 760.5 1361.5 760 1361.5 737.5C1361.5 715 1349.5 707.5 1340 700C1330.5 692.5 1322 676.5 1322 668.5C1322 662.1 1318.67 649.167 1317 643.5C1307.8 604.3 1295.83 618.5 1291 630.5C1286.67 640.5 1275.2 661.1 1264 663.5C1252.8 665.9 1249 681.5 1248.5 689C1250.17 692 1250.2 702.5 1237 720.5C1223.8 738.5 1212.5 731.667 1208.5 726C1206 713.5 1191.5 695 1185 685C1178.5 675 1171.5 650 1166.5 603C1162.5 565.4 1151.83 573 1147 581.5C1135.5 604 1136 643.5 1133 660.5C1130.6 674.1 1122 678.833 1118 679.5C1100 684 1096.5 695 1093 707.5C1090.2 717.5 1083.5 721.667 1080.5 722.5C1054.9 728.1 1047.17 752.833 1046.5 764.5C1040.33 765 1024.7 767.1 1011.5 771.5C995 777 998.5 787.5 999 792C999.4 795.6 1003.5 801.167 1005.5 803.5C1005 804.667 1000.8 808.2 988 813C975.2 817.8 982.667 825.333 988 828.5Z" fill="#2D2F34" stroke="#2D2F34"/>
<path d="M1111.5 714.5C1083.9 739.7 1094.67 773 1103.5 786.5C1116.7 777.7 1145.33 784.833 1155 789.5C1169 781.5 1186.5 786.167 1193.5 789.5L1220 783L1235.5 793C1241.17 802 1258.1 818.9 1280.5 814.5C1302.9 810.1 1336.17 812.667 1350 814.5L1395 810C1415.4 822.8 1433.5 815.333 1440 810V780C1433.5 778 1413.5 789 1400 796.5C1386.5 804 1384 804 1383.5 799C1383 794 1380.5 778.5 1365.5 787.5C1350.5 796.5 1354 794 1339 801C1324 808 1315 797 1329 794C1340.2 791.6 1348.33 784.667 1351 781.5C1351.8 770.7 1362.67 770.667 1368 772C1375.83 770.5 1393.2 762.5 1400 742.5C1406.8 722.5 1398 690.5 1393.5 677C1397.5 718.5 1390.5 727 1390.5 732C1387.5 748 1362.5 765 1362.5 759.5C1362.5 744.651 1362 730 1360 726C1349.2 730 1339 724.833 1335.5 721.5C1312.5 701.5 1310.5 749 1310.5 761.5C1310.5 774 1292 795 1286 778.5C1280 762 1287.5 755 1292 744C1295.6 735.2 1296.83 725.333 1297 721.5C1298.2 701.1 1288.17 701.333 1283 704C1264.5 720.833 1226.3 754.9 1221.5 756.5C1215.5 758.5 1199 747 1195.5 733C1192 719 1177.5 718 1170 721.5C1162.5 725 1162.5 745.5 1162.5 760C1162.5 774.5 1156.5 788.5 1144.5 773.5C1132.5 758.5 1140.5 730.5 1149 724C1155.8 718.8 1160.83 700.167 1162.5 691.5C1166.1 655.9 1152 642.667 1144.5 640.5C1143 645.667 1140.1 661.7 1140.5 684.5C1140.9 707.3 1119.33 714 1111.5 714.5Z" fill="#171E26"/>
<path d="M1084 803.5C1066.8 779.1 1032.83 784 1018 789.5C1019.6 802.3 1029.33 809.167 1034 811C1044.4 804.2 1070 808.167 1081.5 811C1083.9 807.8 1084.17 804.667 1084 803.5Z" fill="#171E26"/>
<path d="M990.5 820.5C994.833 815.667 1006.8 808.5 1020 818.5C1014.17 824.833 1000.1 834.1 990.5 820.5Z" fill="#171E26"/>
<path d="M1066.5 826.5C1054.5 822.5 1032.17 824.833 1022.5 826.5C1019.3 824.5 1021.17 821.667 1022.5 820.5C1042 812 1071 820.5 1079.5 822.5C1086.3 824.1 1085.33 827.5 1084 829C1083.17 829.833 1078.5 830.5 1066.5 826.5Z" fill="#171E26"/>
<path d="M1101.5 801C1098.3 799 1090.83 801.667 1089.5 802.5C1088.5 803.333 1091.1 805 1093.5 811C1096.5 818.5 1127.5 822.5 1129.5 819C1131.5 815.5 1143 812.5 1149 811C1155 809.5 1155 805.5 1149 801C1144.2 797.4 1139 801.167 1137 803.5C1132 806.833 1123.1 811.5 1127.5 803.5C1131.9 795.5 1126.67 795.167 1123.5 796C1117.5 798.5 1104.7 803 1101.5 801Z" fill="#171E26"/>
<path d="M1193.5 802.5C1189.9 796.1 1171.5 796.667 1164 798.5C1157.6 804.5 1167.83 809.5 1172.5 810.5C1181 810.5 1197.1 808.9 1193.5 802.5Z" fill="#171E26"/>
<path d="M1231.5 801C1215.03 794.6 1203.47 804.167 1201.5 809.5C1203.9 819.9 1222 817 1229 814.5C1236.7 812.667 1247.97 807.4 1231.5 801Z" fill="#171E26"/>
<path d="M1365.5 822.5C1366.5 821.5 1375 811 1386.5 821C1381.83 824.45 1371.1 829.58 1365.5 822.5Z" fill="#171E26"/>
<path d="M1111.5 714.5C1083.9 739.7 1094.67 773 1103.5 786.5C1116.7 777.7 1145.33 784.833 1155 789.5C1169 781.5 1186.5 786.167 1193.5 789.5L1220 783L1235.5 793C1241.17 802 1258.1 818.9 1280.5 814.5C1302.9 810.1 1336.17 812.667 1350 814.5L1395 810C1415.4 822.8 1433.5 815.333 1440 810V780C1433.5 778 1413.5 789 1400 796.5C1386.5 804 1384 804 1383.5 799C1383 794 1380.5 778.5 1365.5 787.5C1350.5 796.5 1354 794 1339 801C1324 808 1315 797 1329 794C1340.2 791.6 1348.33 784.667 1351 781.5C1351.8 770.7 1362.67 770.667 1368 772C1375.83 770.5 1393.2 762.5 1400 742.5C1406.8 722.5 1398 690.5 1393.5 677C1397.5 718.5 1390.5 727 1390.5 732C1387.5 748 1362.5 765 1362.5 759.5C1362.5 744.651 1362 730 1360 726C1349.2 730 1339 724.833 1335.5 721.5C1312.5 701.5 1310.5 749 1310.5 761.5C1310.5 774 1292 795 1286 778.5C1280 762 1287.5 755 1292 744C1295.6 735.2 1296.83 725.333 1297 721.5C1298.2 701.1 1288.17 701.333 1283 704C1264.5 720.833 1226.3 754.9 1221.5 756.5C1215.5 758.5 1199 747 1195.5 733C1192 719 1177.5 718 1170 721.5C1162.5 725 1162.5 745.5 1162.5 760C1162.5 774.5 1156.5 788.5 1144.5 773.5C1132.5 758.5 1140.5 730.5 1149 724C1155.8 718.8 1160.83 700.167 1162.5 691.5C1166.1 655.9 1152 642.667 1144.5 640.5C1143 645.667 1140.1 661.7 1140.5 684.5C1140.9 707.3 1119.33 714 1111.5 714.5Z" stroke="#171E26"/>
<path d="M1084 803.5C1066.8 779.1 1032.83 784 1018 789.5C1019.6 802.3 1029.33 809.167 1034 811C1044.4 804.2 1070 808.167 1081.5 811C1083.9 807.8 1084.17 804.667 1084 803.5Z" stroke="#171E26"/>
<path d="M990.5 820.5C994.833 815.667 1006.8 808.5 1020 818.5C1014.17 824.833 1000.1 834.1 990.5 820.5Z" stroke="#171E26"/>
<path d="M1066.5 826.5C1054.5 822.5 1032.17 824.833 1022.5 826.5C1019.3 824.5 1021.17 821.667 1022.5 820.5C1042 812 1071 820.5 1079.5 822.5C1086.3 824.1 1085.33 827.5 1084 829C1083.17 829.833 1078.5 830.5 1066.5 826.5Z" stroke="#171E26"/>
<path d="M1101.5 801C1098.3 799 1090.83 801.667 1089.5 802.5C1088.5 803.333 1091.1 805 1093.5 811C1096.5 818.5 1127.5 822.5 1129.5 819C1131.5 815.5 1143 812.5 1149 811C1155 809.5 1155 805.5 1149 801C1144.2 797.4 1139 801.167 1137 803.5C1132 806.833 1123.1 811.5 1127.5 803.5C1131.9 795.5 1126.67 795.167 1123.5 796C1117.5 798.5 1104.7 803 1101.5 801Z" stroke="#171E26"/>
<path d="M1193.5 802.5C1189.9 796.1 1171.5 796.667 1164 798.5C1157.6 804.5 1167.83 809.5 1172.5 810.5C1181 810.5 1197.1 808.9 1193.5 802.5Z" stroke="#171E26"/>
<path d="M1231.5 801C1215.03 794.6 1203.47 804.167 1201.5 809.5C1203.9 819.9 1222 817 1229 814.5C1236.7 812.667 1247.97 807.4 1231.5 801Z" stroke="#171E26"/>
<path d="M1365.5 822.5C1366.5 821.5 1375 811 1386.5 821C1381.83 824.45 1371.1 829.58 1365.5 822.5Z" stroke="#171E26"/>
<path d="M1003 775.5C1003 775.5 996 776.5 999 794C1001.5 800.167 1010.3 812.4 1023.5 816C1036.7 819.6 1034.67 814.5 1032 811.5C1026.5 807 1015.8 794.5 1017 780.5C1018.03 768.5 1010.5 771 1003 775.5Z" fill="#10151B"/>
<path d="M991 819.5C977 809.5 983.5 823 983.5 824.5C984.201 827 989 832.5 1000.5 832C1012 831.5 1007 827.5 1000.5 827.5C995.3 827.5 992 822.167 991 819.5Z" fill="#10151B"/>
<path d="M1058.5 824.5C1038.9 818.5 1025.33 825.333 1021 829.5C1024.67 831.833 1034.1 835.6 1042.5 832C1050.9 828.4 1063 830.5 1068 832C1082.4 832 1083.33 830.333 1082 829.5C1082.33 830.333 1078.1 830.5 1058.5 824.5Z" fill="#10151B"/>
<path d="M1082 785.5C1075.6 764.7 1054.67 763.833 1045 766C1045.67 753.333 1051.3 727.7 1068.5 726.5C1085.7 725.3 1090 715 1090 710C1091 700.5 1097 681.4 1113 681C1129 680.6 1131.67 664.167 1131 656C1133 619.2 1139.83 596 1143 589C1159.8 565.4 1158.33 579.167 1155.5 589C1142 617 1140.5 690.5 1140.5 694C1140.5 697.5 1135 709.5 1122 712.5C1111.6 714.9 1107.33 718.833 1106.5 720.5C1091.5 737 1101 780.5 1104.5 780.5C1108 780.5 1114 787.5 1106.5 789C1100.5 790.2 1097.67 794.167 1097 796C1089.4 802 1083.83 791.5 1082 785.5Z" fill="#10151B"/>
<path d="M1140.5 811.5C1108.9 829.5 1093.67 814 1090 804C1086.17 799 1079.2 793.5 1082 811.5C1084.8 829.5 1125.17 827.667 1145 824.5C1150.17 820.167 1161.8 813.5 1167 821.5C1172.2 829.5 1184.83 824.833 1190.5 821.5C1192.17 818.167 1196.3 812.8 1199.5 818C1203.5 824.5 1214 824.5 1218 821.5C1221.2 819.1 1225 820.5 1226.5 821.5C1230.9 829.5 1237 828.833 1239.5 827.5C1247.5 829.9 1246.17 826.5 1244.5 824.5C1240.17 824.5 1231.5 823.5 1231.5 819.5C1231.5 814.5 1231 813.5 1218 816C1205 818.5 1201.5 809.5 1199 804C1197 799.6 1194.5 802.167 1193.5 804C1190.83 807.333 1183.2 813.1 1174 809.5C1164.8 805.9 1147.83 809.333 1140.5 811.5Z" fill="#10151B"/>
<path d="M1220 762.5C1220 759 1215.5 734.5 1220 730.5C1224.5 726.5 1244.5 717 1247.5 702C1250.5 687 1248.5 671 1267.5 661C1282.7 653 1290.17 635.667 1292 628C1297.83 619.667 1309.4 608 1309 628C1305 635.667 1295.2 652 1288 656C1279 661 1288 683.5 1288 686C1288 688.5 1294.5 702.5 1275.5 720.5C1256.5 738.5 1244.5 756.5 1244.5 789C1244.96 790.708 1245.27 792.713 1245.18 794.523C1258.97 787.928 1294.12 790.297 1309 791.5C1322.6 781.5 1328 765 1329 758C1345 743.2 1361.5 746.5 1363.5 757C1366 762.5 1366.1 766.9 1358.5 762.5C1350.9 758.1 1344.67 760.667 1342.5 762.5C1336.5 788.1 1320.33 795.5 1313 796C1299.33 796 1271.5 797.6 1269.5 804C1267 812 1270 811.5 1257 816C1247.78 819.191 1241.81 807.299 1241.39 799.68C1239.27 799.92 1236.11 798.946 1231.5 796C1228.33 789.333 1218.2 780 1203 796C1195.17 795.833 1184.2 791.2 1203 774C1204.83 773.333 1210.8 770.1 1220 762.5Z" fill="#10151B"/>
<path d="M1391.5 819.5C1389.9 815.5 1383.17 812.167 1380 811C1383 800.5 1393.5 808 1395 811C1396.5 814 1420 818.5 1425.5 814C1429.9 810.4 1437 809.833 1440 810V820C1424.5 821.5 1393.1 823.5 1391.5 819.5Z" fill="#10151B"/>
<path d="M1003 775.5C1003 775.5 996 776.5 999 794C1001.5 800.167 1010.3 812.4 1023.5 816C1036.7 819.6 1034.67 814.5 1032 811.5C1026.5 807 1015.8 794.5 1017 780.5C1018.03 768.5 1010.5 771 1003 775.5Z" stroke="#10151B"/>
<path d="M991 819.5C977 809.5 983.5 823 983.5 824.5C984.201 827 989 832.5 1000.5 832C1012 831.5 1007 827.5 1000.5 827.5C995.3 827.5 992 822.167 991 819.5Z" stroke="#10151B"/>
<path d="M1058.5 824.5C1038.9 818.5 1025.33 825.333 1021 829.5C1024.67 831.833 1034.1 835.6 1042.5 832C1050.9 828.4 1063 830.5 1068 832C1082.4 832 1083.33 830.333 1082 829.5C1082.33 830.333 1078.1 830.5 1058.5 824.5Z" stroke="#10151B"/>
<path d="M1082 785.5C1075.6 764.7 1054.67 763.833 1045 766C1045.67 753.333 1051.3 727.7 1068.5 726.5C1085.7 725.3 1090 715 1090 710C1091 700.5 1097 681.4 1113 681C1129 680.6 1131.67 664.167 1131 656C1133 619.2 1139.83 596 1143 589C1159.8 565.4 1158.33 579.167 1155.5 589C1142 617 1140.5 690.5 1140.5 694C1140.5 697.5 1135 709.5 1122 712.5C1111.6 714.9 1107.33 718.833 1106.5 720.5C1091.5 737 1101 780.5 1104.5 780.5C1108 780.5 1114 787.5 1106.5 789C1100.5 790.2 1097.67 794.167 1097 796C1089.4 802 1083.83 791.5 1082 785.5Z" stroke="#10151B"/>
<path d="M1140.5 811.5C1108.9 829.5 1093.67 814 1090 804C1086.17 799 1079.2 793.5 1082 811.5C1084.8 829.5 1125.17 827.667 1145 824.5C1150.17 820.167 1161.8 813.5 1167 821.5C1172.2 829.5 1184.83 824.833 1190.5 821.5C1192.17 818.167 1196.3 812.8 1199.5 818C1203.5 824.5 1214 824.5 1218 821.5C1221.2 819.1 1225 820.5 1226.5 821.5C1230.9 829.5 1237 828.833 1239.5 827.5C1247.5 829.9 1246.17 826.5 1244.5 824.5C1240.17 824.5 1231.5 823.5 1231.5 819.5C1231.5 814.5 1231 813.5 1218 816C1205 818.5 1201.5 809.5 1199 804C1197 799.6 1194.5 802.167 1193.5 804C1190.83 807.333 1183.2 813.1 1174 809.5C1164.8 805.9 1147.83 809.333 1140.5 811.5Z" stroke="#10151B"/>
<path d="M1220 762.5C1220 759 1215.5 734.5 1220 730.5C1224.5 726.5 1244.5 717 1247.5 702C1250.5 687 1248.5 671 1267.5 661C1282.7 653 1290.17 635.667 1292 628C1297.83 619.667 1309.4 608 1309 628C1305 635.667 1295.2 652 1288 656C1279 661 1288 683.5 1288 686C1288 688.5 1294.5 702.5 1275.5 720.5C1256.5 738.5 1244.5 756.5 1244.5 789C1244.96 790.708 1245.27 792.713 1245.18 794.523C1258.97 787.928 1294.12 790.297 1309 791.5C1322.6 781.5 1328 765 1329 758C1345 743.2 1361.5 746.5 1363.5 757C1366 762.5 1366.1 766.9 1358.5 762.5C1350.9 758.1 1344.67 760.667 1342.5 762.5C1336.5 788.1 1320.33 795.5 1313 796C1299.33 796 1271.5 797.6 1269.5 804C1267 812 1270 811.5 1257 816C1247.78 819.191 1241.81 807.299 1241.39 799.68C1239.27 799.92 1236.11 798.946 1231.5 796C1228.33 789.333 1218.2 780 1203 796C1195.17 795.833 1184.2 791.2 1203 774C1204.83 773.333 1210.8 770.1 1220 762.5Z" stroke="#10151B"/>
<path d="M1391.5 819.5C1389.9 815.5 1383.17 812.167 1380 811C1383 800.5 1393.5 808 1395 811C1396.5 814 1420 818.5 1425.5 814C1429.9 810.4 1437 809.833 1440 810V820C1424.5 821.5 1393.1 823.5 1391.5 819.5Z" stroke="#10151B"/>
<rect y="1086" width="1440" height="104" fill="url(#paint2_linear_208_81)"/>
<rect x="1" y="1186" width="1437" height="661" fill="url(#paint3_linear_208_81)"/>
<rect y="1795" width="1440" height="137" fill="#301318"/>
<path d="M532 1800C530.8 1799.6 527.5 1797 526 1795.5H832.5C814.5 1799.9 823 1801.17 829.5 1801.5C856 1802.17 923.9 1804.4 983.5 1808C1058 1812.5 907 1816.5 831 1816.5C770.2 1816.5 796.667 1819.5 817.5 1821C873.667 1822.83 995.2 1827.6 1032 1832C1078 1837.5 965 1847 939 1850.5L938.778 1850.53C912.538 1854.06 831.282 1865 931 1865C1011 1865 1119.33 1867 1163.5 1868C1169.17 1868.83 1173.5 1872.9 1145.5 1882.5C1117.5 1892.1 1123.17 1897.17 1129.5 1898.5C1206 1904 1245 1909.5 1283 1914C1313.4 1917.6 1285.33 1922.83 1267.5 1925H209C218.5 1923.33 239.6 1919.4 248 1917C258.5 1914 253.5 1913 249 1912C245.4 1911.2 244.167 1910.33 244 1910C219.5 1892 239 1898 256 1893C273 1888 412.5 1888.5 460 1886C498 1884 479.167 1880.83 465 1879.5C442.834 1879.17 389.9 1876.4 355.5 1868C312.5 1857.5 325.5 1854.5 346.5 1850C367.5 1845.5 510.5 1839 539.5 1838.5C568.5 1838 547 1835.5 537.5 1835.5C528 1835.5 401.5 1830 380.5 1825.5C359.5 1821 392 1816 396 1815.5C399.2 1815.1 406 1814 409 1813.5C417 1810.7 412.334 1810.67 409 1811C401.167 1811.67 374.5 1811.6 330.5 1806C275.5 1799 519 1802 525.5 1802C532 1802 533.5 1800.5 532 1800Z" fill="#6E0109" stroke="#6E0109"/>
<path d="M545.5 1799.5C538.7 1797.5 535.667 1796.17 535 1795.5H821C802 1800.5 798.5 1802.5 813.5 1805C825.5 1807 895.833 1808.83 929.5 1809.5C955.833 1810.17 995.9 1811.5 945.5 1811.5C895.1 1811.5 821.167 1812.83 790.5 1813.5C706 1823 942.5 1832.5 973 1833.5C1003.5 1834.5 1007.5 1836.5 959 1840.5C920.2 1843.7 846.5 1850.5 814.5 1853.5C747.7 1861.1 767 1866.33 785 1868C913.5 1873.5 1084.5 1875.5 1103.5 1875.5C1122.5 1875.5 1128 1874.5 1113 1879.5C1101 1883.5 1073 1891.5 1060.5 1895C1045.7 1899.8 1048.33 1902 1051.5 1902.5C1090.83 1907 1178.5 1916.2 1214.5 1917C1250.5 1917.8 1229.5 1922.67 1214.5 1925H284C298.167 1921.67 317.1 1914 279.5 1910C241.9 1906 266.166 1901.67 283 1900C355.5 1894 415 1894.5 441.5 1894.5C462.7 1894.5 481.333 1893.17 488 1892.5C538 1884.5 502.166 1875.83 478 1872.5C464.166 1871.83 430.8 1869.6 408 1866C379.5 1861.5 384 1857.5 395.5 1855C404.7 1853 454.333 1850.5 478 1849.5C496.666 1849.17 542.2 1847.7 575 1844.5C607.8 1841.3 598.333 1837.5 589.5 1836C538.5 1829 485 1828 436.5 1824C388 1820 433.5 1812 439 1811C444.5 1810 456 1808 439 1808C425.4 1808 401.333 1807.33 391 1807C368.5 1806 335.6 1804 384 1804C444.5 1804 521 1804.5 538.5 1805.5C556 1806.5 554 1802 545.5 1799.5Z" fill="#D32B0E" stroke="#D32B0E"/>
<path d="M611 1795C611 1797.76 608.761 1800 606 1800C603.239 1800 601 1797.76 601 1795C601 1792.24 603.239 1790 606 1790C608.761 1790 611 1792.24 611 1795Z" fill="#FE5C16"/>
<path d="M657 1806C657 1808.21 655.209 1810 653 1810C650.791 1810 649 1808.21 649 1806C649 1803.79 650.791 1802 653 1802C655.209 1802 657 1803.79 657 1806Z" fill="#FE5C16"/>
<path d="M622 1836.5C622 1838.43 620.433 1840 618.5 1840C616.567 1840 615 1838.43 615 1836.5C615 1834.57 616.567 1833 618.5 1833C620.433 1833 622 1834.57 622 1836.5Z" fill="#FE5C16"/>
<path d="M721 1809.5C721 1812.54 718.538 1815 715.5 1815C712.462 1815 710 1812.54 710 1809.5C710 1806.46 712.462 1804 715.5 1804C718.538 1804 721 1806.46 721 1809.5Z" fill="#FE5C16"/>
<path d="M716 1883C716 1886.31 713.314 1889 710 1889C706.686 1889 704 1886.31 704 1883C704 1879.69 706.686 1877 710 1877C713.314 1877 716 1879.69 716 1883Z" fill="#FE5C16"/>
<path d="M733 1897C733 1899.21 731.209 1901 729 1901C726.791 1901 725 1899.21 725 1897C725 1894.79 726.791 1893 729 1893C731.209 1893 733 1894.79 733 1897Z" fill="#FE5C16"/>
<path d="M552 1885.5C552 1887.43 550.433 1889 548.5 1889C546.567 1889 545 1887.43 545 1885.5C545 1883.57 546.567 1882 548.5 1882C550.433 1882 552 1883.57 552 1885.5Z" fill="#FE5C16"/>
<path d="M894 1874.5C894 1876.43 892.433 1878 890.5 1878C888.567 1878 887 1876.43 887 1874.5C887 1872.57 888.567 1871 890.5 1871C892.433 1871 894 1872.57 894 1874.5Z" fill="#FE5C16"/>
<path d="M1023 1910.5C1023 1912.99 1020.99 1915 1018.5 1915C1016.01 1915 1014 1912.99 1014 1910.5C1014 1908.01 1016.01 1906 1018.5 1906C1020.99 1906 1023 1908.01 1023 1910.5Z" fill="#FE5C16"/>
<path d="M1078 1879.5C1078 1881.99 1075.99 1884 1073.5 1884C1071.01 1884 1069 1881.99 1069 1879.5C1069 1877.01 1071.01 1875 1073.5 1875C1075.99 1875 1078 1877.01 1078 1879.5Z" fill="#FE5C16"/>
<path d="M366 1905.5C366 1907.99 363.985 1910 361.5 1910C359.015 1910 357 1907.99 357 1905.5C357 1903.01 359.015 1901 361.5 1901C363.985 1901 366 1903.01 366 1905.5Z" fill="#FE5C16"/>
<path d="M432 1861C432 1863.21 430.209 1865 428 1865C425.791 1865 424 1863.21 424 1861C424 1858.79 425.791 1857 428 1857C430.209 1857 432 1858.79 432 1861Z" fill="#FE5C16"/>
<path d="M467 1818C467 1819.66 465.657 1821 464 1821C462.343 1821 461 1819.66 461 1818C461 1816.34 462.343 1815 464 1815C465.657 1815 467 1816.34 467 1818Z" fill="#FE5C16"/>
<path d="M544 1860C544 1860.55 533.255 1861 520 1861C506.745 1861 496 1860.55 496 1860C496 1859.45 506.745 1859 520 1859C533.255 1859 544 1859.45 544 1860Z" fill="#922005"/>
<path d="M663 1881.5C663 1882.88 652.255 1884 639 1884C625.745 1884 615 1882.88 615 1881.5C615 1880.12 625.745 1879 639 1879C652.255 1879 663 1880.12 663 1881.5Z" fill="#922005"/>
<path d="M689 1838.5C689 1839.33 680.941 1840 671 1840C661.059 1840 653 1839.33 653 1838.5C653 1837.67 661.059 1837 671 1837C680.941 1837 689 1837.67 689 1838.5Z" fill="#922005"/>
<path d="M673 1825C673 1825.55 665.837 1826 657 1826C648.163 1826 641 1825.55 641 1825C641 1824.45 648.163 1824 657 1824C665.837 1824 673 1824.45 673 1825Z" fill="#922005"/>
<path d="M821 1906C821 1907.1 811.598 1908 800 1908C788.402 1908 779 1907.1 779 1906C779 1904.9 788.402 1904 800 1904C811.598 1904 821 1904.9 821 1906Z" fill="#922005"/>
<path d="M899 1890C899 1891.66 888.255 1893 875 1893C861.745 1893 851 1891.66 851 1890C851 1888.34 861.745 1887 875 1887C888.255 1887 899 1888.34 899 1890Z" fill="#922005"/>
<path d="M1046 1888C1046 1890.21 1029.43 1892 1009 1892C988.565 1892 972 1890.21 972 1888C972 1885.79 988.565 1884 1009 1884C1029.43 1884 1046 1885.79 1046 1888Z" fill="#922005"/>
<path d="M179 1186H0V1801H531C490 1775.5 450.5 1780.5 422 1778.5C393.5 1776.5 385.5 1775 362.5 1764C339.5 1753 332.5 1757.5 313.5 1760.5C298.3 1762.9 284.5 1763.83 279.5 1764C239.5 1765.5 221 1741.5 219.5 1735.5C218 1729.5 212 1707.5 184 1702C161.6 1697.6 141 1682.5 133.5 1675.5C106.5 1650 81.5 1582 67 1538.5C52.5 1495 99 1432.5 127 1404C149.4 1381.2 142.333 1352.17 136 1340.5C116 1307.3 156.333 1290.33 179 1286V1186Z" fill="#2A7151"/>
<path d="M1154 1160.5H1440V1801.5H842.5C855.5 1790 931 1759.5 965.5 1768C1000 1776.5 1001.5 1780 1047.5 1748.5C1084.3 1723.3 1121.83 1717.33 1136 1717.5C1151.5 1722.83 1198.8 1719.5 1264 1663.5C1345.5 1593.5 1350.5 1541.5 1361 1518.5C1371.5 1495.5 1346 1433.5 1337 1417C1328 1400.5 1336.5 1375.5 1340 1342C1343.5 1308.5 1288 1283 1252.5 1286C1217 1289 1208 1270 1189 1247C1173.8 1228.6 1159.33 1229.67 1154 1232.5V1160.5Z" fill="#2A7151"/>
<path d="M179 1186H0V1801H531C490 1775.5 450.5 1780.5 422 1778.5C393.5 1776.5 385.5 1775 362.5 1764C339.5 1753 332.5 1757.5 313.5 1760.5C298.3 1762.9 284.5 1763.83 279.5 1764C239.5 1765.5 221 1741.5 219.5 1735.5C218 1729.5 212 1707.5 184 1702C161.6 1697.6 141 1682.5 133.5 1675.5C106.5 1650 81.5 1582 67 1538.5C52.5 1495 99 1432.5 127 1404C149.4 1381.2 142.333 1352.17 136 1340.5C116 1307.3 156.333 1290.33 179 1286V1186Z" stroke="#2A7151"/>
<path d="M1154 1160.5H1440V1801.5H842.5C855.5 1790 931 1759.5 965.5 1768C1000 1776.5 1001.5 1780 1047.5 1748.5C1084.3 1723.3 1121.83 1717.33 1136 1717.5C1151.5 1722.83 1198.8 1719.5 1264 1663.5C1345.5 1593.5 1350.5 1541.5 1361 1518.5C1371.5 1495.5 1346 1433.5 1337 1417C1328 1400.5 1336.5 1375.5 1340 1342C1343.5 1308.5 1288 1283 1252.5 1286C1217 1289 1208 1270 1189 1247C1173.8 1228.6 1159.33 1229.67 1154 1232.5V1160.5Z" stroke="#2A7151"/>
<path d="M1221.5 1174.5L1190 1086H1440V1802C1440 1801.6 1205 1801.83 1087.5 1802C1091.5 1796.5 1158.5 1750.5 1195.5 1755.5C1225.1 1759.5 1249.17 1726.17 1257.5 1709C1299.9 1658.2 1324.17 1685.17 1331 1705C1342 1720.83 1359.7 1738.5 1342.5 1682.5C1321 1612.5 1381.5 1540.5 1412.5 1515C1443.5 1489.5 1414 1468 1388 1458C1362 1448 1357.5 1424.5 1384 1403.5C1405.2 1386.7 1390.5 1351.83 1380.5 1336.5C1327 1247.5 1294 1262 1251 1249.5C1216.6 1239.5 1217 1195.33 1221.5 1174.5Z" fill="#0F4233" stroke="#0F4233"/>
<path d="M151 1247.5V1086H0V1801H224.5C219.5 1798 210.5 1793 199.5 1789C190.7 1785.8 180.5 1776 176.5 1771.5C144.5 1730.5 135 1752.5 111.5 1771.5C92.7 1786.7 81.3333 1747.83 78 1726.5C75.1666 1702.67 60.1997 1663.6 22.9997 1698C-23.5003 1741 17.9997 1616.5 31.4997 1584C42.2997 1558 35.9997 1541.17 31.4997 1536C29.8331 1536.33 26.3999 1533.2 25.9999 1518C25.4999 1499 66.4999 1430.5 88.9999 1413C111.5 1395.5 120.5 1388.5 104 1367.5C90.7998 1350.7 104.5 1327.5 113 1318C146.2 1288.8 152.166 1258.83 151 1247.5Z" fill="#0F4233" stroke="#0F4233"/>
<rect y="1925" width="1440" height="398" fill="url(#paint4_linear_208_81)"/>
<path d="M333.627 1991.52C335.031 1975.12 322.9 1964.35 316.659 1961.01C310.47 1956.21 306.279 1964.35 304.957 1969.01C293.254 1988.52 281.552 1967.01 276.286 1956.51C272.073 1948.11 279.212 1932 283.307 1925H1220.07L1220.65 1925.5C1222.52 1929.5 1223.38 1934.17 1223.58 1936C1227.32 1972.02 1205.24 1969.35 1193.74 1963.51C1188.08 1963.01 1176.42 1963.91 1175.01 1971.51C1173.26 1981.02 1170.33 1983.02 1162.14 1982.52C1155.59 1982.12 1152 1983.69 1151.02 1984.52C1148.29 1985.52 1141.66 1990.32 1136.98 2001.52C1131.13 2015.53 1109.48 2014.03 1103.05 2009.53C1097.9 2005.93 1093.88 2008.03 1092.51 2009.53C1084.32 2015.53 1079.64 2013.53 1079.06 2014.03C1059.16 2014.03 1056.82 2028.03 1049.8 2047.04C1042.78 2066.05 1004.16 2064.54 990.119 2058.04C976.077 2051.54 966.13 2050.54 958.523 2051.54C952.438 2052.34 945.066 2050.21 942.14 2049.04C933.247 2044.24 926.342 2048.04 924.002 2050.54C904.693 2064.54 884.214 2053.04 881.874 2049.04C880.002 2045.84 872.512 2041.7 869.002 2040.04C863.346 2036.54 849.927 2035.54 841.501 2059.54C833.076 2083.55 805.225 2077.22 792.352 2071.05C792.352 2070.38 788.257 2067.55 771.874 2061.54C751.395 2054.04 742.033 2062.04 739.693 2064.54C737.82 2066.55 730.331 2073.05 726.82 2076.05C699.32 2095.05 688.203 2078.55 678.841 2057.04C669.479 2035.54 647.83 2049.04 620.915 2059.54C594 2070.05 581.128 2067.05 568.841 2039.54C559.011 2017.53 552.263 2039.04 550.117 2052.54C551.482 2052.87 547.66 2059.54 521.447 2083.55C488.681 2113.56 465.861 2075.55 467.617 2071.55C469.021 2068.35 465.861 2065.21 464.106 2064.04C463.911 2065.71 459.776 2063.94 444.798 2043.54C426.074 2018.03 406.765 2020.03 394.478 2015.03C382.191 2010.03 380.436 2018.03 376.925 2020.03C373.414 2022.03 364.638 2030.53 358.201 2027.53C351.765 2024.53 331.872 2012.03 333.627 1991.52Z" fill="url(#paint5_linear_208_81)" stroke="#D32B0E"/>
<defs>
<linearGradient id="paint0_linear_208_81" x1="720.311" y1="100.669" x2="720.311" y2="776.984" gradientUnits="userSpaceOnUse">
<stop stop-color="#0C302E"/>
<stop offset="0.0001" stop-color="#0C302E"/>
<stop offset="0.295833" stop-color="#124B3A"/>
<stop offset="1" stop-color="#171E26"/>
</linearGradient>
<linearGradient id="paint1_linear_208_81" x1="720" y1="0" x2="720" y2="100" gradientUnits="userSpaceOnUse">
<stop stop-color="#01362B"/>
<stop offset="0.729167" stop-color="#1D212A"/>
</linearGradient>
<linearGradient id="paint2_linear_208_81" x1="720" y1="1086" x2="720" y2="1190" gradientUnits="userSpaceOnUse">
<stop stop-color="#171E26"/>
<stop offset="1" stop-color="#0F3830"/>
</linearGradient>
<linearGradient id="paint3_linear_208_81" x1="719.5" y1="1186" x2="719.5" y2="1847" gradientUnits="userSpaceOnUse">
<stop stop-color="#0F3730"/>
<stop offset="1" stop-color="#71AF87"/>
</linearGradient>
<linearGradient id="paint4_linear_208_81" x1="720" y1="1925" x2="720" y2="2323" gradientUnits="userSpaceOnUse">
<stop offset="0.566666" stop-color="#301318"/>
<stop offset="1" stop-color="#1D212A"/>
</linearGradient>
<linearGradient id="paint5_linear_208_81" x1="749.5" y1="1925" x2="749.5" y2="2095" gradientUnits="userSpaceOnUse">
<stop stop-color="#D32B0E"/>
<stop offset="1" stop-color="#881602"/>
</linearGradient>
</defs>
</svg>
