<?xml version="1.0" encoding="utf-8"?>
<!-- Generator: Adobe Illustrator 28.0.0, SVG Export Plug-In . SVG Version: 6.00 Build 0)  -->
<svg version="1.1" id="Calque_1" xmlns="http://www.w3.org/2000/svg" xmlns:xlink="http://www.w3.org/1999/xlink" x="0px" y="0px"
	 viewBox="0 0 384 385" style="enable-background:new 0 0 384 385;" xml:space="preserve">
<style type="text/css">
	.st0{fill:#FFFFFF;}
	.st1{stroke:#000000;stroke-miterlimit:10;}
</style>
<path d="M0,50.19C0,50.19,3.23,7.98,46.13,1h289.66c0,0,40.89,2.89,48.21,45.62V338.7c0,0-3.57,41.53-47.83,46.3H47.66
	c0,0-41.02-3.4-47.66-47.32L0,50.19L0,50.19z"/>
<g id="Calque_2_00000167365213458599123860000013469724021905914755_">
	<ellipse class="st0" cx="191.66" cy="196.06" rx="120.85" ry="118.13"/>
	<g id="Calque_3">
		<path class="st1" d="M151.32,308c0,0,8.94,2.36,11.23-4.34v-22.02c0,0-30.06,9.7-40.53-14.74c0,0-4.15-12.45-17.55-20.87
			c0,0-6.96-4.72,7.72-3.83c0,0,4.47,0.06,10.21,5.49s9.06,16.53,21.83,18.96s18.32-2.87,18.32-2.87s0.26-9.06,7.6-15.77
			c0,0-46.06-1.47-52.36-38.57s3.57-43.74,10.47-50.81c0,0-6.21-13.79,0.77-31.4c0,0,13.02-2.81,32.43,11.83
			c0,0,26.38-9.96,60.77,0.09c0,0,14.55-12.94,31.83-12.6c0,0,8,10.3,1.79,31.57c0,0,21.11,20.38,8.85,57.02
			s-51.45,31.66-51.45,31.66s7.53,5.74,8.17,18s0.26,39.06,0.26,39.06s-0.03,4.63,8.47,4.23c8.51-0.4-8.6,7.39-18.81,10.2
			S150.81,322.23,151.32,308z"/>
	</g>
</g>
</svg>
