<?xml version="1.0" encoding="utf-8"?>
<!-- Generator: Adobe Illustrator 28.0.0, SVG Export Plug-In . SVG Version: 6.00 Build 0)  -->
<svg version="1.1" xmlns="http://www.w3.org/2000/svg" xmlns:xlink="http://www.w3.org/1999/xlink" x="0px" y="0px"
	 viewBox="0 0 384 384" style="enable-background:new 0 0 384 384;" xml:space="preserve">
<style type="text/css">
	.st0{fill:#0077B5;}
	.st1{fill:#FFFFFF;}
</style>
<g id="Calque_2">
	<path class="st0" d="M332.17,384H51.83C23.2,384,0,360.8,0,332.17V51.83C0,23.2,23.2,0,51.83,0h280.34C360.8,0,384,23.2,384,51.83
		v280.34C384,360.8,360.8,384,332.17,384z"/>
</g>
<g id="Calque_3">
	<path class="st1" d="M121.87,312.17H89.36c-5.45,0-9.87-4.42-9.87-9.87V160.34c0-5.45,4.42-9.87,9.87-9.87h32.51
		c5.45,0,9.87,4.42,9.87,9.87V302.3C131.74,307.75,127.32,312.17,121.87,312.17z"/>
	<circle class="st1" cx="105.74" cy="104.47" r="32.55"/>
	<path class="st1" d="M196.09,312.17h-34.72c-4.32,0-7.83-3.51-7.83-7.83V158.3c0-4.32,3.51-7.83,7.83-7.83h34.72
		c4.32,0,7.83,3.51,7.83,7.83v146.04C203.91,308.66,200.41,312.17,196.09,312.17z"/>
	<path class="st1" d="M202.72,231.32c0,0,1.53-38.47,28.43-39.32s27.4,24,27.74,33.36c0.34,9.36,0,78.64,0,78.64
		s-1.19,8.17,9.19,8.17c10.38,0,36.09,0,36.09,0s7.23,0,7.15-9.53s0-84.09,0-84.09s4.42-62.98-46.47-69.45
		c-50.89-6.47-62.13,25.7-62.13,25.7V231.32z"/>
</g>
</svg>
