<?xml version="1.0" encoding="utf-8"?>
<!-- Generator: Adobe Illustrator 28.0.0, SVG Export Plug-In . SVG Version: 6.00 Build 0)  -->
<svg version="1.1" id="Calque_1" xmlns="http://www.w3.org/2000/svg" xmlns:xlink="http://www.w3.org/1999/xlink" x="0px" y="0px"
	 viewBox="0 0 351.2 357.3" style="enable-background:new 0 0 351.2 357.3;" xml:space="preserve">
<style type="text/css">
	.st0{fill:#454965;}
	.st1{fill:#414561;}
	.st2{fill:#4D5D79;}
	.st3{fill:#3F4F71;}
	.st4{fill:#242034;}
	.st5{fill:#FFFFFF;}
	.st6{fill:#9DAD3A;}
	.st7{fill:#9C27B0;}
	.st8{fill:#3C3C59;}
	.st9{fill:#393854;}
	.st10{fill:#8E7856;}
</style>
<rect x="126" y="265.1" class="st0" width="107" height="19.4"/>
<path class="st1" d="M297.7,243.4h-238c-1.7,0-3.1,1.4-3.1,3.1v11.5c0,1.7,1.4,3.1,3.1,3.1h238c1.7,0,3.1-1.4,3.1-3.1v-11.5
	C300.7,244.8,299.4,243.4,297.7,243.4z"/>
<path class="st2" d="M27.5,10.5c0,0-0.6-6.8,7.7-6.9c8.4-0.1,147.1-6.6,263.5,0l19,0.9c0,0,6.8-0.9,7.8,7.7c0,0,5.9,127.5,1,221
	l-0.8,9.8c0,0-0.8,5.8-6.8,5.9c-6,0.1-182.8,4.2-272.3,0l-15.1-0.8c0,0-3.9,0.2-4-4.8C27.4,238.4,21.6,134.9,27.5,10.5z"/>
<path class="st3" d="M64.6,45.3c0,0-0.5-6,11.6-7c12.1-1,126.3-7,202.1,0c0,0,9.9-0.8,11.5,12.3c1.6,13.1,7.9,83.5,0,152.9
	c0,0-0.1,8.8-12,9.9c-11.9,1.1-133.8,7.2-199.7,0c0,0-12,0.1-13.5-8.7C63,195.9,53.8,114.2,64.6,45.3z"/>
<path class="st4" d="M67.1,52.4c0,0,1.1-9.6,13.5-10.5c12.4-0.9,101.9-7.4,194.3,0c0,0,8.8,0,10.6,9.8s9.3,87,0,149.8
	c0,0-0.9,8.9-12,9.7c-11,0.8-93,5.7-193.7,0c0,0-12.7,0.7-13.8-14.8S57.4,121.3,67.1,52.4z"/>
<circle class="st5" cx="289.6" cy="19.8" r="3"/>
<circle class="st6" cx="276.3" cy="231.3" r="3"/>
<circle class="st1" cx="265.2" cy="231.3" r="3"/>
<g>
	<path class="st7" d="M114.2,199.9H91.7c-1.5,0-2.7-1.2-2.7-2.7v0c0-1.5,1.2-2.7,2.7-2.7h22.5c1.5,0,2.7,1.2,2.7,2.7v0
		C116.9,198.7,115.7,199.9,114.2,199.9z"/>
	<path class="st7" d="M117.6,183.1H91.7c-1.5,0-2.7-1.2-2.7-2.7v0c0-1.5,1.2-2.7,2.7-2.7h25.9c1.5,0,2.7,1.2,2.7,2.7v0
		C120.3,181.9,119.1,183.1,117.6,183.1z"/>
	<path class="st7" d="M144.2,165.5H91.7c-1.5,0-2.7-1.2-2.7-2.7v0c0-1.5,1.2-2.7,2.7-2.7h52.5c1.5,0,2.7,1.2,2.7,2.7v0
		C146.9,164.3,145.7,165.5,144.2,165.5z"/>
	<path class="st7" d="M116.1,147.9H91.7c-1.5,0-2.7-1.2-2.7-2.7l0,0c0-1.5,1.2-2.7,2.7-2.7h24.4c1.5,0,2.7,1.2,2.7,2.7l0,0
		C118.8,146.7,117.6,147.9,116.1,147.9z"/>
	<path class="st7" d="M154.2,147.9h-25.5c-1.5,0-2.7-1.2-2.7-2.7l0,0c0-1.5,1.2-2.7,2.7-2.7h25.5c1.5,0,2.7,1.2,2.7,2.7l0,0
		C157,146.7,155.8,147.9,154.2,147.9z"/>
	<path class="st7" d="M144.2,131.1H91.7c-1.5,0-2.7-1.2-2.7-2.7l0,0c0-1.5,1.2-2.7,2.7-2.7h52.5c1.5,0,2.7,1.2,2.7,2.7l0,0
		C146.9,129.8,145.7,131.1,144.2,131.1z"/>
	<path class="st7" d="M114.2,113.3H91.7c-1.5,0-2.7-1.2-2.7-2.7l0,0c0-1.5,1.2-2.7,2.7-2.7h22.5c1.5,0,2.7,1.2,2.7,2.7l0,0
		C116.9,112.1,115.7,113.3,114.2,113.3z"/>
	<path class="st7" d="M116.7,92.9h-25c-1.5,0-2.7-1.2-2.7-2.7v0c0-1.5,1.2-2.7,2.7-2.7h25c1.5,0,2.7,1.2,2.7,2.7v0
		C119.5,91.7,118.2,92.9,116.7,92.9z"/>
	<path class="st7" d="M144.2,75.4H91.7c-1.5,0-2.7-1.2-2.7-2.7l0,0c0-1.5,1.2-2.7,2.7-2.7h52.5c1.5,0,2.7,1.2,2.7,2.7l0,0
		C146.9,74.2,145.7,75.4,144.2,75.4z"/>
	<path class="st7" d="M116.7,58h-25c-1.5,0-2.7-1.2-2.7-2.7v0c0-1.5,1.2-2.7,2.7-2.7h25c1.5,0,2.7,1.2,2.7,2.7v0
		C119.5,56.8,118.2,58,116.7,58z"/>
	<path class="st7" d="M154.8,57.9h-26c-1.5,0-2.7-1.2-2.7-2.7v0c0-1.5,1.2-2.7,2.7-2.7h26c1.5,0,2.7,1.2,2.7,2.7v0
		C157.6,56.7,156.3,57.9,154.8,57.9z"/>
</g>
<path class="st8" d="M97,261c0,0-2.3,8.9,81.7,8.2c0,0,75.8,0.8,82.5-8.2H97z"/>
<path class="st2" d="M340.5,281.9H10c-5.1,0-9.3,4.2-9.3,9.3v56.2c0,5.1,4.2,9.3,9.3,9.3h330.5c5.1,0,9.3-4.2,9.3-9.3v-56.2
	C349.9,286.1,345.7,281.9,340.5,281.9z"/>
<path class="st9" d="M51.8,306.7h162.1c1.1,0,2-0.9,2-2l0,0c0-1.1-0.9-2-2-2H51.8c-1.1,0-2,0.9-2,2l0,0
	C49.7,305.8,50.7,306.7,51.8,306.7z"/>
<path class="st9" d="M333.1,305.4h-70.7c-0.9,0-1.6-0.7-1.6-1.6v-2.7c0-0.9,0.7-1.6,1.6-1.6h70.7c0.9,0,1.6,0.7,1.6,1.6v2.7
	C334.7,304.7,334,305.4,333.1,305.4z"/>
<path class="st9" d="M333.1,319.7h-70.7c-0.9,0-1.6-0.7-1.6-1.6v-2.7c0-0.9,0.7-1.6,1.6-1.6h70.7c0.9,0,1.6,0.7,1.6,1.6v2.7
	C334.7,319,334,319.7,333.1,319.7z"/>
<circle class="st10" cx="213.4" cy="314" r="2.8"/>
</svg>
