<?xml version="1.0" encoding="utf-8"?>
<!-- Generator: Adobe Illustrator 28.0.0, SVG Export Plug-In . SVG Version: 6.00 Build 0)  -->
<svg version="1.1" id="Calque_1" xmlns="http://www.w3.org/2000/svg" xmlns:xlink="http://www.w3.org/1999/xlink" x="0px" y="0px"
	 viewBox="0 0 509.9 741.1" style="enable-background:new 0 0 509.9 741.1;" xml:space="preserve">
<style type="text/css">
	.st0{fill:#FFFFFF;}
	.st1{fill:#222D39;}
	.st2{fill:#F8BA1D;}
	.st3{fill:#F9C420;}
	.st4{fill:#FBC31F;}
	.st5{fill:#F99920;}
	.st6{fill:#262C38;}
	.st7{fill:#FCC21F;}
	.st8{fill:#3C4148;}
	.st9{fill:#8AD8E4;}
	.st10{fill:#15ACBD;}
	.st11{fill:#C0E2EC;}
	.st12{fill:#7EC6D2;}
	.st13{fill:#F9FEFF;}
	.st14{fill:#024D67;}
	.st15{fill:#FEFEFF;}
	.st16{fill:#F7FBFB;}
	.st17{fill:#685D6D;}
	.st18{fill:#5C515F;}
	.st19{fill:#C2C8D6;}
	.st20{fill:#F31E32;}
	.st21{fill:#9D1322;}
	.st22{fill:#011C23;}
	.st23{fill:#020106;}
	.st24{fill:#F89A2C;}
	.st25{fill:#F43E26;}
	.st26{fill:#EB9F31;}
	.st27{fill:#001C23;}
</style>
<g id="Calque_1_00000026859248223289805820000003466131764403562923_">
	<g id="Calque_1_00000045619212974790439290000007725068984190111648_">
		<g id="Calque_6">
			<rect width="509.3" height="742.1"/>
		</g>
		<g id="Rectangle">
			<g id="Calque_5">
				<path class="st0" d="M425.3,267.9H84c-14.4,0-26.2-11.7-26.2-26.1v-72.3c0-14.4,11.7-26.1,26.2-26.1h341.3
					c14.4,0,26.1,11.7,26.1,26.1v72.3C451.4,256.1,439.7,267.9,425.3,267.9z"/>
			</g>
		</g>
	</g>
</g>
<g id="Calque_5_00000041296326756912503600000007684222239644623495_">
</g>
<g id="Calque_6_00000001627481597747548660000005367881477256572830_">
</g>
<g id="Calque_2_00000152228957529242698910000004277867296649096362_">
</g>
<g id="Calque_3_00000170961213106560399020000003970634794478139793_">
</g>
<g id="Calque_4">
</g>
<g>
	
		<rect x="96.4" y="58.7" transform="matrix(0.8542 -0.5199 0.5199 0.8542 -15.0045 64.2703)" class="st1" width="21.4" height="0.4"/>
	<ellipse class="st1" cx="118.2" cy="51.4" rx="1.4" ry="1.4"/>
	<rect x="129.6" y="48.4" transform="matrix(0.547 -0.8371 0.8371 0.547 9.0178 135.6138)" class="st1" width="0.4" height="22.2"/>
	
		<rect x="139.5" y="39.3" transform="matrix(0.3192 -0.9477 0.9477 0.3192 38.926 172.7722)" class="st1" width="0.4" height="39.9"/>
	<rect x="148.6" y="71.3" class="st1" width="4.8" height="1.1"/>
	<rect x="149.9" y="72.3" class="st1" width="0.5" height="30.9"/>
	<rect x="151.3" y="72.3" class="st1" width="0.5" height="30.9"/>
	<path class="st1" d="M148.7,103.2h4c0,0,0.5,0,0.6,0.5c0,0.4,0,2.1,0,2.1l-1.2,2.3h-2.7l-1.2-2.2v-2
		C148.2,103.8,148.1,103.2,148.7,103.2z"/>
	<polygon class="st2" points="148.7,105.3 148.7,105.7 149,106.4 150.3,107.7 151,107.7 	"/>
	<path class="st2" d="M151.9,107.6l0.3-0.5l-3.5-3.5c0,0-0.1,0-0.1,0.1s0,0.6,0,0.6L151.9,107.6z"/>
	<polygon class="st2" points="149.7,103.6 150.4,103.6 152.8,105.9 152.5,106.4 	"/>
	<polygon class="st2" points="151.4,103.6 152.2,103.6 152.9,104.3 152.9,105.1 	"/>
	<path class="st1" d="M150.1,107.9c0,0,0,0.7-0.7,1.2c-0.8,0.5-2.2,2.4-1.6,4c0.6,1.5,1.3,1.7,2.3,1.8s2.7-0.7,2.7-2.3
		c0,0,0-0.5-0.1-1s0.2-0.8,0.2-0.8s0.1-0.4-0.2-0.5s-0.5,0.3-0.5,0.3s-0.4,0.4-0.4,1.1c0,0.6,0,1.1-0.7,1.6
		c-0.8,0.5-2.6-0.5-0.9-2.4c0,0,1.5-1.3,1.4-3C151.6,107.9,150.1,107.9,150.1,107.9z"/>
	<path class="st1" d="M134.8,124.2l15.2-11.1c0,0,0.3-0.3,0.8,0s15.1,11.1,15.1,11.1h-0.6l-14.6-10.7h-0.6l-14.8,10.7H134.8z"/>
	<path class="st0" d="M164.1,128.9h-27.5c-1.1,0-2-0.9-2-2v-2.7h31.5v2.7C166.2,128,165.3,128.9,164.1,128.9z"/>
	<path d="M164.1,148.6h-27.5c-1.1,0-2-0.9-2-2V143h31.5v3.6C166.1,147.7,165.2,148.6,164.1,148.6z"/>
	<rect x="101.1" y="65.2" class="st3" width="59.7" height="1.1"/>
	<rect x="101.1" y="70.2" class="st3" width="65.2" height="1.1"/>
	<rect x="102.4" y="66.1" class="st4" width="1.1" height="4.4"/>
	<rect x="107.1" y="66.2" class="st4" width="1.1" height="4.4"/>
	<rect x="111.7" y="66.1" class="st4" width="1.1" height="4.4"/>
	<rect x="127" y="65.9" class="st4" width="1.1" height="4.4"/>
	<rect x="131.8" y="66.1" class="st4" width="1.1" height="4.4"/>
	<rect x="136.5" y="66.1" class="st4" width="1.1" height="4.4"/>
	<rect x="141.1" y="66.1" class="st4" width="1.1" height="4.4"/>
	<rect x="145.7" y="66.1" class="st4" width="1.1" height="4.4"/>
	<rect x="150.4" y="66.1" class="st4" width="1.1" height="4.4"/>
	<rect x="155" y="66.1" class="st4" width="1.1" height="4.4"/>
	<rect x="159.7" y="66.1" class="st4" width="1.1" height="4.4"/>
	
		<rect x="162.4" y="64.5" transform="matrix(0.6779 -0.7351 0.7351 0.6779 2.3728 141.8113)" class="st4" width="1.3" height="7.4"/>
	
		<rect x="155.3" y="67.9" transform="matrix(0.6779 -0.7351 0.7351 0.6779 0.6483 138.3311)" class="st4" width="5.8" height="1.1"/>
	
		<rect x="145.9" y="67.9" transform="matrix(0.6779 -0.7351 0.7351 0.6779 -2.3924 131.3929)" class="st4" width="5.8" height="1.1"/>
	<rect x="136.6" y="67.8" transform="matrix(0.6779 -0.7351 0.7351 0.6779 -5.2841 124.5955)" class="st4" width="6" height="1.1"/>
	
		<rect x="127.4" y="67.9" transform="matrix(0.6779 -0.7351 0.7351 0.6779 -8.3364 117.8416)" class="st4" width="5.8" height="1.1"/>
	
		<rect x="107.2" y="68" transform="matrix(0.6779 -0.7351 0.7351 0.6779 -14.9127 103.0228)" class="st4" width="5.8" height="1.1"/>
	
		<rect x="98.2" y="67.6" transform="matrix(0.6779 -0.7351 0.7351 0.6779 -17.5426 96.2332)" class="st4" width="5.8" height="1.1"/>
	
		<rect x="104.6" y="65.3" transform="matrix(0.7328 -0.6804 0.6804 0.7328 -18.3093 89.7596)" class="st4" width="1.1" height="5.8"/>
	
		<rect x="124.8" y="65.4" transform="matrix(0.7328 -0.6804 0.6804 0.7328 -12.9962 103.5383)" class="st4" width="1.1" height="5.8"/>
	
		<rect x="134.2" y="65.5" transform="matrix(0.7328 -0.6804 0.6804 0.7328 -10.5283 109.9637)" class="st4" width="1.1" height="5.8"/>
	
		<rect x="143.5" y="65.4" transform="matrix(0.7328 -0.6804 0.6804 0.7328 -7.9689 116.2767)" class="st4" width="1.1" height="5.8"/>
	<rect x="152.6" y="65.2" transform="matrix(0.7328 -0.6804 0.6804 0.7328 -5.4674 122.4249)" class="st4" width="1.1" height="6"/>
	
		<rect x="110.7" y="56.8" transform="matrix(8.203838e-02 -0.9966 0.9966 8.203838e-02 49.4057 168.6303)" class="st4" width="11.1" height="1.4"/>
	
		<rect x="119.8" y="52.2" transform="matrix(0.9963 -8.569126e-02 8.569126e-02 0.9963 -4.5053 10.538)" class="st4" width="1.4" height="11.1"/>
	<rect x="116.1" y="55.2" class="st4" width="4.5" height="1.1"/>
	<rect x="116" y="58.8" class="st4" width="4.5" height="1.1"/>
	<path class="st4" d="M114.9,52.1L114.9,52.1c0,0.6,0.5,1.1,1.1,1.1h4.3c0.6,0,1.1-0.5,1.1-1.1l0,0c0-0.6-0.5-1.1-1.1-1.1H116
		C115.4,51,114.9,51.5,114.9,52.1z"/>
	<path class="st4" d="M100.4,72.4h-10c-0.6,0-1.1-0.5-1.1-1.1v-6.1c0-0.6,0.5-1.1,1.1-1.1h10c0.6,0,1.1,0.5,1.1,1.1v6.1
		C101.5,71.9,101,72.4,100.4,72.4z"/>
	<path class="st5" d="M100.4,71.9h-9.8c-0.4,0-0.7-0.3-0.7-0.7v-1.8h11.2v1.8C101.1,71.6,100.7,71.9,100.4,71.9z"/>
	<g id="Calque_3">
		<g>
			<g>
				<g>
					<g>
						<rect x="105" y="141.1" class="st6" width="26.6" height="2.3"/>
					</g>
					<rect x="110.7" y="136.7" class="st6" width="15.4" height="4.5"/>
					<g>
						<g>
							<polygon class="st7" points="118.7,141.1 116.6,141.1 119.8,137.9 121.9,137.9 							"/>
						</g>
						<g>
							<polygon class="st7" points="114.8,141.1 112.6,141.1 115.9,137.9 118,137.9 							"/>
						</g>
						<g>
							<polygon class="st7" points="122.6,141.1 120.5,141.1 123.8,137.9 125.9,137.9 							"/>
						</g>
						<polygon class="st7" points="124.5,141.1 126.1,141.1 126.1,139.5 						"/>
						<polygon class="st7" points="110.7,141.1 110.7,139.1 111.9,137.9 114,137.9 110.8,141.1 						"/>
					</g>
				</g>
				<rect x="113.9" y="72.6" class="st4" width="1.3" height="64.1"/>
				<rect x="121.5" y="72.6" class="st4" width="1.3" height="64.1"/>
				<g>
					<rect x="115" y="130.8" class="st4" width="6.8" height="1.1"/>
					
						<rect x="113.6" y="127.2" transform="matrix(0.7071 -0.7071 0.7071 0.7071 -55.6337 121.2498)" class="st4" width="9.9" height="1.1"/>
					
						<rect x="113.6" y="111.5" transform="matrix(0.7071 -0.7071 0.7071 0.7071 -44.5075 116.6282)" class="st4" width="9.9" height="1.1"/>
					
						<rect x="113.7" y="96" transform="matrix(0.7071 -0.7071 0.7071 0.7071 -33.5301 112.1565)" class="st4" width="9.9" height="1.1"/>
					
						<rect x="113.7" y="80.6" transform="matrix(0.7071 -0.7071 0.7071 0.7071 -22.6399 107.6368)" class="st4" width="9.9" height="1.1"/>
					
						<rect x="117.7" y="68.2" transform="matrix(0.7071 -0.7071 0.7071 0.7071 -17.1113 105.0407)" class="st4" width="1.1" height="9.9"/>
					
						<rect x="117.7" y="83.8" transform="matrix(0.7071 -0.7071 0.7071 0.7071 -28.1444 109.6149)" class="st4" width="1.1" height="9.9"/>
					
						<rect x="117.8" y="99.3" transform="matrix(0.7071 -0.7071 0.7071 0.7071 -39.0345 114.2301)" class="st4" width="1.1" height="9.9"/>
					
						<rect x="117.7" y="114.5" transform="matrix(0.7071 -0.7071 0.7071 0.7071 -49.8174 118.5843)" class="st4" width="1.1" height="9.9"/>
					
						<rect x="117.6" y="130.1" transform="matrix(0.7071 -0.7071 0.7071 0.7071 -60.9006 123.106)" class="st4" width="1.1" height="9.9"/>
					<rect x="115" y="123.1" class="st4" width="6.8" height="1.1"/>
					<rect x="115" y="115.3" class="st4" width="6.6" height="1.1"/>
					<rect x="115.2" y="107.5" class="st4" width="6.5" height="1.1"/>
					<rect x="115" y="99.8" class="st4" width="6.8" height="1.1"/>
					<rect x="114.8" y="92.1" class="st4" width="7.3" height="1.1"/>
					<rect x="114.9" y="84.4" class="st4" width="7.1" height="1.1"/>
					<rect x="114.8" y="76.6" class="st4" width="7.1" height="1.1"/>
				</g>
			</g>
		</g>
	</g>
	<g id="Calque_2_00000114076121213344153550000000612849712278785720_">
		<path class="st8" d="M113.8,61.8h9.6c0,0,0.9,0.1,1.2,1.3c0.3,1.2,1.1,4.8,1.1,4.8s0.3,0.8-0.1,1.8s-0.8,2.1-0.8,2.1s-0.3,1-1.3,1
			s-9.6,0-9.6,0s-1.3-0.2-1.3-1.7s0-1.6,0-1.6v-6C112.4,63.4,112.4,62,113.8,61.8z"/>
		<rect x="113.7" y="63.1" class="st9" width="2.9" height="5.4"/>
		<rect x="117.4" y="63.1" class="st9" width="2.9" height="5.4"/>
		<polygon class="st9" points="121,63.1 123.2,63.1 124.4,68.5 121,68.5 		"/>
		<polygon class="st10" points="113.7,68.5 116.5,68.5 116.5,66.9 		"/>
		<polygon class="st10" points="117.4,68.5 117.4,66.4 120.2,64.9 120.2,68.5 		"/>
		<polygon class="st10" points="121,68.5 121,64.4 123.2,63.1 124.4,68.5 		"/>
	</g>
</g>
<g>
	<path class="st11" d="M56.5,174h-1c0,0-2.5-0.2-2.4,2.8v0.7c0,0-0.1,2.4,2.5,2.5h0.9v2.3h-1.3c0,0-4.4-0.2-4.4-4.5V176
		c0,0,0.4-4,4.3-4.2h1.4V174z"/>
	<path class="st12" d="M56,173.8c0,0-3.1-0.5-3.1,2.9v0.8c0,0-0.2,2.8,3.1,2.7c0,0,0.3-0.1,0.3,0.2s0,0.2,0,0.2s0,0.2-0.3,0.2
		s-0.7,0-0.7,0s-3-0.1-3.1-3.1v-1.5c0,0-0.1-3,3.1-3.1H56c0,0,0.2-0.1,0.2,0.2s0,0.2,0,0.2S56.2,173.8,56,173.8z"/>
	<path class="st13" d="M52.4,173.8c0,0-1,0.9-0.9,2.2c0,0,0,0.2-0.2,0.2s-0.2-0.2-0.2-0.2s-0.1-1.2,1-2.5c0,0,0.1-0.1,0.2,0
		C52.6,173.6,52.4,173.8,52.4,173.8z"/>
	<path class="st13" d="M51.2,177v-0.3c0-0.1,0.1-0.2,0.2-0.2l0,0c0.1,0,0.2,0.1,0.2,0.2v0.3c0,0.1-0.1,0.2-0.2,0.2l0,0
		C51.3,177.2,51.2,177.1,51.2,177z"/>
	<path class="st14" d="M57.1,171L57.1,171c0.4,0,0.7,0.3,0.7,0.7v2.5c0,0.4-0.3,0.7-0.7,0.7l0,0c-0.4,0-0.7-0.3-0.7-0.7v-2.5
		C56.5,171.3,56.8,171,57.1,171z"/>
	<path class="st14" d="M57.1,179.2L57.1,179.2c0.4,0,0.7,0.3,0.7,0.7v2.5c0,0.4-0.3,0.7-0.7,0.7l0,0c-0.4,0-0.7-0.3-0.7-0.7v-2.5
		C56.5,179.5,56.8,179.2,57.1,179.2z"/>
</g>
<g>
	<rect x="325.6" y="273.7" class="st11" width="37.1" height="2.9"/>
	<path class="st12" d="M360.9,276.2h-33.6c-0.4,0-0.8-0.3-0.8-0.8v-0.2h35.3l0,0C361.9,275.8,361.4,276.2,360.9,276.2z"/>
	<path class="st0" d="M334.4,274.7h-7c-0.1,0-0.2-0.1-0.2-0.2l0,0c0-0.1,0.1-0.2,0.2-0.2h7c0.1,0,0.2,0.1,0.2,0.2l0,0
		C334.6,274.6,334.5,274.7,334.4,274.7z"/>
	<path class="st0" d="M336,274.7h-0.9c-0.1,0-0.2-0.1-0.2-0.2l0,0c0-0.1,0.1-0.2,0.2-0.2h0.9c0.1,0,0.2,0.1,0.2,0.2l0,0
		C336.3,274.6,336.2,274.7,336,274.7z"/>
	<path class="st14" d="M363,277.5L363,277.5c-0.4,0-0.8-0.3-0.8-0.8v-3.1c0-0.4,0.3-0.8,0.8-0.8l0,0c0.4,0,0.8,0.3,0.8,0.8v3.1
		C363.7,277.2,363.4,277.5,363,277.5z"/>
	<path class="st14" d="M325.6,277.5L325.6,277.5c-0.4,0-0.8-0.3-0.8-0.8v-3.1c0-0.4,0.3-0.8,0.8-0.8l0,0c0.4,0,0.8,0.3,0.8,0.8v3.1
		C326.3,277.1,326,277.5,325.6,277.5z"/>
</g>
<g>
	<path class="st11" d="M323.3,276.5v-2.8c0,0-2.4,0.3-3-0.6c-0.7-0.8-1.2-1-1.1-3.7h-2.8c0,0-0.2,1.9,0.2,2.8
		c0.3,0.9,0.6,1.9,1.7,2.8s1.4,1.1,2.9,1.4C321.2,276.5,321.5,276.6,323.3,276.5z"/>
	<path class="st12" d="M322.9,274.6c0,0,0.1,0.2-0.2,0.2c-0.3,0-1.2,0-1.2,0s-3.2,0.1-3.4-3.3V270c0,0,0-0.1,0.1-0.1s0.5,0,0.5,0
		s0.2,0,0.2,0.2s0,1.4,0,1.4s0.1,2,2.6,2.5h1.2c0,0,0.2,0,0.2,0.2S322.9,274.6,322.9,274.6z"/>
	<path class="st15" d="M318.2,274.3c0,0-1.2-1.3-1.2-3.1c0,0,0-0.2,0.1-0.2s0.2,0,0.2,0.2c0,0.1,0,0.4,0.1,1s0.5,1.3,0.9,1.7
		c0,0,0.2,0.1,0.1,0.3C318.4,274.5,318.3,274.4,318.2,274.3z"/>
	<path class="st15" d="M317.3,270.1v0.5c0,0.1-0.1,0.2-0.2,0.2l0,0c-0.1,0-0.2-0.1-0.2-0.2v-0.5c0-0.1,0.1-0.2,0.2-0.2l0,0
		C317.2,270,317.3,270,317.3,270.1z"/>
	<path class="st14" d="M320.1,268.7L320.1,268.7c0,0.4-0.4,0.8-0.8,0.8h-3c-0.4,0-0.8-0.4-0.8-0.8l0,0c0-0.4,0.4-0.8,0.8-0.8h3
		C319.7,267.9,320.1,268.3,320.1,268.7z"/>
	<path class="st14" d="M324,277.4L324,277.4c-0.4,0-0.8-0.4-0.8-0.8v-3c0-0.4,0.4-0.8,0.8-0.8l0,0c0.4,0,0.8,0.4,0.8,0.8v3
		C324.8,277.1,324.5,277.4,324,277.4z"/>
</g>
<g>
	<path class="st11" d="M372.6,269.5h-2.9c0,0,0.3,2.4-0.6,3.1s-1,1.2-3.8,1.1v2.9c0,0,2,0.2,2.9-0.2s2-0.6,2.9-1.8s1.1-1.5,1.4-3
		C372.6,271.7,372.7,271.3,372.6,269.5z"/>
	<path class="st12" d="M370.7,269.9c0,0,0.2-0.1,0.2,0.2s0,1.2,0,1.2s0.1,3.3-3.4,3.5h-1.6c0,0-0.1,0-0.1-0.1s0-0.5,0-0.5
		s0-0.2,0.2-0.2s1.5,0,1.5,0s2.1-0.1,2.6-2.7v-1.2c0,0,0-0.2,0.2-0.2C370.4,269.9,370.7,269.9,370.7,269.9z"/>
	<path class="st15" d="M370.4,274.7c0,0-1.4,1.3-3.2,1.3c0,0-0.2,0-0.2-0.1s0-0.2,0.2-0.2c0.1,0,0.4,0,1-0.1
		c0.6-0.2,1.4-0.5,1.8-0.9c0,0,0.1-0.2,0.4-0.1S370.4,274.7,370.4,274.7z"/>
	<path class="st15" d="M366.1,275.7h0.5c0.1,0,0.2,0.1,0.2,0.2l0,0c0,0.1-0.1,0.2-0.2,0.2h-0.5c-0.1,0-0.2-0.1-0.2-0.2l0,0
		C365.9,275.7,366,275.7,366.1,275.7z"/>
	<path class="st14" d="M364.5,272.8L364.5,272.8c0.5,0,0.8,0.4,0.8,0.8v3.2c0,0.4-0.4,0.8-0.8,0.8l0,0c-0.4,0-0.8-0.4-0.8-0.8v-3.2
		C363.7,273.2,364.1,272.8,364.5,272.8z"/>
	<path class="st14" d="M373.6,268.7L373.6,268.7c0,0.5-0.4,0.8-0.8,0.8h-3.2c-0.4,0-0.8-0.4-0.8-0.8l0,0c0-0.4,0.4-0.8,0.8-0.8h3.2
		C373.2,267.9,373.6,268.3,373.6,268.7z"/>
</g>
<g>
	<path class="st11" d="M463,232.1h1.8c0,0,2.5,0.1,2.5,3.4c0,0,0.1,1.4-0.2,2c-0.3,0.6-1.2,1.7-2.5,1.7c-1.2,0-11.8,0-11.8,0v2.8
		h11.5c0,0,5.2,0,5.9-5.2v-2.6c0,0-0.8-4.5-4.8-5H463V232.1z"/>
	<path class="st14" d="M462.1,228.3h0.6c0.3,0,0.5,0.2,0.5,0.5v3.7c0,0.3-0.2,0.5-0.5,0.5h-0.6c-0.3,0-0.5-0.2-0.5-0.5v-3.7
		C461.7,228.5,461.9,228.3,462.1,228.3z"/>
	<path class="st14" d="M451.9,238.2h0.5c0.3,0,0.5,0.2,0.5,0.5v3.5c0,0.3-0.2,0.5-0.5,0.5h-0.5c-0.3,0-0.5-0.2-0.5-0.5v-3.5
		C451.4,238.4,451.6,238.2,451.9,238.2z"/>
	<path class="st12" d="M463.6,231.1v0.5c0,0,0,0.2,0.1,0.2s1.3,0,1.3,0s2.5,0.4,2.5,2.7s0,2.4,0,2.4s0,1-0.8,1.8s-1.5,0.9-1.5,0.9
		s-0.3,0.1-1,0.1s-10.8,0-10.8,0s-0.2,0-0.2,0.1s0,0.5,0,0.5s0,0.2,0.1,0.2s11.6,0,11.6,0s3.3-0.3,3.3-3.6v-2.1c0,0,0.1-3-3.1-3.6
		h-1.6C463.7,231,463.6,231,463.6,231.1z"/>
	<path class="st16" d="M468.1,231.7c0,0,1,1,1.1,2.7v0.1c0,0,0,0.1,0.1,0.1s0.1-0.1,0.1-0.1s0.1-1.7-1.2-3.1c0,0-0.1-0.1-0.2,0
		C467.9,231.6,468.1,231.7,468.1,231.7z"/>
	<path class="st16" d="M469.2,235.7v-0.6c0-0.1,0-0.1,0.1-0.1h0.1c0.1,0,0.1,0,0.1,0.1v0.6c0,0.1,0,0.1-0.1,0.1L469.2,235.7
		C469.2,235.8,469.2,235.8,469.2,235.7z"/>
</g>
<g>
	<path class="st11" d="M460.1,232v-2.9c0,0-2.4,0.3-3.1-0.6s-1.2-1-1.1-3.8H453c0,0-0.2,2,0.2,2.9s0.6,2,1.8,2.9
		c1.2,0.9,1.5,1.1,3,1.4C457.9,231.9,458.2,232.1,460.1,232z"/>
	<path class="st12" d="M459.7,230c0,0,0.1,0.2-0.2,0.2c-0.3,0-1.2,0-1.2,0s-3.3,0.1-3.5-3.4v-1.6c0,0,0-0.1,0.1-0.1s0.5,0,0.5,0
		s0.2,0,0.2,0.2s0,1.5,0,1.5s0.1,2.1,2.7,2.6h1.2c0,0,0.2,0,0.2,0.2S459.7,230,459.7,230z"/>
	<path class="st15" d="M454.8,229.7c0,0-1.3-1.4-1.3-3.2c0,0,0-0.2,0.1-0.2s0.2,0,0.2,0.2c0,0.1,0,0.4,0.1,1
		c0.2,0.6,0.5,1.4,0.9,1.8c0,0,0.2,0.1,0.1,0.4S454.9,229.8,454.8,229.7z"/>
	<path class="st15" d="M453.9,225.4v0.5c0,0.1-0.1,0.2-0.2,0.2l0,0c-0.1,0-0.2-0.1-0.2-0.2v-0.5c0-0.1,0.1-0.2,0.2-0.2l0,0
		C453.8,225.3,453.9,225.3,453.9,225.4z"/>
	<path class="st14" d="M456.7,223.9L456.7,223.9c0,0.5-0.4,0.8-0.8,0.8h-3.2c-0.4,0-0.8-0.4-0.8-0.8l0,0c0-0.4,0.4-0.8,0.8-0.8h3.2
		C456.4,223.1,456.7,223.5,456.7,223.9z"/>
	<path class="st14" d="M460.9,232.9L460.9,232.9c-0.5,0-0.8-0.4-0.8-0.8V229c0-0.4,0.4-0.8,0.8-0.8l0,0c0.4,0,0.8,0.4,0.8,0.8v3.2
		C461.7,232.6,461.3,232.9,460.9,232.9z"/>
</g>
<g>
	<path class="st11" d="M452.9,221.6h2.9c0,0-0.3-2.4,0.6-3.1c0.9-0.7,1-1.2,3.8-1.1v-2.9c0,0-2-0.2-2.9,0.2s-2,0.6-2.9,1.8
		s-1.1,1.5-1.4,3C453,219.3,452.8,219.7,452.9,221.6z"/>
	<path class="st12" d="M454.9,221.1c0,0-0.2,0.1-0.2-0.2s0-1.2,0-1.2s-0.1-3.3,3.4-3.5h1.6c0,0,0.1,0,0.1,0.1s0,0.5,0,0.5
		s0,0.2-0.2,0.2s-1.5,0-1.5,0s-2.1,0.1-2.6,2.7v1.2c0,0,0,0.2-0.2,0.2C455.2,221.1,454.9,221.1,454.9,221.1z"/>
	<path class="st15" d="M455.2,216.3c0,0,1.4-1.3,3.2-1.3c0,0,0.2,0,0.2,0.1s0,0.2-0.2,0.2c-0.1,0-0.4,0-1,0.1
		c-0.6,0.2-1.4,0.5-1.8,0.9c0,0-0.1,0.2-0.4,0.1C455,216.5,455.1,216.4,455.2,216.3z"/>
	<path class="st15" d="M459.5,215.4H459c-0.1,0-0.2-0.1-0.2-0.2l0,0c0-0.1,0.1-0.2,0.2-0.2h0.5c0.1,0,0.2,0.1,0.2,0.2l0,0
		C459.7,215.3,459.6,215.4,459.5,215.4z"/>
	<path class="st14" d="M461,218.2L461,218.2c-0.5,0-0.8-0.4-0.8-0.8v-3.2c0-0.4,0.4-0.8,0.8-0.8l0,0c0.4,0,0.8,0.4,0.8,0.8v3.2
		C461.8,217.9,461.4,218.2,461,218.2z"/>
	<path class="st14" d="M452,222.3L452,222.3c0-0.5,0.4-0.8,0.8-0.8h3.2c0.4,0,0.8,0.4,0.8,0.8l0,0c0,0.4-0.4,0.8-0.8,0.8h-3.2
		C452.3,223.1,452,222.8,452,222.3z"/>
</g>
<g>
	<path class="st11" d="M470.6,210.1h-2.9c0,0,0.3,2.4-0.6,3.1c-0.9,0.7-1,1.2-3.8,1.1v2.9c0,0,2,0.2,2.9-0.2s2-0.6,2.9-1.8
		s1.1-1.5,1.4-3C470.5,212.3,470.6,211.9,470.6,210.1z"/>
	<path class="st12" d="M468.6,210.5c0,0,0.2-0.1,0.2,0.2s0,1.2,0,1.2s0.1,3.3-3.4,3.5h-1.6c0,0-0.1,0-0.1-0.1s0-0.5,0-0.5
		s0-0.2,0.2-0.2s1.5,0,1.5,0s2.1-0.1,2.6-2.7v-1.2c0,0,0-0.2,0.2-0.2C468.3,210.5,468.6,210.5,468.6,210.5z"/>
	<path class="st15" d="M468.3,215.4c0,0-1.4,1.3-3.2,1.3c0,0-0.2,0-0.2-0.1s0-0.2,0.2-0.2c0.1,0,0.4,0,1-0.1
		c0.6-0.2,1.4-0.5,1.8-0.9c0,0,0.1-0.2,0.4-0.1C468.4,215.1,468.3,215.3,468.3,215.4z"/>
	<path class="st15" d="M464,216.3h0.5c0.1,0,0.2,0.1,0.2,0.2l0,0c0,0.1-0.1,0.2-0.2,0.2H464c-0.1,0-0.2-0.1-0.2-0.2l0,0
		C463.8,216.4,463.9,216.3,464,216.3z"/>
	<path class="st14" d="M462.4,213.4L462.4,213.4c0.5,0,0.8,0.4,0.8,0.8v3.2c0,0.4-0.4,0.8-0.8,0.8l0,0c-0.4,0-0.8-0.4-0.8-0.8v-3.2
		C461.7,213.8,462,213.4,462.4,213.4z"/>
	<path class="st14" d="M471.5,209.3L471.5,209.3c0,0.5-0.4,0.8-0.8,0.8h-3.2c-0.4,0-0.8-0.4-0.8-0.8l0,0c0-0.4,0.4-0.8,0.8-0.8h3.2
		C471.1,208.5,471.5,208.9,471.5,209.3z"/>
</g>
<g>
	<rect x="467.7" y="189.8" class="st11" width="2.9" height="17.5"/>
	<path class="st12" d="M468.1,206.1v-15c0-0.4,0.3-0.8,0.8-0.8h0.2V207l0,0C468.5,207,468.1,206.6,468.1,206.1z"/>
	<path class="st0" d="M469.6,193.9v-3c0-0.1,0.1-0.2,0.2-0.2l0,0c0.1,0,0.2,0.1,0.2,0.2v3c0,0.1-0.1,0.2-0.2,0.2l0,0
		C469.7,194.1,469.6,194,469.6,193.9z"/>
	<path class="st0" d="M469.6,194.7v-0.2c0-0.1,0.1-0.2,0.2-0.2l0,0c0.1,0,0.2,0.1,0.2,0.2v0.2c0,0.1-0.1,0.2-0.2,0.2l0,0
		C469.7,194.9,469.6,194.8,469.6,194.7z"/>
	<path class="st14" d="M466.7,207.8L466.7,207.8c0-0.5,0.3-0.8,0.8-0.8h3.2c0.4,0,0.8,0.3,0.8,0.8l0,0c0,0.4-0.3,0.8-0.8,0.8h-3.2
		C467.1,208.5,466.7,208.2,466.7,207.8z"/>
	<path class="st14" d="M466.8,189.3L466.8,189.3c0-0.5,0.3-0.8,0.8-0.8h3.2c0.4,0,0.8,0.3,0.8,0.8l0,0c0,0.4-0.3,0.8-0.8,0.8h-3.2
		C467.2,190.1,466.8,189.7,466.8,189.3z"/>
</g>
<g>
	<path class="st11" d="M463.5,179.7v2.9c0,0,2.4-0.3,3.1,0.6c0.7,0.9,1.2,1,1.1,3.8h2.9c0,0,0.2-2-0.2-2.9s-0.6-2-1.8-2.9
		s-1.5-1.1-3-1.4C465.8,179.8,465.4,179.6,463.5,179.7z"/>
	<path class="st12" d="M464,181.7c0,0-0.1-0.2,0.2-0.2s1.2,0,1.2,0s3.3-0.1,3.5,3.4v1.6c0,0,0,0.1-0.1,0.1s-0.5,0-0.5,0
		s-0.2,0-0.2-0.2s0-1.5,0-1.5s-0.1-2.1-2.7-2.6h-1.2c0,0-0.2,0-0.2-0.2C464,182,464,181.7,464,181.7z"/>
	<path class="st15" d="M468.8,182c0,0,1.3,1.4,1.3,3.2c0,0,0,0.2-0.1,0.2s-0.2,0-0.2-0.2c0-0.1,0-0.4-0.1-1
		c-0.2-0.6-0.5-1.4-0.9-1.8c0,0-0.2-0.1-0.1-0.4C468.6,181.8,468.7,181.9,468.8,182z"/>
	<path class="st15" d="M469.7,186.3v-0.5c0-0.1,0.1-0.2,0.2-0.2l0,0c0.1,0,0.2,0.1,0.2,0.2v0.5c0,0.1-0.1,0.2-0.2,0.2l0,0
		C469.8,186.5,469.7,186.4,469.7,186.3z"/>
	<path class="st14" d="M466.9,187.8L466.9,187.8c0-0.5,0.4-0.8,0.8-0.8h3.2c0.4,0,0.8,0.4,0.8,0.8l0,0c0,0.4-0.4,0.8-0.8,0.8h-3.2
		C467.3,188.6,466.9,188.2,466.9,187.8z"/>
	<path class="st14" d="M462.8,178.8L462.8,178.8c0.5,0,0.8,0.4,0.8,0.8v3.2c0,0.4-0.4,0.8-0.8,0.8l0,0c-0.4,0-0.8-0.4-0.8-0.8v-3.2
		C462,179.1,462.3,178.8,462.8,178.8z"/>
</g>
<g>
	<rect x="452.7" y="179.7" class="st11" width="8.4" height="3"/>
	<path class="st12" d="M459.3,182.3h-5.4c-0.4,0-0.8-0.3-0.8-0.8v-0.2h7.1l0,0C460.3,181.9,459.9,182.3,459.3,182.3z"/>
	<path class="st0" d="M454.6,180.7h-1.2c-0.1,0-0.2-0.1-0.2-0.2l0,0c0-0.1,0.1-0.2,0.2-0.2h1.2c0.1,0,0.2,0.1,0.2,0.2l0,0
		C454.8,180.6,454.7,180.7,454.6,180.7z"/>
	<path class="st0" d="M455,180.7L455,180.7c-0.1,0-0.2-0.1-0.2-0.2v-0.2c0-0.1,0.1-0.2,0.2-0.2l0,0c0.1,0,0.2,0.1,0.2,0.2v0.2
		C455.2,180.7,455.1,180.7,455,180.7z"/>
	<path class="st14" d="M461.4,183.6L461.4,183.6c-0.5,0-0.8-0.3-0.8-0.8v-3.3c0-0.4,0.3-0.8,0.8-0.8h0.1c0.4,0,0.8,0.3,0.8,0.8v3.3
		C462.2,183.3,461.8,183.6,461.4,183.6z"/>
	<path class="st14" d="M452.2,183.6L452.2,183.6c-0.5,0-0.8-0.3-0.8-0.8v-3.3c0-0.4,0.3-0.8,0.8-0.8h0.1c0.4,0,0.8,0.3,0.8,0.8v3.3
		C453,183.2,452.6,183.6,452.2,183.6z"/>
</g>
<g>
	<path class="st17" d="M410.9,101.6c0,0-0.1-2.1,1.1-4c0,0-3.1-2.2-1.1-4.2c0,0-3.4-5.2,2.1-6.1c0,0-0.5-0.9,0.8-0.9
		c0,0-1.5-5.9,4.7-5.2c0,0,0-1.2,1.7-0.8c0,0-0.2-3.3,2.4-2.5c0,0,0.5-3.1,4-2c0,0,0.8-1.5,1.9-0.8c0,0,1.5-2.8,4.9-0.3
		c0,0,3.4-5.8,7.5-0.4c0,0,4.7-0.8,4.4,2.6c-0.2,3.4-2.1,3.5-3.8,3.3c0,0-0.6,4.4-5.1,2.3c0,0,0.4,1.5-1.6,1.2c0,0-0.6,4-5.4,2
		c0,0-0.2,1.1-2.6,0.7c0,0,1.6,2.1-3,1.8c0,0,0.8,0.8-0.5,0.7c0,0,1.2,1.7-0.9,2.6c0,0,3,5.7-2.9,5.7c0,0,0.3,3.7-3.8,2.8v1.4h-4.8
		V101.6z"/>
	<path class="st18" d="M414.7,101.8c0,0,0.3-1,0-2c0,0,4.1,0.5,3.8-2.6c0,0,6.2-0.7,2.9-5.5c0,0,2-1.1,1-3.3c0,0,5.8-0.9,4.1-2.1
		c0,0,2.6,0,2.4-1.1c0,0,4.7,1.4,5.1-1.5c0,0,0-0.7,0.5-0.7s1.5,0.6,1.7-0.6c0,0,4.7,1.4,4.8-2.4c0,0,6.7-0.1,2.7-5.4
		c-3.9-5.4,0,0,0,0s2.2,0.6,1.8,2.5c-0.4,1.8-0.4,3.9-3.8,3.3s0,0,0,0s0.1,4.2-5.1,2.3c-5.2-1.9,0,0,0,0s0.3,1.2-1.6,1.2s0,0,0,0
		s-0.4,3.9-5.4,2c-4.9-1.9,0,0,0,0s-0.5,1.1-2.6,0.7s0,0,0,0s1.6,2-3,1.8s0,0,0,0s0.6,0.7-0.5,0.7s0,0,0,0s1.2,1.8-0.9,2.6
		c-2.1,0.8,0,0,0,0s3.3,5.2-2.9,5.7c-6.2,0.4,0,0,0,0s0.5,3.7-3.8,2.8c-4.2-0.9,0,0,0,0l-0.1,1.6H414.7z"/>
	<rect x="410.6" y="101.4" class="st19" width="5.5" height="40.4"/>
	<rect x="410.6" y="101.4" class="st20" width="5.5" height="8.8"/>
	<rect x="410.6" y="119" class="st20" width="5.5" height="9.9"/>
	<rect x="410.6" y="137.9" class="st20" width="5.5" height="4"/>
	<polygon class="st21" points="410,128.9 416.7,128.9 416.1,127.7 410.6,127.7 	"/>
	<polygon class="st21" points="410,110.1 416.7,110.1 416.1,108.8 410.6,108.8 	"/>
	<path class="st0" d="M418.2,143.4h-9.6l0,0c0-0.8,0.7-1.5,1.5-1.5h6.6C417.5,141.9,418.2,142.6,418.2,143.4L418.2,143.4z"/>
</g>
<g>
	<path class="st17" d="M397.3,101.6c0,0-0.1-2.1,1.1-4c0,0-3.1-2.2-1.1-4.2c0,0-3.4-5.2,2.1-6.1c0,0-0.5-0.9,0.8-0.9
		c0,0-1.5-5.9,4.7-5.2c0,0,0-1.2,1.7-0.8c0,0-0.2-3.3,2.4-2.5c0,0,0.5-3.1,4-2c0,0,0.8-1.5,1.9-0.8c0,0,1.5-2.8,4.9-0.3
		c0,0,3.4-5.8,7.5-0.4c0,0,4.7-0.8,4.4,2.6c-0.2,3.4-2.1,3.5-3.8,3.3c0,0-0.6,4.4-5.1,2.3c0,0,0.4,1.5-1.6,1.2c0,0-0.6,4-5.4,2
		c0,0-0.2,1.1-2.6,0.7c0,0,1.6,2.1-3,1.8c0,0,0.8,0.8-0.5,0.7c0,0,1.2,1.7-0.9,2.6c0,0,3,5.7-2.9,5.7c0,0,0.3,3.7-3.8,2.8v1.4h-4.8
		V101.6z"/>
	<path class="st18" d="M401.1,101.8c0,0,0.3-1,0-2c0,0,4.1,0.5,3.8-2.6c0,0,6.2-0.7,2.9-5.5c0,0,2-1.1,1-3.3c0,0,5.8-0.9,4.1-2.1
		c0,0,2.6,0,2.4-1.1c0,0,4.7,1.4,5.1-1.5c0,0,0-0.7,0.5-0.7s1.5,0.6,1.7-0.6c0,0,4.7,1.4,4.8-2.4c0,0,6.7-0.1,2.7-5.4
		c-3.9-5.4,0,0,0,0s2.2,0.6,1.8,2.5c-0.4,1.8-0.4,3.9-3.8,3.3s0,0,0,0s0.1,4.2-5.1,2.3c-5.2-1.9,0,0,0,0s0.3,1.2-1.6,1.2s0,0,0,0
		s-0.4,3.9-5.4,2c-4.9-1.9,0,0,0,0s-0.5,1.1-2.6,0.7s0,0,0,0s1.6,2-3,1.8s0,0,0,0s0.6,0.7-0.5,0.7s0,0,0,0s1.2,1.8-0.9,2.6s0,0,0,0
		s3.3,5.2-2.9,5.7c-6.2,0.4,0,0,0,0s0.5,3.7-3.8,2.8s0,0,0,0l-0.1,1.6H401.1z"/>
	<rect x="397" y="101.4" class="st19" width="5.5" height="40.4"/>
	<rect x="397" y="101.4" class="st20" width="5.5" height="8.8"/>
	<rect x="397" y="119" class="st20" width="5.5" height="9.9"/>
	<rect x="397" y="137.9" class="st20" width="5.5" height="4"/>
	<polygon class="st21" points="396.4,128.9 403.1,128.9 402.5,127.7 397,127.7 	"/>
	<polygon class="st21" points="396.4,110.1 403.1,110.1 402.5,108.8 397,108.8 	"/>
	<path class="st0" d="M404.6,143.4H395l0,0c0-0.8,0.7-1.5,1.5-1.5h6.6C403.9,141.9,404.6,142.6,404.6,143.4L404.6,143.4z"/>
</g>
<g>
	<g>
		<circle class="st22" cx="219.9" cy="139" r="4.4"/>
		<ellipse class="st23" cx="219.8" cy="139" rx="2.7" ry="2.8"/>
	</g>
	<path class="st24" d="M203.9,124.6c0,0-2-1.3-0.8-1.2s2.2,0,2.2,0v0.5h1.2v-0.5h7.6c0,0,0.4-0.1,1.3,1.1l0,0.3L203.9,124.6z"/>
	<g>
		<path class="st24" d="M200.2,140.6h-1.6c0,0-0.9-0.1-0.9-1.3s0-1.9,0-1.9s0-0.5-0.5-0.6s-0.7-1.3-0.3-1.8c0.4-0.5,0.7-1.3,1.5-1.2
			v-1.7c0,0-0.5,0.1-0.4-0.4c0.1-0.5,0.4-0.3,0.4-0.3l2.6,0c0,0,0.1-0.3,0.5-0.3c0.4,0,1.9,0,1.9,0s0.5,0,0.6,0.3
			c0.1,0.2,0.7,1.4,0.7,1.4l2.1,0.4l2.3,1.1l4.1-0.3l0.3-0.9l1,0c0,0,0.7,0,0.8,0.6c0,0.5,0,1.6,0,1.6s0.1,0.7-0.8,0.7l-0.4,0v0.6
			c0,0,0.7,0.1,0.8,0.8l3.6,0l-0.4-0.5c0,0-0.2-0.2,0.2-0.4l0.2-0.2c0,0,0.3-0.3,0.5,0.1c0.2,0.4,0.3,0.5,0.3,0.5s0.7-0.4,1.1,0
			l0.4-0.5c0,0,0.1-0.3,0.4,0s0.1,0.1,0.1,0.1s0.3,0.2,0,0.5l-0.4,0.4h3.2c0,0,0.6,0,0.7,1c0,1-0.1,2.6-1.3,2.9c0,0,0.4-0.4,0.4-1.1
			l-2.6,0c0,0-0.1,0.3-0.5,0.4l0.4,0.3c0,0,0.3,0.1,0.1,0.3c0,0-0.3,0.4-0.6,0.1l-0.3-0.4c0,0-0.7,0.5-1.4,0l-0.3,0.4
			c0,0-0.2,0.3-0.5,0.1c-0.3-0.2,0.1-0.6,0.1-0.6l0.2-0.3c0,0-0.4-0.2-0.4-0.3l-2.5,0c0,0,0.1,0.8,0.5,1.1c0,0-0.2,0.5-2.1-1.6
			l-5.6,0L200.2,140.6z"/>
		<polygon class="st23" points="198.4,133.8 198.4,132.1 200.4,132.1 199.2,133.8 		"/>
		<polygon class="st23" points="201.5,131.1 203.3,131.1 203.3,130.8 202.7,130.8 202.7,129 201.1,128 201.1,128.7 202,129.3 
			202,130.8 201.5,130.8 		"/>
		<rect x="216.8" y="137.7" class="st23" width="0.8" height="2.3"/>
		<path class="st23" d="M199.2,138.6v1.1h-2.7v1c0,0-0.4,0.6-0.6,0c-0.1-0.2,0-0.9,0-0.9s-0.5-0.1-0.4-0.7c0.1-0.6,0.4-0.5,0.4-0.5
			l0-0.3c0,0,0.3-0.4,0.6,0v0.3L199.2,138.6z"/>
		<rect x="201.5" y="131.7" class="st23" width="2.2" height="1.3"/>
		<path class="st23" d="M215.2,133.9c0,0,0-0.3-0.2-0.3c-0.3,0-0.3,0.3-0.3,0.3v0.8c0,0,0,0.3,0.2,0.3c0.3,0,0.3-0.2,0.2-0.3
			c0-0.1,0-0.2,0-0.2s0.8,0.2,0.9-1.2c0,0,0.3,0.1,0.3,0s-0.2-1.2,0-1.8c0,0-0.3-0.1-0.5,0.3c0,0-0.1,0.7,0,1c0,0,0.1,1.1-0.7,1.3
			L215.2,133.9z"/>
	</g>
	<g>
		<path class="st23" d="M213.2,123.3h-1.8l0,0c0-0.2,0.2-0.4,0.4-0.4h1C213,122.9,213.2,123.1,213.2,123.3L213.2,123.3z"/>
		<path class="st25" d="M211.6,122.9v-1c0,0,0.1-0.5,0.7-0.5c0.6,0,0.6,0.5,0.6,0.5v1H211.6z"/>
	</g>
	<g>
		<path class="st23" d="M204.2,133.5v-8.3h-0.4c0,0-0.5-0.3,0-0.7h11.5c0,0,0.5,0.1,0.2,0.6l1.3,1.1v2.7l-0.5,0.4l-0.1-0.5l0.3-0.2
			v-2l-1.3-1.2l-1.5,0l0.1,9.8H209l-3.1-1.5L204.2,133.5z"/>
		<rect x="207.7" y="125.4" class="st0" width="5.5" height="4.5"/>
		<rect x="204.8" y="125.4" class="st0" width="2.2" height="5.4"/>
		<rect x="207.7" y="130.3" class="st0" width="4.7" height="3.2"/>
		<rect x="212.4" y="132.3" class="st0" width="0.8" height="1.2"/>
		<rect x="212.7" y="130.3" class="st26" width="0.5" height="1.8"/>
		<rect x="204.8" y="131.1" class="st26" width="0.8" height="1.3"/>
		<rect x="206.3" y="131.1" class="st26" width="0.8" height="1.3"/>
		<rect x="205.6" y="131.9" class="st26" width="0.7" height="0.5"/>
	</g>
	<rect x="209.1" y="136" class="st0" width="4.4" height="0.8"/>
	<circle class="st23" cx="210.5" cy="138.3" r="0.6"/>
	<circle class="st23" cx="219.9" cy="139" r="0.9"/>
	<g>
		<circle class="st27" cx="204.3" cy="139" r="4.4"/>
		<ellipse class="st23" cx="204.2" cy="139" rx="2.7" ry="2.8"/>
	</g>
	<ellipse class="st24" cx="216.3" cy="132.4" rx="0.3" ry="0.9"/>
	<path class="st24" d="M216.3,127.2v2.4c0,0,0,0.2-0.7,0.5v-3.3C215.7,126.9,216.3,127.1,216.3,127.2z"/>
	<path class="st23" d="M215.3,127c0,0,0-0.3,0.4-0.1v3.3c0,0-0.4,0.3-0.4-0.1C215.3,129.7,215.3,127,215.3,127z"/>
</g>
<path class="st0" d="M220.9,143.4c0,0,1.2-0.4,1.5-0.7c0.4-0.3,0.4-0.4,0.6-0.3s0.8,0.5,1.1,0.4c0.3-0.1,0.7-0.3,0.9-0.1
	c0.1,0.1,0.4,0.5,0.8,0.2s0.6-1,0.9-0.7s0,0.7,0.2,0.8c0.2,0.1,1.1,0.2,1.5,0c0.4-0.3,0.4-0.5,0.8-0.2c0.4,0.2,0.3,0.3,0.6,0.2
	c0.3-0.1,0.6-0.2,1.1-0.2c0.5,0.1,0.6,0.2,0.9,0.3c0.3,0.1,1-0.3,1.1-0.3c0.2,0,0.7-0.4,0.8,0.2s0.6,0.4,0.6,0.4H220.9z"/>
</svg>
