<svg width="510" height="743" viewBox="0 0 510 743" fill="none" xmlns="http://www.w3.org/2000/svg">
<path d="M510 0H0.700012V742.13H510V0Z" fill="black"/>
<path d="M141.08 130.663C139.43 132.733 136.43 133.063 134.36 131.423L109.23 111.393C107.16 109.743 106.83 106.743 108.47 104.673C110.12 102.603 113.12 102.273 115.19 103.913L140.32 123.943C142.39 125.593 142.73 128.593 141.08 130.663Z" fill="#7FC395"/>
<path d="M150.97 109.593C153.81 108.853 155.51 105.943 154.77 103.103L149.77 83.9731C149.03 81.1331 146.12 79.4332 143.28 80.1732C140.44 80.9132 138.74 83.8231 139.48 86.6631L144.48 105.793C145.22 108.633 148.13 110.333 150.97 109.593Z" fill="#E4C620"/>
<path d="M166.08 124.723C168.52 126.333 171.81 125.663 173.42 123.223L189.29 99.1731C190.9 96.7331 190.23 93.4431 187.79 91.8331C185.35 90.2231 182.06 90.8931 180.45 93.3331L164.58 117.383C162.97 119.823 163.64 123.113 166.08 124.723Z" fill="#F798BB"/>
<path d="M436.37 277.553H73.23C64.82 277.553 58 270.733 58 262.323V168.173C58 159.763 64.82 152.943 73.23 152.943H436.37C444.78 152.943 451.6 159.763 451.6 168.173V262.323C451.59 270.733 444.78 277.553 436.37 277.553Z" fill="white"/>
<path d="M150.97 200.201C150.97 198.964 151.418 197.94 152.314 197.129C153.253 196.318 154.383 195.913 155.706 195.913H172.538C177.317 195.913 180.986 197.15 183.546 199.625C186.149 202.057 187.45 205.534 187.45 210.057C187.45 212.574 186.938 214.686 185.914 216.393C184.933 218.1 183.397 219.444 181.306 220.425V220.681C185.018 222.345 186.874 225.481 186.874 230.089V234.505C186.874 236.724 186.063 238.409 184.442 239.561C182.863 240.713 180.538 241.289 177.466 241.289V230.409C177.466 228.276 177.039 226.718 176.186 225.737C175.375 224.713 174.117 224.201 172.41 224.201H160.25V234.505C160.25 236.724 159.461 238.409 157.882 239.561C156.303 240.713 153.999 241.289 150.97 241.289V200.201ZM172.026 216.201C173.989 216.201 175.482 215.668 176.506 214.601C177.53 213.534 178.042 211.998 178.042 209.993C178.042 207.902 177.551 206.366 176.57 205.385C175.631 204.404 174.117 203.913 172.026 203.913H160.25V216.201H172.026ZM206.556 241.289C203.911 241.289 201.457 240.756 199.196 239.689C196.977 238.622 195.207 237.172 193.884 235.337C192.561 233.502 191.9 231.454 191.9 229.193V221.001C191.9 218.612 192.561 216.436 193.884 214.473C195.249 212.468 197.063 210.91 199.324 209.801C201.585 208.692 204.017 208.137 206.62 208.137C209.18 208.137 211.527 208.67 213.66 209.737C215.836 210.761 217.543 212.233 218.78 214.153C220.017 216.03 220.636 218.164 220.636 220.553V224.009C220.636 225.033 220.252 225.908 219.484 226.633C218.716 227.316 217.735 227.657 216.54 227.657H200.412V228.553C200.412 230.26 200.924 231.668 201.948 232.777C203.015 233.844 204.572 234.377 206.62 234.377C208.625 234.377 210.097 233.95 211.036 233.097C211.975 232.201 212.444 231.092 212.444 229.769C213.297 229.684 213.937 229.641 214.364 229.641C216.113 229.641 217.457 230.004 218.396 230.729C219.335 231.454 219.804 232.521 219.804 233.929C219.804 235.081 219.228 236.233 218.076 237.385C216.924 238.537 215.324 239.476 213.276 240.201C211.271 240.926 209.031 241.289 206.556 241.289ZM212.7 221.449V220.553C212.7 218.846 212.124 217.502 210.972 216.521C209.863 215.497 208.391 214.985 206.556 214.985C204.721 214.985 203.228 215.497 202.076 216.521C200.967 217.502 200.412 218.846 200.412 220.553V221.449H212.7ZM226.408 201.097C226.408 199.305 227.133 197.897 228.584 196.873C230.077 195.849 232.317 195.337 235.304 195.337V209.929C234.578 210.441 234.109 210.868 233.896 211.209L234.152 211.529C235.261 210.462 236.733 209.63 238.568 209.033C240.445 208.436 242.13 208.137 243.624 208.137C247.421 208.137 250.45 209.225 252.712 211.401C254.973 213.534 256.104 216.308 256.104 219.721V229.641C256.104 231.86 255.528 233.865 254.376 235.657C253.266 237.406 251.773 238.793 249.896 239.817C248.061 240.798 246.098 241.289 244.008 241.289C241.661 241.289 239.656 240.841 237.992 239.945C236.37 239.006 234.898 237.641 233.576 235.849L233.256 236.105C233.469 236.489 233.874 237.044 234.472 237.769C234.472 238.878 233.853 239.753 232.616 240.393C231.378 240.99 229.309 241.289 226.408 241.289V201.097ZM241.256 233.737C243.218 233.737 244.712 233.332 245.736 232.521C246.802 231.71 247.336 230.537 247.336 229.001V220.361C247.336 218.868 246.802 217.716 245.736 216.905C244.712 216.094 243.218 215.689 241.256 215.689C239.464 215.689 237.992 216.116 236.84 216.969C235.73 217.822 235.176 218.868 235.176 220.105V229.321C235.176 230.601 235.73 231.668 236.84 232.521C237.992 233.332 239.464 233.737 241.256 233.737ZM275.044 241.289C272.228 241.289 269.668 240.777 267.364 239.753C265.06 238.729 263.247 237.321 261.924 235.529C260.601 233.694 259.94 231.625 259.94 229.321V220.809C259.94 218.462 260.58 216.329 261.86 214.409C263.14 212.446 264.932 210.91 267.236 209.801C269.54 208.692 272.143 208.137 275.044 208.137C277.945 208.137 280.548 208.692 282.852 209.801C285.156 210.91 286.948 212.446 288.228 214.409C289.508 216.329 290.148 218.462 290.148 220.809V229.321C290.148 231.625 289.487 233.694 288.164 235.529C286.841 237.321 285.028 238.729 282.724 239.753C280.42 240.777 277.86 241.289 275.044 241.289ZM275.044 233.737C277.049 233.737 278.607 233.289 279.716 232.393C280.825 231.497 281.38 230.26 281.38 228.681V221.257C281.38 219.593 280.804 218.249 279.652 217.225C278.543 216.201 277.007 215.689 275.044 215.689C273.081 215.689 271.524 216.201 270.372 217.225C269.263 218.249 268.708 219.593 268.708 221.257V228.681C268.708 230.26 269.263 231.497 270.372 232.393C271.481 233.289 273.039 233.737 275.044 233.737ZM308.107 241.289C305.291 241.289 302.731 240.777 300.427 239.753C298.123 238.729 296.309 237.321 294.987 235.529C293.664 233.694 293.003 231.625 293.003 229.321V220.809C293.003 218.462 293.643 216.329 294.923 214.409C296.203 212.446 297.995 210.91 300.299 209.801C302.603 208.692 305.205 208.137 308.107 208.137C311.008 208.137 313.611 208.692 315.915 209.801C318.219 210.91 320.011 212.446 321.291 214.409C322.571 216.329 323.211 218.462 323.211 220.809V229.321C323.211 231.625 322.549 233.694 321.227 235.529C319.904 237.321 318.091 238.729 315.787 239.753C313.483 240.777 310.923 241.289 308.107 241.289ZM308.107 233.737C310.112 233.737 311.669 233.289 312.779 232.393C313.888 231.497 314.443 230.26 314.443 228.681V221.257C314.443 219.593 313.867 218.249 312.715 217.225C311.605 216.201 310.069 215.689 308.107 215.689C306.144 215.689 304.587 216.201 303.435 217.225C302.325 218.249 301.771 219.593 301.771 221.257V228.681C301.771 230.26 302.325 231.497 303.435 232.393C304.544 233.289 306.101 233.737 308.107 233.737ZM342.159 241.289C338.532 241.289 335.866 240.244 334.159 238.153C332.452 236.062 331.599 233.374 331.599 230.089V215.177H324.815C324.815 213.001 325.22 211.38 326.031 210.313C326.842 209.246 327.908 208.713 329.231 208.713H331.727V203.657C331.727 201.822 332.431 200.521 333.839 199.753C335.247 198.942 337.38 198.537 340.239 198.537V208.713H348.751C348.751 211.017 348.324 212.681 347.471 213.705C346.618 214.686 345.21 215.177 343.247 215.177H340.367V229.769C340.367 231.177 340.644 232.201 341.199 232.841C341.754 233.438 342.714 233.737 344.079 233.737C345.572 233.737 347.108 233.31 348.687 232.457C349.156 232.884 349.519 233.417 349.775 234.057C350.074 234.697 350.223 235.337 350.223 235.977C350.223 236.83 349.924 237.662 349.327 238.473C348.73 239.284 347.812 239.966 346.575 240.521C345.38 241.033 343.908 241.289 342.159 241.289Z" fill="black"/>
</svg>
