<?xml version="1.0" encoding="utf-8"?>
<!-- Generator: Adobe Illustrator 28.0.0, SVG Export Plug-In . SVG Version: 6.00 Build 0)  -->
<svg version="1.1" xmlns="http://www.w3.org/2000/svg" xmlns:xlink="http://www.w3.org/1999/xlink" x="0px" y="0px"
	 viewBox="0 0 509.85 741.11" style="enable-background:new 0 0 509.85 741.11;" xml:space="preserve">
<style type="text/css">
	.st0{fill:#7FC395;}
	.st1{fill:#E4C620;}
	.st2{fill:#F798BB;}
	.st3{fill:#FFFFFF;}
</style>
<g id="Calque_6">
	<rect width="509.3" height="742.13"/>
</g>
<g id="Rectangle">
	<path class="st0" d="M140.93,120.97L140.93,120.97c-1.65,2.07-4.65,2.4-6.72,0.76l-25.13-20.03c-2.07-1.65-2.4-4.65-0.76-6.72l0,0
		c1.65-2.07,4.65-2.4,6.72-0.76l25.13,20.03C142.24,115.9,142.58,118.91,140.93,120.97z"/>
	<path class="st1" d="M150.82,99.9L150.82,99.9c2.84-0.74,4.54-3.65,3.8-6.49l-5-19.13c-0.74-2.84-3.65-4.54-6.49-3.8v0
		c-2.84,0.74-4.54,3.65-3.8,6.49l5,19.13C145.08,98.94,147.98,100.64,150.82,99.9z"/>
	<path class="st2" d="M165.93,115.03L165.93,115.03c2.44,1.61,5.73,0.94,7.34-1.5l15.87-24.05c1.61-2.44,0.94-5.73-1.5-7.34v0
		c-2.44-1.61-5.73-0.94-7.34,1.5l-15.87,24.05C162.82,110.14,163.49,113.42,165.93,115.03z"/>
	<g id="Calque_5">
		<path class="st3" d="M425.3,267.86H84c-14.44,0-26.15-11.71-26.15-26.15V169.4c0-14.44,11.71-26.15,26.15-26.15h341.3
			c14.44,0,26.15,11.71,26.15,26.15v72.31C451.44,256.15,439.74,267.86,425.3,267.86z"/>
	</g>
</g>
</svg>
