<?xml version="1.0" encoding="utf-8"?>
<!-- Generator: Adobe Illustrator 28.0.0, SVG Export Plug-In . SVG Version: 6.00 Build 0)  -->
<svg version="1.1" xmlns="http://www.w3.org/2000/svg" xmlns:xlink="http://www.w3.org/1999/xlink" x="0px" y="0px"
	 viewBox="0 0 509.9 741.1" style="enable-background:new 0 0 509.9 741.1;" xml:space="preserve">
<style type="text/css">
	.st0{fill:#FFFFFF;}
	.st1{fill:#262C38;}
	.st2{fill:#FCC21F;}
	.st3{fill:#FBC31F;}
</style>
<g id="Calque_1">
	<g id="Calque_6">
		<rect width="509.3" height="742.1"/>
	</g>
	<g id="Rectangle">
		<g id="Calque_5">
			<path class="st0" d="M425.3,267.9H84c-14.4,0-26.2-11.7-26.2-26.1v-72.3c0-14.4,11.7-26.1,26.2-26.1h341.3
				c14.4,0,26.1,11.7,26.1,26.1v72.3C451.4,256.1,439.7,267.9,425.3,267.9z"/>
		</g>
	</g>
	
		<image style="overflow:visible;" width="2000" height="2000" xlink:href="99EEFB1D.jpg"  transform="matrix(5.124558e-02 0 0 5.124558e-02 77.384 45.3546)">
	</image>
</g>
<g id="Calque_3">
	<g>
		<g>
			<g>
				<g>
					<rect x="105.1" y="139.5" class="st1" width="26.6" height="2.3"/>
				</g>
				<rect x="110.8" y="135.1" class="st1" width="15.4" height="4.5"/>
				<g>
					<g>
						<polygon class="st2" points="118.8,139.5 116.7,139.5 119.9,136.3 122,136.3 						"/>
					</g>
					<g>
						<polygon class="st2" points="114.9,139.5 112.7,139.5 116,136.3 118.1,136.3 						"/>
					</g>
					<g>
						<polygon class="st2" points="122.7,139.5 120.6,139.5 123.9,136.3 126,136.3 						"/>
					</g>
					<polygon class="st2" points="124.6,139.5 126.2,139.5 126.2,137.9 					"/>
					<polygon class="st2" points="110.8,139.5 110.8,137.5 112,136.3 114.1,136.3 110.9,139.5 					"/>
				</g>
			</g>
			<rect x="114" y="71" class="st3" width="1.3" height="64.1"/>
			<rect x="121.6" y="71" class="st3" width="1.3" height="64.1"/>
			<g>
				<rect x="115.1" y="129.2" class="st3" width="6.8" height="1.1"/>
				
					<rect x="113.6" y="125.6" transform="matrix(0.7071 -0.7071 0.7071 0.7071 -54.418 120.8009)" class="st3" width="9.9" height="1.1"/>
				
					<rect x="113.6" y="110" transform="matrix(0.7071 -0.7071 0.7071 0.7071 -43.4402 116.2538)" class="st3" width="9.9" height="1.1"/>
				
					<rect x="113.7" y="94.5" transform="matrix(0.7071 -0.7071 0.7071 0.7071 -32.443 111.7502)" class="st3" width="9.9" height="1.1"/>
				
					<rect x="113.7" y="79.1" transform="matrix(0.7071 -0.7071 0.7071 0.7071 -21.5271 107.2418)" class="st3" width="9.9" height="1.1"/>
				
					<rect x="117.8" y="66.6" transform="matrix(0.7071 -0.7071 0.7071 0.7071 -15.954 104.6752)" class="st3" width="1.1" height="9.9"/>
				
					<rect x="117.8" y="82.2" transform="matrix(0.7071 -0.7071 0.7071 0.7071 -26.9995 109.2376)" class="st3" width="1.1" height="9.9"/>
				
					<rect x="117.8" y="97.7" transform="matrix(0.7071 -0.7071 0.7071 0.7071 -37.9232 113.7751)" class="st3" width="1.1" height="9.9"/>
				
					<rect x="117.7" y="113.1" transform="matrix(0.7071 -0.7071 0.7071 0.7071 -48.8336 118.1692)" class="st3" width="1.1" height="9.9"/>
				
					<rect x="117.7" y="128.4" transform="matrix(0.7071 -0.7071 0.7071 0.7071 -59.6865 122.6382)" class="st3" width="1.1" height="9.9"/>
				<rect x="115.1" y="121.5" class="st3" width="6.8" height="1.1"/>
				<rect x="115.1" y="113.7" class="st3" width="6.6" height="1.1"/>
				<rect x="115.3" y="105.9" class="st3" width="6.5" height="1.1"/>
				<rect x="115.1" y="98.2" class="st3" width="6.8" height="1.1"/>
				<rect x="114.9" y="90.5" class="st3" width="7.3" height="1.1"/>
				<rect x="115" y="82.8" class="st3" width="7.1" height="1.1"/>
				<rect x="114.9" y="75" class="st3" width="7.1" height="1.1"/>
			</g>
		</g>
	</g>
</g>
</svg>
