<?xml version="1.0" encoding="utf-8"?>
<!-- Generator: Adobe Illustrator 28.0.0, SVG Export Plug-In . SVG Version: 6.00 Build 0)  -->
<svg version="1.1" id="Calque_2" xmlns="http://www.w3.org/2000/svg" xmlns:xlink="http://www.w3.org/1999/xlink" x="0px" y="0px"
	 viewBox="0 0 278 420" style="enable-background:new 0 0 278 420;" xml:space="preserve">
<style type="text/css">
	.st0{fill:#4D5D79;}
	.st1{fill:#3C3C59;}
	.st2{fill:#414561;}
</style>
<path class="st0" d="M54,144c0-6.2,0.9-12.4,2.6-18.3c0-0.1,0-0.1,0.1-0.2c6.2-20.8,25.6-62.2,80.3-61.9
	c54.5,0.3,73.5,41.1,79.7,61.8c0,0.1,0.1,0.3,0.1,0.4c1.7,5.8,2.6,11.8,2.6,17.9l0.6,135.9c0,7.1-1.1,14.2-3.4,20.9
	c-7.1,21.1-27.4,61.5-77.6,61.5c-47.8,0-70.4-35.1-79.6-55.9c-3.6-8.1-5.4-17-5.4-25.9V144z"/>
<path class="st1" d="M83.8,333c0,0,0-123-26.8-208c0,0,13.7-60.9,79.4-61.5S216,123,216,123s-26.3,69-27.1,210
	C188.9,333,140.5,377,83.8,333z"/>
<path class="st0" d="M136.9,166c0,0-50.9,1-60.9-53V90.5l2.4-2.7L79,113c0,0,8,47.4,58,49.7c0,0,48,2.3,58-50.7V87.8l2.6,2.8
	L198,112C198,112,191.8,166,136.9,166z"/>
<g id="Calque_3">
</g>
<path class="st0" d="M134.8,162.6v-12.3c0,0-7.8-0.3-8.8-10.3V95c0,0,0.7-8.5,8.8-9.8V64.6l4.1,0v20.8c0,0,9,0.6,9,9.6v45
	c0,0,0,9-8,10l0,12.6C140,162.6,137.7,164.2,134.8,162.6z"/>
<g id="Calque_4">
</g>
<path class="st2" d="M129,94c0,0,6.9-13,15.9,0l0.1,46c0,0-7,14-16,0V94z"/>
</svg>
